M48
; DRILL file {KiCad (5.1.5)-3} date 6/8/2020 9:05:14 PM
; FORMAT={-:-/ absolute / inch / decimal}
; #@! TF.CreationDate,2020-06-08T21:05:14-04:00
; #@! TF.GenerationSoftware,Kicad,Pcbnew,(5.1.5)-3
; #@! TF.FileFunction,NonPlated,1,2,NPTH
FMAT,2
INCH
T1C0.0689
T2C0.1200
T3C0.1570
%
G90
G05
T1
X2.4562Y-5.125
X2.8562Y-5.125
X3.675Y-3.625
X4.075Y-3.625
X2.175Y-3.625
X2.575Y-3.625
X2.175Y-4.375
X2.575Y-4.375
X6.675Y-4.375
X7.075Y-4.375
X8.925Y-2.875
X9.325Y-2.875
X7.425Y-2.875
X7.825Y-2.875
X5.925Y-3.625
X6.325Y-3.625
X2.925Y-3.625
X3.325Y-3.625
X4.425Y-4.375
X4.825Y-4.375
X8.175Y-4.375
X8.575Y-4.375
X5.175Y-2.875
X5.575Y-2.875
X8.175Y-3.625
X8.575Y-3.625
X6.675Y-3.625
X7.075Y-3.625
X9.5812Y-5.125
X9.9812Y-5.125
X2.175Y-2.875
X2.575Y-2.875
X3.675Y-2.875
X4.075Y-2.875
X9.675Y-3.625
X10.075Y-3.625
X7.425Y-3.625
X7.825Y-3.625
X8.925Y-4.375
X9.325Y-4.375
X9.675Y-4.375
X10.075Y-4.375
X4.425Y-2.875
X4.825Y-2.875
X6.5812Y-5.125
X6.9813Y-5.125
X4.425Y-3.625
X4.825Y-3.625
X8.925Y-3.625
X9.325Y-3.625
X1.5188Y-5.125
X1.9187Y-5.125
X5.925Y-2.875
X6.325Y-2.875
X8.175Y-2.875
X8.575Y-2.875
X3.675Y-4.375
X4.075Y-4.375
X3.7687Y-5.125
X4.1688Y-5.125
X1.425Y-3.625
X1.825Y-3.625
X1.425Y-4.375
X1.825Y-4.375
X8.7375Y-5.125
X9.1375Y-5.125
X7.425Y-4.375
X7.825Y-4.375
X6.675Y-2.875
X7.075Y-2.875
X9.675Y-2.875
X10.075Y-2.875
X5.175Y-4.375
X5.575Y-4.375
X5.175Y-3.625
X5.575Y-3.625
X2.925Y-4.375
X3.325Y-4.375
X5.925Y-4.375
X6.325Y-4.375
X5.0812Y-5.125
X5.4813Y-5.125
X2.925Y-2.875
X3.325Y-2.875
X7.9875Y-5.125
X8.3875Y-5.125
X1.425Y-2.875
X1.825Y-2.875
T2
X6.3125Y-5.4
X7.25Y-5.4
X3.5Y-5.4
X4.4375Y-5.4
T3
X2.6562Y-5.125
X3.875Y-3.625
X2.375Y-3.625
X2.375Y-4.375
X6.875Y-4.375
X9.125Y-2.875
X7.625Y-2.875
X6.125Y-3.625
X3.125Y-3.625
X4.625Y-4.375
X8.375Y-4.375
X5.375Y-2.875
X8.375Y-3.625
X6.875Y-3.625
X9.7812Y-5.125
X2.375Y-2.875
X3.875Y-2.875
X9.875Y-3.625
X7.625Y-3.625
X9.125Y-4.375
X9.875Y-4.375
X4.625Y-2.875
X6.3125Y-4.8
X6.7812Y-5.125
X7.25Y-4.8
X4.625Y-3.625
X9.125Y-3.625
X1.7188Y-5.125
X6.125Y-2.875
X8.375Y-2.875
X3.875Y-4.375
X3.5Y-4.8
X3.9688Y-5.125
X4.4375Y-4.8
X1.625Y-3.625
X1.625Y-4.375
X8.9375Y-5.125
X7.625Y-4.375
X6.875Y-2.875
X9.875Y-2.875
X5.375Y-4.375
X5.375Y-3.625
X3.125Y-4.375
X6.125Y-4.375
X5.2812Y-5.125
X3.125Y-2.875
X8.1875Y-5.125
X1.625Y-2.875
T0
M30
