G04 #@! TF.GenerationSoftware,KiCad,Pcbnew,(5.1.5)-3*
G04 #@! TF.CreationDate,2020-06-08T21:07:07-04:00*
G04 #@! TF.ProjectId,Xen40,58656e34-302e-46b6-9963-61645f706362,rev?*
G04 #@! TF.SameCoordinates,Original*
G04 #@! TF.FileFunction,Copper,L2,Bot*
G04 #@! TF.FilePolarity,Positive*
%FSLAX46Y46*%
G04 Gerber Fmt 4.6, Leading zero omitted, Abs format (unit mm)*
G04 Created by KiCad (PCBNEW (5.1.5)-3) date 2020-06-08 21:07:07*
%MOMM*%
%LPD*%
G04 APERTURE LIST*
%ADD10C,1.250000*%
%ADD11C,1.350000*%
%ADD12C,1.500000*%
%ADD13C,2.250000*%
%ADD14C,1.397000*%
%ADD15C,1.778000*%
%ADD16C,3.200000*%
%ADD17R,0.900000X1.200000*%
%ADD18C,0.800000*%
%ADD19C,0.381000*%
%ADD20C,0.254000*%
G04 APERTURE END LIST*
D10*
X84709000Y-56515000D03*
X83209000Y-56515000D03*
X81709000Y-56515000D03*
X80209000Y-56515000D03*
D11*
X95885000Y-52578000D03*
X93885000Y-52578000D03*
D12*
X72112500Y-47625000D03*
X74612500Y-47625000D03*
X77112500Y-47625000D03*
D13*
X70008750Y-125095000D03*
X63658750Y-127635000D03*
X174783750Y-125095000D03*
X168433750Y-127635000D03*
X103346250Y-125095000D03*
X96996250Y-127635000D03*
D14*
X220980000Y-60960000D03*
X220980000Y-58420000D03*
X220980000Y-55880000D03*
X220980000Y-53340000D03*
D13*
X250983750Y-125095000D03*
X244633750Y-127635000D03*
X229552500Y-125095000D03*
X223202500Y-127635000D03*
X210502500Y-125095000D03*
X204152500Y-127635000D03*
X136683750Y-125095000D03*
X130333750Y-127635000D03*
X46196250Y-125095000D03*
X39846250Y-127635000D03*
X253365000Y-106045000D03*
X247015000Y-108585000D03*
X234315000Y-106045000D03*
X227965000Y-108585000D03*
X215265000Y-106045000D03*
X208915000Y-108585000D03*
X196215000Y-106045000D03*
X189865000Y-108585000D03*
X177165000Y-106045000D03*
X170815000Y-108585000D03*
X158115000Y-106045000D03*
X151765000Y-108585000D03*
X139065000Y-106045000D03*
X132715000Y-108585000D03*
X120015000Y-106045000D03*
X113665000Y-108585000D03*
X100965000Y-106045000D03*
X94615000Y-108585000D03*
X81915000Y-106045000D03*
X75565000Y-108585000D03*
X62865000Y-106045000D03*
X56515000Y-108585000D03*
X43815000Y-106045000D03*
X37465000Y-108585000D03*
X253365000Y-86995000D03*
X247015000Y-89535000D03*
X234315000Y-86995000D03*
X227965000Y-89535000D03*
X215265000Y-86995000D03*
X208915000Y-89535000D03*
X196215000Y-86995000D03*
X189865000Y-89535000D03*
X177165000Y-86995000D03*
X170815000Y-89535000D03*
X158115000Y-86995000D03*
X151765000Y-89535000D03*
X139065000Y-86995000D03*
X132715000Y-89535000D03*
X120015000Y-86995000D03*
X113665000Y-89535000D03*
X100965000Y-86995000D03*
X94615000Y-89535000D03*
X81915000Y-86995000D03*
X75565000Y-89535000D03*
X62865000Y-86995000D03*
X56515000Y-89535000D03*
X43815000Y-86995000D03*
X37465000Y-89535000D03*
X253365000Y-67945000D03*
X247015000Y-70485000D03*
X234315000Y-67945000D03*
X227965000Y-70485000D03*
X215265000Y-67945000D03*
X208915000Y-70485000D03*
X196215000Y-67945000D03*
X189865000Y-70485000D03*
X177165000Y-67945000D03*
X170815000Y-70485000D03*
X158115000Y-67945000D03*
X151765000Y-70485000D03*
X139065000Y-67945000D03*
X132715000Y-70485000D03*
X120015000Y-67945000D03*
X113665000Y-70485000D03*
X100965000Y-67945000D03*
X94615000Y-70485000D03*
X81915000Y-67945000D03*
X75565000Y-70485000D03*
X62865000Y-67945000D03*
X56515000Y-70485000D03*
X43815000Y-67945000D03*
X37465000Y-70485000D03*
D15*
X183642000Y-53213000D03*
X186182000Y-53213000D03*
X188722000Y-53213000D03*
X191262000Y-53213000D03*
X193802000Y-53213000D03*
X196342000Y-53213000D03*
X198882000Y-53213000D03*
X201422000Y-53213000D03*
X203962000Y-53213000D03*
D16*
X184912000Y-73533000D03*
X202692000Y-73533000D03*
D17*
X250062000Y-134493000D03*
X246762000Y-134493000D03*
X228599000Y-134493000D03*
X225299000Y-134493000D03*
X209549000Y-134493000D03*
X206249000Y-134493000D03*
X173862000Y-134493000D03*
X170562000Y-134493000D03*
X135762000Y-134493000D03*
X132462000Y-134493000D03*
X102361000Y-134493000D03*
X99061000Y-134493000D03*
X69087000Y-134493000D03*
X65787000Y-134493000D03*
X45211000Y-134493000D03*
X41911000Y-134493000D03*
X252475000Y-115443000D03*
X249175000Y-115443000D03*
X233425000Y-115443000D03*
X230125000Y-115443000D03*
X214375000Y-115443000D03*
X211075000Y-115443000D03*
X195325000Y-115443000D03*
X192025000Y-115443000D03*
X176275000Y-115443000D03*
X172975000Y-115443000D03*
X157225000Y-115443000D03*
X153925000Y-115443000D03*
X138175000Y-115443000D03*
X134875000Y-115443000D03*
X119125000Y-115443000D03*
X115825000Y-115443000D03*
X100075000Y-115443000D03*
X96775000Y-115443000D03*
X81025000Y-115443000D03*
X77725000Y-115443000D03*
X61975000Y-115443000D03*
X58675000Y-115443000D03*
X42925000Y-115443000D03*
X39625000Y-115443000D03*
X252475000Y-96393000D03*
X249175000Y-96393000D03*
X233425000Y-96393000D03*
X230125000Y-96393000D03*
X214375000Y-96393000D03*
X211075000Y-96393000D03*
X195325000Y-96393000D03*
X192025000Y-96393000D03*
X176275000Y-96393000D03*
X172975000Y-96393000D03*
X157225000Y-96393000D03*
X153925000Y-96393000D03*
X138175000Y-96393000D03*
X134875000Y-96393000D03*
X119125000Y-96393000D03*
X115825000Y-96393000D03*
X100075000Y-96393000D03*
X96775000Y-96393000D03*
X81025000Y-96393000D03*
X77725000Y-96393000D03*
X61975000Y-96393000D03*
X58675000Y-96393000D03*
X42925000Y-96393000D03*
X39625000Y-96393000D03*
X252475000Y-77343000D03*
X249175000Y-77343000D03*
X233425000Y-77343000D03*
X230125000Y-77343000D03*
X214375000Y-77343000D03*
X211075000Y-77343000D03*
X195325000Y-77343000D03*
X192025000Y-77343000D03*
X176275000Y-77343000D03*
X172975000Y-77343000D03*
X157225000Y-77343000D03*
X153925000Y-77343000D03*
X138175000Y-77343000D03*
X134875000Y-77343000D03*
X119125000Y-77343000D03*
X115825000Y-77343000D03*
X100075000Y-77343000D03*
X96775000Y-77343000D03*
X81025000Y-77343000D03*
X77725000Y-77343000D03*
X61975000Y-77343000D03*
X58675000Y-77343000D03*
X42925000Y-77343000D03*
X39625000Y-77343000D03*
D18*
X210947000Y-50800000D03*
X146685000Y-51533500D03*
X141859000Y-53913250D03*
X149352000Y-54864000D03*
X131953000Y-59436000D03*
X124460000Y-59436000D03*
X124460000Y-52451000D03*
X117094000Y-52451000D03*
X145669000Y-51533500D03*
X128905000Y-49276000D03*
X216916000Y-51181000D03*
X113157000Y-51308000D03*
X199390000Y-61468000D03*
X199390000Y-60452000D03*
X199390000Y-59451997D03*
X199390000Y-58420000D03*
X153670000Y-53213000D03*
X146812000Y-53721000D03*
X143256000Y-64262000D03*
X189865000Y-49403000D03*
X145669000Y-62865000D03*
X142255997Y-51562000D03*
X182880000Y-51181000D03*
X139954000Y-49784000D03*
X143256000Y-51562000D03*
X141859000Y-56261000D03*
X189357000Y-56261000D03*
X141859000Y-57261003D03*
X189357000Y-57277000D03*
X218821000Y-53340000D03*
X218821000Y-58166000D03*
X137287000Y-62992000D03*
X137287000Y-58801000D03*
X138303000Y-63627000D03*
X138303000Y-58801000D03*
X139954000Y-63627000D03*
X139954000Y-61341000D03*
X138176000Y-52324000D03*
X130556000Y-54737000D03*
X105664000Y-55118000D03*
D19*
X204234999Y-50400001D02*
X202310999Y-52324001D01*
X210947000Y-50800000D02*
X210547001Y-50400001D01*
X210547001Y-50400001D02*
X204234999Y-50400001D01*
X202310999Y-52324001D02*
X201422000Y-53213000D01*
X142424685Y-53913250D02*
X141859000Y-53913250D01*
X144870935Y-53913250D02*
X142424685Y-53913250D01*
X146685000Y-52099185D02*
X144870935Y-53913250D01*
X146685000Y-51533500D02*
X146685000Y-52099185D01*
X145821685Y-54864000D02*
X144870935Y-53913250D01*
X149352000Y-54864000D02*
X145821685Y-54864000D01*
X131953000Y-59436000D02*
X124460000Y-59436000D01*
X124460000Y-52451000D02*
X124460000Y-59436000D01*
X124460000Y-52451000D02*
X117094000Y-52451000D01*
X137475750Y-53913250D02*
X131953000Y-59436000D01*
X141859000Y-53913250D02*
X137475750Y-53913250D01*
D20*
X145669000Y-51533500D02*
X145132500Y-52070000D01*
X145132500Y-52070000D02*
X144751500Y-52451000D01*
X144751500Y-52451000D02*
X141986000Y-52451000D01*
X141986000Y-52451000D02*
X141224000Y-51689000D01*
X141224000Y-51689000D02*
X141097000Y-51562000D01*
X141097000Y-51562000D02*
X140970000Y-51435000D01*
X140970000Y-51435000D02*
X138176000Y-51435000D01*
X138176000Y-51435000D02*
X138049000Y-51435000D01*
X138049000Y-51435000D02*
X137160000Y-50546000D01*
X137160000Y-50546000D02*
X137160000Y-49657000D01*
X137160000Y-49657000D02*
X136398000Y-48895000D01*
X136398000Y-48895000D02*
X131191000Y-48895000D01*
X131191000Y-48895000D02*
X129286000Y-48895000D01*
X129286000Y-48895000D02*
X128905000Y-49276000D01*
D19*
X220980000Y-58420000D02*
X220472000Y-58928000D01*
X220472000Y-58928000D02*
X219456000Y-59944000D01*
X219456000Y-59944000D02*
X210566000Y-59944000D01*
X210566000Y-59944000D02*
X203962000Y-53340000D01*
X74612500Y-47625000D02*
X76200000Y-49212500D01*
X76200000Y-49212500D02*
X92868750Y-49212500D01*
X92868750Y-49212500D02*
X96043750Y-52387500D01*
D20*
X212090000Y-46355000D02*
X216516001Y-50781001D01*
X113157000Y-51308000D02*
X118110000Y-46355000D01*
X216516001Y-50781001D02*
X216916000Y-51181000D01*
X118110000Y-46355000D02*
X212090000Y-46355000D01*
X43815000Y-69535990D02*
X44450000Y-70170990D01*
X43815000Y-67945000D02*
X43815000Y-69535990D01*
X44450000Y-70170990D02*
X44450000Y-75819000D01*
X44450000Y-75819000D02*
X42926000Y-77343000D01*
X256667000Y-79121000D02*
X251587000Y-79121000D01*
X249175000Y-77343000D02*
X238633000Y-77343000D01*
X238633000Y-77343000D02*
X236855000Y-79121000D01*
X236855000Y-79121000D02*
X231902000Y-79121000D01*
X231902000Y-79121000D02*
X230124000Y-77343000D01*
X230125000Y-77343000D02*
X219710000Y-77343000D01*
X219710000Y-77343000D02*
X217932000Y-79121000D01*
X217932000Y-79121000D02*
X212852000Y-79121000D01*
X212852000Y-79121000D02*
X211074000Y-77343000D01*
X211075000Y-77343000D02*
X210371000Y-77343000D01*
X210371000Y-77343000D02*
X200660000Y-77343000D01*
X200660000Y-77343000D02*
X198882000Y-79121000D01*
X198882000Y-79121000D02*
X193802000Y-79121000D01*
X193802000Y-79121000D02*
X192024000Y-77343000D01*
X192025000Y-77343000D02*
X181483000Y-77343000D01*
X181483000Y-77343000D02*
X179705000Y-79121000D01*
X179705000Y-79121000D02*
X174752000Y-79121000D01*
X174752000Y-79121000D02*
X172974000Y-77343000D01*
X172975000Y-77343000D02*
X162433000Y-77343000D01*
X162433000Y-77343000D02*
X160655000Y-79121000D01*
X160655000Y-79121000D02*
X155702000Y-79121000D01*
X155702000Y-79121000D02*
X153924000Y-77343000D01*
X153925000Y-77343000D02*
X153221000Y-77343000D01*
X153221000Y-77343000D02*
X143383000Y-77343000D01*
X143383000Y-77343000D02*
X141605000Y-79121000D01*
X141605000Y-79121000D02*
X136652000Y-79121000D01*
X136652000Y-79121000D02*
X134874000Y-77343000D01*
X134875000Y-77343000D02*
X124333000Y-77343000D01*
X124333000Y-77343000D02*
X122555000Y-79121000D01*
X122555000Y-79121000D02*
X117602000Y-79121000D01*
X117602000Y-79121000D02*
X115824000Y-77343000D01*
X115825000Y-77343000D02*
X105283000Y-77343000D01*
X105283000Y-77343000D02*
X103505000Y-79121000D01*
X103505000Y-79121000D02*
X98552000Y-79121000D01*
X98552000Y-79121000D02*
X96774000Y-77343000D01*
X96775000Y-77343000D02*
X96071000Y-77343000D01*
X96071000Y-77343000D02*
X86233000Y-77343000D01*
X86233000Y-77343000D02*
X84455000Y-79121000D01*
X84455000Y-79121000D02*
X79502000Y-79121000D01*
X79502000Y-79121000D02*
X77724000Y-77343000D01*
X77725000Y-77343000D02*
X67310000Y-77343000D01*
X67310000Y-77343000D02*
X65532000Y-79121000D01*
X65532000Y-79121000D02*
X60452000Y-79121000D01*
X60452000Y-79121000D02*
X58674000Y-77343000D01*
X58675000Y-77343000D02*
X48133000Y-77343000D01*
X48133000Y-77343000D02*
X46355000Y-79121000D01*
X46355000Y-79121000D02*
X41402000Y-79121000D01*
X41402000Y-79121000D02*
X39624000Y-77343000D01*
X251587000Y-79121000D02*
X250952000Y-79121000D01*
X250952000Y-79121000D02*
X249174000Y-77343000D01*
X256667000Y-79121000D02*
X257429000Y-78359000D01*
X257429000Y-78359000D02*
X257429000Y-72898000D01*
X257429000Y-72898000D02*
X257429000Y-69977000D01*
X257429000Y-69977000D02*
X257429000Y-67691000D01*
X257429000Y-67691000D02*
X255270000Y-65532000D01*
X255270000Y-65532000D02*
X204724000Y-65532000D01*
X204724000Y-65532000D02*
X201168000Y-61976000D01*
X201168000Y-61976000D02*
X200787000Y-61595000D01*
X200787000Y-61595000D02*
X200660000Y-61468000D01*
X200660000Y-61468000D02*
X199390000Y-61468000D01*
X62865000Y-69535990D02*
X63500000Y-70170990D01*
X62865000Y-67945000D02*
X62865000Y-69535990D01*
X63500000Y-70170990D02*
X63500000Y-75819000D01*
X63500000Y-75819000D02*
X61976000Y-77343000D01*
X81915000Y-69535990D02*
X82550000Y-70170990D01*
X81915000Y-67945000D02*
X81915000Y-69535990D01*
X82550000Y-70170990D02*
X82550000Y-75819000D01*
X82550000Y-75819000D02*
X81026000Y-77343000D01*
X100965000Y-69535990D02*
X101600000Y-70170990D01*
X100965000Y-67945000D02*
X100965000Y-69535990D01*
X101600000Y-70170990D02*
X101600000Y-75819000D01*
X101600000Y-75819000D02*
X100076000Y-77343000D01*
X120015000Y-69535990D02*
X120650000Y-70170990D01*
X120015000Y-67945000D02*
X120015000Y-69535990D01*
X120650000Y-70170990D02*
X120650000Y-75819000D01*
X120650000Y-75819000D02*
X119126000Y-77343000D01*
X139065000Y-69535990D02*
X139700000Y-70170990D01*
X139065000Y-67945000D02*
X139065000Y-69535990D01*
X139700000Y-70170990D02*
X139700000Y-75819000D01*
X139700000Y-75819000D02*
X138176000Y-77343000D01*
X158115000Y-69535990D02*
X158750000Y-70170990D01*
X158115000Y-67945000D02*
X158115000Y-69535990D01*
X158750000Y-70170990D02*
X158750000Y-75819000D01*
X158750000Y-75819000D02*
X157226000Y-77343000D01*
X177165000Y-69535990D02*
X177800000Y-70170990D01*
X177165000Y-67945000D02*
X177165000Y-69535990D01*
X177800000Y-70170990D02*
X177800000Y-75819000D01*
X177800000Y-75819000D02*
X176276000Y-77343000D01*
X196215000Y-69535990D02*
X196850000Y-70170990D01*
X196215000Y-67945000D02*
X196215000Y-69535990D01*
X196850000Y-70170990D02*
X196850000Y-75819000D01*
X196850000Y-75819000D02*
X195326000Y-77343000D01*
X215265000Y-69535990D02*
X215900000Y-70170990D01*
X215265000Y-67945000D02*
X215265000Y-69535990D01*
X215900000Y-70170990D02*
X215900000Y-75819000D01*
X215900000Y-75819000D02*
X214376000Y-77343000D01*
X234315000Y-69535990D02*
X234950000Y-70170990D01*
X234315000Y-67945000D02*
X234315000Y-69535990D01*
X234950000Y-70170990D02*
X234950000Y-75819000D01*
X234950000Y-75819000D02*
X233426000Y-77343000D01*
X253365000Y-69535990D02*
X254000000Y-70170990D01*
X253365000Y-67945000D02*
X253365000Y-69535990D01*
X254000000Y-70170990D02*
X254000000Y-75819000D01*
X254000000Y-75819000D02*
X252476000Y-77343000D01*
X43815000Y-88585990D02*
X44450000Y-89220990D01*
X43815000Y-86995000D02*
X43815000Y-88585990D01*
X44450000Y-89220990D02*
X44450000Y-94869000D01*
X44450000Y-94869000D02*
X42926000Y-96393000D01*
X257810000Y-97028000D02*
X256794000Y-98044000D01*
X249175000Y-96393000D02*
X238760000Y-96393000D01*
X238760000Y-96393000D02*
X236982000Y-98171000D01*
X236982000Y-98171000D02*
X231902000Y-98171000D01*
X231902000Y-98171000D02*
X230124000Y-96393000D01*
X230125000Y-96393000D02*
X219583000Y-96393000D01*
X219583000Y-96393000D02*
X217805000Y-98171000D01*
X217805000Y-98171000D02*
X212852000Y-98171000D01*
X212852000Y-98171000D02*
X211074000Y-96393000D01*
X211075000Y-96393000D02*
X210371000Y-96393000D01*
X210371000Y-96393000D02*
X200660000Y-96393000D01*
X200660000Y-96393000D02*
X198882000Y-98171000D01*
X198882000Y-98171000D02*
X193802000Y-98171000D01*
X193802000Y-98171000D02*
X192024000Y-96393000D01*
X192025000Y-96393000D02*
X181864000Y-96393000D01*
X181864000Y-96393000D02*
X181610000Y-96393000D01*
X181610000Y-96393000D02*
X179832000Y-98171000D01*
X179832000Y-98171000D02*
X174752000Y-98171000D01*
X174752000Y-98171000D02*
X172974000Y-96393000D01*
X172975000Y-96393000D02*
X172271000Y-96393000D01*
X172271000Y-96393000D02*
X162560000Y-96393000D01*
X162560000Y-96393000D02*
X160782000Y-98171000D01*
X160782000Y-98171000D02*
X155702000Y-98171000D01*
X155702000Y-98171000D02*
X153924000Y-96393000D01*
X153925000Y-96393000D02*
X143510000Y-96393000D01*
X143510000Y-96393000D02*
X141732000Y-98171000D01*
X141732000Y-98171000D02*
X136652000Y-98171000D01*
X136652000Y-98171000D02*
X134874000Y-96393000D01*
X134875000Y-96393000D02*
X134171000Y-96393000D01*
X134171000Y-96393000D02*
X124333000Y-96393000D01*
X124333000Y-96393000D02*
X122555000Y-98171000D01*
X122555000Y-98171000D02*
X117475000Y-98171000D01*
X117475000Y-98171000D02*
X115824000Y-96520000D01*
X115825000Y-96393000D02*
X105283000Y-96393000D01*
X105283000Y-96393000D02*
X103505000Y-98171000D01*
X103505000Y-98171000D02*
X98552000Y-98171000D01*
X98552000Y-98171000D02*
X96774000Y-96393000D01*
X96775000Y-96393000D02*
X86360000Y-96393000D01*
X86360000Y-96393000D02*
X84582000Y-98171000D01*
X84582000Y-98171000D02*
X79502000Y-98171000D01*
X79502000Y-98171000D02*
X77724000Y-96393000D01*
X77725000Y-96393000D02*
X67183000Y-96393000D01*
X67183000Y-96393000D02*
X65405000Y-98171000D01*
X65405000Y-98171000D02*
X60452000Y-98171000D01*
X60452000Y-98171000D02*
X58674000Y-96393000D01*
X58675000Y-96393000D02*
X48260000Y-96393000D01*
X48260000Y-96393000D02*
X46482000Y-98171000D01*
X46482000Y-98171000D02*
X41275000Y-98171000D01*
X41275000Y-98171000D02*
X39624000Y-96520000D01*
X256794000Y-98044000D02*
X256667000Y-98171000D01*
X256667000Y-98171000D02*
X250952000Y-98171000D01*
X250952000Y-98171000D02*
X249174000Y-96393000D01*
X257810000Y-97028000D02*
X257883010Y-96954990D01*
X257810000Y-97028000D02*
X257937000Y-96901000D01*
X257937000Y-96901000D02*
X257937000Y-67437000D01*
X257937000Y-67437000D02*
X257810000Y-67310000D01*
X257810000Y-67310000D02*
X257683000Y-67183000D01*
X257683000Y-67183000D02*
X255651000Y-65151000D01*
X255651000Y-65151000D02*
X255524000Y-65024000D01*
X255524000Y-65024000D02*
X252857000Y-65024000D01*
X252857000Y-65024000D02*
X205740000Y-65024000D01*
X205740000Y-65024000D02*
X204978000Y-65024000D01*
X204978000Y-65024000D02*
X203200000Y-63246000D01*
X203200000Y-63246000D02*
X201676000Y-61722000D01*
X201676000Y-61722000D02*
X201295000Y-61341000D01*
X201295000Y-61341000D02*
X200406000Y-60452000D01*
X200406000Y-60452000D02*
X199390000Y-60452000D01*
X62865000Y-88585990D02*
X63500000Y-89220990D01*
X62865000Y-86995000D02*
X62865000Y-88585990D01*
X63500000Y-89220990D02*
X63500000Y-94869000D01*
X63500000Y-94869000D02*
X61976000Y-96393000D01*
X81915000Y-88585990D02*
X82550000Y-89220990D01*
X81915000Y-86995000D02*
X81915000Y-88585990D01*
X82550000Y-89220990D02*
X82550000Y-94869000D01*
X82550000Y-94869000D02*
X81026000Y-96393000D01*
X100965000Y-88585990D02*
X101600000Y-89220990D01*
X100965000Y-86995000D02*
X100965000Y-88585990D01*
X101600000Y-89220990D02*
X101600000Y-94869000D01*
X101600000Y-94869000D02*
X100076000Y-96393000D01*
X120015000Y-88585990D02*
X120650000Y-89220990D01*
X120015000Y-86995000D02*
X120015000Y-88585990D01*
X120650000Y-89220990D02*
X120650000Y-94869000D01*
X120650000Y-94869000D02*
X119126000Y-96393000D01*
X139065000Y-88585990D02*
X139700000Y-89220990D01*
X139065000Y-86995000D02*
X139065000Y-88585990D01*
X139700000Y-89220990D02*
X139700000Y-94869000D01*
X139700000Y-94869000D02*
X138176000Y-96393000D01*
X158115000Y-88585990D02*
X158750000Y-89220990D01*
X158115000Y-86995000D02*
X158115000Y-88585990D01*
X158750000Y-89220990D02*
X158750000Y-94869000D01*
X158750000Y-94869000D02*
X157226000Y-96393000D01*
X177165000Y-88585990D02*
X177800000Y-89220990D01*
X177165000Y-86995000D02*
X177165000Y-88585990D01*
X177800000Y-89220990D02*
X177800000Y-94869000D01*
X177800000Y-94869000D02*
X176276000Y-96393000D01*
X196215000Y-88585990D02*
X196850000Y-89220990D01*
X196215000Y-86995000D02*
X196215000Y-88585990D01*
X196850000Y-89220990D02*
X196850000Y-94869000D01*
X196850000Y-94869000D02*
X195326000Y-96393000D01*
X215265000Y-88585990D02*
X215900000Y-89220990D01*
X215265000Y-86995000D02*
X215265000Y-88585990D01*
X215900000Y-89220990D02*
X215900000Y-94869000D01*
X215900000Y-94869000D02*
X214376000Y-96393000D01*
X234315000Y-88585990D02*
X234950000Y-89220990D01*
X234315000Y-86995000D02*
X234315000Y-88585990D01*
X234950000Y-89220990D02*
X234950000Y-94869000D01*
X234950000Y-94869000D02*
X233426000Y-96393000D01*
X253365000Y-88585990D02*
X254000000Y-89220990D01*
X253365000Y-86995000D02*
X253365000Y-88585990D01*
X254000000Y-89220990D02*
X254000000Y-94869000D01*
X254000000Y-94869000D02*
X252476000Y-96393000D01*
X43815000Y-107635990D02*
X44450000Y-108270990D01*
X43815000Y-106045000D02*
X43815000Y-107635990D01*
X44450000Y-108270990D02*
X44450000Y-113919000D01*
X44450000Y-113919000D02*
X42926000Y-115443000D01*
X249175000Y-115443000D02*
X248471000Y-115443000D01*
X248471000Y-115443000D02*
X238760000Y-115443000D01*
X238760000Y-115443000D02*
X236982000Y-117221000D01*
X236982000Y-117221000D02*
X231902000Y-117221000D01*
X231902000Y-117221000D02*
X230124000Y-115443000D01*
X230125000Y-115443000D02*
X219583000Y-115443000D01*
X219583000Y-115443000D02*
X217805000Y-117221000D01*
X217805000Y-117221000D02*
X212852000Y-117221000D01*
X212852000Y-117221000D02*
X211074000Y-115443000D01*
X211075000Y-115443000D02*
X210371000Y-115443000D01*
X210371000Y-115443000D02*
X200660000Y-115443000D01*
X200660000Y-115443000D02*
X198882000Y-117221000D01*
X198882000Y-117221000D02*
X193802000Y-117221000D01*
X193802000Y-117221000D02*
X192024000Y-115443000D01*
X192025000Y-115443000D02*
X191321000Y-115443000D01*
X191321000Y-115443000D02*
X181610000Y-115443000D01*
X181610000Y-115443000D02*
X179832000Y-117221000D01*
X179832000Y-117221000D02*
X174752000Y-117221000D01*
X174752000Y-117221000D02*
X172974000Y-115443000D01*
X172975000Y-115443000D02*
X162560000Y-115443000D01*
X162560000Y-115443000D02*
X160782000Y-117221000D01*
X160782000Y-117221000D02*
X155702000Y-117221000D01*
X155702000Y-117221000D02*
X153924000Y-115443000D01*
X153925000Y-115443000D02*
X143510000Y-115443000D01*
X143510000Y-115443000D02*
X141732000Y-117221000D01*
X141732000Y-117221000D02*
X136652000Y-117221000D01*
X136652000Y-117221000D02*
X134874000Y-115443000D01*
X134875000Y-115443000D02*
X124460000Y-115443000D01*
X124460000Y-115443000D02*
X122682000Y-117221000D01*
X122682000Y-117221000D02*
X117602000Y-117221000D01*
X117602000Y-117221000D02*
X115824000Y-115443000D01*
X115825000Y-115443000D02*
X105410000Y-115443000D01*
X105410000Y-115443000D02*
X103632000Y-117221000D01*
X103632000Y-117221000D02*
X98552000Y-117221000D01*
X98552000Y-117221000D02*
X96774000Y-115443000D01*
X96775000Y-115443000D02*
X86360000Y-115443000D01*
X86360000Y-115443000D02*
X84582000Y-117221000D01*
X84582000Y-117221000D02*
X79502000Y-117221000D01*
X79502000Y-117221000D02*
X77724000Y-115443000D01*
X77725000Y-115443000D02*
X67310000Y-115443000D01*
X67310000Y-115443000D02*
X65532000Y-117221000D01*
X65532000Y-117221000D02*
X60452000Y-117221000D01*
X60452000Y-117221000D02*
X58674000Y-115443000D01*
X58675000Y-115443000D02*
X57971000Y-115443000D01*
X57971000Y-115443000D02*
X48260000Y-115443000D01*
X48260000Y-115443000D02*
X46482000Y-117221000D01*
X46482000Y-117221000D02*
X41402000Y-117221000D01*
X41402000Y-117221000D02*
X39624000Y-115443000D01*
X257302000Y-117221000D02*
X250952000Y-117221000D01*
X250952000Y-117221000D02*
X249174000Y-115443000D01*
X257302000Y-117221000D02*
X257429000Y-117221000D01*
X257429000Y-117221000D02*
X258318000Y-116332000D01*
X258318000Y-116332000D02*
X258445000Y-116205000D01*
X258445000Y-116205000D02*
X258445000Y-69977000D01*
X258445000Y-69977000D02*
X258445000Y-69215000D01*
X258445000Y-69215000D02*
X258445000Y-67183000D01*
X258445000Y-67183000D02*
X258318000Y-67056000D01*
X258318000Y-67056000D02*
X258191000Y-66929000D01*
X258191000Y-66929000D02*
X256032000Y-64770000D01*
X256032000Y-64770000D02*
X255778000Y-64516000D01*
X255778000Y-64516000D02*
X254127000Y-64516000D01*
X254127000Y-64516000D02*
X252857000Y-64516000D01*
X252857000Y-64516000D02*
X252730000Y-64516000D01*
X252730000Y-64516000D02*
X216408000Y-64516000D01*
X216408000Y-64516000D02*
X215265000Y-64516000D01*
X215265000Y-64516000D02*
X206121000Y-64516000D01*
X206121000Y-64516000D02*
X205232000Y-64516000D01*
X205232000Y-64516000D02*
X202565000Y-61849000D01*
X202565000Y-61849000D02*
X202184000Y-61468000D01*
X202184000Y-61468000D02*
X200167997Y-59451997D01*
X200167997Y-59451997D02*
X199390000Y-59451997D01*
X62865000Y-107635990D02*
X63500000Y-108270990D01*
X62865000Y-106045000D02*
X62865000Y-107635990D01*
X63500000Y-108270990D02*
X63500000Y-113919000D01*
X63500000Y-113919000D02*
X61976000Y-115443000D01*
X81915000Y-107635990D02*
X82550000Y-108270990D01*
X81915000Y-106045000D02*
X81915000Y-107635990D01*
X82550000Y-108270990D02*
X82550000Y-113919000D01*
X82550000Y-113919000D02*
X81026000Y-115443000D01*
X100965000Y-107635990D02*
X101600000Y-108270990D01*
X100965000Y-106045000D02*
X100965000Y-107635990D01*
X101600000Y-108270990D02*
X101600000Y-113919000D01*
X101600000Y-113919000D02*
X100076000Y-115443000D01*
X120015000Y-107635990D02*
X120650000Y-108270990D01*
X120015000Y-106045000D02*
X120015000Y-107635990D01*
X120650000Y-108270990D02*
X120650000Y-113919000D01*
X120650000Y-113919000D02*
X119126000Y-115443000D01*
X139065000Y-107635990D02*
X139700000Y-108270990D01*
X139065000Y-106045000D02*
X139065000Y-107635990D01*
X139700000Y-108270990D02*
X139700000Y-113919000D01*
X139700000Y-113919000D02*
X138176000Y-115443000D01*
X158115000Y-107635990D02*
X158750000Y-108270990D01*
X158115000Y-106045000D02*
X158115000Y-107635990D01*
X158750000Y-108270990D02*
X158750000Y-113919000D01*
X158750000Y-113919000D02*
X157226000Y-115443000D01*
X177165000Y-107635990D02*
X177800000Y-108270990D01*
X177165000Y-106045000D02*
X177165000Y-107635990D01*
X177800000Y-108270990D02*
X177800000Y-113919000D01*
X177800000Y-113919000D02*
X176276000Y-115443000D01*
X196215000Y-107635990D02*
X196850000Y-108270990D01*
X196215000Y-106045000D02*
X196215000Y-107635990D01*
X196850000Y-108270990D02*
X196850000Y-113919000D01*
X196850000Y-113919000D02*
X195326000Y-115443000D01*
X215265000Y-107635990D02*
X215900000Y-108270990D01*
X215265000Y-106045000D02*
X215265000Y-107635990D01*
X215900000Y-108270990D02*
X215900000Y-113919000D01*
X215900000Y-113919000D02*
X214376000Y-115443000D01*
X234315000Y-107635990D02*
X234950000Y-108270990D01*
X234315000Y-106045000D02*
X234315000Y-107635990D01*
X234950000Y-108270990D02*
X234950000Y-114046000D01*
X234950000Y-114046000D02*
X233553000Y-115443000D01*
X253365000Y-107635990D02*
X254000000Y-108270990D01*
X253365000Y-106045000D02*
X253365000Y-107635990D01*
X254000000Y-108270990D02*
X254000000Y-113919000D01*
X254000000Y-113919000D02*
X252476000Y-115443000D01*
X46196250Y-126685990D02*
X46863000Y-127352740D01*
X46196250Y-125095000D02*
X46196250Y-126685990D01*
X46863000Y-127352740D02*
X46863000Y-132842000D01*
X46863000Y-132842000D02*
X45212000Y-134493000D01*
X227076000Y-136271000D02*
X225298000Y-134493000D01*
X207899000Y-136271000D02*
X206248000Y-134620000D01*
X99061000Y-134493000D02*
X74422000Y-134493000D01*
X74422000Y-134493000D02*
X72644000Y-136271000D01*
X72644000Y-136271000D02*
X67564000Y-136271000D01*
X67564000Y-136271000D02*
X65786000Y-134493000D01*
X172212000Y-136271000D02*
X170561000Y-134620000D01*
X177546000Y-136271000D02*
X172212000Y-136271000D01*
X206249000Y-134493000D02*
X179324000Y-134493000D01*
X179324000Y-134493000D02*
X177546000Y-136271000D01*
X139319000Y-136271000D02*
X134239000Y-136271000D01*
X170562000Y-134493000D02*
X141097000Y-134493000D01*
X134239000Y-136271000D02*
X132588000Y-134620000D01*
X141097000Y-134493000D02*
X139319000Y-136271000D01*
X100711000Y-136271000D02*
X99060000Y-134620000D01*
X105918000Y-136271000D02*
X100711000Y-136271000D01*
X132462000Y-134493000D02*
X107696000Y-134493000D01*
X107696000Y-134493000D02*
X105918000Y-136271000D01*
X65787000Y-134493000D02*
X50546000Y-134493000D01*
X50546000Y-134493000D02*
X48768000Y-136271000D01*
X48768000Y-136271000D02*
X43561000Y-136271000D01*
X43561000Y-136271000D02*
X41910000Y-134620000D01*
X246762000Y-134493000D02*
X233934000Y-134493000D01*
X232156000Y-136271000D02*
X227076000Y-136271000D01*
X233934000Y-134493000D02*
X232156000Y-136271000D01*
X225299000Y-134493000D02*
X214884000Y-134493000D01*
X214884000Y-134493000D02*
X213233000Y-136144000D01*
X213233000Y-136144000D02*
X213106000Y-136271000D01*
X213106000Y-136271000D02*
X208026000Y-136271000D01*
X248539000Y-136271000D02*
X258191000Y-136271000D01*
X246761000Y-134493000D02*
X248539000Y-136271000D01*
X258191000Y-136271000D02*
X258953000Y-135509000D01*
X258953000Y-135509000D02*
X258953000Y-66929000D01*
X258953000Y-66929000D02*
X258699000Y-66675000D01*
X258699000Y-66675000D02*
X258572000Y-66548000D01*
X258572000Y-66548000D02*
X256032000Y-64008000D01*
X256032000Y-64008000D02*
X252857000Y-64008000D01*
X252857000Y-64008000D02*
X205994000Y-64008000D01*
X205994000Y-64008000D02*
X205486000Y-64008000D01*
X205486000Y-64008000D02*
X204851000Y-63373000D01*
X204851000Y-63373000D02*
X203073000Y-61595000D01*
X203073000Y-61595000D02*
X202692000Y-61214000D01*
X202692000Y-61214000D02*
X199898000Y-58420000D01*
X199898000Y-58420000D02*
X199390000Y-58420000D01*
X153670000Y-53213000D02*
X147320000Y-53213000D01*
X147320000Y-53213000D02*
X146812000Y-53721000D01*
X70008750Y-126685990D02*
X70612000Y-127289240D01*
X70008750Y-125095000D02*
X70008750Y-126685990D01*
X70612000Y-127289240D02*
X70612000Y-132969000D01*
X70612000Y-132969000D02*
X69088000Y-134493000D01*
X103346250Y-126685990D02*
X104013000Y-127352740D01*
X103346250Y-125095000D02*
X103346250Y-126685990D01*
X104013000Y-127352740D02*
X104013000Y-132842000D01*
X104013000Y-132842000D02*
X102362000Y-134493000D01*
X136683750Y-126685990D02*
X137287000Y-127289240D01*
X136683750Y-125095000D02*
X136683750Y-126685990D01*
X137287000Y-127289240D02*
X137287000Y-132969000D01*
X137287000Y-132969000D02*
X135763000Y-134493000D01*
X174783750Y-126685990D02*
X175387000Y-127289240D01*
X174783750Y-125095000D02*
X174783750Y-126685990D01*
X175387000Y-127289240D02*
X175387000Y-132969000D01*
X175387000Y-132969000D02*
X173863000Y-134493000D01*
X210502500Y-126685990D02*
X211074000Y-127257490D01*
X210502500Y-125095000D02*
X210502500Y-126685990D01*
X211074000Y-127257490D02*
X211074000Y-132969000D01*
X211074000Y-132969000D02*
X209550000Y-134493000D01*
X229552500Y-126685990D02*
X230124000Y-127257490D01*
X229552500Y-125095000D02*
X229552500Y-126685990D01*
X230124000Y-127257490D02*
X230124000Y-132969000D01*
X230124000Y-132969000D02*
X228600000Y-134493000D01*
X250983750Y-126685990D02*
X251587000Y-127289240D01*
X250983750Y-125095000D02*
X250983750Y-126685990D01*
X251587000Y-127289240D02*
X251587000Y-132969000D01*
X251587000Y-132969000D02*
X250063000Y-134493000D01*
X143256000Y-64262000D02*
X144526000Y-65532000D01*
X144526000Y-65532000D02*
X151003000Y-65532000D01*
X163449000Y-65532000D02*
X187833000Y-65532000D01*
X163449000Y-65532000D02*
X163576000Y-65532000D01*
X151003000Y-65532000D02*
X163449000Y-65532000D01*
X187833000Y-65532000D02*
X198882000Y-54483000D01*
X198882000Y-54483000D02*
X198882000Y-53213000D01*
X193802000Y-53213000D02*
X189992000Y-49403000D01*
X189992000Y-49403000D02*
X189865000Y-49403000D01*
X145669000Y-62865000D02*
X147828000Y-65024000D01*
X147828000Y-65024000D02*
X163576000Y-65024000D01*
X163576000Y-65024000D02*
X187579000Y-65024000D01*
X187579000Y-65024000D02*
X191262000Y-61341000D01*
X191262000Y-61341000D02*
X191262000Y-53213000D01*
X142255997Y-51562000D02*
X142255997Y-51546003D01*
X142255997Y-51546003D02*
X142494000Y-51308000D01*
X142494000Y-51308000D02*
X142494000Y-49276000D01*
X142494000Y-49276000D02*
X142494000Y-48641000D01*
X142494000Y-48641000D02*
X143383000Y-47752000D01*
X143383000Y-47752000D02*
X150876000Y-47752000D01*
X150876000Y-47752000D02*
X179451000Y-47752000D01*
X179451000Y-47752000D02*
X182880000Y-51181000D01*
X139954000Y-49784000D02*
X139954000Y-48387000D01*
X139954000Y-48387000D02*
X141224000Y-47117000D01*
X180086000Y-47117000D02*
X185293001Y-52324001D01*
X150749000Y-47117000D02*
X180086000Y-47117000D01*
X150749000Y-47117000D02*
X150876000Y-47117000D01*
X141224000Y-47117000D02*
X150749000Y-47117000D01*
X185293001Y-52324001D02*
X186182000Y-53213000D01*
X143256000Y-51562000D02*
X143256000Y-48768000D01*
X143256000Y-48768000D02*
X143510000Y-48514000D01*
X150749000Y-48514000D02*
X150876000Y-48514000D01*
X150749000Y-48514000D02*
X178943000Y-48514000D01*
X143510000Y-48514000D02*
X150749000Y-48514000D01*
X178943000Y-48514000D02*
X183515000Y-53086000D01*
X169037000Y-56261000D02*
X189357000Y-56261000D01*
X169037000Y-56261000D02*
X169164000Y-56261000D01*
X141859000Y-56261000D02*
X169037000Y-56261000D01*
X141859000Y-57261003D02*
X142097003Y-57261003D01*
X142097003Y-57261003D02*
X142113000Y-57277000D01*
X142113000Y-57277000D02*
X189357000Y-57277000D01*
X218821000Y-53340000D02*
X218821000Y-57658000D01*
X218821000Y-58166000D02*
X218821000Y-57658000D01*
X137287000Y-62992000D02*
X137287000Y-62426315D01*
X137287000Y-62426315D02*
X137287000Y-58741038D01*
X137287000Y-58741038D02*
X137287000Y-58801000D01*
X138303000Y-63627000D02*
X138303000Y-63061315D01*
X138303000Y-63061315D02*
X138303000Y-58801000D01*
X139954000Y-63627000D02*
X139954000Y-63061315D01*
X139954000Y-63061315D02*
X139954000Y-61341000D01*
X138176000Y-52324000D02*
X136652000Y-50800000D01*
X136652000Y-49911000D02*
X136144000Y-49403000D01*
X136652000Y-50800000D02*
X136652000Y-49911000D01*
X136144000Y-49403000D02*
X132207000Y-49403000D01*
X131064000Y-49403000D02*
X132207000Y-49403000D01*
X130556000Y-49911000D02*
X131064000Y-49403000D01*
X130556000Y-54737000D02*
X130556000Y-49911000D01*
D19*
X98171000Y-47625000D02*
X105664000Y-55118000D01*
X77112500Y-47625000D02*
X98171000Y-47625000D01*
D20*
G36*
X258292469Y-45196352D02*
G01*
X258603858Y-45290366D01*
X258891056Y-45443072D01*
X259143119Y-45648650D01*
X259350457Y-45899278D01*
X259505164Y-46185401D01*
X259601349Y-46496126D01*
X259638800Y-46852450D01*
X259638800Y-63373000D01*
X256459396Y-63373000D01*
X256457392Y-63371355D01*
X256325015Y-63300598D01*
X256181378Y-63257026D01*
X256069426Y-63246000D01*
X256069423Y-63246000D01*
X256032000Y-63242314D01*
X255994577Y-63246000D01*
X205801630Y-63246000D01*
X204435827Y-61880197D01*
X220239408Y-61880197D01*
X220298686Y-62113812D01*
X220536875Y-62224559D01*
X220792093Y-62286711D01*
X221054533Y-62297876D01*
X221314107Y-62257629D01*
X221560842Y-62167514D01*
X221661314Y-62113812D01*
X221720592Y-61880197D01*
X220980000Y-61139605D01*
X220239408Y-61880197D01*
X204435827Y-61880197D01*
X200463284Y-57907654D01*
X200439422Y-57878578D01*
X200323392Y-57783355D01*
X200191015Y-57712598D01*
X200126842Y-57693131D01*
X200049774Y-57616063D01*
X199880256Y-57502795D01*
X199691898Y-57424774D01*
X199491939Y-57385000D01*
X199288061Y-57385000D01*
X199088102Y-57424774D01*
X198899744Y-57502795D01*
X198730226Y-57616063D01*
X198586063Y-57760226D01*
X198472795Y-57929744D01*
X198394774Y-58118102D01*
X198355000Y-58318061D01*
X198355000Y-58521939D01*
X198394774Y-58721898D01*
X198472795Y-58910256D01*
X198489996Y-58935998D01*
X198472795Y-58961741D01*
X198394774Y-59150099D01*
X198355000Y-59350058D01*
X198355000Y-59553936D01*
X198394774Y-59753895D01*
X198472795Y-59942253D01*
X198479307Y-59951999D01*
X198472795Y-59961744D01*
X198394774Y-60150102D01*
X198355000Y-60350061D01*
X198355000Y-60553939D01*
X198394774Y-60753898D01*
X198472795Y-60942256D01*
X198484651Y-60960000D01*
X198472795Y-60977744D01*
X198394774Y-61166102D01*
X198355000Y-61366061D01*
X198355000Y-61569939D01*
X198394774Y-61769898D01*
X198472795Y-61958256D01*
X198586063Y-62127774D01*
X198730226Y-62271937D01*
X198899744Y-62385205D01*
X199088102Y-62463226D01*
X199288061Y-62503000D01*
X199491939Y-62503000D01*
X199691898Y-62463226D01*
X199880256Y-62385205D01*
X200049774Y-62271937D01*
X200091711Y-62230000D01*
X200344370Y-62230000D01*
X201487370Y-63373000D01*
X191069630Y-63373000D01*
X199394347Y-55048283D01*
X199423422Y-55024422D01*
X199483857Y-54950781D01*
X199518645Y-54908393D01*
X199589401Y-54776016D01*
X199589402Y-54776015D01*
X199632974Y-54632378D01*
X199642279Y-54537897D01*
X199853493Y-54396768D01*
X199981030Y-54269231D01*
X200545374Y-54269231D01*
X200627727Y-54522289D01*
X200898418Y-54652086D01*
X201189230Y-54726580D01*
X201488988Y-54742908D01*
X201786171Y-54700443D01*
X202069359Y-54600816D01*
X202216273Y-54522289D01*
X202298626Y-54269231D01*
X201422000Y-53392605D01*
X200545374Y-54269231D01*
X199981030Y-54269231D01*
X200065768Y-54184493D01*
X200171417Y-54026378D01*
X200365769Y-54089626D01*
X201242395Y-53213000D01*
X201601605Y-53213000D01*
X202478231Y-54089626D01*
X202672583Y-54026378D01*
X202778232Y-54184493D01*
X202990507Y-54396768D01*
X203240115Y-54563551D01*
X203517466Y-54678434D01*
X203811899Y-54737000D01*
X204112101Y-54737000D01*
X204178384Y-54723816D01*
X209953607Y-60499040D01*
X209979459Y-60530541D01*
X210105158Y-60633699D01*
X210248566Y-60710353D01*
X210404174Y-60757556D01*
X210525447Y-60769500D01*
X210525456Y-60769500D01*
X210565999Y-60773493D01*
X210606542Y-60769500D01*
X219415450Y-60769500D01*
X219456000Y-60773494D01*
X219496550Y-60769500D01*
X219496553Y-60769500D01*
X219617826Y-60757556D01*
X219659940Y-60744781D01*
X219653289Y-60772093D01*
X219642124Y-61034533D01*
X219682371Y-61294107D01*
X219772486Y-61540842D01*
X219826188Y-61641314D01*
X220059803Y-61700592D01*
X220800395Y-60960000D01*
X221159605Y-60960000D01*
X221900197Y-61700592D01*
X222133812Y-61641314D01*
X222244559Y-61403125D01*
X222306711Y-61147907D01*
X222317876Y-60885467D01*
X222277629Y-60625893D01*
X222187514Y-60379158D01*
X222133812Y-60278686D01*
X221900197Y-60219408D01*
X221159605Y-60960000D01*
X220800395Y-60960000D01*
X220786253Y-60945858D01*
X220965858Y-60766253D01*
X220980000Y-60780395D01*
X221720592Y-60039803D01*
X221661314Y-59806188D01*
X221423125Y-59695441D01*
X221399378Y-59689658D01*
X221611649Y-59601732D01*
X221830057Y-59455797D01*
X222015797Y-59270057D01*
X222161732Y-59051649D01*
X222262254Y-58808968D01*
X222313500Y-58551338D01*
X222313500Y-58288662D01*
X222262254Y-58031032D01*
X222161732Y-57788351D01*
X222015797Y-57569943D01*
X221830057Y-57384203D01*
X221611649Y-57238268D01*
X221398552Y-57150000D01*
X221611649Y-57061732D01*
X221830057Y-56915797D01*
X222015797Y-56730057D01*
X222161732Y-56511649D01*
X222262254Y-56268968D01*
X222313500Y-56011338D01*
X222313500Y-55748662D01*
X222262254Y-55491032D01*
X222161732Y-55248351D01*
X222015797Y-55029943D01*
X221830057Y-54844203D01*
X221611649Y-54698268D01*
X221398552Y-54610000D01*
X221611649Y-54521732D01*
X221830057Y-54375797D01*
X222015797Y-54190057D01*
X222161732Y-53971649D01*
X222262254Y-53728968D01*
X222313500Y-53471338D01*
X222313500Y-53208662D01*
X222262254Y-52951032D01*
X222161732Y-52708351D01*
X222015797Y-52489943D01*
X221830057Y-52304203D01*
X221611649Y-52158268D01*
X221368968Y-52057746D01*
X221111338Y-52006500D01*
X220848662Y-52006500D01*
X220591032Y-52057746D01*
X220348351Y-52158268D01*
X220129943Y-52304203D01*
X219944203Y-52489943D01*
X219798268Y-52708351D01*
X219738953Y-52851550D01*
X219738205Y-52849744D01*
X219624937Y-52680226D01*
X219480774Y-52536063D01*
X219311256Y-52422795D01*
X219122898Y-52344774D01*
X218922939Y-52305000D01*
X218719061Y-52305000D01*
X218519102Y-52344774D01*
X218330744Y-52422795D01*
X218161226Y-52536063D01*
X218017063Y-52680226D01*
X217903795Y-52849744D01*
X217825774Y-53038102D01*
X217786000Y-53238061D01*
X217786000Y-53441939D01*
X217825774Y-53641898D01*
X217903795Y-53830256D01*
X218017063Y-53999774D01*
X218059000Y-54041711D01*
X218059001Y-57464288D01*
X218017063Y-57506226D01*
X217903795Y-57675744D01*
X217825774Y-57864102D01*
X217786000Y-58064061D01*
X217786000Y-58267939D01*
X217825774Y-58467898D01*
X217903795Y-58656256D01*
X218017063Y-58825774D01*
X218161226Y-58969937D01*
X218330744Y-59083205D01*
X218415953Y-59118500D01*
X210907933Y-59118500D01*
X205430675Y-53641242D01*
X205486000Y-53363101D01*
X205486000Y-53062899D01*
X205427434Y-52768466D01*
X205312551Y-52491115D01*
X205145768Y-52241507D01*
X204933493Y-52029232D01*
X204683885Y-51862449D01*
X204406534Y-51747566D01*
X204112101Y-51689000D01*
X203811899Y-51689000D01*
X203517466Y-51747566D01*
X203240115Y-51862449D01*
X202990507Y-52029232D01*
X202778232Y-52241507D01*
X202672583Y-52399622D01*
X202478231Y-52336374D01*
X201601605Y-53213000D01*
X201242395Y-53213000D01*
X200365769Y-52336374D01*
X200171417Y-52399622D01*
X200065768Y-52241507D01*
X199981030Y-52156769D01*
X200545374Y-52156769D01*
X201422000Y-53033395D01*
X202298626Y-52156769D01*
X202216273Y-51903711D01*
X201945582Y-51773914D01*
X201654770Y-51699420D01*
X201355012Y-51683092D01*
X201057829Y-51725557D01*
X200774641Y-51825184D01*
X200627727Y-51903711D01*
X200545374Y-52156769D01*
X199981030Y-52156769D01*
X199853493Y-52029232D01*
X199603885Y-51862449D01*
X199326534Y-51747566D01*
X199032101Y-51689000D01*
X198731899Y-51689000D01*
X198437466Y-51747566D01*
X198160115Y-51862449D01*
X197910507Y-52029232D01*
X197698232Y-52241507D01*
X197612000Y-52370562D01*
X197525768Y-52241507D01*
X197313493Y-52029232D01*
X197063885Y-51862449D01*
X196786534Y-51747566D01*
X196492101Y-51689000D01*
X196191899Y-51689000D01*
X195897466Y-51747566D01*
X195620115Y-51862449D01*
X195370507Y-52029232D01*
X195158232Y-52241507D01*
X195072000Y-52370562D01*
X194985768Y-52241507D01*
X194773493Y-52029232D01*
X194523885Y-51862449D01*
X194246534Y-51747566D01*
X193952101Y-51689000D01*
X193651899Y-51689000D01*
X193404784Y-51738154D01*
X190883192Y-49216562D01*
X190860226Y-49101102D01*
X190782205Y-48912744D01*
X190668937Y-48743226D01*
X190524774Y-48599063D01*
X190355256Y-48485795D01*
X190166898Y-48407774D01*
X189966939Y-48368000D01*
X189763061Y-48368000D01*
X189563102Y-48407774D01*
X189374744Y-48485795D01*
X189205226Y-48599063D01*
X189061063Y-48743226D01*
X188947795Y-48912744D01*
X188869774Y-49101102D01*
X188830000Y-49301061D01*
X188830000Y-49504939D01*
X188869774Y-49704898D01*
X188947795Y-49893256D01*
X189061063Y-50062774D01*
X189205226Y-50206937D01*
X189374744Y-50320205D01*
X189563102Y-50398226D01*
X189763061Y-50438000D01*
X189949370Y-50438000D01*
X191200370Y-51689000D01*
X191111899Y-51689000D01*
X190817466Y-51747566D01*
X190540115Y-51862449D01*
X190290507Y-52029232D01*
X190078232Y-52241507D01*
X189992000Y-52370562D01*
X189905768Y-52241507D01*
X189693493Y-52029232D01*
X189443885Y-51862449D01*
X189166534Y-51747566D01*
X188872101Y-51689000D01*
X188571899Y-51689000D01*
X188277466Y-51747566D01*
X188000115Y-51862449D01*
X187750507Y-52029232D01*
X187538232Y-52241507D01*
X187452000Y-52370562D01*
X187365768Y-52241507D01*
X187153493Y-52029232D01*
X186903885Y-51862449D01*
X186626534Y-51747566D01*
X186332101Y-51689000D01*
X186031899Y-51689000D01*
X185784785Y-51738154D01*
X181163630Y-47117000D01*
X211774370Y-47117000D01*
X215881000Y-51223630D01*
X215881000Y-51282939D01*
X215920774Y-51482898D01*
X215998795Y-51671256D01*
X216112063Y-51840774D01*
X216256226Y-51984937D01*
X216425744Y-52098205D01*
X216614102Y-52176226D01*
X216814061Y-52216000D01*
X217017939Y-52216000D01*
X217217898Y-52176226D01*
X217406256Y-52098205D01*
X217575774Y-51984937D01*
X217719937Y-51840774D01*
X217833205Y-51671256D01*
X217911226Y-51482898D01*
X217951000Y-51282939D01*
X217951000Y-51079061D01*
X217911226Y-50879102D01*
X217833205Y-50690744D01*
X217719937Y-50521226D01*
X217575774Y-50377063D01*
X217406256Y-50263795D01*
X217217898Y-50185774D01*
X217017939Y-50146000D01*
X216958630Y-50146000D01*
X212655284Y-45842654D01*
X212631422Y-45813578D01*
X212515392Y-45718355D01*
X212383015Y-45647598D01*
X212239378Y-45604026D01*
X212127426Y-45593000D01*
X212127423Y-45593000D01*
X212090000Y-45589314D01*
X212052577Y-45593000D01*
X118147423Y-45593000D01*
X118110000Y-45589314D01*
X118072577Y-45593000D01*
X118072574Y-45593000D01*
X117960622Y-45604026D01*
X117816985Y-45647598D01*
X117791117Y-45661425D01*
X117684607Y-45718355D01*
X117622241Y-45769538D01*
X117568578Y-45813578D01*
X117544721Y-45842648D01*
X113114370Y-50273000D01*
X113055061Y-50273000D01*
X112855102Y-50312774D01*
X112666744Y-50390795D01*
X112497226Y-50504063D01*
X112353063Y-50648226D01*
X112239795Y-50817744D01*
X112161774Y-51006102D01*
X112122000Y-51206061D01*
X112122000Y-51409939D01*
X112161774Y-51609898D01*
X112239795Y-51798256D01*
X112353063Y-51967774D01*
X112497226Y-52111937D01*
X112666744Y-52225205D01*
X112855102Y-52303226D01*
X113055061Y-52343000D01*
X113258939Y-52343000D01*
X113458898Y-52303226D01*
X113647256Y-52225205D01*
X113816774Y-52111937D01*
X113960937Y-51967774D01*
X114074205Y-51798256D01*
X114152226Y-51609898D01*
X114192000Y-51409939D01*
X114192000Y-51350630D01*
X118425631Y-47117000D01*
X140146369Y-47117000D01*
X139441649Y-47821721D01*
X139412579Y-47845578D01*
X139388722Y-47874648D01*
X139388721Y-47874649D01*
X139317355Y-47961608D01*
X139246599Y-48093985D01*
X139203027Y-48237622D01*
X139188314Y-48387000D01*
X139192001Y-48424433D01*
X139192001Y-49082288D01*
X139150063Y-49124226D01*
X139036795Y-49293744D01*
X138958774Y-49482102D01*
X138919000Y-49682061D01*
X138919000Y-49885939D01*
X138958774Y-50085898D01*
X139036795Y-50274256D01*
X139150063Y-50443774D01*
X139294226Y-50587937D01*
X139421532Y-50673000D01*
X138364631Y-50673000D01*
X137922000Y-50230370D01*
X137922000Y-49694423D01*
X137925686Y-49657000D01*
X137922000Y-49619574D01*
X137910974Y-49507622D01*
X137867402Y-49363985D01*
X137808412Y-49253622D01*
X137796645Y-49231607D01*
X137725279Y-49144648D01*
X137701422Y-49115578D01*
X137672351Y-49091720D01*
X136963284Y-48382653D01*
X136939422Y-48353578D01*
X136823392Y-48258355D01*
X136691015Y-48187598D01*
X136547378Y-48144026D01*
X136435426Y-48133000D01*
X136435423Y-48133000D01*
X136398000Y-48129314D01*
X136360577Y-48133000D01*
X129323422Y-48133000D01*
X129285999Y-48129314D01*
X129248576Y-48133000D01*
X129248574Y-48133000D01*
X129136622Y-48144026D01*
X128992985Y-48187598D01*
X128893077Y-48241000D01*
X128803061Y-48241000D01*
X128603102Y-48280774D01*
X128414744Y-48358795D01*
X128245226Y-48472063D01*
X128101063Y-48616226D01*
X127987795Y-48785744D01*
X127909774Y-48974102D01*
X127870000Y-49174061D01*
X127870000Y-49377939D01*
X127909774Y-49577898D01*
X127987795Y-49766256D01*
X128101063Y-49935774D01*
X128245226Y-50079937D01*
X128414744Y-50193205D01*
X128603102Y-50271226D01*
X128803061Y-50311000D01*
X129006939Y-50311000D01*
X129206898Y-50271226D01*
X129395256Y-50193205D01*
X129564774Y-50079937D01*
X129708937Y-49935774D01*
X129801522Y-49797211D01*
X129790314Y-49911000D01*
X129794001Y-49948433D01*
X129794000Y-54035289D01*
X129752063Y-54077226D01*
X129638795Y-54246744D01*
X129560774Y-54435102D01*
X129521000Y-54635061D01*
X129521000Y-54838939D01*
X129560774Y-55038898D01*
X129638795Y-55227256D01*
X129752063Y-55396774D01*
X129896226Y-55540937D01*
X130065744Y-55654205D01*
X130254102Y-55732226D01*
X130454061Y-55772000D01*
X130657939Y-55772000D01*
X130857898Y-55732226D01*
X131046256Y-55654205D01*
X131215774Y-55540937D01*
X131359937Y-55396774D01*
X131473205Y-55227256D01*
X131551226Y-55038898D01*
X131591000Y-54838939D01*
X131591000Y-54635061D01*
X131551226Y-54435102D01*
X131473205Y-54246744D01*
X131359937Y-54077226D01*
X131318000Y-54035289D01*
X131318000Y-53619061D01*
X145777000Y-53619061D01*
X145777000Y-53822939D01*
X145816774Y-54022898D01*
X145894795Y-54211256D01*
X146008063Y-54380774D01*
X146152226Y-54524937D01*
X146321744Y-54638205D01*
X146510102Y-54716226D01*
X146710061Y-54756000D01*
X146913939Y-54756000D01*
X147113898Y-54716226D01*
X147302256Y-54638205D01*
X147471774Y-54524937D01*
X147615937Y-54380774D01*
X147729205Y-54211256D01*
X147807226Y-54022898D01*
X147816753Y-53975000D01*
X152968289Y-53975000D01*
X153010226Y-54016937D01*
X153179744Y-54130205D01*
X153368102Y-54208226D01*
X153568061Y-54248000D01*
X153771939Y-54248000D01*
X153971898Y-54208226D01*
X154160256Y-54130205D01*
X154329774Y-54016937D01*
X154473937Y-53872774D01*
X154587205Y-53703256D01*
X154665226Y-53514898D01*
X154705000Y-53314939D01*
X154705000Y-53111061D01*
X154665226Y-52911102D01*
X154587205Y-52722744D01*
X154473937Y-52553226D01*
X154329774Y-52409063D01*
X154160256Y-52295795D01*
X153971898Y-52217774D01*
X153771939Y-52178000D01*
X153568061Y-52178000D01*
X153368102Y-52217774D01*
X153179744Y-52295795D01*
X153010226Y-52409063D01*
X152968289Y-52451000D01*
X147357415Y-52451000D01*
X147319999Y-52447315D01*
X147282583Y-52451000D01*
X147282574Y-52451000D01*
X147170622Y-52462026D01*
X147026985Y-52505598D01*
X146894608Y-52576355D01*
X146778578Y-52671578D01*
X146766742Y-52686000D01*
X146710061Y-52686000D01*
X146510102Y-52725774D01*
X146321744Y-52803795D01*
X146152226Y-52917063D01*
X146008063Y-53061226D01*
X145894795Y-53230744D01*
X145816774Y-53419102D01*
X145777000Y-53619061D01*
X131318000Y-53619061D01*
X131318000Y-50226630D01*
X131379630Y-50165000D01*
X135828370Y-50165000D01*
X135890000Y-50226630D01*
X135890000Y-50762577D01*
X135886314Y-50800000D01*
X135890000Y-50837423D01*
X135890000Y-50837425D01*
X135901026Y-50949377D01*
X135944598Y-51093014D01*
X135970773Y-51141984D01*
X136015355Y-51225392D01*
X136043841Y-51260102D01*
X136110578Y-51341422D01*
X136139654Y-51365284D01*
X137141000Y-52366631D01*
X137141000Y-52425939D01*
X137180774Y-52625898D01*
X137258795Y-52814256D01*
X137372063Y-52983774D01*
X137516226Y-53127937D01*
X137685744Y-53241205D01*
X137874102Y-53319226D01*
X138074061Y-53359000D01*
X138277939Y-53359000D01*
X138477898Y-53319226D01*
X138666256Y-53241205D01*
X138835774Y-53127937D01*
X138979937Y-52983774D01*
X139093205Y-52814256D01*
X139171226Y-52625898D01*
X139211000Y-52425939D01*
X139211000Y-52222061D01*
X139206015Y-52197000D01*
X140654370Y-52197000D01*
X140658721Y-52201351D01*
X141420720Y-52963351D01*
X141444578Y-52992422D01*
X141473648Y-53016279D01*
X141560607Y-53087645D01*
X141604416Y-53111061D01*
X141692985Y-53158402D01*
X141836622Y-53201974D01*
X141948574Y-53213000D01*
X141948577Y-53213000D01*
X141986000Y-53216686D01*
X142023423Y-53213000D01*
X144714077Y-53213000D01*
X144751500Y-53216686D01*
X144788923Y-53213000D01*
X144788926Y-53213000D01*
X144900878Y-53201974D01*
X145044515Y-53158402D01*
X145176892Y-53087645D01*
X145292922Y-52992422D01*
X145316784Y-52963346D01*
X145711630Y-52568500D01*
X145770939Y-52568500D01*
X145970898Y-52528726D01*
X146159256Y-52450705D01*
X146328774Y-52337437D01*
X146472937Y-52193274D01*
X146586205Y-52023756D01*
X146664226Y-51835398D01*
X146704000Y-51635439D01*
X146704000Y-51431561D01*
X146664226Y-51231602D01*
X146586205Y-51043244D01*
X146472937Y-50873726D01*
X146328774Y-50729563D01*
X146159256Y-50616295D01*
X145970898Y-50538274D01*
X145770939Y-50498500D01*
X145567061Y-50498500D01*
X145367102Y-50538274D01*
X145178744Y-50616295D01*
X145009226Y-50729563D01*
X144865063Y-50873726D01*
X144751795Y-51043244D01*
X144673774Y-51231602D01*
X144634000Y-51431561D01*
X144634000Y-51490870D01*
X144435870Y-51689000D01*
X144286015Y-51689000D01*
X144291000Y-51663939D01*
X144291000Y-51460061D01*
X144251226Y-51260102D01*
X144173205Y-51071744D01*
X144059937Y-50902226D01*
X144018000Y-50860289D01*
X144018000Y-49276000D01*
X178627370Y-49276000D01*
X182167154Y-52815785D01*
X182118000Y-53062899D01*
X182118000Y-53363101D01*
X182176566Y-53657534D01*
X182291449Y-53934885D01*
X182458232Y-54184493D01*
X182670507Y-54396768D01*
X182920115Y-54563551D01*
X183197466Y-54678434D01*
X183491899Y-54737000D01*
X183792101Y-54737000D01*
X184086534Y-54678434D01*
X184363885Y-54563551D01*
X184613493Y-54396768D01*
X184825768Y-54184493D01*
X184912000Y-54055438D01*
X184998232Y-54184493D01*
X185210507Y-54396768D01*
X185460115Y-54563551D01*
X185737466Y-54678434D01*
X186031899Y-54737000D01*
X186332101Y-54737000D01*
X186626534Y-54678434D01*
X186903885Y-54563551D01*
X187153493Y-54396768D01*
X187365768Y-54184493D01*
X187452000Y-54055438D01*
X187538232Y-54184493D01*
X187750507Y-54396768D01*
X188000115Y-54563551D01*
X188277466Y-54678434D01*
X188571899Y-54737000D01*
X188872101Y-54737000D01*
X189166534Y-54678434D01*
X189443885Y-54563551D01*
X189693493Y-54396768D01*
X189905768Y-54184493D01*
X189992000Y-54055438D01*
X190078232Y-54184493D01*
X190290507Y-54396768D01*
X190500001Y-54536748D01*
X190500000Y-61025370D01*
X188152370Y-63373000D01*
X147254630Y-63373000D01*
X146704000Y-62822370D01*
X146704000Y-62763061D01*
X146664226Y-62563102D01*
X146586205Y-62374744D01*
X146472937Y-62205226D01*
X146328774Y-62061063D01*
X146159256Y-61947795D01*
X145970898Y-61869774D01*
X145770939Y-61830000D01*
X145567061Y-61830000D01*
X145367102Y-61869774D01*
X145178744Y-61947795D01*
X145009226Y-62061063D01*
X144865063Y-62205226D01*
X144751795Y-62374744D01*
X144673774Y-62563102D01*
X144634000Y-62763061D01*
X144634000Y-62966939D01*
X144673774Y-63166898D01*
X144751795Y-63355256D01*
X144763651Y-63373000D01*
X143788468Y-63373000D01*
X143746256Y-63344795D01*
X143557898Y-63266774D01*
X143357939Y-63227000D01*
X143154061Y-63227000D01*
X142954102Y-63266774D01*
X142765744Y-63344795D01*
X142723532Y-63373000D01*
X140958753Y-63373000D01*
X140949226Y-63325102D01*
X140871205Y-63136744D01*
X140757937Y-62967226D01*
X140716000Y-62925289D01*
X140716000Y-62042711D01*
X140757937Y-62000774D01*
X140871205Y-61831256D01*
X140949226Y-61642898D01*
X140989000Y-61442939D01*
X140989000Y-61239061D01*
X140949226Y-61039102D01*
X140871205Y-60850744D01*
X140757937Y-60681226D01*
X140613774Y-60537063D01*
X140444256Y-60423795D01*
X140255898Y-60345774D01*
X140055939Y-60306000D01*
X139852061Y-60306000D01*
X139652102Y-60345774D01*
X139463744Y-60423795D01*
X139294226Y-60537063D01*
X139150063Y-60681226D01*
X139065000Y-60808532D01*
X139065000Y-59502711D01*
X139106937Y-59460774D01*
X139220205Y-59291256D01*
X139298226Y-59102898D01*
X139338000Y-58902939D01*
X139338000Y-58699061D01*
X139298226Y-58499102D01*
X139220205Y-58310744D01*
X139106937Y-58141226D01*
X138962774Y-57997063D01*
X138793256Y-57883795D01*
X138604898Y-57805774D01*
X138404939Y-57766000D01*
X138201061Y-57766000D01*
X138001102Y-57805774D01*
X137812744Y-57883795D01*
X137795000Y-57895651D01*
X137777256Y-57883795D01*
X137588898Y-57805774D01*
X137388939Y-57766000D01*
X137185061Y-57766000D01*
X136985102Y-57805774D01*
X136796744Y-57883795D01*
X136627226Y-57997063D01*
X136483063Y-58141226D01*
X136369795Y-58310744D01*
X136291774Y-58499102D01*
X136252000Y-58699061D01*
X136252000Y-58902939D01*
X136291774Y-59102898D01*
X136369795Y-59291256D01*
X136483063Y-59460774D01*
X136525001Y-59502712D01*
X136525000Y-62290289D01*
X136483063Y-62332226D01*
X136369795Y-62501744D01*
X136291774Y-62690102D01*
X136252000Y-62890061D01*
X136252000Y-63093939D01*
X136291774Y-63293898D01*
X136324539Y-63373000D01*
X32461200Y-63373000D01*
X32461200Y-56592447D01*
X78945274Y-56592447D01*
X78984665Y-56837499D01*
X79071107Y-57070158D01*
X79115223Y-57152694D01*
X79341352Y-57203043D01*
X80029395Y-56515000D01*
X79341352Y-55826957D01*
X79115223Y-55877306D01*
X79011832Y-56102944D01*
X78954447Y-56344418D01*
X78945274Y-56592447D01*
X32461200Y-56592447D01*
X32461200Y-55647352D01*
X79520957Y-55647352D01*
X80209000Y-56335395D01*
X80223143Y-56321253D01*
X80402748Y-56500858D01*
X80388605Y-56515000D01*
X80402748Y-56529143D01*
X80223143Y-56708748D01*
X80209000Y-56694605D01*
X79520957Y-57382648D01*
X79571306Y-57608777D01*
X79796944Y-57712168D01*
X80038418Y-57769553D01*
X80286447Y-57778726D01*
X80531499Y-57739335D01*
X80764158Y-57652893D01*
X80846694Y-57608777D01*
X80878413Y-57466322D01*
X80905797Y-57493706D01*
X81112166Y-57631598D01*
X81341471Y-57726579D01*
X81584901Y-57775000D01*
X81833099Y-57775000D01*
X82076529Y-57726579D01*
X82305834Y-57631598D01*
X82459000Y-57529255D01*
X82612166Y-57631598D01*
X82841471Y-57726579D01*
X83084901Y-57775000D01*
X83333099Y-57775000D01*
X83576529Y-57726579D01*
X83805834Y-57631598D01*
X83959000Y-57529255D01*
X84112166Y-57631598D01*
X84341471Y-57726579D01*
X84584901Y-57775000D01*
X84833099Y-57775000D01*
X85076529Y-57726579D01*
X85305834Y-57631598D01*
X85512203Y-57493706D01*
X85687706Y-57318203D01*
X85825598Y-57111834D01*
X85920579Y-56882529D01*
X85969000Y-56639099D01*
X85969000Y-56390901D01*
X85922885Y-56159061D01*
X140824000Y-56159061D01*
X140824000Y-56362939D01*
X140863774Y-56562898D01*
X140941795Y-56751256D01*
X140948307Y-56761002D01*
X140941795Y-56770747D01*
X140863774Y-56959105D01*
X140824000Y-57159064D01*
X140824000Y-57362942D01*
X140863774Y-57562901D01*
X140941795Y-57751259D01*
X141055063Y-57920777D01*
X141199226Y-58064940D01*
X141368744Y-58178208D01*
X141557102Y-58256229D01*
X141757061Y-58296003D01*
X141960939Y-58296003D01*
X142160898Y-58256229D01*
X142349256Y-58178208D01*
X142518774Y-58064940D01*
X142544714Y-58039000D01*
X188655289Y-58039000D01*
X188697226Y-58080937D01*
X188866744Y-58194205D01*
X189055102Y-58272226D01*
X189255061Y-58312000D01*
X189458939Y-58312000D01*
X189658898Y-58272226D01*
X189847256Y-58194205D01*
X190016774Y-58080937D01*
X190160937Y-57936774D01*
X190274205Y-57767256D01*
X190352226Y-57578898D01*
X190392000Y-57378939D01*
X190392000Y-57175061D01*
X190352226Y-56975102D01*
X190274205Y-56786744D01*
X190262349Y-56769000D01*
X190274205Y-56751256D01*
X190352226Y-56562898D01*
X190392000Y-56362939D01*
X190392000Y-56159061D01*
X190352226Y-55959102D01*
X190274205Y-55770744D01*
X190160937Y-55601226D01*
X190016774Y-55457063D01*
X189847256Y-55343795D01*
X189658898Y-55265774D01*
X189458939Y-55226000D01*
X189255061Y-55226000D01*
X189055102Y-55265774D01*
X188866744Y-55343795D01*
X188697226Y-55457063D01*
X188655289Y-55499000D01*
X142560711Y-55499000D01*
X142518774Y-55457063D01*
X142349256Y-55343795D01*
X142160898Y-55265774D01*
X141960939Y-55226000D01*
X141757061Y-55226000D01*
X141557102Y-55265774D01*
X141368744Y-55343795D01*
X141199226Y-55457063D01*
X141055063Y-55601226D01*
X140941795Y-55770744D01*
X140863774Y-55959102D01*
X140824000Y-56159061D01*
X85922885Y-56159061D01*
X85920579Y-56147471D01*
X85825598Y-55918166D01*
X85687706Y-55711797D01*
X85512203Y-55536294D01*
X85305834Y-55398402D01*
X85076529Y-55303421D01*
X84833099Y-55255000D01*
X84584901Y-55255000D01*
X84341471Y-55303421D01*
X84112166Y-55398402D01*
X83959000Y-55500745D01*
X83805834Y-55398402D01*
X83576529Y-55303421D01*
X83333099Y-55255000D01*
X83084901Y-55255000D01*
X82841471Y-55303421D01*
X82612166Y-55398402D01*
X82459000Y-55500745D01*
X82305834Y-55398402D01*
X82076529Y-55303421D01*
X81833099Y-55255000D01*
X81584901Y-55255000D01*
X81341471Y-55303421D01*
X81112166Y-55398402D01*
X80905797Y-55536294D01*
X80878413Y-55563678D01*
X80846694Y-55421223D01*
X80621056Y-55317832D01*
X80379582Y-55260447D01*
X80131553Y-55251274D01*
X79886501Y-55290665D01*
X79653842Y-55377107D01*
X79571306Y-55421223D01*
X79520957Y-55647352D01*
X32461200Y-55647352D01*
X32461200Y-53481400D01*
X93161205Y-53481400D01*
X93217630Y-53712621D01*
X93451808Y-53821017D01*
X93702633Y-53881645D01*
X93960465Y-53892174D01*
X94215398Y-53852200D01*
X94457633Y-53763259D01*
X94552370Y-53712621D01*
X94608795Y-53481400D01*
X93885000Y-52757605D01*
X93161205Y-53481400D01*
X32461200Y-53481400D01*
X32461200Y-52653465D01*
X92570826Y-52653465D01*
X92610800Y-52908398D01*
X92699741Y-53150633D01*
X92750379Y-53245370D01*
X92981600Y-53301795D01*
X93705395Y-52578000D01*
X92981600Y-51854205D01*
X92750379Y-51910630D01*
X92641983Y-52144808D01*
X92581355Y-52395633D01*
X92570826Y-52653465D01*
X32461200Y-52653465D01*
X32461200Y-47488589D01*
X70727500Y-47488589D01*
X70727500Y-47761411D01*
X70780725Y-48028989D01*
X70885129Y-48281043D01*
X71036701Y-48507886D01*
X71229614Y-48700799D01*
X71456457Y-48852371D01*
X71708511Y-48956775D01*
X71976089Y-49010000D01*
X72248911Y-49010000D01*
X72516489Y-48956775D01*
X72768543Y-48852371D01*
X72995386Y-48700799D01*
X73188299Y-48507886D01*
X73339871Y-48281043D01*
X73362500Y-48226412D01*
X73385129Y-48281043D01*
X73536701Y-48507886D01*
X73729614Y-48700799D01*
X73956457Y-48852371D01*
X74208511Y-48956775D01*
X74476089Y-49010000D01*
X74748911Y-49010000D01*
X74816603Y-48996535D01*
X75587606Y-49767539D01*
X75613459Y-49799041D01*
X75677596Y-49851677D01*
X75739157Y-49902199D01*
X75828616Y-49950016D01*
X75882566Y-49978853D01*
X76038174Y-50026056D01*
X76159447Y-50038000D01*
X76159449Y-50038000D01*
X76199999Y-50041994D01*
X76240550Y-50038000D01*
X92526818Y-50038000D01*
X93760355Y-51271538D01*
X93554602Y-51303800D01*
X93312367Y-51392741D01*
X93217630Y-51443379D01*
X93161205Y-51674600D01*
X93885000Y-52398395D01*
X93899143Y-52384253D01*
X94078748Y-52563858D01*
X94064605Y-52578000D01*
X94788400Y-53301795D01*
X94792441Y-53300809D01*
X94867456Y-53413077D01*
X95049923Y-53595544D01*
X95264482Y-53738907D01*
X95502887Y-53837658D01*
X95755976Y-53888000D01*
X96014024Y-53888000D01*
X96267113Y-53837658D01*
X96505518Y-53738907D01*
X96720077Y-53595544D01*
X96902544Y-53413077D01*
X97045907Y-53198518D01*
X97144658Y-52960113D01*
X97195000Y-52707024D01*
X97195000Y-52448976D01*
X97144658Y-52195887D01*
X97045907Y-51957482D01*
X96902544Y-51742923D01*
X96720077Y-51560456D01*
X96505518Y-51417093D01*
X96267113Y-51318342D01*
X96110965Y-51287283D01*
X93481148Y-48657466D01*
X93455291Y-48625959D01*
X93329592Y-48522801D01*
X93194328Y-48450500D01*
X97829068Y-48450500D01*
X104636572Y-55258005D01*
X104668774Y-55419898D01*
X104746795Y-55608256D01*
X104860063Y-55777774D01*
X105004226Y-55921937D01*
X105173744Y-56035205D01*
X105362102Y-56113226D01*
X105562061Y-56153000D01*
X105765939Y-56153000D01*
X105965898Y-56113226D01*
X106154256Y-56035205D01*
X106323774Y-55921937D01*
X106467937Y-55777774D01*
X106581205Y-55608256D01*
X106659226Y-55419898D01*
X106699000Y-55219939D01*
X106699000Y-55016061D01*
X106659226Y-54816102D01*
X106581205Y-54627744D01*
X106467937Y-54458226D01*
X106323774Y-54314063D01*
X106154256Y-54200795D01*
X105965898Y-54122774D01*
X105804005Y-54090572D01*
X98783398Y-47069966D01*
X98757541Y-47038459D01*
X98631842Y-46935301D01*
X98488434Y-46858647D01*
X98332826Y-46811444D01*
X98211553Y-46799500D01*
X98211550Y-46799500D01*
X98171000Y-46795506D01*
X98130450Y-46799500D01*
X78226643Y-46799500D01*
X78188299Y-46742114D01*
X77995386Y-46549201D01*
X77768543Y-46397629D01*
X77516489Y-46293225D01*
X77248911Y-46240000D01*
X76976089Y-46240000D01*
X76708511Y-46293225D01*
X76456457Y-46397629D01*
X76229614Y-46549201D01*
X76036701Y-46742114D01*
X75885129Y-46968957D01*
X75862500Y-47023588D01*
X75839871Y-46968957D01*
X75688299Y-46742114D01*
X75495386Y-46549201D01*
X75268543Y-46397629D01*
X75016489Y-46293225D01*
X74748911Y-46240000D01*
X74476089Y-46240000D01*
X74208511Y-46293225D01*
X73956457Y-46397629D01*
X73729614Y-46549201D01*
X73536701Y-46742114D01*
X73385129Y-46968957D01*
X73362500Y-47023588D01*
X73339871Y-46968957D01*
X73188299Y-46742114D01*
X72995386Y-46549201D01*
X72768543Y-46397629D01*
X72516489Y-46293225D01*
X72248911Y-46240000D01*
X71976089Y-46240000D01*
X71708511Y-46293225D01*
X71456457Y-46397629D01*
X71229614Y-46549201D01*
X71036701Y-46742114D01*
X70885129Y-46968957D01*
X70780725Y-47221011D01*
X70727500Y-47488589D01*
X32461200Y-47488589D01*
X32461200Y-46866038D01*
X32496352Y-46507531D01*
X32590366Y-46196142D01*
X32743072Y-45908944D01*
X32948650Y-45656881D01*
X33199278Y-45449543D01*
X33485401Y-45294836D01*
X33796126Y-45198651D01*
X34152450Y-45161200D01*
X257933962Y-45161200D01*
X258292469Y-45196352D01*
G37*
X258292469Y-45196352D02*
X258603858Y-45290366D01*
X258891056Y-45443072D01*
X259143119Y-45648650D01*
X259350457Y-45899278D01*
X259505164Y-46185401D01*
X259601349Y-46496126D01*
X259638800Y-46852450D01*
X259638800Y-63373000D01*
X256459396Y-63373000D01*
X256457392Y-63371355D01*
X256325015Y-63300598D01*
X256181378Y-63257026D01*
X256069426Y-63246000D01*
X256069423Y-63246000D01*
X256032000Y-63242314D01*
X255994577Y-63246000D01*
X205801630Y-63246000D01*
X204435827Y-61880197D01*
X220239408Y-61880197D01*
X220298686Y-62113812D01*
X220536875Y-62224559D01*
X220792093Y-62286711D01*
X221054533Y-62297876D01*
X221314107Y-62257629D01*
X221560842Y-62167514D01*
X221661314Y-62113812D01*
X221720592Y-61880197D01*
X220980000Y-61139605D01*
X220239408Y-61880197D01*
X204435827Y-61880197D01*
X200463284Y-57907654D01*
X200439422Y-57878578D01*
X200323392Y-57783355D01*
X200191015Y-57712598D01*
X200126842Y-57693131D01*
X200049774Y-57616063D01*
X199880256Y-57502795D01*
X199691898Y-57424774D01*
X199491939Y-57385000D01*
X199288061Y-57385000D01*
X199088102Y-57424774D01*
X198899744Y-57502795D01*
X198730226Y-57616063D01*
X198586063Y-57760226D01*
X198472795Y-57929744D01*
X198394774Y-58118102D01*
X198355000Y-58318061D01*
X198355000Y-58521939D01*
X198394774Y-58721898D01*
X198472795Y-58910256D01*
X198489996Y-58935998D01*
X198472795Y-58961741D01*
X198394774Y-59150099D01*
X198355000Y-59350058D01*
X198355000Y-59553936D01*
X198394774Y-59753895D01*
X198472795Y-59942253D01*
X198479307Y-59951999D01*
X198472795Y-59961744D01*
X198394774Y-60150102D01*
X198355000Y-60350061D01*
X198355000Y-60553939D01*
X198394774Y-60753898D01*
X198472795Y-60942256D01*
X198484651Y-60960000D01*
X198472795Y-60977744D01*
X198394774Y-61166102D01*
X198355000Y-61366061D01*
X198355000Y-61569939D01*
X198394774Y-61769898D01*
X198472795Y-61958256D01*
X198586063Y-62127774D01*
X198730226Y-62271937D01*
X198899744Y-62385205D01*
X199088102Y-62463226D01*
X199288061Y-62503000D01*
X199491939Y-62503000D01*
X199691898Y-62463226D01*
X199880256Y-62385205D01*
X200049774Y-62271937D01*
X200091711Y-62230000D01*
X200344370Y-62230000D01*
X201487370Y-63373000D01*
X191069630Y-63373000D01*
X199394347Y-55048283D01*
X199423422Y-55024422D01*
X199483857Y-54950781D01*
X199518645Y-54908393D01*
X199589401Y-54776016D01*
X199589402Y-54776015D01*
X199632974Y-54632378D01*
X199642279Y-54537897D01*
X199853493Y-54396768D01*
X199981030Y-54269231D01*
X200545374Y-54269231D01*
X200627727Y-54522289D01*
X200898418Y-54652086D01*
X201189230Y-54726580D01*
X201488988Y-54742908D01*
X201786171Y-54700443D01*
X202069359Y-54600816D01*
X202216273Y-54522289D01*
X202298626Y-54269231D01*
X201422000Y-53392605D01*
X200545374Y-54269231D01*
X199981030Y-54269231D01*
X200065768Y-54184493D01*
X200171417Y-54026378D01*
X200365769Y-54089626D01*
X201242395Y-53213000D01*
X201601605Y-53213000D01*
X202478231Y-54089626D01*
X202672583Y-54026378D01*
X202778232Y-54184493D01*
X202990507Y-54396768D01*
X203240115Y-54563551D01*
X203517466Y-54678434D01*
X203811899Y-54737000D01*
X204112101Y-54737000D01*
X204178384Y-54723816D01*
X209953607Y-60499040D01*
X209979459Y-60530541D01*
X210105158Y-60633699D01*
X210248566Y-60710353D01*
X210404174Y-60757556D01*
X210525447Y-60769500D01*
X210525456Y-60769500D01*
X210565999Y-60773493D01*
X210606542Y-60769500D01*
X219415450Y-60769500D01*
X219456000Y-60773494D01*
X219496550Y-60769500D01*
X219496553Y-60769500D01*
X219617826Y-60757556D01*
X219659940Y-60744781D01*
X219653289Y-60772093D01*
X219642124Y-61034533D01*
X219682371Y-61294107D01*
X219772486Y-61540842D01*
X219826188Y-61641314D01*
X220059803Y-61700592D01*
X220800395Y-60960000D01*
X221159605Y-60960000D01*
X221900197Y-61700592D01*
X222133812Y-61641314D01*
X222244559Y-61403125D01*
X222306711Y-61147907D01*
X222317876Y-60885467D01*
X222277629Y-60625893D01*
X222187514Y-60379158D01*
X222133812Y-60278686D01*
X221900197Y-60219408D01*
X221159605Y-60960000D01*
X220800395Y-60960000D01*
X220786253Y-60945858D01*
X220965858Y-60766253D01*
X220980000Y-60780395D01*
X221720592Y-60039803D01*
X221661314Y-59806188D01*
X221423125Y-59695441D01*
X221399378Y-59689658D01*
X221611649Y-59601732D01*
X221830057Y-59455797D01*
X222015797Y-59270057D01*
X222161732Y-59051649D01*
X222262254Y-58808968D01*
X222313500Y-58551338D01*
X222313500Y-58288662D01*
X222262254Y-58031032D01*
X222161732Y-57788351D01*
X222015797Y-57569943D01*
X221830057Y-57384203D01*
X221611649Y-57238268D01*
X221398552Y-57150000D01*
X221611649Y-57061732D01*
X221830057Y-56915797D01*
X222015797Y-56730057D01*
X222161732Y-56511649D01*
X222262254Y-56268968D01*
X222313500Y-56011338D01*
X222313500Y-55748662D01*
X222262254Y-55491032D01*
X222161732Y-55248351D01*
X222015797Y-55029943D01*
X221830057Y-54844203D01*
X221611649Y-54698268D01*
X221398552Y-54610000D01*
X221611649Y-54521732D01*
X221830057Y-54375797D01*
X222015797Y-54190057D01*
X222161732Y-53971649D01*
X222262254Y-53728968D01*
X222313500Y-53471338D01*
X222313500Y-53208662D01*
X222262254Y-52951032D01*
X222161732Y-52708351D01*
X222015797Y-52489943D01*
X221830057Y-52304203D01*
X221611649Y-52158268D01*
X221368968Y-52057746D01*
X221111338Y-52006500D01*
X220848662Y-52006500D01*
X220591032Y-52057746D01*
X220348351Y-52158268D01*
X220129943Y-52304203D01*
X219944203Y-52489943D01*
X219798268Y-52708351D01*
X219738953Y-52851550D01*
X219738205Y-52849744D01*
X219624937Y-52680226D01*
X219480774Y-52536063D01*
X219311256Y-52422795D01*
X219122898Y-52344774D01*
X218922939Y-52305000D01*
X218719061Y-52305000D01*
X218519102Y-52344774D01*
X218330744Y-52422795D01*
X218161226Y-52536063D01*
X218017063Y-52680226D01*
X217903795Y-52849744D01*
X217825774Y-53038102D01*
X217786000Y-53238061D01*
X217786000Y-53441939D01*
X217825774Y-53641898D01*
X217903795Y-53830256D01*
X218017063Y-53999774D01*
X218059000Y-54041711D01*
X218059001Y-57464288D01*
X218017063Y-57506226D01*
X217903795Y-57675744D01*
X217825774Y-57864102D01*
X217786000Y-58064061D01*
X217786000Y-58267939D01*
X217825774Y-58467898D01*
X217903795Y-58656256D01*
X218017063Y-58825774D01*
X218161226Y-58969937D01*
X218330744Y-59083205D01*
X218415953Y-59118500D01*
X210907933Y-59118500D01*
X205430675Y-53641242D01*
X205486000Y-53363101D01*
X205486000Y-53062899D01*
X205427434Y-52768466D01*
X205312551Y-52491115D01*
X205145768Y-52241507D01*
X204933493Y-52029232D01*
X204683885Y-51862449D01*
X204406534Y-51747566D01*
X204112101Y-51689000D01*
X203811899Y-51689000D01*
X203517466Y-51747566D01*
X203240115Y-51862449D01*
X202990507Y-52029232D01*
X202778232Y-52241507D01*
X202672583Y-52399622D01*
X202478231Y-52336374D01*
X201601605Y-53213000D01*
X201242395Y-53213000D01*
X200365769Y-52336374D01*
X200171417Y-52399622D01*
X200065768Y-52241507D01*
X199981030Y-52156769D01*
X200545374Y-52156769D01*
X201422000Y-53033395D01*
X202298626Y-52156769D01*
X202216273Y-51903711D01*
X201945582Y-51773914D01*
X201654770Y-51699420D01*
X201355012Y-51683092D01*
X201057829Y-51725557D01*
X200774641Y-51825184D01*
X200627727Y-51903711D01*
X200545374Y-52156769D01*
X199981030Y-52156769D01*
X199853493Y-52029232D01*
X199603885Y-51862449D01*
X199326534Y-51747566D01*
X199032101Y-51689000D01*
X198731899Y-51689000D01*
X198437466Y-51747566D01*
X198160115Y-51862449D01*
X197910507Y-52029232D01*
X197698232Y-52241507D01*
X197612000Y-52370562D01*
X197525768Y-52241507D01*
X197313493Y-52029232D01*
X197063885Y-51862449D01*
X196786534Y-51747566D01*
X196492101Y-51689000D01*
X196191899Y-51689000D01*
X195897466Y-51747566D01*
X195620115Y-51862449D01*
X195370507Y-52029232D01*
X195158232Y-52241507D01*
X195072000Y-52370562D01*
X194985768Y-52241507D01*
X194773493Y-52029232D01*
X194523885Y-51862449D01*
X194246534Y-51747566D01*
X193952101Y-51689000D01*
X193651899Y-51689000D01*
X193404784Y-51738154D01*
X190883192Y-49216562D01*
X190860226Y-49101102D01*
X190782205Y-48912744D01*
X190668937Y-48743226D01*
X190524774Y-48599063D01*
X190355256Y-48485795D01*
X190166898Y-48407774D01*
X189966939Y-48368000D01*
X189763061Y-48368000D01*
X189563102Y-48407774D01*
X189374744Y-48485795D01*
X189205226Y-48599063D01*
X189061063Y-48743226D01*
X188947795Y-48912744D01*
X188869774Y-49101102D01*
X188830000Y-49301061D01*
X188830000Y-49504939D01*
X188869774Y-49704898D01*
X188947795Y-49893256D01*
X189061063Y-50062774D01*
X189205226Y-50206937D01*
X189374744Y-50320205D01*
X189563102Y-50398226D01*
X189763061Y-50438000D01*
X189949370Y-50438000D01*
X191200370Y-51689000D01*
X191111899Y-51689000D01*
X190817466Y-51747566D01*
X190540115Y-51862449D01*
X190290507Y-52029232D01*
X190078232Y-52241507D01*
X189992000Y-52370562D01*
X189905768Y-52241507D01*
X189693493Y-52029232D01*
X189443885Y-51862449D01*
X189166534Y-51747566D01*
X188872101Y-51689000D01*
X188571899Y-51689000D01*
X188277466Y-51747566D01*
X188000115Y-51862449D01*
X187750507Y-52029232D01*
X187538232Y-52241507D01*
X187452000Y-52370562D01*
X187365768Y-52241507D01*
X187153493Y-52029232D01*
X186903885Y-51862449D01*
X186626534Y-51747566D01*
X186332101Y-51689000D01*
X186031899Y-51689000D01*
X185784785Y-51738154D01*
X181163630Y-47117000D01*
X211774370Y-47117000D01*
X215881000Y-51223630D01*
X215881000Y-51282939D01*
X215920774Y-51482898D01*
X215998795Y-51671256D01*
X216112063Y-51840774D01*
X216256226Y-51984937D01*
X216425744Y-52098205D01*
X216614102Y-52176226D01*
X216814061Y-52216000D01*
X217017939Y-52216000D01*
X217217898Y-52176226D01*
X217406256Y-52098205D01*
X217575774Y-51984937D01*
X217719937Y-51840774D01*
X217833205Y-51671256D01*
X217911226Y-51482898D01*
X217951000Y-51282939D01*
X217951000Y-51079061D01*
X217911226Y-50879102D01*
X217833205Y-50690744D01*
X217719937Y-50521226D01*
X217575774Y-50377063D01*
X217406256Y-50263795D01*
X217217898Y-50185774D01*
X217017939Y-50146000D01*
X216958630Y-50146000D01*
X212655284Y-45842654D01*
X212631422Y-45813578D01*
X212515392Y-45718355D01*
X212383015Y-45647598D01*
X212239378Y-45604026D01*
X212127426Y-45593000D01*
X212127423Y-45593000D01*
X212090000Y-45589314D01*
X212052577Y-45593000D01*
X118147423Y-45593000D01*
X118110000Y-45589314D01*
X118072577Y-45593000D01*
X118072574Y-45593000D01*
X117960622Y-45604026D01*
X117816985Y-45647598D01*
X117791117Y-45661425D01*
X117684607Y-45718355D01*
X117622241Y-45769538D01*
X117568578Y-45813578D01*
X117544721Y-45842648D01*
X113114370Y-50273000D01*
X113055061Y-50273000D01*
X112855102Y-50312774D01*
X112666744Y-50390795D01*
X112497226Y-50504063D01*
X112353063Y-50648226D01*
X112239795Y-50817744D01*
X112161774Y-51006102D01*
X112122000Y-51206061D01*
X112122000Y-51409939D01*
X112161774Y-51609898D01*
X112239795Y-51798256D01*
X112353063Y-51967774D01*
X112497226Y-52111937D01*
X112666744Y-52225205D01*
X112855102Y-52303226D01*
X113055061Y-52343000D01*
X113258939Y-52343000D01*
X113458898Y-52303226D01*
X113647256Y-52225205D01*
X113816774Y-52111937D01*
X113960937Y-51967774D01*
X114074205Y-51798256D01*
X114152226Y-51609898D01*
X114192000Y-51409939D01*
X114192000Y-51350630D01*
X118425631Y-47117000D01*
X140146369Y-47117000D01*
X139441649Y-47821721D01*
X139412579Y-47845578D01*
X139388722Y-47874648D01*
X139388721Y-47874649D01*
X139317355Y-47961608D01*
X139246599Y-48093985D01*
X139203027Y-48237622D01*
X139188314Y-48387000D01*
X139192001Y-48424433D01*
X139192001Y-49082288D01*
X139150063Y-49124226D01*
X139036795Y-49293744D01*
X138958774Y-49482102D01*
X138919000Y-49682061D01*
X138919000Y-49885939D01*
X138958774Y-50085898D01*
X139036795Y-50274256D01*
X139150063Y-50443774D01*
X139294226Y-50587937D01*
X139421532Y-50673000D01*
X138364631Y-50673000D01*
X137922000Y-50230370D01*
X137922000Y-49694423D01*
X137925686Y-49657000D01*
X137922000Y-49619574D01*
X137910974Y-49507622D01*
X137867402Y-49363985D01*
X137808412Y-49253622D01*
X137796645Y-49231607D01*
X137725279Y-49144648D01*
X137701422Y-49115578D01*
X137672351Y-49091720D01*
X136963284Y-48382653D01*
X136939422Y-48353578D01*
X136823392Y-48258355D01*
X136691015Y-48187598D01*
X136547378Y-48144026D01*
X136435426Y-48133000D01*
X136435423Y-48133000D01*
X136398000Y-48129314D01*
X136360577Y-48133000D01*
X129323422Y-48133000D01*
X129285999Y-48129314D01*
X129248576Y-48133000D01*
X129248574Y-48133000D01*
X129136622Y-48144026D01*
X128992985Y-48187598D01*
X128893077Y-48241000D01*
X128803061Y-48241000D01*
X128603102Y-48280774D01*
X128414744Y-48358795D01*
X128245226Y-48472063D01*
X128101063Y-48616226D01*
X127987795Y-48785744D01*
X127909774Y-48974102D01*
X127870000Y-49174061D01*
X127870000Y-49377939D01*
X127909774Y-49577898D01*
X127987795Y-49766256D01*
X128101063Y-49935774D01*
X128245226Y-50079937D01*
X128414744Y-50193205D01*
X128603102Y-50271226D01*
X128803061Y-50311000D01*
X129006939Y-50311000D01*
X129206898Y-50271226D01*
X129395256Y-50193205D01*
X129564774Y-50079937D01*
X129708937Y-49935774D01*
X129801522Y-49797211D01*
X129790314Y-49911000D01*
X129794001Y-49948433D01*
X129794000Y-54035289D01*
X129752063Y-54077226D01*
X129638795Y-54246744D01*
X129560774Y-54435102D01*
X129521000Y-54635061D01*
X129521000Y-54838939D01*
X129560774Y-55038898D01*
X129638795Y-55227256D01*
X129752063Y-55396774D01*
X129896226Y-55540937D01*
X130065744Y-55654205D01*
X130254102Y-55732226D01*
X130454061Y-55772000D01*
X130657939Y-55772000D01*
X130857898Y-55732226D01*
X131046256Y-55654205D01*
X131215774Y-55540937D01*
X131359937Y-55396774D01*
X131473205Y-55227256D01*
X131551226Y-55038898D01*
X131591000Y-54838939D01*
X131591000Y-54635061D01*
X131551226Y-54435102D01*
X131473205Y-54246744D01*
X131359937Y-54077226D01*
X131318000Y-54035289D01*
X131318000Y-53619061D01*
X145777000Y-53619061D01*
X145777000Y-53822939D01*
X145816774Y-54022898D01*
X145894795Y-54211256D01*
X146008063Y-54380774D01*
X146152226Y-54524937D01*
X146321744Y-54638205D01*
X146510102Y-54716226D01*
X146710061Y-54756000D01*
X146913939Y-54756000D01*
X147113898Y-54716226D01*
X147302256Y-54638205D01*
X147471774Y-54524937D01*
X147615937Y-54380774D01*
X147729205Y-54211256D01*
X147807226Y-54022898D01*
X147816753Y-53975000D01*
X152968289Y-53975000D01*
X153010226Y-54016937D01*
X153179744Y-54130205D01*
X153368102Y-54208226D01*
X153568061Y-54248000D01*
X153771939Y-54248000D01*
X153971898Y-54208226D01*
X154160256Y-54130205D01*
X154329774Y-54016937D01*
X154473937Y-53872774D01*
X154587205Y-53703256D01*
X154665226Y-53514898D01*
X154705000Y-53314939D01*
X154705000Y-53111061D01*
X154665226Y-52911102D01*
X154587205Y-52722744D01*
X154473937Y-52553226D01*
X154329774Y-52409063D01*
X154160256Y-52295795D01*
X153971898Y-52217774D01*
X153771939Y-52178000D01*
X153568061Y-52178000D01*
X153368102Y-52217774D01*
X153179744Y-52295795D01*
X153010226Y-52409063D01*
X152968289Y-52451000D01*
X147357415Y-52451000D01*
X147319999Y-52447315D01*
X147282583Y-52451000D01*
X147282574Y-52451000D01*
X147170622Y-52462026D01*
X147026985Y-52505598D01*
X146894608Y-52576355D01*
X146778578Y-52671578D01*
X146766742Y-52686000D01*
X146710061Y-52686000D01*
X146510102Y-52725774D01*
X146321744Y-52803795D01*
X146152226Y-52917063D01*
X146008063Y-53061226D01*
X145894795Y-53230744D01*
X145816774Y-53419102D01*
X145777000Y-53619061D01*
X131318000Y-53619061D01*
X131318000Y-50226630D01*
X131379630Y-50165000D01*
X135828370Y-50165000D01*
X135890000Y-50226630D01*
X135890000Y-50762577D01*
X135886314Y-50800000D01*
X135890000Y-50837423D01*
X135890000Y-50837425D01*
X135901026Y-50949377D01*
X135944598Y-51093014D01*
X135970773Y-51141984D01*
X136015355Y-51225392D01*
X136043841Y-51260102D01*
X136110578Y-51341422D01*
X136139654Y-51365284D01*
X137141000Y-52366631D01*
X137141000Y-52425939D01*
X137180774Y-52625898D01*
X137258795Y-52814256D01*
X137372063Y-52983774D01*
X137516226Y-53127937D01*
X137685744Y-53241205D01*
X137874102Y-53319226D01*
X138074061Y-53359000D01*
X138277939Y-53359000D01*
X138477898Y-53319226D01*
X138666256Y-53241205D01*
X138835774Y-53127937D01*
X138979937Y-52983774D01*
X139093205Y-52814256D01*
X139171226Y-52625898D01*
X139211000Y-52425939D01*
X139211000Y-52222061D01*
X139206015Y-52197000D01*
X140654370Y-52197000D01*
X140658721Y-52201351D01*
X141420720Y-52963351D01*
X141444578Y-52992422D01*
X141473648Y-53016279D01*
X141560607Y-53087645D01*
X141604416Y-53111061D01*
X141692985Y-53158402D01*
X141836622Y-53201974D01*
X141948574Y-53213000D01*
X141948577Y-53213000D01*
X141986000Y-53216686D01*
X142023423Y-53213000D01*
X144714077Y-53213000D01*
X144751500Y-53216686D01*
X144788923Y-53213000D01*
X144788926Y-53213000D01*
X144900878Y-53201974D01*
X145044515Y-53158402D01*
X145176892Y-53087645D01*
X145292922Y-52992422D01*
X145316784Y-52963346D01*
X145711630Y-52568500D01*
X145770939Y-52568500D01*
X145970898Y-52528726D01*
X146159256Y-52450705D01*
X146328774Y-52337437D01*
X146472937Y-52193274D01*
X146586205Y-52023756D01*
X146664226Y-51835398D01*
X146704000Y-51635439D01*
X146704000Y-51431561D01*
X146664226Y-51231602D01*
X146586205Y-51043244D01*
X146472937Y-50873726D01*
X146328774Y-50729563D01*
X146159256Y-50616295D01*
X145970898Y-50538274D01*
X145770939Y-50498500D01*
X145567061Y-50498500D01*
X145367102Y-50538274D01*
X145178744Y-50616295D01*
X145009226Y-50729563D01*
X144865063Y-50873726D01*
X144751795Y-51043244D01*
X144673774Y-51231602D01*
X144634000Y-51431561D01*
X144634000Y-51490870D01*
X144435870Y-51689000D01*
X144286015Y-51689000D01*
X144291000Y-51663939D01*
X144291000Y-51460061D01*
X144251226Y-51260102D01*
X144173205Y-51071744D01*
X144059937Y-50902226D01*
X144018000Y-50860289D01*
X144018000Y-49276000D01*
X178627370Y-49276000D01*
X182167154Y-52815785D01*
X182118000Y-53062899D01*
X182118000Y-53363101D01*
X182176566Y-53657534D01*
X182291449Y-53934885D01*
X182458232Y-54184493D01*
X182670507Y-54396768D01*
X182920115Y-54563551D01*
X183197466Y-54678434D01*
X183491899Y-54737000D01*
X183792101Y-54737000D01*
X184086534Y-54678434D01*
X184363885Y-54563551D01*
X184613493Y-54396768D01*
X184825768Y-54184493D01*
X184912000Y-54055438D01*
X184998232Y-54184493D01*
X185210507Y-54396768D01*
X185460115Y-54563551D01*
X185737466Y-54678434D01*
X186031899Y-54737000D01*
X186332101Y-54737000D01*
X186626534Y-54678434D01*
X186903885Y-54563551D01*
X187153493Y-54396768D01*
X187365768Y-54184493D01*
X187452000Y-54055438D01*
X187538232Y-54184493D01*
X187750507Y-54396768D01*
X188000115Y-54563551D01*
X188277466Y-54678434D01*
X188571899Y-54737000D01*
X188872101Y-54737000D01*
X189166534Y-54678434D01*
X189443885Y-54563551D01*
X189693493Y-54396768D01*
X189905768Y-54184493D01*
X189992000Y-54055438D01*
X190078232Y-54184493D01*
X190290507Y-54396768D01*
X190500001Y-54536748D01*
X190500000Y-61025370D01*
X188152370Y-63373000D01*
X147254630Y-63373000D01*
X146704000Y-62822370D01*
X146704000Y-62763061D01*
X146664226Y-62563102D01*
X146586205Y-62374744D01*
X146472937Y-62205226D01*
X146328774Y-62061063D01*
X146159256Y-61947795D01*
X145970898Y-61869774D01*
X145770939Y-61830000D01*
X145567061Y-61830000D01*
X145367102Y-61869774D01*
X145178744Y-61947795D01*
X145009226Y-62061063D01*
X144865063Y-62205226D01*
X144751795Y-62374744D01*
X144673774Y-62563102D01*
X144634000Y-62763061D01*
X144634000Y-62966939D01*
X144673774Y-63166898D01*
X144751795Y-63355256D01*
X144763651Y-63373000D01*
X143788468Y-63373000D01*
X143746256Y-63344795D01*
X143557898Y-63266774D01*
X143357939Y-63227000D01*
X143154061Y-63227000D01*
X142954102Y-63266774D01*
X142765744Y-63344795D01*
X142723532Y-63373000D01*
X140958753Y-63373000D01*
X140949226Y-63325102D01*
X140871205Y-63136744D01*
X140757937Y-62967226D01*
X140716000Y-62925289D01*
X140716000Y-62042711D01*
X140757937Y-62000774D01*
X140871205Y-61831256D01*
X140949226Y-61642898D01*
X140989000Y-61442939D01*
X140989000Y-61239061D01*
X140949226Y-61039102D01*
X140871205Y-60850744D01*
X140757937Y-60681226D01*
X140613774Y-60537063D01*
X140444256Y-60423795D01*
X140255898Y-60345774D01*
X140055939Y-60306000D01*
X139852061Y-60306000D01*
X139652102Y-60345774D01*
X139463744Y-60423795D01*
X139294226Y-60537063D01*
X139150063Y-60681226D01*
X139065000Y-60808532D01*
X139065000Y-59502711D01*
X139106937Y-59460774D01*
X139220205Y-59291256D01*
X139298226Y-59102898D01*
X139338000Y-58902939D01*
X139338000Y-58699061D01*
X139298226Y-58499102D01*
X139220205Y-58310744D01*
X139106937Y-58141226D01*
X138962774Y-57997063D01*
X138793256Y-57883795D01*
X138604898Y-57805774D01*
X138404939Y-57766000D01*
X138201061Y-57766000D01*
X138001102Y-57805774D01*
X137812744Y-57883795D01*
X137795000Y-57895651D01*
X137777256Y-57883795D01*
X137588898Y-57805774D01*
X137388939Y-57766000D01*
X137185061Y-57766000D01*
X136985102Y-57805774D01*
X136796744Y-57883795D01*
X136627226Y-57997063D01*
X136483063Y-58141226D01*
X136369795Y-58310744D01*
X136291774Y-58499102D01*
X136252000Y-58699061D01*
X136252000Y-58902939D01*
X136291774Y-59102898D01*
X136369795Y-59291256D01*
X136483063Y-59460774D01*
X136525001Y-59502712D01*
X136525000Y-62290289D01*
X136483063Y-62332226D01*
X136369795Y-62501744D01*
X136291774Y-62690102D01*
X136252000Y-62890061D01*
X136252000Y-63093939D01*
X136291774Y-63293898D01*
X136324539Y-63373000D01*
X32461200Y-63373000D01*
X32461200Y-56592447D01*
X78945274Y-56592447D01*
X78984665Y-56837499D01*
X79071107Y-57070158D01*
X79115223Y-57152694D01*
X79341352Y-57203043D01*
X80029395Y-56515000D01*
X79341352Y-55826957D01*
X79115223Y-55877306D01*
X79011832Y-56102944D01*
X78954447Y-56344418D01*
X78945274Y-56592447D01*
X32461200Y-56592447D01*
X32461200Y-55647352D01*
X79520957Y-55647352D01*
X80209000Y-56335395D01*
X80223143Y-56321253D01*
X80402748Y-56500858D01*
X80388605Y-56515000D01*
X80402748Y-56529143D01*
X80223143Y-56708748D01*
X80209000Y-56694605D01*
X79520957Y-57382648D01*
X79571306Y-57608777D01*
X79796944Y-57712168D01*
X80038418Y-57769553D01*
X80286447Y-57778726D01*
X80531499Y-57739335D01*
X80764158Y-57652893D01*
X80846694Y-57608777D01*
X80878413Y-57466322D01*
X80905797Y-57493706D01*
X81112166Y-57631598D01*
X81341471Y-57726579D01*
X81584901Y-57775000D01*
X81833099Y-57775000D01*
X82076529Y-57726579D01*
X82305834Y-57631598D01*
X82459000Y-57529255D01*
X82612166Y-57631598D01*
X82841471Y-57726579D01*
X83084901Y-57775000D01*
X83333099Y-57775000D01*
X83576529Y-57726579D01*
X83805834Y-57631598D01*
X83959000Y-57529255D01*
X84112166Y-57631598D01*
X84341471Y-57726579D01*
X84584901Y-57775000D01*
X84833099Y-57775000D01*
X85076529Y-57726579D01*
X85305834Y-57631598D01*
X85512203Y-57493706D01*
X85687706Y-57318203D01*
X85825598Y-57111834D01*
X85920579Y-56882529D01*
X85969000Y-56639099D01*
X85969000Y-56390901D01*
X85922885Y-56159061D01*
X140824000Y-56159061D01*
X140824000Y-56362939D01*
X140863774Y-56562898D01*
X140941795Y-56751256D01*
X140948307Y-56761002D01*
X140941795Y-56770747D01*
X140863774Y-56959105D01*
X140824000Y-57159064D01*
X140824000Y-57362942D01*
X140863774Y-57562901D01*
X140941795Y-57751259D01*
X141055063Y-57920777D01*
X141199226Y-58064940D01*
X141368744Y-58178208D01*
X141557102Y-58256229D01*
X141757061Y-58296003D01*
X141960939Y-58296003D01*
X142160898Y-58256229D01*
X142349256Y-58178208D01*
X142518774Y-58064940D01*
X142544714Y-58039000D01*
X188655289Y-58039000D01*
X188697226Y-58080937D01*
X188866744Y-58194205D01*
X189055102Y-58272226D01*
X189255061Y-58312000D01*
X189458939Y-58312000D01*
X189658898Y-58272226D01*
X189847256Y-58194205D01*
X190016774Y-58080937D01*
X190160937Y-57936774D01*
X190274205Y-57767256D01*
X190352226Y-57578898D01*
X190392000Y-57378939D01*
X190392000Y-57175061D01*
X190352226Y-56975102D01*
X190274205Y-56786744D01*
X190262349Y-56769000D01*
X190274205Y-56751256D01*
X190352226Y-56562898D01*
X190392000Y-56362939D01*
X190392000Y-56159061D01*
X190352226Y-55959102D01*
X190274205Y-55770744D01*
X190160937Y-55601226D01*
X190016774Y-55457063D01*
X189847256Y-55343795D01*
X189658898Y-55265774D01*
X189458939Y-55226000D01*
X189255061Y-55226000D01*
X189055102Y-55265774D01*
X188866744Y-55343795D01*
X188697226Y-55457063D01*
X188655289Y-55499000D01*
X142560711Y-55499000D01*
X142518774Y-55457063D01*
X142349256Y-55343795D01*
X142160898Y-55265774D01*
X141960939Y-55226000D01*
X141757061Y-55226000D01*
X141557102Y-55265774D01*
X141368744Y-55343795D01*
X141199226Y-55457063D01*
X141055063Y-55601226D01*
X140941795Y-55770744D01*
X140863774Y-55959102D01*
X140824000Y-56159061D01*
X85922885Y-56159061D01*
X85920579Y-56147471D01*
X85825598Y-55918166D01*
X85687706Y-55711797D01*
X85512203Y-55536294D01*
X85305834Y-55398402D01*
X85076529Y-55303421D01*
X84833099Y-55255000D01*
X84584901Y-55255000D01*
X84341471Y-55303421D01*
X84112166Y-55398402D01*
X83959000Y-55500745D01*
X83805834Y-55398402D01*
X83576529Y-55303421D01*
X83333099Y-55255000D01*
X83084901Y-55255000D01*
X82841471Y-55303421D01*
X82612166Y-55398402D01*
X82459000Y-55500745D01*
X82305834Y-55398402D01*
X82076529Y-55303421D01*
X81833099Y-55255000D01*
X81584901Y-55255000D01*
X81341471Y-55303421D01*
X81112166Y-55398402D01*
X80905797Y-55536294D01*
X80878413Y-55563678D01*
X80846694Y-55421223D01*
X80621056Y-55317832D01*
X80379582Y-55260447D01*
X80131553Y-55251274D01*
X79886501Y-55290665D01*
X79653842Y-55377107D01*
X79571306Y-55421223D01*
X79520957Y-55647352D01*
X32461200Y-55647352D01*
X32461200Y-53481400D01*
X93161205Y-53481400D01*
X93217630Y-53712621D01*
X93451808Y-53821017D01*
X93702633Y-53881645D01*
X93960465Y-53892174D01*
X94215398Y-53852200D01*
X94457633Y-53763259D01*
X94552370Y-53712621D01*
X94608795Y-53481400D01*
X93885000Y-52757605D01*
X93161205Y-53481400D01*
X32461200Y-53481400D01*
X32461200Y-52653465D01*
X92570826Y-52653465D01*
X92610800Y-52908398D01*
X92699741Y-53150633D01*
X92750379Y-53245370D01*
X92981600Y-53301795D01*
X93705395Y-52578000D01*
X92981600Y-51854205D01*
X92750379Y-51910630D01*
X92641983Y-52144808D01*
X92581355Y-52395633D01*
X92570826Y-52653465D01*
X32461200Y-52653465D01*
X32461200Y-47488589D01*
X70727500Y-47488589D01*
X70727500Y-47761411D01*
X70780725Y-48028989D01*
X70885129Y-48281043D01*
X71036701Y-48507886D01*
X71229614Y-48700799D01*
X71456457Y-48852371D01*
X71708511Y-48956775D01*
X71976089Y-49010000D01*
X72248911Y-49010000D01*
X72516489Y-48956775D01*
X72768543Y-48852371D01*
X72995386Y-48700799D01*
X73188299Y-48507886D01*
X73339871Y-48281043D01*
X73362500Y-48226412D01*
X73385129Y-48281043D01*
X73536701Y-48507886D01*
X73729614Y-48700799D01*
X73956457Y-48852371D01*
X74208511Y-48956775D01*
X74476089Y-49010000D01*
X74748911Y-49010000D01*
X74816603Y-48996535D01*
X75587606Y-49767539D01*
X75613459Y-49799041D01*
X75677596Y-49851677D01*
X75739157Y-49902199D01*
X75828616Y-49950016D01*
X75882566Y-49978853D01*
X76038174Y-50026056D01*
X76159447Y-50038000D01*
X76159449Y-50038000D01*
X76199999Y-50041994D01*
X76240550Y-50038000D01*
X92526818Y-50038000D01*
X93760355Y-51271538D01*
X93554602Y-51303800D01*
X93312367Y-51392741D01*
X93217630Y-51443379D01*
X93161205Y-51674600D01*
X93885000Y-52398395D01*
X93899143Y-52384253D01*
X94078748Y-52563858D01*
X94064605Y-52578000D01*
X94788400Y-53301795D01*
X94792441Y-53300809D01*
X94867456Y-53413077D01*
X95049923Y-53595544D01*
X95264482Y-53738907D01*
X95502887Y-53837658D01*
X95755976Y-53888000D01*
X96014024Y-53888000D01*
X96267113Y-53837658D01*
X96505518Y-53738907D01*
X96720077Y-53595544D01*
X96902544Y-53413077D01*
X97045907Y-53198518D01*
X97144658Y-52960113D01*
X97195000Y-52707024D01*
X97195000Y-52448976D01*
X97144658Y-52195887D01*
X97045907Y-51957482D01*
X96902544Y-51742923D01*
X96720077Y-51560456D01*
X96505518Y-51417093D01*
X96267113Y-51318342D01*
X96110965Y-51287283D01*
X93481148Y-48657466D01*
X93455291Y-48625959D01*
X93329592Y-48522801D01*
X93194328Y-48450500D01*
X97829068Y-48450500D01*
X104636572Y-55258005D01*
X104668774Y-55419898D01*
X104746795Y-55608256D01*
X104860063Y-55777774D01*
X105004226Y-55921937D01*
X105173744Y-56035205D01*
X105362102Y-56113226D01*
X105562061Y-56153000D01*
X105765939Y-56153000D01*
X105965898Y-56113226D01*
X106154256Y-56035205D01*
X106323774Y-55921937D01*
X106467937Y-55777774D01*
X106581205Y-55608256D01*
X106659226Y-55419898D01*
X106699000Y-55219939D01*
X106699000Y-55016061D01*
X106659226Y-54816102D01*
X106581205Y-54627744D01*
X106467937Y-54458226D01*
X106323774Y-54314063D01*
X106154256Y-54200795D01*
X105965898Y-54122774D01*
X105804005Y-54090572D01*
X98783398Y-47069966D01*
X98757541Y-47038459D01*
X98631842Y-46935301D01*
X98488434Y-46858647D01*
X98332826Y-46811444D01*
X98211553Y-46799500D01*
X98211550Y-46799500D01*
X98171000Y-46795506D01*
X98130450Y-46799500D01*
X78226643Y-46799500D01*
X78188299Y-46742114D01*
X77995386Y-46549201D01*
X77768543Y-46397629D01*
X77516489Y-46293225D01*
X77248911Y-46240000D01*
X76976089Y-46240000D01*
X76708511Y-46293225D01*
X76456457Y-46397629D01*
X76229614Y-46549201D01*
X76036701Y-46742114D01*
X75885129Y-46968957D01*
X75862500Y-47023588D01*
X75839871Y-46968957D01*
X75688299Y-46742114D01*
X75495386Y-46549201D01*
X75268543Y-46397629D01*
X75016489Y-46293225D01*
X74748911Y-46240000D01*
X74476089Y-46240000D01*
X74208511Y-46293225D01*
X73956457Y-46397629D01*
X73729614Y-46549201D01*
X73536701Y-46742114D01*
X73385129Y-46968957D01*
X73362500Y-47023588D01*
X73339871Y-46968957D01*
X73188299Y-46742114D01*
X72995386Y-46549201D01*
X72768543Y-46397629D01*
X72516489Y-46293225D01*
X72248911Y-46240000D01*
X71976089Y-46240000D01*
X71708511Y-46293225D01*
X71456457Y-46397629D01*
X71229614Y-46549201D01*
X71036701Y-46742114D01*
X70885129Y-46968957D01*
X70780725Y-47221011D01*
X70727500Y-47488589D01*
X32461200Y-47488589D01*
X32461200Y-46866038D01*
X32496352Y-46507531D01*
X32590366Y-46196142D01*
X32743072Y-45908944D01*
X32948650Y-45656881D01*
X33199278Y-45449543D01*
X33485401Y-45294836D01*
X33796126Y-45198651D01*
X34152450Y-45161200D01*
X257933962Y-45161200D01*
X258292469Y-45196352D01*
M02*
