G04 #@! TF.GenerationSoftware,KiCad,Pcbnew,(5.1.5)-3*
G04 #@! TF.CreationDate,2020-06-08T21:07:07-04:00*
G04 #@! TF.ProjectId,Xen40,58656e34-302e-46b6-9963-61645f706362,rev?*
G04 #@! TF.SameCoordinates,Original*
G04 #@! TF.FileFunction,Legend,Top*
G04 #@! TF.FilePolarity,Positive*
%FSLAX46Y46*%
G04 Gerber Fmt 4.6, Leading zero omitted, Abs format (unit mm)*
G04 Created by KiCad (PCBNEW (5.1.5)-3) date 2020-06-08 21:07:07*
%MOMM*%
%LPD*%
G04 APERTURE LIST*
%ADD10C,0.150000*%
%ADD11C,0.250000*%
%ADD12C,0.010000*%
%ADD13C,0.120000*%
%ADD14C,1.352000*%
%ADD15C,1.452000*%
%ADD16C,1.602000*%
%ADD17C,4.089800*%
%ADD18C,1.852000*%
%ADD19C,3.150000*%
%ADD20C,1.499000*%
%ADD21R,1.902000X2.202000*%
%ADD22R,0.752000X1.162000*%
%ADD23R,1.162000X0.752000*%
%ADD24R,1.602000X0.652000*%
%ADD25R,0.652000X1.602000*%
%ADD26R,1.202000X1.902000*%
%ADD27C,0.100000*%
%ADD28C,1.879600*%
%ADD29C,3.301600*%
%ADD30R,1.002000X1.302000*%
G04 APERTURE END LIST*
D10*
X67500619Y-45807380D02*
X67691095Y-45807380D01*
X67786333Y-45855000D01*
X67881571Y-45950238D01*
X67929190Y-46140714D01*
X67929190Y-46474047D01*
X67881571Y-46664523D01*
X67786333Y-46759761D01*
X67691095Y-46807380D01*
X67500619Y-46807380D01*
X67405380Y-46759761D01*
X67310142Y-46664523D01*
X67262523Y-46474047D01*
X67262523Y-46140714D01*
X67310142Y-45950238D01*
X67405380Y-45855000D01*
X67500619Y-45807380D01*
X68691095Y-46283571D02*
X68357761Y-46283571D01*
X68357761Y-46807380D02*
X68357761Y-45807380D01*
X68833952Y-45807380D01*
X69548238Y-46283571D02*
X69214904Y-46283571D01*
X69214904Y-46807380D02*
X69214904Y-45807380D01*
X69691095Y-45807380D01*
X79771952Y-45807380D02*
X79962428Y-45807380D01*
X80057666Y-45855000D01*
X80152904Y-45950238D01*
X80200523Y-46140714D01*
X80200523Y-46474047D01*
X80152904Y-46664523D01*
X80057666Y-46759761D01*
X79962428Y-46807380D01*
X79771952Y-46807380D01*
X79676714Y-46759761D01*
X79581476Y-46664523D01*
X79533857Y-46474047D01*
X79533857Y-46140714D01*
X79581476Y-45950238D01*
X79676714Y-45855000D01*
X79771952Y-45807380D01*
X80629095Y-46807380D02*
X80629095Y-45807380D01*
X81200523Y-46807380D01*
X81200523Y-45807380D01*
D11*
X34401952Y-52847761D02*
X34401952Y-50847761D01*
X35163857Y-50847761D01*
X35354333Y-50943000D01*
X35449571Y-51038238D01*
X35544809Y-51228714D01*
X35544809Y-51514428D01*
X35449571Y-51704904D01*
X35354333Y-51800142D01*
X35163857Y-51895380D01*
X34401952Y-51895380D01*
X36401952Y-52847761D02*
X36401952Y-51514428D01*
X36401952Y-51895380D02*
X36497190Y-51704904D01*
X36592428Y-51609666D01*
X36782904Y-51514428D01*
X36973380Y-51514428D01*
X37925761Y-52847761D02*
X37735285Y-52752523D01*
X37640047Y-52657285D01*
X37544809Y-52466809D01*
X37544809Y-51895380D01*
X37640047Y-51704904D01*
X37735285Y-51609666D01*
X37925761Y-51514428D01*
X38211476Y-51514428D01*
X38401952Y-51609666D01*
X38497190Y-51704904D01*
X38592428Y-51895380D01*
X38592428Y-52466809D01*
X38497190Y-52657285D01*
X38401952Y-52752523D01*
X38211476Y-52847761D01*
X37925761Y-52847761D01*
X39163857Y-51514428D02*
X39925761Y-51514428D01*
X39449571Y-50847761D02*
X39449571Y-52562047D01*
X39544809Y-52752523D01*
X39735285Y-52847761D01*
X39925761Y-52847761D01*
X40878142Y-52847761D02*
X40687666Y-52752523D01*
X40592428Y-52657285D01*
X40497190Y-52466809D01*
X40497190Y-51895380D01*
X40592428Y-51704904D01*
X40687666Y-51609666D01*
X40878142Y-51514428D01*
X41163857Y-51514428D01*
X41354333Y-51609666D01*
X41449571Y-51704904D01*
X41544809Y-51895380D01*
X41544809Y-52466809D01*
X41449571Y-52657285D01*
X41354333Y-52752523D01*
X41163857Y-52847761D01*
X40878142Y-52847761D01*
X42116238Y-51514428D02*
X42878142Y-51514428D01*
X42401952Y-50847761D02*
X42401952Y-52562047D01*
X42497190Y-52752523D01*
X42687666Y-52847761D01*
X42878142Y-52847761D01*
X43354333Y-51514428D02*
X43830523Y-52847761D01*
X44306714Y-51514428D02*
X43830523Y-52847761D01*
X43640047Y-53323952D01*
X43544809Y-53419190D01*
X43354333Y-53514428D01*
X45068619Y-51514428D02*
X45068619Y-53514428D01*
X45068619Y-51609666D02*
X45259095Y-51514428D01*
X45640047Y-51514428D01*
X45830523Y-51609666D01*
X45925761Y-51704904D01*
X46021000Y-51895380D01*
X46021000Y-52466809D01*
X45925761Y-52657285D01*
X45830523Y-52752523D01*
X45640047Y-52847761D01*
X45259095Y-52847761D01*
X45068619Y-52752523D01*
X47640047Y-52752523D02*
X47449571Y-52847761D01*
X47068619Y-52847761D01*
X46878142Y-52752523D01*
X46782904Y-52562047D01*
X46782904Y-51800142D01*
X46878142Y-51609666D01*
X47068619Y-51514428D01*
X47449571Y-51514428D01*
X47640047Y-51609666D01*
X47735285Y-51800142D01*
X47735285Y-51990619D01*
X46782904Y-52181095D01*
X34338476Y-47037761D02*
X35671809Y-49037761D01*
X35671809Y-47037761D02*
X34338476Y-49037761D01*
X37195619Y-48942523D02*
X37005142Y-49037761D01*
X36624190Y-49037761D01*
X36433714Y-48942523D01*
X36338476Y-48752047D01*
X36338476Y-47990142D01*
X36433714Y-47799666D01*
X36624190Y-47704428D01*
X37005142Y-47704428D01*
X37195619Y-47799666D01*
X37290857Y-47990142D01*
X37290857Y-48180619D01*
X36338476Y-48371095D01*
X38148000Y-47704428D02*
X38148000Y-49037761D01*
X38148000Y-47894904D02*
X38243238Y-47799666D01*
X38433714Y-47704428D01*
X38719428Y-47704428D01*
X38909904Y-47799666D01*
X39005142Y-47990142D01*
X39005142Y-49037761D01*
X40814666Y-47704428D02*
X40814666Y-49037761D01*
X40338476Y-46942523D02*
X39862285Y-48371095D01*
X41100380Y-48371095D01*
X42243238Y-47037761D02*
X42433714Y-47037761D01*
X42624190Y-47133000D01*
X42719428Y-47228238D01*
X42814666Y-47418714D01*
X42909904Y-47799666D01*
X42909904Y-48275857D01*
X42814666Y-48656809D01*
X42719428Y-48847285D01*
X42624190Y-48942523D01*
X42433714Y-49037761D01*
X42243238Y-49037761D01*
X42052761Y-48942523D01*
X41957523Y-48847285D01*
X41862285Y-48656809D01*
X41767047Y-48275857D01*
X41767047Y-47799666D01*
X41862285Y-47418714D01*
X41957523Y-47228238D01*
X42052761Y-47133000D01*
X42243238Y-47037761D01*
X45100380Y-47704428D02*
X45576571Y-49037761D01*
X46052761Y-47704428D01*
X47862285Y-49037761D02*
X46719428Y-49037761D01*
X47290857Y-49037761D02*
X47290857Y-47037761D01*
X47100380Y-47323476D01*
X46909904Y-47513952D01*
X46719428Y-47609190D01*
D12*
G36*
X43753302Y-56366789D02*
G01*
X43782494Y-56371815D01*
X43821976Y-56382003D01*
X43876072Y-56398150D01*
X43949108Y-56421055D01*
X43967748Y-56426953D01*
X44044851Y-56451511D01*
X44100518Y-56469868D01*
X44137573Y-56483342D01*
X44158842Y-56493253D01*
X44167148Y-56500922D01*
X44165317Y-56507669D01*
X44156172Y-56514813D01*
X44156004Y-56514923D01*
X44050264Y-56597732D01*
X43957961Y-56697282D01*
X43882855Y-56808703D01*
X43828707Y-56927121D01*
X43821760Y-56947906D01*
X43806751Y-56998583D01*
X43795429Y-57042832D01*
X43789729Y-57072894D01*
X43789405Y-57077630D01*
X43784486Y-57108227D01*
X43778386Y-57122629D01*
X43764486Y-57129902D01*
X43730257Y-57143256D01*
X43679677Y-57161402D01*
X43616726Y-57183051D01*
X43545380Y-57206914D01*
X43469619Y-57231700D01*
X43393421Y-57256121D01*
X43320764Y-57278886D01*
X43255626Y-57298708D01*
X43201986Y-57314296D01*
X43163821Y-57324361D01*
X43145853Y-57327634D01*
X43135281Y-57316399D01*
X43125538Y-57287685D01*
X43121915Y-57268843D01*
X43116911Y-57204602D01*
X43117503Y-57125029D01*
X43122998Y-57039128D01*
X43132702Y-56955906D01*
X43145920Y-56884366D01*
X43153790Y-56855284D01*
X43203319Y-56739529D01*
X43274214Y-56634214D01*
X43363713Y-56541842D01*
X43469054Y-56464913D01*
X43587476Y-56405932D01*
X43684215Y-56374726D01*
X43708488Y-56369042D01*
X43730075Y-56366131D01*
X43753302Y-56366789D01*
G37*
X43753302Y-56366789D02*
X43782494Y-56371815D01*
X43821976Y-56382003D01*
X43876072Y-56398150D01*
X43949108Y-56421055D01*
X43967748Y-56426953D01*
X44044851Y-56451511D01*
X44100518Y-56469868D01*
X44137573Y-56483342D01*
X44158842Y-56493253D01*
X44167148Y-56500922D01*
X44165317Y-56507669D01*
X44156172Y-56514813D01*
X44156004Y-56514923D01*
X44050264Y-56597732D01*
X43957961Y-56697282D01*
X43882855Y-56808703D01*
X43828707Y-56927121D01*
X43821760Y-56947906D01*
X43806751Y-56998583D01*
X43795429Y-57042832D01*
X43789729Y-57072894D01*
X43789405Y-57077630D01*
X43784486Y-57108227D01*
X43778386Y-57122629D01*
X43764486Y-57129902D01*
X43730257Y-57143256D01*
X43679677Y-57161402D01*
X43616726Y-57183051D01*
X43545380Y-57206914D01*
X43469619Y-57231700D01*
X43393421Y-57256121D01*
X43320764Y-57278886D01*
X43255626Y-57298708D01*
X43201986Y-57314296D01*
X43163821Y-57324361D01*
X43145853Y-57327634D01*
X43135281Y-57316399D01*
X43125538Y-57287685D01*
X43121915Y-57268843D01*
X43116911Y-57204602D01*
X43117503Y-57125029D01*
X43122998Y-57039128D01*
X43132702Y-56955906D01*
X43145920Y-56884366D01*
X43153790Y-56855284D01*
X43203319Y-56739529D01*
X43274214Y-56634214D01*
X43363713Y-56541842D01*
X43469054Y-56464913D01*
X43587476Y-56405932D01*
X43684215Y-56374726D01*
X43708488Y-56369042D01*
X43730075Y-56366131D01*
X43753302Y-56366789D01*
G36*
X44544138Y-56620086D02*
G01*
X44582100Y-56630876D01*
X44639955Y-56648108D01*
X44715711Y-56671150D01*
X44807379Y-56699371D01*
X44912969Y-56732137D01*
X45030493Y-56768816D01*
X45157960Y-56808776D01*
X45293380Y-56851385D01*
X45434764Y-56896009D01*
X45580121Y-56942017D01*
X45727464Y-56988777D01*
X45874801Y-57035655D01*
X46020143Y-57082020D01*
X46161500Y-57127238D01*
X46296883Y-57170678D01*
X46424302Y-57211708D01*
X46541767Y-57249694D01*
X46647288Y-57284005D01*
X46738877Y-57314008D01*
X46814542Y-57339071D01*
X46872295Y-57358561D01*
X46910146Y-57371846D01*
X46926105Y-57378293D01*
X46926500Y-57378680D01*
X46914682Y-57383340D01*
X46880349Y-57395182D01*
X46825186Y-57413662D01*
X46750875Y-57438237D01*
X46659098Y-57468365D01*
X46551538Y-57503502D01*
X46429879Y-57543105D01*
X46295802Y-57586632D01*
X46150992Y-57633539D01*
X45997131Y-57683282D01*
X45835902Y-57735320D01*
X45668987Y-57789110D01*
X45498070Y-57844107D01*
X45324833Y-57899769D01*
X45150959Y-57955553D01*
X44978132Y-58010916D01*
X44808033Y-58065315D01*
X44642347Y-58118206D01*
X44482755Y-58169048D01*
X44330941Y-58217296D01*
X44188587Y-58262408D01*
X44151550Y-58274119D01*
X44024550Y-58314258D01*
X44066029Y-58230604D01*
X44110126Y-58120871D01*
X44135442Y-58005639D01*
X44142093Y-57882012D01*
X44130194Y-57747091D01*
X44099861Y-57597978D01*
X44092370Y-57569100D01*
X44074330Y-57498999D01*
X44062235Y-57442845D01*
X44054926Y-57391593D01*
X44051238Y-57336202D01*
X44050012Y-57267629D01*
X44049950Y-57238900D01*
X44050194Y-57169190D01*
X44051586Y-57118704D01*
X44055117Y-57081267D01*
X44061777Y-57050702D01*
X44072556Y-57020834D01*
X44088445Y-56985487D01*
X44091697Y-56978550D01*
X44120913Y-56924047D01*
X44156508Y-56874743D01*
X44204600Y-56822642D01*
X44229492Y-56798480D01*
X44287019Y-56748542D01*
X44349102Y-56702464D01*
X44410656Y-56663349D01*
X44466596Y-56634298D01*
X44511840Y-56618410D01*
X44528057Y-56616372D01*
X44544138Y-56620086D01*
G37*
X44544138Y-56620086D02*
X44582100Y-56630876D01*
X44639955Y-56648108D01*
X44715711Y-56671150D01*
X44807379Y-56699371D01*
X44912969Y-56732137D01*
X45030493Y-56768816D01*
X45157960Y-56808776D01*
X45293380Y-56851385D01*
X45434764Y-56896009D01*
X45580121Y-56942017D01*
X45727464Y-56988777D01*
X45874801Y-57035655D01*
X46020143Y-57082020D01*
X46161500Y-57127238D01*
X46296883Y-57170678D01*
X46424302Y-57211708D01*
X46541767Y-57249694D01*
X46647288Y-57284005D01*
X46738877Y-57314008D01*
X46814542Y-57339071D01*
X46872295Y-57358561D01*
X46910146Y-57371846D01*
X46926105Y-57378293D01*
X46926500Y-57378680D01*
X46914682Y-57383340D01*
X46880349Y-57395182D01*
X46825186Y-57413662D01*
X46750875Y-57438237D01*
X46659098Y-57468365D01*
X46551538Y-57503502D01*
X46429879Y-57543105D01*
X46295802Y-57586632D01*
X46150992Y-57633539D01*
X45997131Y-57683282D01*
X45835902Y-57735320D01*
X45668987Y-57789110D01*
X45498070Y-57844107D01*
X45324833Y-57899769D01*
X45150959Y-57955553D01*
X44978132Y-58010916D01*
X44808033Y-58065315D01*
X44642347Y-58118206D01*
X44482755Y-58169048D01*
X44330941Y-58217296D01*
X44188587Y-58262408D01*
X44151550Y-58274119D01*
X44024550Y-58314258D01*
X44066029Y-58230604D01*
X44110126Y-58120871D01*
X44135442Y-58005639D01*
X44142093Y-57882012D01*
X44130194Y-57747091D01*
X44099861Y-57597978D01*
X44092370Y-57569100D01*
X44074330Y-57498999D01*
X44062235Y-57442845D01*
X44054926Y-57391593D01*
X44051238Y-57336202D01*
X44050012Y-57267629D01*
X44049950Y-57238900D01*
X44050194Y-57169190D01*
X44051586Y-57118704D01*
X44055117Y-57081267D01*
X44061777Y-57050702D01*
X44072556Y-57020834D01*
X44088445Y-56985487D01*
X44091697Y-56978550D01*
X44120913Y-56924047D01*
X44156508Y-56874743D01*
X44204600Y-56822642D01*
X44229492Y-56798480D01*
X44287019Y-56748542D01*
X44349102Y-56702464D01*
X44410656Y-56663349D01*
X44466596Y-56634298D01*
X44511840Y-56618410D01*
X44528057Y-56616372D01*
X44544138Y-56620086D01*
G36*
X43782624Y-57418620D02*
G01*
X43786913Y-57431837D01*
X43796116Y-57465384D01*
X43809089Y-57514924D01*
X43824687Y-57576121D01*
X43833979Y-57613214D01*
X43852865Y-57691182D01*
X43865728Y-57751102D01*
X43873459Y-57799364D01*
X43876951Y-57842361D01*
X43877093Y-57886485D01*
X43876014Y-57914667D01*
X43873110Y-57962470D01*
X43868275Y-58000520D01*
X43859447Y-58035628D01*
X43844561Y-58074604D01*
X43821553Y-58124257D01*
X43798035Y-58171980D01*
X43753029Y-58256772D01*
X43711434Y-58322311D01*
X43669849Y-58373815D01*
X43659063Y-58385101D01*
X43636401Y-58407616D01*
X43616031Y-58425571D01*
X43594096Y-58440754D01*
X43566741Y-58454951D01*
X43530108Y-58469951D01*
X43480342Y-58487539D01*
X43413585Y-58509503D01*
X43338750Y-58533542D01*
X43262080Y-58558116D01*
X43193164Y-58580242D01*
X43135835Y-58598686D01*
X43093929Y-58612215D01*
X43071279Y-58619593D01*
X43068875Y-58620402D01*
X43054399Y-58621131D01*
X43053000Y-58618637D01*
X43059414Y-58605169D01*
X43076330Y-58576407D01*
X43100257Y-58538254D01*
X43103382Y-58533405D01*
X43151062Y-58449136D01*
X43191412Y-58353593D01*
X43227347Y-58239843D01*
X43228449Y-58235850D01*
X43239857Y-58174747D01*
X43246751Y-58095687D01*
X43249226Y-58005690D01*
X43247373Y-57911776D01*
X43241284Y-57820968D01*
X43231052Y-57740287D01*
X43221303Y-57692922D01*
X43196191Y-57594494D01*
X43356370Y-57544601D01*
X43472259Y-57508571D01*
X43566041Y-57479583D01*
X43639827Y-57457014D01*
X43695725Y-57440239D01*
X43735845Y-57428637D01*
X43762296Y-57421583D01*
X43777188Y-57418454D01*
X43782624Y-57418620D01*
G37*
X43782624Y-57418620D02*
X43786913Y-57431837D01*
X43796116Y-57465384D01*
X43809089Y-57514924D01*
X43824687Y-57576121D01*
X43833979Y-57613214D01*
X43852865Y-57691182D01*
X43865728Y-57751102D01*
X43873459Y-57799364D01*
X43876951Y-57842361D01*
X43877093Y-57886485D01*
X43876014Y-57914667D01*
X43873110Y-57962470D01*
X43868275Y-58000520D01*
X43859447Y-58035628D01*
X43844561Y-58074604D01*
X43821553Y-58124257D01*
X43798035Y-58171980D01*
X43753029Y-58256772D01*
X43711434Y-58322311D01*
X43669849Y-58373815D01*
X43659063Y-58385101D01*
X43636401Y-58407616D01*
X43616031Y-58425571D01*
X43594096Y-58440754D01*
X43566741Y-58454951D01*
X43530108Y-58469951D01*
X43480342Y-58487539D01*
X43413585Y-58509503D01*
X43338750Y-58533542D01*
X43262080Y-58558116D01*
X43193164Y-58580242D01*
X43135835Y-58598686D01*
X43093929Y-58612215D01*
X43071279Y-58619593D01*
X43068875Y-58620402D01*
X43054399Y-58621131D01*
X43053000Y-58618637D01*
X43059414Y-58605169D01*
X43076330Y-58576407D01*
X43100257Y-58538254D01*
X43103382Y-58533405D01*
X43151062Y-58449136D01*
X43191412Y-58353593D01*
X43227347Y-58239843D01*
X43228449Y-58235850D01*
X43239857Y-58174747D01*
X43246751Y-58095687D01*
X43249226Y-58005690D01*
X43247373Y-57911776D01*
X43241284Y-57820968D01*
X43231052Y-57740287D01*
X43221303Y-57692922D01*
X43196191Y-57594494D01*
X43356370Y-57544601D01*
X43472259Y-57508571D01*
X43566041Y-57479583D01*
X43639827Y-57457014D01*
X43695725Y-57440239D01*
X43735845Y-57428637D01*
X43762296Y-57421583D01*
X43777188Y-57418454D01*
X43782624Y-57418620D01*
G36*
X43145075Y-56164829D02*
G01*
X43209360Y-56185434D01*
X43264131Y-56203406D01*
X43305259Y-56217355D01*
X43328618Y-56225895D01*
X43332400Y-56227808D01*
X43322795Y-56236224D01*
X43297624Y-56254843D01*
X43262576Y-56279467D01*
X43157383Y-56366080D01*
X43062774Y-56472116D01*
X42982582Y-56592511D01*
X42920637Y-56722201D01*
X42913828Y-56740291D01*
X42881141Y-56845420D01*
X42860917Y-56950410D01*
X42852145Y-57063039D01*
X42853811Y-57191083D01*
X42854172Y-57198476D01*
X42857934Y-57263426D01*
X42862678Y-57319346D01*
X42869396Y-57371739D01*
X42879078Y-57426107D01*
X42892713Y-57487952D01*
X42911292Y-57562777D01*
X42935804Y-57656083D01*
X42938008Y-57664350D01*
X42971332Y-57812143D01*
X42987740Y-57946464D01*
X42986301Y-58070027D01*
X42966080Y-58185546D01*
X42926145Y-58295733D01*
X42865564Y-58403303D01*
X42783404Y-58510969D01*
X42678732Y-58621444D01*
X42576960Y-58714716D01*
X42462870Y-58814183D01*
X42183260Y-58903530D01*
X42096693Y-58931228D01*
X42012159Y-58958341D01*
X41934728Y-58983238D01*
X41869471Y-59004288D01*
X41821461Y-59019858D01*
X41809045Y-59023917D01*
X41714440Y-59054955D01*
X41807415Y-58962902D01*
X41892306Y-58871477D01*
X41961883Y-58778530D01*
X42022988Y-58674392D01*
X42050426Y-58619462D01*
X42085568Y-58541884D01*
X42112206Y-58471695D01*
X42131456Y-58403140D01*
X42144434Y-58330467D01*
X42152257Y-58247922D01*
X42156039Y-58149753D01*
X42156874Y-58070750D01*
X42156594Y-57977881D01*
X42154524Y-57899508D01*
X42149805Y-57830120D01*
X42141576Y-57764209D01*
X42128977Y-57696267D01*
X42111149Y-57620785D01*
X42087230Y-57532254D01*
X42056362Y-57425166D01*
X42055742Y-57423050D01*
X42011448Y-57258208D01*
X41981086Y-57111844D01*
X41964580Y-56981248D01*
X41961855Y-56863709D01*
X41972835Y-56756517D01*
X41997444Y-56656962D01*
X42031920Y-56570078D01*
X42078814Y-56493078D01*
X42144974Y-56416365D01*
X42224781Y-56345296D01*
X42312613Y-56285230D01*
X42354500Y-56262603D01*
X42434270Y-56228654D01*
X42532593Y-56195364D01*
X42642655Y-56164658D01*
X42757639Y-56138454D01*
X42858724Y-56120457D01*
X42957750Y-56105420D01*
X43145075Y-56164829D01*
G37*
X43145075Y-56164829D02*
X43209360Y-56185434D01*
X43264131Y-56203406D01*
X43305259Y-56217355D01*
X43328618Y-56225895D01*
X43332400Y-56227808D01*
X43322795Y-56236224D01*
X43297624Y-56254843D01*
X43262576Y-56279467D01*
X43157383Y-56366080D01*
X43062774Y-56472116D01*
X42982582Y-56592511D01*
X42920637Y-56722201D01*
X42913828Y-56740291D01*
X42881141Y-56845420D01*
X42860917Y-56950410D01*
X42852145Y-57063039D01*
X42853811Y-57191083D01*
X42854172Y-57198476D01*
X42857934Y-57263426D01*
X42862678Y-57319346D01*
X42869396Y-57371739D01*
X42879078Y-57426107D01*
X42892713Y-57487952D01*
X42911292Y-57562777D01*
X42935804Y-57656083D01*
X42938008Y-57664350D01*
X42971332Y-57812143D01*
X42987740Y-57946464D01*
X42986301Y-58070027D01*
X42966080Y-58185546D01*
X42926145Y-58295733D01*
X42865564Y-58403303D01*
X42783404Y-58510969D01*
X42678732Y-58621444D01*
X42576960Y-58714716D01*
X42462870Y-58814183D01*
X42183260Y-58903530D01*
X42096693Y-58931228D01*
X42012159Y-58958341D01*
X41934728Y-58983238D01*
X41869471Y-59004288D01*
X41821461Y-59019858D01*
X41809045Y-59023917D01*
X41714440Y-59054955D01*
X41807415Y-58962902D01*
X41892306Y-58871477D01*
X41961883Y-58778530D01*
X42022988Y-58674392D01*
X42050426Y-58619462D01*
X42085568Y-58541884D01*
X42112206Y-58471695D01*
X42131456Y-58403140D01*
X42144434Y-58330467D01*
X42152257Y-58247922D01*
X42156039Y-58149753D01*
X42156874Y-58070750D01*
X42156594Y-57977881D01*
X42154524Y-57899508D01*
X42149805Y-57830120D01*
X42141576Y-57764209D01*
X42128977Y-57696267D01*
X42111149Y-57620785D01*
X42087230Y-57532254D01*
X42056362Y-57425166D01*
X42055742Y-57423050D01*
X42011448Y-57258208D01*
X41981086Y-57111844D01*
X41964580Y-56981248D01*
X41961855Y-56863709D01*
X41972835Y-56756517D01*
X41997444Y-56656962D01*
X42031920Y-56570078D01*
X42078814Y-56493078D01*
X42144974Y-56416365D01*
X42224781Y-56345296D01*
X42312613Y-56285230D01*
X42354500Y-56262603D01*
X42434270Y-56228654D01*
X42532593Y-56195364D01*
X42642655Y-56164658D01*
X42757639Y-56138454D01*
X42858724Y-56120457D01*
X42957750Y-56105420D01*
X43145075Y-56164829D01*
G36*
X41676878Y-55705587D02*
G01*
X41717167Y-55716089D01*
X41775157Y-55732486D01*
X41847610Y-55753834D01*
X41931286Y-55779188D01*
X42022949Y-55807604D01*
X42060435Y-55819399D01*
X42166582Y-55853142D01*
X42250374Y-55880312D01*
X42313778Y-55901650D01*
X42358763Y-55917899D01*
X42387297Y-55929799D01*
X42401348Y-55938091D01*
X42402885Y-55943517D01*
X42396985Y-55946158D01*
X42372183Y-55952254D01*
X42328031Y-55963018D01*
X42269869Y-55977153D01*
X42203035Y-55993361D01*
X42170350Y-56001276D01*
X41948791Y-56060685D01*
X41751813Y-56125779D01*
X41579206Y-56196707D01*
X41430759Y-56273618D01*
X41306264Y-56356662D01*
X41205511Y-56445989D01*
X41128290Y-56541747D01*
X41074392Y-56644087D01*
X41043607Y-56753158D01*
X41036842Y-56809891D01*
X41034259Y-56861697D01*
X41035525Y-56892528D01*
X41041067Y-56906577D01*
X41046900Y-56908700D01*
X41066583Y-56907157D01*
X41104491Y-56903043D01*
X41153671Y-56897132D01*
X41173060Y-56894678D01*
X41282390Y-56880657D01*
X41296500Y-56806414D01*
X41320772Y-56730031D01*
X41364363Y-56658985D01*
X41428815Y-56591645D01*
X41515669Y-56526379D01*
X41617900Y-56466111D01*
X41671599Y-56438547D01*
X41724841Y-56413264D01*
X41773182Y-56392110D01*
X41812180Y-56376934D01*
X41837392Y-56369584D01*
X41844399Y-56371858D01*
X41836452Y-56387753D01*
X41820596Y-56418416D01*
X41806598Y-56445150D01*
X41767187Y-56530546D01*
X41739296Y-56617623D01*
X41721242Y-56713500D01*
X41711343Y-56825298D01*
X41710057Y-56853638D01*
X41708267Y-56960411D01*
X41712500Y-57056669D01*
X41723784Y-57150412D01*
X41743151Y-57249640D01*
X41771630Y-57362351D01*
X41778987Y-57388919D01*
X41809942Y-57500274D01*
X41834569Y-57591430D01*
X41853805Y-57666526D01*
X41868585Y-57729703D01*
X41879846Y-57785100D01*
X41888524Y-57836858D01*
X41895555Y-57889117D01*
X41899131Y-57920218D01*
X41906863Y-58082988D01*
X41894445Y-58240271D01*
X41862535Y-58388578D01*
X41811792Y-58524419D01*
X41770259Y-58602346D01*
X41733388Y-58655776D01*
X41682075Y-58720063D01*
X41621322Y-58789721D01*
X41556131Y-58859264D01*
X41491504Y-58923206D01*
X41432443Y-58976061D01*
X41421050Y-58985371D01*
X41310547Y-59066629D01*
X41177884Y-59151523D01*
X41025735Y-59238369D01*
X40982900Y-59261280D01*
X40936582Y-59284503D01*
X40885469Y-59307458D01*
X40826260Y-59331364D01*
X40755658Y-59357444D01*
X40670364Y-59386917D01*
X40567079Y-59421005D01*
X40449500Y-59458708D01*
X40352086Y-59489606D01*
X40261317Y-59518331D01*
X40180315Y-59543899D01*
X40112206Y-59565327D01*
X40060112Y-59581630D01*
X40027158Y-59591826D01*
X40017700Y-59594652D01*
X40011828Y-59593246D01*
X40025048Y-59581449D01*
X40054513Y-59561676D01*
X40062150Y-59556949D01*
X40226998Y-59443133D01*
X40369612Y-59317250D01*
X40489820Y-59179817D01*
X40587450Y-59031350D01*
X40662330Y-58872366D01*
X40714291Y-58703382D01*
X40743160Y-58524914D01*
X40748765Y-58337480D01*
X40730936Y-58141595D01*
X40689502Y-57937777D01*
X40647093Y-57792892D01*
X40626766Y-57734582D01*
X40599298Y-57660924D01*
X40567736Y-57579835D01*
X40535128Y-57499233D01*
X40521882Y-57467500D01*
X40467772Y-57334764D01*
X40425314Y-57219455D01*
X40393372Y-57117048D01*
X40370813Y-57023023D01*
X40356504Y-56932855D01*
X40349310Y-56842025D01*
X40347900Y-56773642D01*
X40350162Y-56680462D01*
X40358266Y-56603432D01*
X40374183Y-56533596D01*
X40399888Y-56461999D01*
X40432469Y-56389803D01*
X40503667Y-56270419D01*
X40598084Y-56159873D01*
X40714957Y-56058643D01*
X40853519Y-55967206D01*
X41013007Y-55886040D01*
X41192654Y-55815623D01*
X41391696Y-55756434D01*
X41480338Y-55735162D01*
X41541057Y-55722079D01*
X41595137Y-55711404D01*
X41636367Y-55704301D01*
X41657529Y-55701924D01*
X41676878Y-55705587D01*
G37*
X41676878Y-55705587D02*
X41717167Y-55716089D01*
X41775157Y-55732486D01*
X41847610Y-55753834D01*
X41931286Y-55779188D01*
X42022949Y-55807604D01*
X42060435Y-55819399D01*
X42166582Y-55853142D01*
X42250374Y-55880312D01*
X42313778Y-55901650D01*
X42358763Y-55917899D01*
X42387297Y-55929799D01*
X42401348Y-55938091D01*
X42402885Y-55943517D01*
X42396985Y-55946158D01*
X42372183Y-55952254D01*
X42328031Y-55963018D01*
X42269869Y-55977153D01*
X42203035Y-55993361D01*
X42170350Y-56001276D01*
X41948791Y-56060685D01*
X41751813Y-56125779D01*
X41579206Y-56196707D01*
X41430759Y-56273618D01*
X41306264Y-56356662D01*
X41205511Y-56445989D01*
X41128290Y-56541747D01*
X41074392Y-56644087D01*
X41043607Y-56753158D01*
X41036842Y-56809891D01*
X41034259Y-56861697D01*
X41035525Y-56892528D01*
X41041067Y-56906577D01*
X41046900Y-56908700D01*
X41066583Y-56907157D01*
X41104491Y-56903043D01*
X41153671Y-56897132D01*
X41173060Y-56894678D01*
X41282390Y-56880657D01*
X41296500Y-56806414D01*
X41320772Y-56730031D01*
X41364363Y-56658985D01*
X41428815Y-56591645D01*
X41515669Y-56526379D01*
X41617900Y-56466111D01*
X41671599Y-56438547D01*
X41724841Y-56413264D01*
X41773182Y-56392110D01*
X41812180Y-56376934D01*
X41837392Y-56369584D01*
X41844399Y-56371858D01*
X41836452Y-56387753D01*
X41820596Y-56418416D01*
X41806598Y-56445150D01*
X41767187Y-56530546D01*
X41739296Y-56617623D01*
X41721242Y-56713500D01*
X41711343Y-56825298D01*
X41710057Y-56853638D01*
X41708267Y-56960411D01*
X41712500Y-57056669D01*
X41723784Y-57150412D01*
X41743151Y-57249640D01*
X41771630Y-57362351D01*
X41778987Y-57388919D01*
X41809942Y-57500274D01*
X41834569Y-57591430D01*
X41853805Y-57666526D01*
X41868585Y-57729703D01*
X41879846Y-57785100D01*
X41888524Y-57836858D01*
X41895555Y-57889117D01*
X41899131Y-57920218D01*
X41906863Y-58082988D01*
X41894445Y-58240271D01*
X41862535Y-58388578D01*
X41811792Y-58524419D01*
X41770259Y-58602346D01*
X41733388Y-58655776D01*
X41682075Y-58720063D01*
X41621322Y-58789721D01*
X41556131Y-58859264D01*
X41491504Y-58923206D01*
X41432443Y-58976061D01*
X41421050Y-58985371D01*
X41310547Y-59066629D01*
X41177884Y-59151523D01*
X41025735Y-59238369D01*
X40982900Y-59261280D01*
X40936582Y-59284503D01*
X40885469Y-59307458D01*
X40826260Y-59331364D01*
X40755658Y-59357444D01*
X40670364Y-59386917D01*
X40567079Y-59421005D01*
X40449500Y-59458708D01*
X40352086Y-59489606D01*
X40261317Y-59518331D01*
X40180315Y-59543899D01*
X40112206Y-59565327D01*
X40060112Y-59581630D01*
X40027158Y-59591826D01*
X40017700Y-59594652D01*
X40011828Y-59593246D01*
X40025048Y-59581449D01*
X40054513Y-59561676D01*
X40062150Y-59556949D01*
X40226998Y-59443133D01*
X40369612Y-59317250D01*
X40489820Y-59179817D01*
X40587450Y-59031350D01*
X40662330Y-58872366D01*
X40714291Y-58703382D01*
X40743160Y-58524914D01*
X40748765Y-58337480D01*
X40730936Y-58141595D01*
X40689502Y-57937777D01*
X40647093Y-57792892D01*
X40626766Y-57734582D01*
X40599298Y-57660924D01*
X40567736Y-57579835D01*
X40535128Y-57499233D01*
X40521882Y-57467500D01*
X40467772Y-57334764D01*
X40425314Y-57219455D01*
X40393372Y-57117048D01*
X40370813Y-57023023D01*
X40356504Y-56932855D01*
X40349310Y-56842025D01*
X40347900Y-56773642D01*
X40350162Y-56680462D01*
X40358266Y-56603432D01*
X40374183Y-56533596D01*
X40399888Y-56461999D01*
X40432469Y-56389803D01*
X40503667Y-56270419D01*
X40598084Y-56159873D01*
X40714957Y-56058643D01*
X40853519Y-55967206D01*
X41013007Y-55886040D01*
X41192654Y-55815623D01*
X41391696Y-55756434D01*
X41480338Y-55735162D01*
X41541057Y-55722079D01*
X41595137Y-55711404D01*
X41636367Y-55704301D01*
X41657529Y-55701924D01*
X41676878Y-55705587D01*
G36*
X39120218Y-54884226D02*
G01*
X39154728Y-54894834D01*
X39209910Y-54912065D01*
X39284005Y-54935362D01*
X39375251Y-54964168D01*
X39481888Y-54997925D01*
X39602156Y-55036077D01*
X39734295Y-55078067D01*
X39876545Y-55123336D01*
X40027144Y-55171330D01*
X40138485Y-55206852D01*
X40340394Y-55271460D01*
X40518482Y-55328791D01*
X40673214Y-55379003D01*
X40805057Y-55422251D01*
X40914478Y-55458693D01*
X41001943Y-55488485D01*
X41067917Y-55511785D01*
X41112868Y-55528749D01*
X41137262Y-55539534D01*
X41141650Y-55544269D01*
X40949166Y-55620130D01*
X40779392Y-55701855D01*
X40630043Y-55790775D01*
X40498835Y-55888223D01*
X40404129Y-55974480D01*
X40291222Y-56103800D01*
X40201734Y-56242857D01*
X40135692Y-56391484D01*
X40093124Y-56549514D01*
X40074059Y-56716781D01*
X40078526Y-56893118D01*
X40106551Y-57078359D01*
X40158165Y-57272336D01*
X40175384Y-57323987D01*
X40196021Y-57380713D01*
X40223730Y-57452963D01*
X40255457Y-57532968D01*
X40288149Y-57612958D01*
X40301694Y-57645300D01*
X40359756Y-57790756D01*
X40404157Y-57921378D01*
X40436304Y-58042777D01*
X40457605Y-58160564D01*
X40469468Y-58280352D01*
X40471610Y-58322775D01*
X40473530Y-58437059D01*
X40468739Y-58533834D01*
X40456242Y-58620340D01*
X40435042Y-58703815D01*
X40408777Y-58779521D01*
X40342733Y-58917004D01*
X40253778Y-59044729D01*
X40142724Y-59162026D01*
X40010377Y-59268227D01*
X39857549Y-59362660D01*
X39685046Y-59444657D01*
X39540393Y-59498541D01*
X39473793Y-59519310D01*
X39399322Y-59540243D01*
X39322563Y-59560012D01*
X39249100Y-59577289D01*
X39184515Y-59590744D01*
X39134391Y-59599050D01*
X39109470Y-59601100D01*
X39106839Y-59600041D01*
X39104442Y-59596154D01*
X39102273Y-59588368D01*
X39100327Y-59575617D01*
X39098597Y-59556830D01*
X39097079Y-59530941D01*
X39095767Y-59496879D01*
X39094655Y-59453577D01*
X39093738Y-59399966D01*
X39093010Y-59334977D01*
X39092465Y-59257542D01*
X39092098Y-59166592D01*
X39091903Y-59061059D01*
X39091875Y-58939875D01*
X39092007Y-58801970D01*
X39092296Y-58646276D01*
X39092734Y-58471725D01*
X39093316Y-58277247D01*
X39094037Y-58061775D01*
X39094891Y-57824240D01*
X39095873Y-57563574D01*
X39096976Y-57278707D01*
X39097120Y-57242075D01*
X39098080Y-56999266D01*
X39099032Y-56763329D01*
X39099969Y-56535510D01*
X39100885Y-56317061D01*
X39101776Y-56109229D01*
X39102634Y-55913265D01*
X39103454Y-55730416D01*
X39104231Y-55561933D01*
X39104958Y-55409064D01*
X39105630Y-55273058D01*
X39106240Y-55155166D01*
X39106784Y-55056634D01*
X39107254Y-54978714D01*
X39107646Y-54922654D01*
X39107953Y-54889703D01*
X39108140Y-54880797D01*
X39120218Y-54884226D01*
G37*
X39120218Y-54884226D02*
X39154728Y-54894834D01*
X39209910Y-54912065D01*
X39284005Y-54935362D01*
X39375251Y-54964168D01*
X39481888Y-54997925D01*
X39602156Y-55036077D01*
X39734295Y-55078067D01*
X39876545Y-55123336D01*
X40027144Y-55171330D01*
X40138485Y-55206852D01*
X40340394Y-55271460D01*
X40518482Y-55328791D01*
X40673214Y-55379003D01*
X40805057Y-55422251D01*
X40914478Y-55458693D01*
X41001943Y-55488485D01*
X41067917Y-55511785D01*
X41112868Y-55528749D01*
X41137262Y-55539534D01*
X41141650Y-55544269D01*
X40949166Y-55620130D01*
X40779392Y-55701855D01*
X40630043Y-55790775D01*
X40498835Y-55888223D01*
X40404129Y-55974480D01*
X40291222Y-56103800D01*
X40201734Y-56242857D01*
X40135692Y-56391484D01*
X40093124Y-56549514D01*
X40074059Y-56716781D01*
X40078526Y-56893118D01*
X40106551Y-57078359D01*
X40158165Y-57272336D01*
X40175384Y-57323987D01*
X40196021Y-57380713D01*
X40223730Y-57452963D01*
X40255457Y-57532968D01*
X40288149Y-57612958D01*
X40301694Y-57645300D01*
X40359756Y-57790756D01*
X40404157Y-57921378D01*
X40436304Y-58042777D01*
X40457605Y-58160564D01*
X40469468Y-58280352D01*
X40471610Y-58322775D01*
X40473530Y-58437059D01*
X40468739Y-58533834D01*
X40456242Y-58620340D01*
X40435042Y-58703815D01*
X40408777Y-58779521D01*
X40342733Y-58917004D01*
X40253778Y-59044729D01*
X40142724Y-59162026D01*
X40010377Y-59268227D01*
X39857549Y-59362660D01*
X39685046Y-59444657D01*
X39540393Y-59498541D01*
X39473793Y-59519310D01*
X39399322Y-59540243D01*
X39322563Y-59560012D01*
X39249100Y-59577289D01*
X39184515Y-59590744D01*
X39134391Y-59599050D01*
X39109470Y-59601100D01*
X39106839Y-59600041D01*
X39104442Y-59596154D01*
X39102273Y-59588368D01*
X39100327Y-59575617D01*
X39098597Y-59556830D01*
X39097079Y-59530941D01*
X39095767Y-59496879D01*
X39094655Y-59453577D01*
X39093738Y-59399966D01*
X39093010Y-59334977D01*
X39092465Y-59257542D01*
X39092098Y-59166592D01*
X39091903Y-59061059D01*
X39091875Y-58939875D01*
X39092007Y-58801970D01*
X39092296Y-58646276D01*
X39092734Y-58471725D01*
X39093316Y-58277247D01*
X39094037Y-58061775D01*
X39094891Y-57824240D01*
X39095873Y-57563574D01*
X39096976Y-57278707D01*
X39097120Y-57242075D01*
X39098080Y-56999266D01*
X39099032Y-56763329D01*
X39099969Y-56535510D01*
X39100885Y-56317061D01*
X39101776Y-56109229D01*
X39102634Y-55913265D01*
X39103454Y-55730416D01*
X39104231Y-55561933D01*
X39104958Y-55409064D01*
X39105630Y-55273058D01*
X39106240Y-55155166D01*
X39106784Y-55056634D01*
X39107254Y-54978714D01*
X39107646Y-54922654D01*
X39107953Y-54889703D01*
X39108140Y-54880797D01*
X39120218Y-54884226D01*
G36*
X38115875Y-54622839D02*
G01*
X38247348Y-54623009D01*
X38372347Y-54623444D01*
X38488344Y-54624118D01*
X38592814Y-54625003D01*
X38683230Y-54626072D01*
X38757067Y-54627297D01*
X38811799Y-54628651D01*
X38844899Y-54630106D01*
X38852475Y-54630851D01*
X38900100Y-54638723D01*
X38900100Y-60185300D01*
X37417670Y-60185300D01*
X37419074Y-58473975D01*
X37419165Y-58265876D01*
X37419100Y-58063739D01*
X37418885Y-57869128D01*
X37418529Y-57683611D01*
X37418040Y-57508754D01*
X37417426Y-57346123D01*
X37416696Y-57197284D01*
X37415857Y-57063805D01*
X37414917Y-56947250D01*
X37413885Y-56849186D01*
X37412768Y-56771181D01*
X37411575Y-56714799D01*
X37410314Y-56681608D01*
X37409778Y-56675061D01*
X37399079Y-56587472D01*
X37238364Y-56595099D01*
X37087015Y-56609554D01*
X36954928Y-56638111D01*
X36839713Y-56681598D01*
X36738978Y-56740839D01*
X36680719Y-56787657D01*
X36599764Y-56877258D01*
X36537784Y-56982595D01*
X36495344Y-57101903D01*
X36473009Y-57233416D01*
X36471344Y-57375370D01*
X36475778Y-57427458D01*
X36499790Y-57582941D01*
X36535684Y-57716984D01*
X36583957Y-57830853D01*
X36645103Y-57925810D01*
X36691100Y-57977123D01*
X36757776Y-58034547D01*
X36829449Y-58078809D01*
X36912882Y-58113347D01*
X37014150Y-58141440D01*
X37080649Y-58157092D01*
X37126728Y-58169630D01*
X37156683Y-58181783D01*
X37174814Y-58196280D01*
X37185417Y-58215851D01*
X37192791Y-58243223D01*
X37195751Y-58256746D01*
X37215308Y-58368657D01*
X37228147Y-58494733D01*
X37234236Y-58636472D01*
X37233543Y-58795372D01*
X37226034Y-58972929D01*
X37211678Y-59170642D01*
X37190442Y-59390008D01*
X37166752Y-59596297D01*
X37158620Y-59662012D01*
X37150965Y-59722131D01*
X37144619Y-59770253D01*
X37140408Y-59799975D01*
X37140227Y-59801125D01*
X37133649Y-59842400D01*
X36762749Y-59842340D01*
X36651503Y-59841767D01*
X36537997Y-59840169D01*
X36425549Y-59837681D01*
X36317475Y-59834435D01*
X36217094Y-59830564D01*
X36127722Y-59826202D01*
X36052677Y-59821482D01*
X35995277Y-59816537D01*
X35958838Y-59811499D01*
X35951848Y-59809800D01*
X35933368Y-59795516D01*
X35902740Y-59760973D01*
X35861021Y-59707609D01*
X35809267Y-59636862D01*
X35748536Y-59550170D01*
X35679884Y-59448972D01*
X35617560Y-59354862D01*
X35552359Y-59255077D01*
X35498703Y-59171837D01*
X35453965Y-59100609D01*
X35415516Y-59036860D01*
X35380729Y-58976057D01*
X35346976Y-58913667D01*
X35311629Y-58845157D01*
X35272060Y-58765994D01*
X35248617Y-58718450D01*
X35150513Y-58506221D01*
X35070869Y-58304900D01*
X35008211Y-58109655D01*
X34961063Y-57915653D01*
X34927950Y-57718063D01*
X34918181Y-57635775D01*
X34909806Y-57556400D01*
X34302700Y-57556400D01*
X34302700Y-57435388D01*
X34309469Y-57253382D01*
X34328986Y-57056024D01*
X34360065Y-56849200D01*
X34401519Y-56638797D01*
X34452163Y-56430700D01*
X34510811Y-56230795D01*
X34576276Y-56044967D01*
X34589786Y-56010744D01*
X34670044Y-55827390D01*
X34755327Y-55665117D01*
X34848230Y-55519723D01*
X34951350Y-55387004D01*
X35025767Y-55304832D01*
X35137464Y-55195248D01*
X35243658Y-55106383D01*
X35348613Y-55035510D01*
X35456596Y-54979902D01*
X35571871Y-54936832D01*
X35625795Y-54921206D01*
X35672852Y-54909644D01*
X35723124Y-54899598D01*
X35779055Y-54890880D01*
X35843091Y-54883306D01*
X35917675Y-54876690D01*
X36005254Y-54870845D01*
X36108271Y-54865586D01*
X36229173Y-54860727D01*
X36370403Y-54856081D01*
X36534407Y-54851463D01*
X36547504Y-54851118D01*
X36712787Y-54846433D01*
X36864447Y-54841446D01*
X37000961Y-54836237D01*
X37120807Y-54830884D01*
X37222462Y-54825467D01*
X37304406Y-54820065D01*
X37365116Y-54814756D01*
X37403069Y-54809621D01*
X37415577Y-54805998D01*
X37421222Y-54790690D01*
X37425280Y-54757143D01*
X37426898Y-54712507D01*
X37426900Y-54710850D01*
X37426900Y-54622700D01*
X38115875Y-54622839D01*
G37*
X38115875Y-54622839D02*
X38247348Y-54623009D01*
X38372347Y-54623444D01*
X38488344Y-54624118D01*
X38592814Y-54625003D01*
X38683230Y-54626072D01*
X38757067Y-54627297D01*
X38811799Y-54628651D01*
X38844899Y-54630106D01*
X38852475Y-54630851D01*
X38900100Y-54638723D01*
X38900100Y-60185300D01*
X37417670Y-60185300D01*
X37419074Y-58473975D01*
X37419165Y-58265876D01*
X37419100Y-58063739D01*
X37418885Y-57869128D01*
X37418529Y-57683611D01*
X37418040Y-57508754D01*
X37417426Y-57346123D01*
X37416696Y-57197284D01*
X37415857Y-57063805D01*
X37414917Y-56947250D01*
X37413885Y-56849186D01*
X37412768Y-56771181D01*
X37411575Y-56714799D01*
X37410314Y-56681608D01*
X37409778Y-56675061D01*
X37399079Y-56587472D01*
X37238364Y-56595099D01*
X37087015Y-56609554D01*
X36954928Y-56638111D01*
X36839713Y-56681598D01*
X36738978Y-56740839D01*
X36680719Y-56787657D01*
X36599764Y-56877258D01*
X36537784Y-56982595D01*
X36495344Y-57101903D01*
X36473009Y-57233416D01*
X36471344Y-57375370D01*
X36475778Y-57427458D01*
X36499790Y-57582941D01*
X36535684Y-57716984D01*
X36583957Y-57830853D01*
X36645103Y-57925810D01*
X36691100Y-57977123D01*
X36757776Y-58034547D01*
X36829449Y-58078809D01*
X36912882Y-58113347D01*
X37014150Y-58141440D01*
X37080649Y-58157092D01*
X37126728Y-58169630D01*
X37156683Y-58181783D01*
X37174814Y-58196280D01*
X37185417Y-58215851D01*
X37192791Y-58243223D01*
X37195751Y-58256746D01*
X37215308Y-58368657D01*
X37228147Y-58494733D01*
X37234236Y-58636472D01*
X37233543Y-58795372D01*
X37226034Y-58972929D01*
X37211678Y-59170642D01*
X37190442Y-59390008D01*
X37166752Y-59596297D01*
X37158620Y-59662012D01*
X37150965Y-59722131D01*
X37144619Y-59770253D01*
X37140408Y-59799975D01*
X37140227Y-59801125D01*
X37133649Y-59842400D01*
X36762749Y-59842340D01*
X36651503Y-59841767D01*
X36537997Y-59840169D01*
X36425549Y-59837681D01*
X36317475Y-59834435D01*
X36217094Y-59830564D01*
X36127722Y-59826202D01*
X36052677Y-59821482D01*
X35995277Y-59816537D01*
X35958838Y-59811499D01*
X35951848Y-59809800D01*
X35933368Y-59795516D01*
X35902740Y-59760973D01*
X35861021Y-59707609D01*
X35809267Y-59636862D01*
X35748536Y-59550170D01*
X35679884Y-59448972D01*
X35617560Y-59354862D01*
X35552359Y-59255077D01*
X35498703Y-59171837D01*
X35453965Y-59100609D01*
X35415516Y-59036860D01*
X35380729Y-58976057D01*
X35346976Y-58913667D01*
X35311629Y-58845157D01*
X35272060Y-58765994D01*
X35248617Y-58718450D01*
X35150513Y-58506221D01*
X35070869Y-58304900D01*
X35008211Y-58109655D01*
X34961063Y-57915653D01*
X34927950Y-57718063D01*
X34918181Y-57635775D01*
X34909806Y-57556400D01*
X34302700Y-57556400D01*
X34302700Y-57435388D01*
X34309469Y-57253382D01*
X34328986Y-57056024D01*
X34360065Y-56849200D01*
X34401519Y-56638797D01*
X34452163Y-56430700D01*
X34510811Y-56230795D01*
X34576276Y-56044967D01*
X34589786Y-56010744D01*
X34670044Y-55827390D01*
X34755327Y-55665117D01*
X34848230Y-55519723D01*
X34951350Y-55387004D01*
X35025767Y-55304832D01*
X35137464Y-55195248D01*
X35243658Y-55106383D01*
X35348613Y-55035510D01*
X35456596Y-54979902D01*
X35571871Y-54936832D01*
X35625795Y-54921206D01*
X35672852Y-54909644D01*
X35723124Y-54899598D01*
X35779055Y-54890880D01*
X35843091Y-54883306D01*
X35917675Y-54876690D01*
X36005254Y-54870845D01*
X36108271Y-54865586D01*
X36229173Y-54860727D01*
X36370403Y-54856081D01*
X36534407Y-54851463D01*
X36547504Y-54851118D01*
X36712787Y-54846433D01*
X36864447Y-54841446D01*
X37000961Y-54836237D01*
X37120807Y-54830884D01*
X37222462Y-54825467D01*
X37304406Y-54820065D01*
X37365116Y-54814756D01*
X37403069Y-54809621D01*
X37415577Y-54805998D01*
X37421222Y-54790690D01*
X37425280Y-54757143D01*
X37426898Y-54712507D01*
X37426900Y-54710850D01*
X37426900Y-54622700D01*
X38115875Y-54622839D01*
D10*
X219710000Y-52070000D02*
X258980000Y-52070000D01*
X258980000Y-62230000D02*
X219710000Y-62230000D01*
X258980000Y-52070000D02*
X258980000Y-62240000D01*
X219710000Y-52070000D02*
X219710000Y-62230000D01*
D13*
X136616000Y-57818000D02*
X136616000Y-52418000D01*
X132116000Y-57818000D02*
X136616000Y-57818000D01*
X113751000Y-54875000D02*
X113751000Y-52425000D01*
X110531000Y-53075000D02*
X110531000Y-54875000D01*
X111272750Y-61046000D02*
X113072750Y-61046000D01*
X113072750Y-57826000D02*
X110622750Y-57826000D01*
D10*
X150270250Y-50347750D02*
X150270250Y-49072750D01*
X150845250Y-60697750D02*
X150845250Y-60022750D01*
X140495250Y-60697750D02*
X140495250Y-60022750D01*
X140495250Y-50347750D02*
X140495250Y-51022750D01*
X150845250Y-50347750D02*
X150845250Y-51022750D01*
X140495250Y-50347750D02*
X141170250Y-50347750D01*
X140495250Y-60697750D02*
X141170250Y-60697750D01*
X150845250Y-60697750D02*
X150170250Y-60697750D01*
X150845250Y-50347750D02*
X150270250Y-50347750D01*
X125587000Y-57912000D02*
G75*
G03X125587000Y-57912000I-1000000J0D01*
G01*
X121987000Y-55312000D02*
X127187000Y-55312000D01*
X121987000Y-60512000D02*
X121987000Y-55312000D01*
X127187000Y-60512000D02*
X121987000Y-60512000D01*
X127187000Y-55312000D02*
X127187000Y-60512000D01*
D13*
X211733498Y-53891250D02*
X212256002Y-53891250D01*
X211733498Y-52471250D02*
X212256002Y-52471250D01*
X211733498Y-56272500D02*
X212256002Y-56272500D01*
X211733498Y-54852500D02*
X212256002Y-54852500D01*
X116026000Y-54236252D02*
X116026000Y-53713748D01*
X114606000Y-54236252D02*
X114606000Y-53713748D01*
X153341000Y-60063748D02*
X153341000Y-60586252D01*
X154761000Y-60063748D02*
X154761000Y-60586252D01*
X128195000Y-56014252D02*
X128195000Y-55491748D01*
X129615000Y-56014252D02*
X129615000Y-55491748D01*
X80443000Y-52570748D02*
X80443000Y-53093252D01*
X81863000Y-52570748D02*
X81863000Y-53093252D01*
X82983000Y-52570748D02*
X82983000Y-53093252D01*
X84403000Y-52570748D02*
X84403000Y-53093252D01*
X88667000Y-60419064D02*
X88667000Y-59214936D01*
X86847000Y-60419064D02*
X86847000Y-59214936D01*
X214103500Y-54141250D02*
X216963500Y-54141250D01*
X214103500Y-52221250D02*
X214103500Y-54141250D01*
X216963500Y-52221250D02*
X214103500Y-52221250D01*
X217823500Y-54602500D02*
X214963500Y-54602500D01*
X217823500Y-56522500D02*
X217823500Y-54602500D01*
X214963500Y-56522500D02*
X217823500Y-56522500D01*
X99754250Y-59674000D02*
X95854250Y-59674000D01*
X99754250Y-57674000D02*
X95854250Y-57674000D01*
X99754250Y-59674000D02*
X99754250Y-57674000D01*
X108072422Y-53796000D02*
X108589578Y-53796000D01*
X108072422Y-52376000D02*
X108589578Y-52376000D01*
X117400000Y-59177422D02*
X117400000Y-59694578D01*
X118820000Y-59177422D02*
X118820000Y-59694578D01*
X115018750Y-59177422D02*
X115018750Y-59694578D01*
X116438750Y-59177422D02*
X116438750Y-59694578D01*
X107906750Y-59145672D02*
X107906750Y-59662828D01*
X109326750Y-59145672D02*
X109326750Y-59662828D01*
X128195000Y-51303422D02*
X128195000Y-51820578D01*
X129615000Y-51303422D02*
X129615000Y-51820578D01*
X105525500Y-59145672D02*
X105525500Y-59662828D01*
X106945500Y-59145672D02*
X106945500Y-59662828D01*
X103144250Y-59145672D02*
X103144250Y-59662828D01*
X104564250Y-59145672D02*
X104564250Y-59662828D01*
X134107422Y-51510000D02*
X134624578Y-51510000D01*
X134107422Y-50090000D02*
X134624578Y-50090000D01*
X134624578Y-58726000D02*
X134107422Y-58726000D01*
X134624578Y-60146000D02*
X134107422Y-60146000D01*
X100763000Y-59145672D02*
X100763000Y-59662828D01*
X102183000Y-59145672D02*
X102183000Y-59662828D01*
D10*
X220709066Y-50979895D02*
X220709066Y-51560466D01*
X220670361Y-51676580D01*
X220592952Y-51753990D01*
X220476838Y-51792695D01*
X220399428Y-51792695D01*
X221018704Y-50979895D02*
X221521866Y-50979895D01*
X221250933Y-51289533D01*
X221367047Y-51289533D01*
X221444457Y-51328238D01*
X221483161Y-51366942D01*
X221521866Y-51444352D01*
X221521866Y-51637876D01*
X221483161Y-51715285D01*
X221444457Y-51753990D01*
X221367047Y-51792695D01*
X221134819Y-51792695D01*
X221057409Y-51753990D01*
X221018704Y-51715285D01*
X137191809Y-56999190D02*
X137191809Y-57475380D01*
X136858476Y-56475380D02*
X137191809Y-56999190D01*
X137525142Y-56475380D01*
X138382285Y-57475380D02*
X137810857Y-57475380D01*
X138096571Y-57475380D02*
X138096571Y-56475380D01*
X138001333Y-56618238D01*
X137906095Y-56713476D01*
X137810857Y-56761095D01*
X110363095Y-50887380D02*
X110363095Y-51696904D01*
X110410714Y-51792142D01*
X110458333Y-51839761D01*
X110553571Y-51887380D01*
X110744047Y-51887380D01*
X110839285Y-51839761D01*
X110886904Y-51792142D01*
X110934523Y-51696904D01*
X110934523Y-50887380D01*
X111315476Y-50887380D02*
X111934523Y-50887380D01*
X111601190Y-51268333D01*
X111744047Y-51268333D01*
X111839285Y-51315952D01*
X111886904Y-51363571D01*
X111934523Y-51458809D01*
X111934523Y-51696904D01*
X111886904Y-51792142D01*
X111839285Y-51839761D01*
X111744047Y-51887380D01*
X111458333Y-51887380D01*
X111363095Y-51839761D01*
X111315476Y-51792142D01*
X110236095Y-56475380D02*
X110236095Y-57284904D01*
X110283714Y-57380142D01*
X110331333Y-57427761D01*
X110426571Y-57475380D01*
X110617047Y-57475380D01*
X110712285Y-57427761D01*
X110759904Y-57380142D01*
X110807523Y-57284904D01*
X110807523Y-56475380D01*
X111236095Y-56570619D02*
X111283714Y-56523000D01*
X111378952Y-56475380D01*
X111617047Y-56475380D01*
X111712285Y-56523000D01*
X111759904Y-56570619D01*
X111807523Y-56665857D01*
X111807523Y-56761095D01*
X111759904Y-56903952D01*
X111188476Y-57475380D01*
X111807523Y-57475380D01*
X150368095Y-47585380D02*
X150368095Y-48394904D01*
X150415714Y-48490142D01*
X150463333Y-48537761D01*
X150558571Y-48585380D01*
X150749047Y-48585380D01*
X150844285Y-48537761D01*
X150891904Y-48490142D01*
X150939523Y-48394904D01*
X150939523Y-47585380D01*
X151939523Y-48585380D02*
X151368095Y-48585380D01*
X151653809Y-48585380D02*
X151653809Y-47585380D01*
X151558571Y-47728238D01*
X151463333Y-47823476D01*
X151368095Y-47871095D01*
X118935666Y-55776761D02*
X119078523Y-55824380D01*
X119316619Y-55824380D01*
X119411857Y-55776761D01*
X119459476Y-55729142D01*
X119507095Y-55633904D01*
X119507095Y-55538666D01*
X119459476Y-55443428D01*
X119411857Y-55395809D01*
X119316619Y-55348190D01*
X119126142Y-55300571D01*
X119030904Y-55252952D01*
X118983285Y-55205333D01*
X118935666Y-55110095D01*
X118935666Y-55014857D01*
X118983285Y-54919619D01*
X119030904Y-54872000D01*
X119126142Y-54824380D01*
X119364238Y-54824380D01*
X119507095Y-54872000D01*
X119840428Y-54824380D02*
X120078523Y-55824380D01*
X120269000Y-55110095D01*
X120459476Y-55824380D01*
X120697571Y-54824380D01*
X121602333Y-55824380D02*
X121030904Y-55824380D01*
X121316619Y-55824380D02*
X121316619Y-54824380D01*
X121221380Y-54967238D01*
X121126142Y-55062476D01*
X121030904Y-55110095D01*
X211796333Y-52014380D02*
X211463000Y-51538190D01*
X211224904Y-52014380D02*
X211224904Y-51014380D01*
X211605857Y-51014380D01*
X211701095Y-51062000D01*
X211748714Y-51109619D01*
X211796333Y-51204857D01*
X211796333Y-51347714D01*
X211748714Y-51442952D01*
X211701095Y-51490571D01*
X211605857Y-51538190D01*
X211224904Y-51538190D01*
X212367761Y-51442952D02*
X212272523Y-51395333D01*
X212224904Y-51347714D01*
X212177285Y-51252476D01*
X212177285Y-51204857D01*
X212224904Y-51109619D01*
X212272523Y-51062000D01*
X212367761Y-51014380D01*
X212558238Y-51014380D01*
X212653476Y-51062000D01*
X212701095Y-51109619D01*
X212748714Y-51204857D01*
X212748714Y-51252476D01*
X212701095Y-51347714D01*
X212653476Y-51395333D01*
X212558238Y-51442952D01*
X212367761Y-51442952D01*
X212272523Y-51490571D01*
X212224904Y-51538190D01*
X212177285Y-51633428D01*
X212177285Y-51823904D01*
X212224904Y-51919142D01*
X212272523Y-51966761D01*
X212367761Y-52014380D01*
X212558238Y-52014380D01*
X212653476Y-51966761D01*
X212701095Y-51919142D01*
X212748714Y-51823904D01*
X212748714Y-51633428D01*
X212701095Y-51538190D01*
X212653476Y-51490571D01*
X212558238Y-51442952D01*
X211923333Y-57729380D02*
X211590000Y-57253190D01*
X211351904Y-57729380D02*
X211351904Y-56729380D01*
X211732857Y-56729380D01*
X211828095Y-56777000D01*
X211875714Y-56824619D01*
X211923333Y-56919857D01*
X211923333Y-57062714D01*
X211875714Y-57157952D01*
X211828095Y-57205571D01*
X211732857Y-57253190D01*
X211351904Y-57253190D01*
X212780476Y-56729380D02*
X212590000Y-56729380D01*
X212494761Y-56777000D01*
X212447142Y-56824619D01*
X212351904Y-56967476D01*
X212304285Y-57157952D01*
X212304285Y-57538904D01*
X212351904Y-57634142D01*
X212399523Y-57681761D01*
X212494761Y-57729380D01*
X212685238Y-57729380D01*
X212780476Y-57681761D01*
X212828095Y-57634142D01*
X212875714Y-57538904D01*
X212875714Y-57300809D01*
X212828095Y-57205571D01*
X212780476Y-57157952D01*
X212685238Y-57110333D01*
X212494761Y-57110333D01*
X212399523Y-57157952D01*
X212351904Y-57205571D01*
X212304285Y-57300809D01*
X115149333Y-51887380D02*
X114816000Y-51411190D01*
X114577904Y-51887380D02*
X114577904Y-50887380D01*
X114958857Y-50887380D01*
X115054095Y-50935000D01*
X115101714Y-50982619D01*
X115149333Y-51077857D01*
X115149333Y-51220714D01*
X115101714Y-51315952D01*
X115054095Y-51363571D01*
X114958857Y-51411190D01*
X114577904Y-51411190D01*
X116054095Y-50887380D02*
X115577904Y-50887380D01*
X115530285Y-51363571D01*
X115577904Y-51315952D01*
X115673142Y-51268333D01*
X115911238Y-51268333D01*
X116006476Y-51315952D01*
X116054095Y-51363571D01*
X116101714Y-51458809D01*
X116101714Y-51696904D01*
X116054095Y-51792142D01*
X116006476Y-51839761D01*
X115911238Y-51887380D01*
X115673142Y-51887380D01*
X115577904Y-51839761D01*
X115530285Y-51792142D01*
X153884333Y-58237380D02*
X153551000Y-57761190D01*
X153312904Y-58237380D02*
X153312904Y-57237380D01*
X153693857Y-57237380D01*
X153789095Y-57285000D01*
X153836714Y-57332619D01*
X153884333Y-57427857D01*
X153884333Y-57570714D01*
X153836714Y-57665952D01*
X153789095Y-57713571D01*
X153693857Y-57761190D01*
X153312904Y-57761190D01*
X154741476Y-57570714D02*
X154741476Y-58237380D01*
X154503380Y-57189761D02*
X154265285Y-57904047D01*
X154884333Y-57904047D01*
X128738333Y-58745380D02*
X128405000Y-58269190D01*
X128166904Y-58745380D02*
X128166904Y-57745380D01*
X128547857Y-57745380D01*
X128643095Y-57793000D01*
X128690714Y-57840619D01*
X128738333Y-57935857D01*
X128738333Y-58078714D01*
X128690714Y-58173952D01*
X128643095Y-58221571D01*
X128547857Y-58269190D01*
X128166904Y-58269190D01*
X129071666Y-57745380D02*
X129690714Y-57745380D01*
X129357380Y-58126333D01*
X129500238Y-58126333D01*
X129595476Y-58173952D01*
X129643095Y-58221571D01*
X129690714Y-58316809D01*
X129690714Y-58554904D01*
X129643095Y-58650142D01*
X129595476Y-58697761D01*
X129500238Y-58745380D01*
X129214523Y-58745380D01*
X129119285Y-58697761D01*
X129071666Y-58650142D01*
X81605380Y-50204666D02*
X81129190Y-50538000D01*
X81605380Y-50776095D02*
X80605380Y-50776095D01*
X80605380Y-50395142D01*
X80653000Y-50299904D01*
X80700619Y-50252285D01*
X80795857Y-50204666D01*
X80938714Y-50204666D01*
X81033952Y-50252285D01*
X81081571Y-50299904D01*
X81129190Y-50395142D01*
X81129190Y-50776095D01*
X80700619Y-49823714D02*
X80653000Y-49776095D01*
X80605380Y-49680857D01*
X80605380Y-49442761D01*
X80653000Y-49347523D01*
X80700619Y-49299904D01*
X80795857Y-49252285D01*
X80891095Y-49252285D01*
X81033952Y-49299904D01*
X81605380Y-49871333D01*
X81605380Y-49252285D01*
X84145380Y-50204666D02*
X83669190Y-50538000D01*
X84145380Y-50776095D02*
X83145380Y-50776095D01*
X83145380Y-50395142D01*
X83193000Y-50299904D01*
X83240619Y-50252285D01*
X83335857Y-50204666D01*
X83478714Y-50204666D01*
X83573952Y-50252285D01*
X83621571Y-50299904D01*
X83669190Y-50395142D01*
X83669190Y-50776095D01*
X84145380Y-49252285D02*
X84145380Y-49823714D01*
X84145380Y-49538000D02*
X83145380Y-49538000D01*
X83288238Y-49633238D01*
X83383476Y-49728476D01*
X83431095Y-49823714D01*
X87423666Y-56570571D02*
X87090333Y-56570571D01*
X87090333Y-57094380D02*
X87090333Y-56094380D01*
X87566523Y-56094380D01*
X88471285Y-57094380D02*
X87899857Y-57094380D01*
X88185571Y-57094380D02*
X88185571Y-56094380D01*
X88090333Y-56237238D01*
X87995095Y-56332476D01*
X87899857Y-56380095D01*
X214749214Y-51983630D02*
X214749214Y-50983630D01*
X214987309Y-50983630D01*
X215130166Y-51031250D01*
X215225404Y-51126488D01*
X215273023Y-51221726D01*
X215320642Y-51412202D01*
X215320642Y-51555059D01*
X215273023Y-51745535D01*
X215225404Y-51840773D01*
X215130166Y-51936011D01*
X214987309Y-51983630D01*
X214749214Y-51983630D01*
X216177785Y-51316964D02*
X216177785Y-51983630D01*
X215939690Y-50936011D02*
X215701595Y-51650297D01*
X216320642Y-51650297D01*
X216606357Y-50983630D02*
X217273023Y-50983630D01*
X216844452Y-51983630D01*
X215161904Y-57729380D02*
X215161904Y-56729380D01*
X215400000Y-56729380D01*
X215542857Y-56777000D01*
X215638095Y-56872238D01*
X215685714Y-56967476D01*
X215733333Y-57157952D01*
X215733333Y-57300809D01*
X215685714Y-57491285D01*
X215638095Y-57586523D01*
X215542857Y-57681761D01*
X215400000Y-57729380D01*
X215161904Y-57729380D01*
X216114285Y-56824619D02*
X216161904Y-56777000D01*
X216257142Y-56729380D01*
X216495238Y-56729380D01*
X216590476Y-56777000D01*
X216638095Y-56824619D01*
X216685714Y-56919857D01*
X216685714Y-57015095D01*
X216638095Y-57157952D01*
X216066666Y-57729380D01*
X216685714Y-57729380D01*
X96924904Y-57221380D02*
X96924904Y-56221380D01*
X97163000Y-56221380D01*
X97305857Y-56269000D01*
X97401095Y-56364238D01*
X97448714Y-56459476D01*
X97496333Y-56649952D01*
X97496333Y-56792809D01*
X97448714Y-56983285D01*
X97401095Y-57078523D01*
X97305857Y-57173761D01*
X97163000Y-57221380D01*
X96924904Y-57221380D01*
X98448714Y-57221380D02*
X97877285Y-57221380D01*
X98163000Y-57221380D02*
X98163000Y-56221380D01*
X98067761Y-56364238D01*
X97972523Y-56459476D01*
X97877285Y-56507095D01*
X107688142Y-51792142D02*
X107640523Y-51839761D01*
X107497666Y-51887380D01*
X107402428Y-51887380D01*
X107259571Y-51839761D01*
X107164333Y-51744523D01*
X107116714Y-51649285D01*
X107069095Y-51458809D01*
X107069095Y-51315952D01*
X107116714Y-51125476D01*
X107164333Y-51030238D01*
X107259571Y-50935000D01*
X107402428Y-50887380D01*
X107497666Y-50887380D01*
X107640523Y-50935000D01*
X107688142Y-50982619D01*
X108640523Y-51887380D02*
X108069095Y-51887380D01*
X108354809Y-51887380D02*
X108354809Y-50887380D01*
X108259571Y-51030238D01*
X108164333Y-51125476D01*
X108069095Y-51173095D01*
X109259571Y-50887380D02*
X109354809Y-50887380D01*
X109450047Y-50935000D01*
X109497666Y-50982619D01*
X109545285Y-51077857D01*
X109592904Y-51268333D01*
X109592904Y-51506428D01*
X109545285Y-51696904D01*
X109497666Y-51792142D01*
X109450047Y-51839761D01*
X109354809Y-51887380D01*
X109259571Y-51887380D01*
X109164333Y-51839761D01*
X109116714Y-51792142D01*
X109069095Y-51696904D01*
X109021476Y-51506428D01*
X109021476Y-51268333D01*
X109069095Y-51077857D01*
X109116714Y-50982619D01*
X109164333Y-50935000D01*
X109259571Y-50887380D01*
X117943333Y-57411892D02*
X117895714Y-57459511D01*
X117752857Y-57507130D01*
X117657619Y-57507130D01*
X117514761Y-57459511D01*
X117419523Y-57364273D01*
X117371904Y-57269035D01*
X117324285Y-57078559D01*
X117324285Y-56935702D01*
X117371904Y-56745226D01*
X117419523Y-56649988D01*
X117514761Y-56554750D01*
X117657619Y-56507130D01*
X117752857Y-56507130D01*
X117895714Y-56554750D01*
X117943333Y-56602369D01*
X118419523Y-57507130D02*
X118610000Y-57507130D01*
X118705238Y-57459511D01*
X118752857Y-57411892D01*
X118848095Y-57269035D01*
X118895714Y-57078559D01*
X118895714Y-56697607D01*
X118848095Y-56602369D01*
X118800476Y-56554750D01*
X118705238Y-56507130D01*
X118514761Y-56507130D01*
X118419523Y-56554750D01*
X118371904Y-56602369D01*
X118324285Y-56697607D01*
X118324285Y-56935702D01*
X118371904Y-57030940D01*
X118419523Y-57078559D01*
X118514761Y-57126178D01*
X118705238Y-57126178D01*
X118800476Y-57078559D01*
X118848095Y-57030940D01*
X118895714Y-56935702D01*
X115562083Y-57411892D02*
X115514464Y-57459511D01*
X115371607Y-57507130D01*
X115276369Y-57507130D01*
X115133511Y-57459511D01*
X115038273Y-57364273D01*
X114990654Y-57269035D01*
X114943035Y-57078559D01*
X114943035Y-56935702D01*
X114990654Y-56745226D01*
X115038273Y-56649988D01*
X115133511Y-56554750D01*
X115276369Y-56507130D01*
X115371607Y-56507130D01*
X115514464Y-56554750D01*
X115562083Y-56602369D01*
X116133511Y-56935702D02*
X116038273Y-56888083D01*
X115990654Y-56840464D01*
X115943035Y-56745226D01*
X115943035Y-56697607D01*
X115990654Y-56602369D01*
X116038273Y-56554750D01*
X116133511Y-56507130D01*
X116323988Y-56507130D01*
X116419226Y-56554750D01*
X116466845Y-56602369D01*
X116514464Y-56697607D01*
X116514464Y-56745226D01*
X116466845Y-56840464D01*
X116419226Y-56888083D01*
X116323988Y-56935702D01*
X116133511Y-56935702D01*
X116038273Y-56983321D01*
X115990654Y-57030940D01*
X115943035Y-57126178D01*
X115943035Y-57316654D01*
X115990654Y-57411892D01*
X116038273Y-57459511D01*
X116133511Y-57507130D01*
X116323988Y-57507130D01*
X116419226Y-57459511D01*
X116466845Y-57411892D01*
X116514464Y-57316654D01*
X116514464Y-57126178D01*
X116466845Y-57030940D01*
X116419226Y-56983321D01*
X116323988Y-56935702D01*
X108450083Y-57380142D02*
X108402464Y-57427761D01*
X108259607Y-57475380D01*
X108164369Y-57475380D01*
X108021511Y-57427761D01*
X107926273Y-57332523D01*
X107878654Y-57237285D01*
X107831035Y-57046809D01*
X107831035Y-56903952D01*
X107878654Y-56713476D01*
X107926273Y-56618238D01*
X108021511Y-56523000D01*
X108164369Y-56475380D01*
X108259607Y-56475380D01*
X108402464Y-56523000D01*
X108450083Y-56570619D01*
X108783416Y-56475380D02*
X109450083Y-56475380D01*
X109021511Y-57475380D01*
X128738333Y-49633142D02*
X128690714Y-49680761D01*
X128547857Y-49728380D01*
X128452619Y-49728380D01*
X128309761Y-49680761D01*
X128214523Y-49585523D01*
X128166904Y-49490285D01*
X128119285Y-49299809D01*
X128119285Y-49156952D01*
X128166904Y-48966476D01*
X128214523Y-48871238D01*
X128309761Y-48776000D01*
X128452619Y-48728380D01*
X128547857Y-48728380D01*
X128690714Y-48776000D01*
X128738333Y-48823619D01*
X129595476Y-48728380D02*
X129405000Y-48728380D01*
X129309761Y-48776000D01*
X129262142Y-48823619D01*
X129166904Y-48966476D01*
X129119285Y-49156952D01*
X129119285Y-49537904D01*
X129166904Y-49633142D01*
X129214523Y-49680761D01*
X129309761Y-49728380D01*
X129500238Y-49728380D01*
X129595476Y-49680761D01*
X129643095Y-49633142D01*
X129690714Y-49537904D01*
X129690714Y-49299809D01*
X129643095Y-49204571D01*
X129595476Y-49156952D01*
X129500238Y-49109333D01*
X129309761Y-49109333D01*
X129214523Y-49156952D01*
X129166904Y-49204571D01*
X129119285Y-49299809D01*
X106068833Y-57380142D02*
X106021214Y-57427761D01*
X105878357Y-57475380D01*
X105783119Y-57475380D01*
X105640261Y-57427761D01*
X105545023Y-57332523D01*
X105497404Y-57237285D01*
X105449785Y-57046809D01*
X105449785Y-56903952D01*
X105497404Y-56713476D01*
X105545023Y-56618238D01*
X105640261Y-56523000D01*
X105783119Y-56475380D01*
X105878357Y-56475380D01*
X106021214Y-56523000D01*
X106068833Y-56570619D01*
X106973595Y-56475380D02*
X106497404Y-56475380D01*
X106449785Y-56951571D01*
X106497404Y-56903952D01*
X106592642Y-56856333D01*
X106830738Y-56856333D01*
X106925976Y-56903952D01*
X106973595Y-56951571D01*
X107021214Y-57046809D01*
X107021214Y-57284904D01*
X106973595Y-57380142D01*
X106925976Y-57427761D01*
X106830738Y-57475380D01*
X106592642Y-57475380D01*
X106497404Y-57427761D01*
X106449785Y-57380142D01*
X103687583Y-57380142D02*
X103639964Y-57427761D01*
X103497107Y-57475380D01*
X103401869Y-57475380D01*
X103259011Y-57427761D01*
X103163773Y-57332523D01*
X103116154Y-57237285D01*
X103068535Y-57046809D01*
X103068535Y-56903952D01*
X103116154Y-56713476D01*
X103163773Y-56618238D01*
X103259011Y-56523000D01*
X103401869Y-56475380D01*
X103497107Y-56475380D01*
X103639964Y-56523000D01*
X103687583Y-56570619D01*
X104544726Y-56808714D02*
X104544726Y-57475380D01*
X104306630Y-56427761D02*
X104068535Y-57142047D01*
X104687583Y-57142047D01*
X134199333Y-49507142D02*
X134151714Y-49554761D01*
X134008857Y-49602380D01*
X133913619Y-49602380D01*
X133770761Y-49554761D01*
X133675523Y-49459523D01*
X133627904Y-49364285D01*
X133580285Y-49173809D01*
X133580285Y-49030952D01*
X133627904Y-48840476D01*
X133675523Y-48745238D01*
X133770761Y-48650000D01*
X133913619Y-48602380D01*
X134008857Y-48602380D01*
X134151714Y-48650000D01*
X134199333Y-48697619D01*
X134532666Y-48602380D02*
X135151714Y-48602380D01*
X134818380Y-48983333D01*
X134961238Y-48983333D01*
X135056476Y-49030952D01*
X135104095Y-49078571D01*
X135151714Y-49173809D01*
X135151714Y-49411904D01*
X135104095Y-49507142D01*
X135056476Y-49554761D01*
X134961238Y-49602380D01*
X134675523Y-49602380D01*
X134580285Y-49554761D01*
X134532666Y-49507142D01*
X134199333Y-61443142D02*
X134151714Y-61490761D01*
X134008857Y-61538380D01*
X133913619Y-61538380D01*
X133770761Y-61490761D01*
X133675523Y-61395523D01*
X133627904Y-61300285D01*
X133580285Y-61109809D01*
X133580285Y-60966952D01*
X133627904Y-60776476D01*
X133675523Y-60681238D01*
X133770761Y-60586000D01*
X133913619Y-60538380D01*
X134008857Y-60538380D01*
X134151714Y-60586000D01*
X134199333Y-60633619D01*
X134580285Y-60633619D02*
X134627904Y-60586000D01*
X134723142Y-60538380D01*
X134961238Y-60538380D01*
X135056476Y-60586000D01*
X135104095Y-60633619D01*
X135151714Y-60728857D01*
X135151714Y-60824095D01*
X135104095Y-60966952D01*
X134532666Y-61538380D01*
X135151714Y-61538380D01*
X101306333Y-57380142D02*
X101258714Y-57427761D01*
X101115857Y-57475380D01*
X101020619Y-57475380D01*
X100877761Y-57427761D01*
X100782523Y-57332523D01*
X100734904Y-57237285D01*
X100687285Y-57046809D01*
X100687285Y-56903952D01*
X100734904Y-56713476D01*
X100782523Y-56618238D01*
X100877761Y-56523000D01*
X101020619Y-56475380D01*
X101115857Y-56475380D01*
X101258714Y-56523000D01*
X101306333Y-56570619D01*
X102258714Y-57475380D02*
X101687285Y-57475380D01*
X101973000Y-57475380D02*
X101973000Y-56475380D01*
X101877761Y-56618238D01*
X101782523Y-56713476D01*
X101687285Y-56761095D01*
%LPC*%
D14*
X84709000Y-56515000D03*
X83209000Y-56515000D03*
X81709000Y-56515000D03*
X80209000Y-56515000D03*
D15*
X95885000Y-52578000D03*
X93885000Y-52578000D03*
D16*
X72112500Y-47625000D03*
X74612500Y-47625000D03*
X77112500Y-47625000D03*
D17*
X67468750Y-130175000D03*
D18*
X62388750Y-130175000D03*
X72548750Y-130175000D03*
D17*
X172243750Y-130175000D03*
D18*
X167163750Y-130175000D03*
X177323750Y-130175000D03*
D19*
X160337500Y-137160000D03*
X184150000Y-137160000D03*
D17*
X160337500Y-121920000D03*
X184150000Y-121920000D03*
X100806250Y-130175000D03*
D18*
X95726250Y-130175000D03*
X105886250Y-130175000D03*
D19*
X88900000Y-137160000D03*
X112712500Y-137160000D03*
D17*
X88900000Y-121920000D03*
X112712500Y-121920000D03*
D20*
X220980000Y-60960000D03*
X220980000Y-58420000D03*
X220980000Y-55880000D03*
X220980000Y-53340000D03*
D21*
X133216000Y-56568000D03*
X133216000Y-53668000D03*
X135516000Y-53668000D03*
X135516000Y-56568000D03*
D22*
X113091000Y-55075000D03*
X111191000Y-55075000D03*
X111191000Y-52875000D03*
X112141000Y-52875000D03*
X113091000Y-52875000D03*
D23*
X111072750Y-58486000D03*
X111072750Y-59436000D03*
X111072750Y-60386000D03*
X113272750Y-60386000D03*
X113272750Y-58486000D03*
D24*
X151370250Y-51522750D03*
X151370250Y-52322750D03*
X151370250Y-53122750D03*
X151370250Y-53922750D03*
X151370250Y-54722750D03*
X151370250Y-55522750D03*
X151370250Y-56322750D03*
X151370250Y-57122750D03*
X151370250Y-57922750D03*
X151370250Y-58722750D03*
X151370250Y-59522750D03*
D25*
X149670250Y-61222750D03*
X148870250Y-61222750D03*
X148070250Y-61222750D03*
X147270250Y-61222750D03*
X146470250Y-61222750D03*
X145670250Y-61222750D03*
X144870250Y-61222750D03*
X144070250Y-61222750D03*
X143270250Y-61222750D03*
X142470250Y-61222750D03*
X141670250Y-61222750D03*
D24*
X139970250Y-59522750D03*
X139970250Y-58722750D03*
X139970250Y-57922750D03*
X139970250Y-57122750D03*
X139970250Y-56322750D03*
X139970250Y-55522750D03*
X139970250Y-54722750D03*
X139970250Y-53922750D03*
X139970250Y-53122750D03*
X139970250Y-52322750D03*
X139970250Y-51522750D03*
D25*
X141670250Y-49822750D03*
X142470250Y-49822750D03*
X143270250Y-49822750D03*
X144070250Y-49822750D03*
X144870250Y-49822750D03*
X145670250Y-49822750D03*
X146470250Y-49822750D03*
X147270250Y-49822750D03*
X148070250Y-49822750D03*
X148870250Y-49822750D03*
X149670250Y-49822750D03*
D26*
X122737000Y-61012000D03*
X126437000Y-54812000D03*
X126437000Y-61012000D03*
X122737000Y-54812000D03*
D27*
G36*
X213400255Y-52431561D02*
G01*
X213426675Y-52435480D01*
X213452585Y-52441970D01*
X213477733Y-52450968D01*
X213501878Y-52462388D01*
X213524788Y-52476119D01*
X213546242Y-52492030D01*
X213566032Y-52509968D01*
X213583970Y-52529758D01*
X213599881Y-52551212D01*
X213613612Y-52574122D01*
X213625032Y-52598267D01*
X213634030Y-52623415D01*
X213640520Y-52649325D01*
X213644439Y-52675745D01*
X213645750Y-52702423D01*
X213645750Y-53660077D01*
X213644439Y-53686755D01*
X213640520Y-53713175D01*
X213634030Y-53739085D01*
X213625032Y-53764233D01*
X213613612Y-53788378D01*
X213599881Y-53811288D01*
X213583970Y-53832742D01*
X213566032Y-53852532D01*
X213546242Y-53870470D01*
X213524788Y-53886381D01*
X213501878Y-53900112D01*
X213477733Y-53911532D01*
X213452585Y-53920530D01*
X213426675Y-53927020D01*
X213400255Y-53930939D01*
X213373577Y-53932250D01*
X212665923Y-53932250D01*
X212639245Y-53930939D01*
X212612825Y-53927020D01*
X212586915Y-53920530D01*
X212561767Y-53911532D01*
X212537622Y-53900112D01*
X212514712Y-53886381D01*
X212493258Y-53870470D01*
X212473468Y-53852532D01*
X212455530Y-53832742D01*
X212439619Y-53811288D01*
X212425888Y-53788378D01*
X212414468Y-53764233D01*
X212405470Y-53739085D01*
X212398980Y-53713175D01*
X212395061Y-53686755D01*
X212393750Y-53660077D01*
X212393750Y-52702423D01*
X212395061Y-52675745D01*
X212398980Y-52649325D01*
X212405470Y-52623415D01*
X212414468Y-52598267D01*
X212425888Y-52574122D01*
X212439619Y-52551212D01*
X212455530Y-52529758D01*
X212473468Y-52509968D01*
X212493258Y-52492030D01*
X212514712Y-52476119D01*
X212537622Y-52462388D01*
X212561767Y-52450968D01*
X212586915Y-52441970D01*
X212612825Y-52435480D01*
X212639245Y-52431561D01*
X212665923Y-52430250D01*
X213373577Y-52430250D01*
X213400255Y-52431561D01*
G37*
G36*
X211350255Y-52431561D02*
G01*
X211376675Y-52435480D01*
X211402585Y-52441970D01*
X211427733Y-52450968D01*
X211451878Y-52462388D01*
X211474788Y-52476119D01*
X211496242Y-52492030D01*
X211516032Y-52509968D01*
X211533970Y-52529758D01*
X211549881Y-52551212D01*
X211563612Y-52574122D01*
X211575032Y-52598267D01*
X211584030Y-52623415D01*
X211590520Y-52649325D01*
X211594439Y-52675745D01*
X211595750Y-52702423D01*
X211595750Y-53660077D01*
X211594439Y-53686755D01*
X211590520Y-53713175D01*
X211584030Y-53739085D01*
X211575032Y-53764233D01*
X211563612Y-53788378D01*
X211549881Y-53811288D01*
X211533970Y-53832742D01*
X211516032Y-53852532D01*
X211496242Y-53870470D01*
X211474788Y-53886381D01*
X211451878Y-53900112D01*
X211427733Y-53911532D01*
X211402585Y-53920530D01*
X211376675Y-53927020D01*
X211350255Y-53930939D01*
X211323577Y-53932250D01*
X210615923Y-53932250D01*
X210589245Y-53930939D01*
X210562825Y-53927020D01*
X210536915Y-53920530D01*
X210511767Y-53911532D01*
X210487622Y-53900112D01*
X210464712Y-53886381D01*
X210443258Y-53870470D01*
X210423468Y-53852532D01*
X210405530Y-53832742D01*
X210389619Y-53811288D01*
X210375888Y-53788378D01*
X210364468Y-53764233D01*
X210355470Y-53739085D01*
X210348980Y-53713175D01*
X210345061Y-53686755D01*
X210343750Y-53660077D01*
X210343750Y-52702423D01*
X210345061Y-52675745D01*
X210348980Y-52649325D01*
X210355470Y-52623415D01*
X210364468Y-52598267D01*
X210375888Y-52574122D01*
X210389619Y-52551212D01*
X210405530Y-52529758D01*
X210423468Y-52509968D01*
X210443258Y-52492030D01*
X210464712Y-52476119D01*
X210487622Y-52462388D01*
X210511767Y-52450968D01*
X210536915Y-52441970D01*
X210562825Y-52435480D01*
X210589245Y-52431561D01*
X210615923Y-52430250D01*
X211323577Y-52430250D01*
X211350255Y-52431561D01*
G37*
G36*
X213400255Y-54812811D02*
G01*
X213426675Y-54816730D01*
X213452585Y-54823220D01*
X213477733Y-54832218D01*
X213501878Y-54843638D01*
X213524788Y-54857369D01*
X213546242Y-54873280D01*
X213566032Y-54891218D01*
X213583970Y-54911008D01*
X213599881Y-54932462D01*
X213613612Y-54955372D01*
X213625032Y-54979517D01*
X213634030Y-55004665D01*
X213640520Y-55030575D01*
X213644439Y-55056995D01*
X213645750Y-55083673D01*
X213645750Y-56041327D01*
X213644439Y-56068005D01*
X213640520Y-56094425D01*
X213634030Y-56120335D01*
X213625032Y-56145483D01*
X213613612Y-56169628D01*
X213599881Y-56192538D01*
X213583970Y-56213992D01*
X213566032Y-56233782D01*
X213546242Y-56251720D01*
X213524788Y-56267631D01*
X213501878Y-56281362D01*
X213477733Y-56292782D01*
X213452585Y-56301780D01*
X213426675Y-56308270D01*
X213400255Y-56312189D01*
X213373577Y-56313500D01*
X212665923Y-56313500D01*
X212639245Y-56312189D01*
X212612825Y-56308270D01*
X212586915Y-56301780D01*
X212561767Y-56292782D01*
X212537622Y-56281362D01*
X212514712Y-56267631D01*
X212493258Y-56251720D01*
X212473468Y-56233782D01*
X212455530Y-56213992D01*
X212439619Y-56192538D01*
X212425888Y-56169628D01*
X212414468Y-56145483D01*
X212405470Y-56120335D01*
X212398980Y-56094425D01*
X212395061Y-56068005D01*
X212393750Y-56041327D01*
X212393750Y-55083673D01*
X212395061Y-55056995D01*
X212398980Y-55030575D01*
X212405470Y-55004665D01*
X212414468Y-54979517D01*
X212425888Y-54955372D01*
X212439619Y-54932462D01*
X212455530Y-54911008D01*
X212473468Y-54891218D01*
X212493258Y-54873280D01*
X212514712Y-54857369D01*
X212537622Y-54843638D01*
X212561767Y-54832218D01*
X212586915Y-54823220D01*
X212612825Y-54816730D01*
X212639245Y-54812811D01*
X212665923Y-54811500D01*
X213373577Y-54811500D01*
X213400255Y-54812811D01*
G37*
G36*
X211350255Y-54812811D02*
G01*
X211376675Y-54816730D01*
X211402585Y-54823220D01*
X211427733Y-54832218D01*
X211451878Y-54843638D01*
X211474788Y-54857369D01*
X211496242Y-54873280D01*
X211516032Y-54891218D01*
X211533970Y-54911008D01*
X211549881Y-54932462D01*
X211563612Y-54955372D01*
X211575032Y-54979517D01*
X211584030Y-55004665D01*
X211590520Y-55030575D01*
X211594439Y-55056995D01*
X211595750Y-55083673D01*
X211595750Y-56041327D01*
X211594439Y-56068005D01*
X211590520Y-56094425D01*
X211584030Y-56120335D01*
X211575032Y-56145483D01*
X211563612Y-56169628D01*
X211549881Y-56192538D01*
X211533970Y-56213992D01*
X211516032Y-56233782D01*
X211496242Y-56251720D01*
X211474788Y-56267631D01*
X211451878Y-56281362D01*
X211427733Y-56292782D01*
X211402585Y-56301780D01*
X211376675Y-56308270D01*
X211350255Y-56312189D01*
X211323577Y-56313500D01*
X210615923Y-56313500D01*
X210589245Y-56312189D01*
X210562825Y-56308270D01*
X210536915Y-56301780D01*
X210511767Y-56292782D01*
X210487622Y-56281362D01*
X210464712Y-56267631D01*
X210443258Y-56251720D01*
X210423468Y-56233782D01*
X210405530Y-56213992D01*
X210389619Y-56192538D01*
X210375888Y-56169628D01*
X210364468Y-56145483D01*
X210355470Y-56120335D01*
X210348980Y-56094425D01*
X210345061Y-56068005D01*
X210343750Y-56041327D01*
X210343750Y-55083673D01*
X210345061Y-55056995D01*
X210348980Y-55030575D01*
X210355470Y-55004665D01*
X210364468Y-54979517D01*
X210375888Y-54955372D01*
X210389619Y-54932462D01*
X210405530Y-54911008D01*
X210423468Y-54891218D01*
X210443258Y-54873280D01*
X210464712Y-54857369D01*
X210487622Y-54843638D01*
X210511767Y-54832218D01*
X210536915Y-54823220D01*
X210562825Y-54816730D01*
X210589245Y-54812811D01*
X210615923Y-54811500D01*
X211323577Y-54811500D01*
X211350255Y-54812811D01*
G37*
G36*
X115821505Y-52325311D02*
G01*
X115847925Y-52329230D01*
X115873835Y-52335720D01*
X115898983Y-52344718D01*
X115923128Y-52356138D01*
X115946038Y-52369869D01*
X115967492Y-52385780D01*
X115987282Y-52403718D01*
X116005220Y-52423508D01*
X116021131Y-52444962D01*
X116034862Y-52467872D01*
X116046282Y-52492017D01*
X116055280Y-52517165D01*
X116061770Y-52543075D01*
X116065689Y-52569495D01*
X116067000Y-52596173D01*
X116067000Y-53303827D01*
X116065689Y-53330505D01*
X116061770Y-53356925D01*
X116055280Y-53382835D01*
X116046282Y-53407983D01*
X116034862Y-53432128D01*
X116021131Y-53455038D01*
X116005220Y-53476492D01*
X115987282Y-53496282D01*
X115967492Y-53514220D01*
X115946038Y-53530131D01*
X115923128Y-53543862D01*
X115898983Y-53555282D01*
X115873835Y-53564280D01*
X115847925Y-53570770D01*
X115821505Y-53574689D01*
X115794827Y-53576000D01*
X114837173Y-53576000D01*
X114810495Y-53574689D01*
X114784075Y-53570770D01*
X114758165Y-53564280D01*
X114733017Y-53555282D01*
X114708872Y-53543862D01*
X114685962Y-53530131D01*
X114664508Y-53514220D01*
X114644718Y-53496282D01*
X114626780Y-53476492D01*
X114610869Y-53455038D01*
X114597138Y-53432128D01*
X114585718Y-53407983D01*
X114576720Y-53382835D01*
X114570230Y-53356925D01*
X114566311Y-53330505D01*
X114565000Y-53303827D01*
X114565000Y-52596173D01*
X114566311Y-52569495D01*
X114570230Y-52543075D01*
X114576720Y-52517165D01*
X114585718Y-52492017D01*
X114597138Y-52467872D01*
X114610869Y-52444962D01*
X114626780Y-52423508D01*
X114644718Y-52403718D01*
X114664508Y-52385780D01*
X114685962Y-52369869D01*
X114708872Y-52356138D01*
X114733017Y-52344718D01*
X114758165Y-52335720D01*
X114784075Y-52329230D01*
X114810495Y-52325311D01*
X114837173Y-52324000D01*
X115794827Y-52324000D01*
X115821505Y-52325311D01*
G37*
G36*
X115821505Y-54375311D02*
G01*
X115847925Y-54379230D01*
X115873835Y-54385720D01*
X115898983Y-54394718D01*
X115923128Y-54406138D01*
X115946038Y-54419869D01*
X115967492Y-54435780D01*
X115987282Y-54453718D01*
X116005220Y-54473508D01*
X116021131Y-54494962D01*
X116034862Y-54517872D01*
X116046282Y-54542017D01*
X116055280Y-54567165D01*
X116061770Y-54593075D01*
X116065689Y-54619495D01*
X116067000Y-54646173D01*
X116067000Y-55353827D01*
X116065689Y-55380505D01*
X116061770Y-55406925D01*
X116055280Y-55432835D01*
X116046282Y-55457983D01*
X116034862Y-55482128D01*
X116021131Y-55505038D01*
X116005220Y-55526492D01*
X115987282Y-55546282D01*
X115967492Y-55564220D01*
X115946038Y-55580131D01*
X115923128Y-55593862D01*
X115898983Y-55605282D01*
X115873835Y-55614280D01*
X115847925Y-55620770D01*
X115821505Y-55624689D01*
X115794827Y-55626000D01*
X114837173Y-55626000D01*
X114810495Y-55624689D01*
X114784075Y-55620770D01*
X114758165Y-55614280D01*
X114733017Y-55605282D01*
X114708872Y-55593862D01*
X114685962Y-55580131D01*
X114664508Y-55564220D01*
X114644718Y-55546282D01*
X114626780Y-55526492D01*
X114610869Y-55505038D01*
X114597138Y-55482128D01*
X114585718Y-55457983D01*
X114576720Y-55432835D01*
X114570230Y-55406925D01*
X114566311Y-55380505D01*
X114565000Y-55353827D01*
X114565000Y-54646173D01*
X114566311Y-54619495D01*
X114570230Y-54593075D01*
X114576720Y-54567165D01*
X114585718Y-54542017D01*
X114597138Y-54517872D01*
X114610869Y-54494962D01*
X114626780Y-54473508D01*
X114644718Y-54453718D01*
X114664508Y-54435780D01*
X114685962Y-54419869D01*
X114708872Y-54406138D01*
X114733017Y-54394718D01*
X114758165Y-54385720D01*
X114784075Y-54379230D01*
X114810495Y-54375311D01*
X114837173Y-54374000D01*
X115794827Y-54374000D01*
X115821505Y-54375311D01*
G37*
G36*
X154556505Y-60725311D02*
G01*
X154582925Y-60729230D01*
X154608835Y-60735720D01*
X154633983Y-60744718D01*
X154658128Y-60756138D01*
X154681038Y-60769869D01*
X154702492Y-60785780D01*
X154722282Y-60803718D01*
X154740220Y-60823508D01*
X154756131Y-60844962D01*
X154769862Y-60867872D01*
X154781282Y-60892017D01*
X154790280Y-60917165D01*
X154796770Y-60943075D01*
X154800689Y-60969495D01*
X154802000Y-60996173D01*
X154802000Y-61703827D01*
X154800689Y-61730505D01*
X154796770Y-61756925D01*
X154790280Y-61782835D01*
X154781282Y-61807983D01*
X154769862Y-61832128D01*
X154756131Y-61855038D01*
X154740220Y-61876492D01*
X154722282Y-61896282D01*
X154702492Y-61914220D01*
X154681038Y-61930131D01*
X154658128Y-61943862D01*
X154633983Y-61955282D01*
X154608835Y-61964280D01*
X154582925Y-61970770D01*
X154556505Y-61974689D01*
X154529827Y-61976000D01*
X153572173Y-61976000D01*
X153545495Y-61974689D01*
X153519075Y-61970770D01*
X153493165Y-61964280D01*
X153468017Y-61955282D01*
X153443872Y-61943862D01*
X153420962Y-61930131D01*
X153399508Y-61914220D01*
X153379718Y-61896282D01*
X153361780Y-61876492D01*
X153345869Y-61855038D01*
X153332138Y-61832128D01*
X153320718Y-61807983D01*
X153311720Y-61782835D01*
X153305230Y-61756925D01*
X153301311Y-61730505D01*
X153300000Y-61703827D01*
X153300000Y-60996173D01*
X153301311Y-60969495D01*
X153305230Y-60943075D01*
X153311720Y-60917165D01*
X153320718Y-60892017D01*
X153332138Y-60867872D01*
X153345869Y-60844962D01*
X153361780Y-60823508D01*
X153379718Y-60803718D01*
X153399508Y-60785780D01*
X153420962Y-60769869D01*
X153443872Y-60756138D01*
X153468017Y-60744718D01*
X153493165Y-60735720D01*
X153519075Y-60729230D01*
X153545495Y-60725311D01*
X153572173Y-60724000D01*
X154529827Y-60724000D01*
X154556505Y-60725311D01*
G37*
G36*
X154556505Y-58675311D02*
G01*
X154582925Y-58679230D01*
X154608835Y-58685720D01*
X154633983Y-58694718D01*
X154658128Y-58706138D01*
X154681038Y-58719869D01*
X154702492Y-58735780D01*
X154722282Y-58753718D01*
X154740220Y-58773508D01*
X154756131Y-58794962D01*
X154769862Y-58817872D01*
X154781282Y-58842017D01*
X154790280Y-58867165D01*
X154796770Y-58893075D01*
X154800689Y-58919495D01*
X154802000Y-58946173D01*
X154802000Y-59653827D01*
X154800689Y-59680505D01*
X154796770Y-59706925D01*
X154790280Y-59732835D01*
X154781282Y-59757983D01*
X154769862Y-59782128D01*
X154756131Y-59805038D01*
X154740220Y-59826492D01*
X154722282Y-59846282D01*
X154702492Y-59864220D01*
X154681038Y-59880131D01*
X154658128Y-59893862D01*
X154633983Y-59905282D01*
X154608835Y-59914280D01*
X154582925Y-59920770D01*
X154556505Y-59924689D01*
X154529827Y-59926000D01*
X153572173Y-59926000D01*
X153545495Y-59924689D01*
X153519075Y-59920770D01*
X153493165Y-59914280D01*
X153468017Y-59905282D01*
X153443872Y-59893862D01*
X153420962Y-59880131D01*
X153399508Y-59864220D01*
X153379718Y-59846282D01*
X153361780Y-59826492D01*
X153345869Y-59805038D01*
X153332138Y-59782128D01*
X153320718Y-59757983D01*
X153311720Y-59732835D01*
X153305230Y-59706925D01*
X153301311Y-59680505D01*
X153300000Y-59653827D01*
X153300000Y-58946173D01*
X153301311Y-58919495D01*
X153305230Y-58893075D01*
X153311720Y-58867165D01*
X153320718Y-58842017D01*
X153332138Y-58817872D01*
X153345869Y-58794962D01*
X153361780Y-58773508D01*
X153379718Y-58753718D01*
X153399508Y-58735780D01*
X153420962Y-58719869D01*
X153443872Y-58706138D01*
X153468017Y-58694718D01*
X153493165Y-58685720D01*
X153519075Y-58679230D01*
X153545495Y-58675311D01*
X153572173Y-58674000D01*
X154529827Y-58674000D01*
X154556505Y-58675311D01*
G37*
G36*
X129410505Y-56153311D02*
G01*
X129436925Y-56157230D01*
X129462835Y-56163720D01*
X129487983Y-56172718D01*
X129512128Y-56184138D01*
X129535038Y-56197869D01*
X129556492Y-56213780D01*
X129576282Y-56231718D01*
X129594220Y-56251508D01*
X129610131Y-56272962D01*
X129623862Y-56295872D01*
X129635282Y-56320017D01*
X129644280Y-56345165D01*
X129650770Y-56371075D01*
X129654689Y-56397495D01*
X129656000Y-56424173D01*
X129656000Y-57131827D01*
X129654689Y-57158505D01*
X129650770Y-57184925D01*
X129644280Y-57210835D01*
X129635282Y-57235983D01*
X129623862Y-57260128D01*
X129610131Y-57283038D01*
X129594220Y-57304492D01*
X129576282Y-57324282D01*
X129556492Y-57342220D01*
X129535038Y-57358131D01*
X129512128Y-57371862D01*
X129487983Y-57383282D01*
X129462835Y-57392280D01*
X129436925Y-57398770D01*
X129410505Y-57402689D01*
X129383827Y-57404000D01*
X128426173Y-57404000D01*
X128399495Y-57402689D01*
X128373075Y-57398770D01*
X128347165Y-57392280D01*
X128322017Y-57383282D01*
X128297872Y-57371862D01*
X128274962Y-57358131D01*
X128253508Y-57342220D01*
X128233718Y-57324282D01*
X128215780Y-57304492D01*
X128199869Y-57283038D01*
X128186138Y-57260128D01*
X128174718Y-57235983D01*
X128165720Y-57210835D01*
X128159230Y-57184925D01*
X128155311Y-57158505D01*
X128154000Y-57131827D01*
X128154000Y-56424173D01*
X128155311Y-56397495D01*
X128159230Y-56371075D01*
X128165720Y-56345165D01*
X128174718Y-56320017D01*
X128186138Y-56295872D01*
X128199869Y-56272962D01*
X128215780Y-56251508D01*
X128233718Y-56231718D01*
X128253508Y-56213780D01*
X128274962Y-56197869D01*
X128297872Y-56184138D01*
X128322017Y-56172718D01*
X128347165Y-56163720D01*
X128373075Y-56157230D01*
X128399495Y-56153311D01*
X128426173Y-56152000D01*
X129383827Y-56152000D01*
X129410505Y-56153311D01*
G37*
G36*
X129410505Y-54103311D02*
G01*
X129436925Y-54107230D01*
X129462835Y-54113720D01*
X129487983Y-54122718D01*
X129512128Y-54134138D01*
X129535038Y-54147869D01*
X129556492Y-54163780D01*
X129576282Y-54181718D01*
X129594220Y-54201508D01*
X129610131Y-54222962D01*
X129623862Y-54245872D01*
X129635282Y-54270017D01*
X129644280Y-54295165D01*
X129650770Y-54321075D01*
X129654689Y-54347495D01*
X129656000Y-54374173D01*
X129656000Y-55081827D01*
X129654689Y-55108505D01*
X129650770Y-55134925D01*
X129644280Y-55160835D01*
X129635282Y-55185983D01*
X129623862Y-55210128D01*
X129610131Y-55233038D01*
X129594220Y-55254492D01*
X129576282Y-55274282D01*
X129556492Y-55292220D01*
X129535038Y-55308131D01*
X129512128Y-55321862D01*
X129487983Y-55333282D01*
X129462835Y-55342280D01*
X129436925Y-55348770D01*
X129410505Y-55352689D01*
X129383827Y-55354000D01*
X128426173Y-55354000D01*
X128399495Y-55352689D01*
X128373075Y-55348770D01*
X128347165Y-55342280D01*
X128322017Y-55333282D01*
X128297872Y-55321862D01*
X128274962Y-55308131D01*
X128253508Y-55292220D01*
X128233718Y-55274282D01*
X128215780Y-55254492D01*
X128199869Y-55233038D01*
X128186138Y-55210128D01*
X128174718Y-55185983D01*
X128165720Y-55160835D01*
X128159230Y-55134925D01*
X128155311Y-55108505D01*
X128154000Y-55081827D01*
X128154000Y-54374173D01*
X128155311Y-54347495D01*
X128159230Y-54321075D01*
X128165720Y-54295165D01*
X128174718Y-54270017D01*
X128186138Y-54245872D01*
X128199869Y-54222962D01*
X128215780Y-54201508D01*
X128233718Y-54181718D01*
X128253508Y-54163780D01*
X128274962Y-54147869D01*
X128297872Y-54134138D01*
X128322017Y-54122718D01*
X128347165Y-54113720D01*
X128373075Y-54107230D01*
X128399495Y-54103311D01*
X128426173Y-54102000D01*
X129383827Y-54102000D01*
X129410505Y-54103311D01*
G37*
G36*
X81658505Y-53232311D02*
G01*
X81684925Y-53236230D01*
X81710835Y-53242720D01*
X81735983Y-53251718D01*
X81760128Y-53263138D01*
X81783038Y-53276869D01*
X81804492Y-53292780D01*
X81824282Y-53310718D01*
X81842220Y-53330508D01*
X81858131Y-53351962D01*
X81871862Y-53374872D01*
X81883282Y-53399017D01*
X81892280Y-53424165D01*
X81898770Y-53450075D01*
X81902689Y-53476495D01*
X81904000Y-53503173D01*
X81904000Y-54210827D01*
X81902689Y-54237505D01*
X81898770Y-54263925D01*
X81892280Y-54289835D01*
X81883282Y-54314983D01*
X81871862Y-54339128D01*
X81858131Y-54362038D01*
X81842220Y-54383492D01*
X81824282Y-54403282D01*
X81804492Y-54421220D01*
X81783038Y-54437131D01*
X81760128Y-54450862D01*
X81735983Y-54462282D01*
X81710835Y-54471280D01*
X81684925Y-54477770D01*
X81658505Y-54481689D01*
X81631827Y-54483000D01*
X80674173Y-54483000D01*
X80647495Y-54481689D01*
X80621075Y-54477770D01*
X80595165Y-54471280D01*
X80570017Y-54462282D01*
X80545872Y-54450862D01*
X80522962Y-54437131D01*
X80501508Y-54421220D01*
X80481718Y-54403282D01*
X80463780Y-54383492D01*
X80447869Y-54362038D01*
X80434138Y-54339128D01*
X80422718Y-54314983D01*
X80413720Y-54289835D01*
X80407230Y-54263925D01*
X80403311Y-54237505D01*
X80402000Y-54210827D01*
X80402000Y-53503173D01*
X80403311Y-53476495D01*
X80407230Y-53450075D01*
X80413720Y-53424165D01*
X80422718Y-53399017D01*
X80434138Y-53374872D01*
X80447869Y-53351962D01*
X80463780Y-53330508D01*
X80481718Y-53310718D01*
X80501508Y-53292780D01*
X80522962Y-53276869D01*
X80545872Y-53263138D01*
X80570017Y-53251718D01*
X80595165Y-53242720D01*
X80621075Y-53236230D01*
X80647495Y-53232311D01*
X80674173Y-53231000D01*
X81631827Y-53231000D01*
X81658505Y-53232311D01*
G37*
G36*
X81658505Y-51182311D02*
G01*
X81684925Y-51186230D01*
X81710835Y-51192720D01*
X81735983Y-51201718D01*
X81760128Y-51213138D01*
X81783038Y-51226869D01*
X81804492Y-51242780D01*
X81824282Y-51260718D01*
X81842220Y-51280508D01*
X81858131Y-51301962D01*
X81871862Y-51324872D01*
X81883282Y-51349017D01*
X81892280Y-51374165D01*
X81898770Y-51400075D01*
X81902689Y-51426495D01*
X81904000Y-51453173D01*
X81904000Y-52160827D01*
X81902689Y-52187505D01*
X81898770Y-52213925D01*
X81892280Y-52239835D01*
X81883282Y-52264983D01*
X81871862Y-52289128D01*
X81858131Y-52312038D01*
X81842220Y-52333492D01*
X81824282Y-52353282D01*
X81804492Y-52371220D01*
X81783038Y-52387131D01*
X81760128Y-52400862D01*
X81735983Y-52412282D01*
X81710835Y-52421280D01*
X81684925Y-52427770D01*
X81658505Y-52431689D01*
X81631827Y-52433000D01*
X80674173Y-52433000D01*
X80647495Y-52431689D01*
X80621075Y-52427770D01*
X80595165Y-52421280D01*
X80570017Y-52412282D01*
X80545872Y-52400862D01*
X80522962Y-52387131D01*
X80501508Y-52371220D01*
X80481718Y-52353282D01*
X80463780Y-52333492D01*
X80447869Y-52312038D01*
X80434138Y-52289128D01*
X80422718Y-52264983D01*
X80413720Y-52239835D01*
X80407230Y-52213925D01*
X80403311Y-52187505D01*
X80402000Y-52160827D01*
X80402000Y-51453173D01*
X80403311Y-51426495D01*
X80407230Y-51400075D01*
X80413720Y-51374165D01*
X80422718Y-51349017D01*
X80434138Y-51324872D01*
X80447869Y-51301962D01*
X80463780Y-51280508D01*
X80481718Y-51260718D01*
X80501508Y-51242780D01*
X80522962Y-51226869D01*
X80545872Y-51213138D01*
X80570017Y-51201718D01*
X80595165Y-51192720D01*
X80621075Y-51186230D01*
X80647495Y-51182311D01*
X80674173Y-51181000D01*
X81631827Y-51181000D01*
X81658505Y-51182311D01*
G37*
G36*
X84198505Y-53232311D02*
G01*
X84224925Y-53236230D01*
X84250835Y-53242720D01*
X84275983Y-53251718D01*
X84300128Y-53263138D01*
X84323038Y-53276869D01*
X84344492Y-53292780D01*
X84364282Y-53310718D01*
X84382220Y-53330508D01*
X84398131Y-53351962D01*
X84411862Y-53374872D01*
X84423282Y-53399017D01*
X84432280Y-53424165D01*
X84438770Y-53450075D01*
X84442689Y-53476495D01*
X84444000Y-53503173D01*
X84444000Y-54210827D01*
X84442689Y-54237505D01*
X84438770Y-54263925D01*
X84432280Y-54289835D01*
X84423282Y-54314983D01*
X84411862Y-54339128D01*
X84398131Y-54362038D01*
X84382220Y-54383492D01*
X84364282Y-54403282D01*
X84344492Y-54421220D01*
X84323038Y-54437131D01*
X84300128Y-54450862D01*
X84275983Y-54462282D01*
X84250835Y-54471280D01*
X84224925Y-54477770D01*
X84198505Y-54481689D01*
X84171827Y-54483000D01*
X83214173Y-54483000D01*
X83187495Y-54481689D01*
X83161075Y-54477770D01*
X83135165Y-54471280D01*
X83110017Y-54462282D01*
X83085872Y-54450862D01*
X83062962Y-54437131D01*
X83041508Y-54421220D01*
X83021718Y-54403282D01*
X83003780Y-54383492D01*
X82987869Y-54362038D01*
X82974138Y-54339128D01*
X82962718Y-54314983D01*
X82953720Y-54289835D01*
X82947230Y-54263925D01*
X82943311Y-54237505D01*
X82942000Y-54210827D01*
X82942000Y-53503173D01*
X82943311Y-53476495D01*
X82947230Y-53450075D01*
X82953720Y-53424165D01*
X82962718Y-53399017D01*
X82974138Y-53374872D01*
X82987869Y-53351962D01*
X83003780Y-53330508D01*
X83021718Y-53310718D01*
X83041508Y-53292780D01*
X83062962Y-53276869D01*
X83085872Y-53263138D01*
X83110017Y-53251718D01*
X83135165Y-53242720D01*
X83161075Y-53236230D01*
X83187495Y-53232311D01*
X83214173Y-53231000D01*
X84171827Y-53231000D01*
X84198505Y-53232311D01*
G37*
G36*
X84198505Y-51182311D02*
G01*
X84224925Y-51186230D01*
X84250835Y-51192720D01*
X84275983Y-51201718D01*
X84300128Y-51213138D01*
X84323038Y-51226869D01*
X84344492Y-51242780D01*
X84364282Y-51260718D01*
X84382220Y-51280508D01*
X84398131Y-51301962D01*
X84411862Y-51324872D01*
X84423282Y-51349017D01*
X84432280Y-51374165D01*
X84438770Y-51400075D01*
X84442689Y-51426495D01*
X84444000Y-51453173D01*
X84444000Y-52160827D01*
X84442689Y-52187505D01*
X84438770Y-52213925D01*
X84432280Y-52239835D01*
X84423282Y-52264983D01*
X84411862Y-52289128D01*
X84398131Y-52312038D01*
X84382220Y-52333492D01*
X84364282Y-52353282D01*
X84344492Y-52371220D01*
X84323038Y-52387131D01*
X84300128Y-52400862D01*
X84275983Y-52412282D01*
X84250835Y-52421280D01*
X84224925Y-52427770D01*
X84198505Y-52431689D01*
X84171827Y-52433000D01*
X83214173Y-52433000D01*
X83187495Y-52431689D01*
X83161075Y-52427770D01*
X83135165Y-52421280D01*
X83110017Y-52412282D01*
X83085872Y-52400862D01*
X83062962Y-52387131D01*
X83041508Y-52371220D01*
X83021718Y-52353282D01*
X83003780Y-52333492D01*
X82987869Y-52312038D01*
X82974138Y-52289128D01*
X82962718Y-52264983D01*
X82953720Y-52239835D01*
X82947230Y-52213925D01*
X82943311Y-52187505D01*
X82942000Y-52160827D01*
X82942000Y-51453173D01*
X82943311Y-51426495D01*
X82947230Y-51400075D01*
X82953720Y-51374165D01*
X82962718Y-51349017D01*
X82974138Y-51324872D01*
X82987869Y-51301962D01*
X83003780Y-51280508D01*
X83021718Y-51260718D01*
X83041508Y-51242780D01*
X83062962Y-51226869D01*
X83085872Y-51213138D01*
X83110017Y-51201718D01*
X83135165Y-51192720D01*
X83161075Y-51186230D01*
X83187495Y-51182311D01*
X83214173Y-51181000D01*
X84171827Y-51181000D01*
X84198505Y-51182311D01*
G37*
D17*
X248443750Y-130175000D03*
D18*
X243363750Y-130175000D03*
X253523750Y-130175000D03*
D17*
X227012500Y-130175000D03*
D18*
X221932500Y-130175000D03*
X232092500Y-130175000D03*
D17*
X207962500Y-130175000D03*
D18*
X202882500Y-130175000D03*
X213042500Y-130175000D03*
D17*
X134143750Y-130175000D03*
D18*
X129063750Y-130175000D03*
X139223750Y-130175000D03*
D17*
X43656250Y-130175000D03*
D18*
X38576250Y-130175000D03*
X48736250Y-130175000D03*
D17*
X250825000Y-111125000D03*
D18*
X245745000Y-111125000D03*
X255905000Y-111125000D03*
D17*
X231775000Y-111125000D03*
D18*
X226695000Y-111125000D03*
X236855000Y-111125000D03*
D17*
X212725000Y-111125000D03*
D18*
X207645000Y-111125000D03*
X217805000Y-111125000D03*
D17*
X193675000Y-111125000D03*
D18*
X188595000Y-111125000D03*
X198755000Y-111125000D03*
D17*
X174625000Y-111125000D03*
D18*
X169545000Y-111125000D03*
X179705000Y-111125000D03*
D17*
X155575000Y-111125000D03*
D18*
X150495000Y-111125000D03*
X160655000Y-111125000D03*
D17*
X136525000Y-111125000D03*
D18*
X131445000Y-111125000D03*
X141605000Y-111125000D03*
D17*
X117475000Y-111125000D03*
D18*
X112395000Y-111125000D03*
X122555000Y-111125000D03*
D17*
X98425000Y-111125000D03*
D18*
X93345000Y-111125000D03*
X103505000Y-111125000D03*
D17*
X79375000Y-111125000D03*
D18*
X74295000Y-111125000D03*
X84455000Y-111125000D03*
D17*
X60325000Y-111125000D03*
D18*
X55245000Y-111125000D03*
X65405000Y-111125000D03*
D17*
X41275000Y-111125000D03*
D18*
X36195000Y-111125000D03*
X46355000Y-111125000D03*
D17*
X250825000Y-92075000D03*
D18*
X245745000Y-92075000D03*
X255905000Y-92075000D03*
D17*
X231775000Y-92075000D03*
D18*
X226695000Y-92075000D03*
X236855000Y-92075000D03*
D17*
X212725000Y-92075000D03*
D18*
X207645000Y-92075000D03*
X217805000Y-92075000D03*
D17*
X193675000Y-92075000D03*
D18*
X188595000Y-92075000D03*
X198755000Y-92075000D03*
D17*
X174625000Y-92075000D03*
D18*
X169545000Y-92075000D03*
X179705000Y-92075000D03*
D17*
X155575000Y-92075000D03*
D18*
X150495000Y-92075000D03*
X160655000Y-92075000D03*
D17*
X136525000Y-92075000D03*
D18*
X131445000Y-92075000D03*
X141605000Y-92075000D03*
D17*
X117475000Y-92075000D03*
D18*
X112395000Y-92075000D03*
X122555000Y-92075000D03*
D17*
X98425000Y-92075000D03*
D18*
X93345000Y-92075000D03*
X103505000Y-92075000D03*
D17*
X79375000Y-92075000D03*
D18*
X74295000Y-92075000D03*
X84455000Y-92075000D03*
D17*
X60325000Y-92075000D03*
D18*
X55245000Y-92075000D03*
X65405000Y-92075000D03*
D17*
X41275000Y-92075000D03*
D18*
X36195000Y-92075000D03*
X46355000Y-92075000D03*
D17*
X250825000Y-73025000D03*
D18*
X245745000Y-73025000D03*
X255905000Y-73025000D03*
D17*
X231775000Y-73025000D03*
D18*
X226695000Y-73025000D03*
X236855000Y-73025000D03*
D17*
X212725000Y-73025000D03*
D18*
X207645000Y-73025000D03*
X217805000Y-73025000D03*
D17*
X193675000Y-73025000D03*
D18*
X188595000Y-73025000D03*
X198755000Y-73025000D03*
D17*
X174625000Y-73025000D03*
D18*
X169545000Y-73025000D03*
X179705000Y-73025000D03*
D17*
X155575000Y-73025000D03*
D18*
X150495000Y-73025000D03*
X160655000Y-73025000D03*
D17*
X136525000Y-73025000D03*
D18*
X131445000Y-73025000D03*
X141605000Y-73025000D03*
D17*
X117475000Y-73025000D03*
D18*
X112395000Y-73025000D03*
X122555000Y-73025000D03*
D17*
X98425000Y-73025000D03*
D18*
X93345000Y-73025000D03*
X103505000Y-73025000D03*
D17*
X79375000Y-73025000D03*
D18*
X74295000Y-73025000D03*
X84455000Y-73025000D03*
D17*
X60325000Y-73025000D03*
D18*
X55245000Y-73025000D03*
X65405000Y-73025000D03*
D17*
X41275000Y-73025000D03*
D18*
X36195000Y-73025000D03*
X46355000Y-73025000D03*
D28*
X183642000Y-53213000D03*
X186182000Y-53213000D03*
X188722000Y-53213000D03*
X191262000Y-53213000D03*
X193802000Y-53213000D03*
X196342000Y-53213000D03*
X198882000Y-53213000D03*
X201422000Y-53213000D03*
X203962000Y-53213000D03*
D29*
X184912000Y-73533000D03*
X202692000Y-73533000D03*
D27*
G36*
X88441363Y-57567290D02*
G01*
X88467369Y-57571148D01*
X88492871Y-57577535D01*
X88517624Y-57586392D01*
X88541390Y-57597633D01*
X88563939Y-57611148D01*
X88585056Y-57626809D01*
X88604535Y-57644465D01*
X88622191Y-57663944D01*
X88637852Y-57685061D01*
X88651367Y-57707610D01*
X88662608Y-57731376D01*
X88671465Y-57756129D01*
X88677852Y-57781631D01*
X88681710Y-57807637D01*
X88683000Y-57833895D01*
X88683000Y-58825105D01*
X88681710Y-58851363D01*
X88677852Y-58877369D01*
X88671465Y-58902871D01*
X88662608Y-58927624D01*
X88651367Y-58951390D01*
X88637852Y-58973939D01*
X88622191Y-58995056D01*
X88604535Y-59014535D01*
X88585056Y-59032191D01*
X88563939Y-59047852D01*
X88541390Y-59061367D01*
X88517624Y-59072608D01*
X88492871Y-59081465D01*
X88467369Y-59087852D01*
X88441363Y-59091710D01*
X88415105Y-59093000D01*
X87098895Y-59093000D01*
X87072637Y-59091710D01*
X87046631Y-59087852D01*
X87021129Y-59081465D01*
X86996376Y-59072608D01*
X86972610Y-59061367D01*
X86950061Y-59047852D01*
X86928944Y-59032191D01*
X86909465Y-59014535D01*
X86891809Y-58995056D01*
X86876148Y-58973939D01*
X86862633Y-58951390D01*
X86851392Y-58927624D01*
X86842535Y-58902871D01*
X86836148Y-58877369D01*
X86832290Y-58851363D01*
X86831000Y-58825105D01*
X86831000Y-57833895D01*
X86832290Y-57807637D01*
X86836148Y-57781631D01*
X86842535Y-57756129D01*
X86851392Y-57731376D01*
X86862633Y-57707610D01*
X86876148Y-57685061D01*
X86891809Y-57663944D01*
X86909465Y-57644465D01*
X86928944Y-57626809D01*
X86950061Y-57611148D01*
X86972610Y-57597633D01*
X86996376Y-57586392D01*
X87021129Y-57577535D01*
X87046631Y-57571148D01*
X87072637Y-57567290D01*
X87098895Y-57566000D01*
X88415105Y-57566000D01*
X88441363Y-57567290D01*
G37*
G36*
X88441363Y-60542290D02*
G01*
X88467369Y-60546148D01*
X88492871Y-60552535D01*
X88517624Y-60561392D01*
X88541390Y-60572633D01*
X88563939Y-60586148D01*
X88585056Y-60601809D01*
X88604535Y-60619465D01*
X88622191Y-60638944D01*
X88637852Y-60660061D01*
X88651367Y-60682610D01*
X88662608Y-60706376D01*
X88671465Y-60731129D01*
X88677852Y-60756631D01*
X88681710Y-60782637D01*
X88683000Y-60808895D01*
X88683000Y-61800105D01*
X88681710Y-61826363D01*
X88677852Y-61852369D01*
X88671465Y-61877871D01*
X88662608Y-61902624D01*
X88651367Y-61926390D01*
X88637852Y-61948939D01*
X88622191Y-61970056D01*
X88604535Y-61989535D01*
X88585056Y-62007191D01*
X88563939Y-62022852D01*
X88541390Y-62036367D01*
X88517624Y-62047608D01*
X88492871Y-62056465D01*
X88467369Y-62062852D01*
X88441363Y-62066710D01*
X88415105Y-62068000D01*
X87098895Y-62068000D01*
X87072637Y-62066710D01*
X87046631Y-62062852D01*
X87021129Y-62056465D01*
X86996376Y-62047608D01*
X86972610Y-62036367D01*
X86950061Y-62022852D01*
X86928944Y-62007191D01*
X86909465Y-61989535D01*
X86891809Y-61970056D01*
X86876148Y-61948939D01*
X86862633Y-61926390D01*
X86851392Y-61902624D01*
X86842535Y-61877871D01*
X86836148Y-61852369D01*
X86832290Y-61826363D01*
X86831000Y-61800105D01*
X86831000Y-60808895D01*
X86832290Y-60782637D01*
X86836148Y-60756631D01*
X86842535Y-60731129D01*
X86851392Y-60706376D01*
X86862633Y-60682610D01*
X86876148Y-60660061D01*
X86891809Y-60638944D01*
X86909465Y-60619465D01*
X86928944Y-60601809D01*
X86950061Y-60586148D01*
X86972610Y-60572633D01*
X86996376Y-60561392D01*
X87021129Y-60552535D01*
X87046631Y-60546148D01*
X87072637Y-60542290D01*
X87098895Y-60541000D01*
X88415105Y-60541000D01*
X88441363Y-60542290D01*
G37*
G36*
X217369005Y-52431561D02*
G01*
X217395425Y-52435480D01*
X217421335Y-52441970D01*
X217446483Y-52450968D01*
X217470628Y-52462388D01*
X217493538Y-52476119D01*
X217514992Y-52492030D01*
X217534782Y-52509968D01*
X217552720Y-52529758D01*
X217568631Y-52551212D01*
X217582362Y-52574122D01*
X217593782Y-52598267D01*
X217602780Y-52623415D01*
X217609270Y-52649325D01*
X217613189Y-52675745D01*
X217614500Y-52702423D01*
X217614500Y-53660077D01*
X217613189Y-53686755D01*
X217609270Y-53713175D01*
X217602780Y-53739085D01*
X217593782Y-53764233D01*
X217582362Y-53788378D01*
X217568631Y-53811288D01*
X217552720Y-53832742D01*
X217534782Y-53852532D01*
X217514992Y-53870470D01*
X217493538Y-53886381D01*
X217470628Y-53900112D01*
X217446483Y-53911532D01*
X217421335Y-53920530D01*
X217395425Y-53927020D01*
X217369005Y-53930939D01*
X217342327Y-53932250D01*
X216634673Y-53932250D01*
X216607995Y-53930939D01*
X216581575Y-53927020D01*
X216555665Y-53920530D01*
X216530517Y-53911532D01*
X216506372Y-53900112D01*
X216483462Y-53886381D01*
X216462008Y-53870470D01*
X216442218Y-53852532D01*
X216424280Y-53832742D01*
X216408369Y-53811288D01*
X216394638Y-53788378D01*
X216383218Y-53764233D01*
X216374220Y-53739085D01*
X216367730Y-53713175D01*
X216363811Y-53686755D01*
X216362500Y-53660077D01*
X216362500Y-52702423D01*
X216363811Y-52675745D01*
X216367730Y-52649325D01*
X216374220Y-52623415D01*
X216383218Y-52598267D01*
X216394638Y-52574122D01*
X216408369Y-52551212D01*
X216424280Y-52529758D01*
X216442218Y-52509968D01*
X216462008Y-52492030D01*
X216483462Y-52476119D01*
X216506372Y-52462388D01*
X216530517Y-52450968D01*
X216555665Y-52441970D01*
X216581575Y-52435480D01*
X216607995Y-52431561D01*
X216634673Y-52430250D01*
X217342327Y-52430250D01*
X217369005Y-52431561D01*
G37*
G36*
X215319005Y-52431561D02*
G01*
X215345425Y-52435480D01*
X215371335Y-52441970D01*
X215396483Y-52450968D01*
X215420628Y-52462388D01*
X215443538Y-52476119D01*
X215464992Y-52492030D01*
X215484782Y-52509968D01*
X215502720Y-52529758D01*
X215518631Y-52551212D01*
X215532362Y-52574122D01*
X215543782Y-52598267D01*
X215552780Y-52623415D01*
X215559270Y-52649325D01*
X215563189Y-52675745D01*
X215564500Y-52702423D01*
X215564500Y-53660077D01*
X215563189Y-53686755D01*
X215559270Y-53713175D01*
X215552780Y-53739085D01*
X215543782Y-53764233D01*
X215532362Y-53788378D01*
X215518631Y-53811288D01*
X215502720Y-53832742D01*
X215484782Y-53852532D01*
X215464992Y-53870470D01*
X215443538Y-53886381D01*
X215420628Y-53900112D01*
X215396483Y-53911532D01*
X215371335Y-53920530D01*
X215345425Y-53927020D01*
X215319005Y-53930939D01*
X215292327Y-53932250D01*
X214584673Y-53932250D01*
X214557995Y-53930939D01*
X214531575Y-53927020D01*
X214505665Y-53920530D01*
X214480517Y-53911532D01*
X214456372Y-53900112D01*
X214433462Y-53886381D01*
X214412008Y-53870470D01*
X214392218Y-53852532D01*
X214374280Y-53832742D01*
X214358369Y-53811288D01*
X214344638Y-53788378D01*
X214333218Y-53764233D01*
X214324220Y-53739085D01*
X214317730Y-53713175D01*
X214313811Y-53686755D01*
X214312500Y-53660077D01*
X214312500Y-52702423D01*
X214313811Y-52675745D01*
X214317730Y-52649325D01*
X214324220Y-52623415D01*
X214333218Y-52598267D01*
X214344638Y-52574122D01*
X214358369Y-52551212D01*
X214374280Y-52529758D01*
X214392218Y-52509968D01*
X214412008Y-52492030D01*
X214433462Y-52476119D01*
X214456372Y-52462388D01*
X214480517Y-52450968D01*
X214505665Y-52441970D01*
X214531575Y-52435480D01*
X214557995Y-52431561D01*
X214584673Y-52430250D01*
X215292327Y-52430250D01*
X215319005Y-52431561D01*
G37*
G36*
X215319005Y-54812811D02*
G01*
X215345425Y-54816730D01*
X215371335Y-54823220D01*
X215396483Y-54832218D01*
X215420628Y-54843638D01*
X215443538Y-54857369D01*
X215464992Y-54873280D01*
X215484782Y-54891218D01*
X215502720Y-54911008D01*
X215518631Y-54932462D01*
X215532362Y-54955372D01*
X215543782Y-54979517D01*
X215552780Y-55004665D01*
X215559270Y-55030575D01*
X215563189Y-55056995D01*
X215564500Y-55083673D01*
X215564500Y-56041327D01*
X215563189Y-56068005D01*
X215559270Y-56094425D01*
X215552780Y-56120335D01*
X215543782Y-56145483D01*
X215532362Y-56169628D01*
X215518631Y-56192538D01*
X215502720Y-56213992D01*
X215484782Y-56233782D01*
X215464992Y-56251720D01*
X215443538Y-56267631D01*
X215420628Y-56281362D01*
X215396483Y-56292782D01*
X215371335Y-56301780D01*
X215345425Y-56308270D01*
X215319005Y-56312189D01*
X215292327Y-56313500D01*
X214584673Y-56313500D01*
X214557995Y-56312189D01*
X214531575Y-56308270D01*
X214505665Y-56301780D01*
X214480517Y-56292782D01*
X214456372Y-56281362D01*
X214433462Y-56267631D01*
X214412008Y-56251720D01*
X214392218Y-56233782D01*
X214374280Y-56213992D01*
X214358369Y-56192538D01*
X214344638Y-56169628D01*
X214333218Y-56145483D01*
X214324220Y-56120335D01*
X214317730Y-56094425D01*
X214313811Y-56068005D01*
X214312500Y-56041327D01*
X214312500Y-55083673D01*
X214313811Y-55056995D01*
X214317730Y-55030575D01*
X214324220Y-55004665D01*
X214333218Y-54979517D01*
X214344638Y-54955372D01*
X214358369Y-54932462D01*
X214374280Y-54911008D01*
X214392218Y-54891218D01*
X214412008Y-54873280D01*
X214433462Y-54857369D01*
X214456372Y-54843638D01*
X214480517Y-54832218D01*
X214505665Y-54823220D01*
X214531575Y-54816730D01*
X214557995Y-54812811D01*
X214584673Y-54811500D01*
X215292327Y-54811500D01*
X215319005Y-54812811D01*
G37*
G36*
X217369005Y-54812811D02*
G01*
X217395425Y-54816730D01*
X217421335Y-54823220D01*
X217446483Y-54832218D01*
X217470628Y-54843638D01*
X217493538Y-54857369D01*
X217514992Y-54873280D01*
X217534782Y-54891218D01*
X217552720Y-54911008D01*
X217568631Y-54932462D01*
X217582362Y-54955372D01*
X217593782Y-54979517D01*
X217602780Y-55004665D01*
X217609270Y-55030575D01*
X217613189Y-55056995D01*
X217614500Y-55083673D01*
X217614500Y-56041327D01*
X217613189Y-56068005D01*
X217609270Y-56094425D01*
X217602780Y-56120335D01*
X217593782Y-56145483D01*
X217582362Y-56169628D01*
X217568631Y-56192538D01*
X217552720Y-56213992D01*
X217534782Y-56233782D01*
X217514992Y-56251720D01*
X217493538Y-56267631D01*
X217470628Y-56281362D01*
X217446483Y-56292782D01*
X217421335Y-56301780D01*
X217395425Y-56308270D01*
X217369005Y-56312189D01*
X217342327Y-56313500D01*
X216634673Y-56313500D01*
X216607995Y-56312189D01*
X216581575Y-56308270D01*
X216555665Y-56301780D01*
X216530517Y-56292782D01*
X216506372Y-56281362D01*
X216483462Y-56267631D01*
X216462008Y-56251720D01*
X216442218Y-56233782D01*
X216424280Y-56213992D01*
X216408369Y-56192538D01*
X216394638Y-56169628D01*
X216383218Y-56145483D01*
X216374220Y-56120335D01*
X216367730Y-56094425D01*
X216363811Y-56068005D01*
X216362500Y-56041327D01*
X216362500Y-55083673D01*
X216363811Y-55056995D01*
X216367730Y-55030575D01*
X216374220Y-55004665D01*
X216383218Y-54979517D01*
X216394638Y-54955372D01*
X216408369Y-54932462D01*
X216424280Y-54911008D01*
X216442218Y-54891218D01*
X216462008Y-54873280D01*
X216483462Y-54857369D01*
X216506372Y-54843638D01*
X216530517Y-54832218D01*
X216555665Y-54823220D01*
X216581575Y-54816730D01*
X216607995Y-54812811D01*
X216634673Y-54811500D01*
X217342327Y-54811500D01*
X217369005Y-54812811D01*
G37*
D30*
X95854250Y-58674000D03*
X99154250Y-58674000D03*
D27*
G36*
X109564141Y-52336297D02*
G01*
X109590278Y-52340174D01*
X109615909Y-52346594D01*
X109640788Y-52355495D01*
X109664674Y-52366793D01*
X109687337Y-52380377D01*
X109708560Y-52396117D01*
X109728139Y-52413861D01*
X109745883Y-52433440D01*
X109761623Y-52454663D01*
X109775207Y-52477326D01*
X109786505Y-52501212D01*
X109795406Y-52526091D01*
X109801826Y-52551722D01*
X109805703Y-52577859D01*
X109807000Y-52604250D01*
X109807000Y-53567750D01*
X109805703Y-53594141D01*
X109801826Y-53620278D01*
X109795406Y-53645909D01*
X109786505Y-53670788D01*
X109775207Y-53694674D01*
X109761623Y-53717337D01*
X109745883Y-53738560D01*
X109728139Y-53758139D01*
X109708560Y-53775883D01*
X109687337Y-53791623D01*
X109664674Y-53805207D01*
X109640788Y-53816505D01*
X109615909Y-53825406D01*
X109590278Y-53831826D01*
X109564141Y-53835703D01*
X109537750Y-53837000D01*
X108999250Y-53837000D01*
X108972859Y-53835703D01*
X108946722Y-53831826D01*
X108921091Y-53825406D01*
X108896212Y-53816505D01*
X108872326Y-53805207D01*
X108849663Y-53791623D01*
X108828440Y-53775883D01*
X108808861Y-53758139D01*
X108791117Y-53738560D01*
X108775377Y-53717337D01*
X108761793Y-53694674D01*
X108750495Y-53670788D01*
X108741594Y-53645909D01*
X108735174Y-53620278D01*
X108731297Y-53594141D01*
X108730000Y-53567750D01*
X108730000Y-52604250D01*
X108731297Y-52577859D01*
X108735174Y-52551722D01*
X108741594Y-52526091D01*
X108750495Y-52501212D01*
X108761793Y-52477326D01*
X108775377Y-52454663D01*
X108791117Y-52433440D01*
X108808861Y-52413861D01*
X108828440Y-52396117D01*
X108849663Y-52380377D01*
X108872326Y-52366793D01*
X108896212Y-52355495D01*
X108921091Y-52346594D01*
X108946722Y-52340174D01*
X108972859Y-52336297D01*
X108999250Y-52335000D01*
X109537750Y-52335000D01*
X109564141Y-52336297D01*
G37*
G36*
X107689141Y-52336297D02*
G01*
X107715278Y-52340174D01*
X107740909Y-52346594D01*
X107765788Y-52355495D01*
X107789674Y-52366793D01*
X107812337Y-52380377D01*
X107833560Y-52396117D01*
X107853139Y-52413861D01*
X107870883Y-52433440D01*
X107886623Y-52454663D01*
X107900207Y-52477326D01*
X107911505Y-52501212D01*
X107920406Y-52526091D01*
X107926826Y-52551722D01*
X107930703Y-52577859D01*
X107932000Y-52604250D01*
X107932000Y-53567750D01*
X107930703Y-53594141D01*
X107926826Y-53620278D01*
X107920406Y-53645909D01*
X107911505Y-53670788D01*
X107900207Y-53694674D01*
X107886623Y-53717337D01*
X107870883Y-53738560D01*
X107853139Y-53758139D01*
X107833560Y-53775883D01*
X107812337Y-53791623D01*
X107789674Y-53805207D01*
X107765788Y-53816505D01*
X107740909Y-53825406D01*
X107715278Y-53831826D01*
X107689141Y-53835703D01*
X107662750Y-53837000D01*
X107124250Y-53837000D01*
X107097859Y-53835703D01*
X107071722Y-53831826D01*
X107046091Y-53825406D01*
X107021212Y-53816505D01*
X106997326Y-53805207D01*
X106974663Y-53791623D01*
X106953440Y-53775883D01*
X106933861Y-53758139D01*
X106916117Y-53738560D01*
X106900377Y-53717337D01*
X106886793Y-53694674D01*
X106875495Y-53670788D01*
X106866594Y-53645909D01*
X106860174Y-53620278D01*
X106856297Y-53594141D01*
X106855000Y-53567750D01*
X106855000Y-52604250D01*
X106856297Y-52577859D01*
X106860174Y-52551722D01*
X106866594Y-52526091D01*
X106875495Y-52501212D01*
X106886793Y-52477326D01*
X106900377Y-52454663D01*
X106916117Y-52433440D01*
X106933861Y-52413861D01*
X106953440Y-52396117D01*
X106974663Y-52380377D01*
X106997326Y-52366793D01*
X107021212Y-52355495D01*
X107046091Y-52346594D01*
X107071722Y-52340174D01*
X107097859Y-52336297D01*
X107124250Y-52335000D01*
X107662750Y-52335000D01*
X107689141Y-52336297D01*
G37*
G36*
X118618141Y-59836297D02*
G01*
X118644278Y-59840174D01*
X118669909Y-59846594D01*
X118694788Y-59855495D01*
X118718674Y-59866793D01*
X118741337Y-59880377D01*
X118762560Y-59896117D01*
X118782139Y-59913861D01*
X118799883Y-59933440D01*
X118815623Y-59954663D01*
X118829207Y-59977326D01*
X118840505Y-60001212D01*
X118849406Y-60026091D01*
X118855826Y-60051722D01*
X118859703Y-60077859D01*
X118861000Y-60104250D01*
X118861000Y-60642750D01*
X118859703Y-60669141D01*
X118855826Y-60695278D01*
X118849406Y-60720909D01*
X118840505Y-60745788D01*
X118829207Y-60769674D01*
X118815623Y-60792337D01*
X118799883Y-60813560D01*
X118782139Y-60833139D01*
X118762560Y-60850883D01*
X118741337Y-60866623D01*
X118718674Y-60880207D01*
X118694788Y-60891505D01*
X118669909Y-60900406D01*
X118644278Y-60906826D01*
X118618141Y-60910703D01*
X118591750Y-60912000D01*
X117628250Y-60912000D01*
X117601859Y-60910703D01*
X117575722Y-60906826D01*
X117550091Y-60900406D01*
X117525212Y-60891505D01*
X117501326Y-60880207D01*
X117478663Y-60866623D01*
X117457440Y-60850883D01*
X117437861Y-60833139D01*
X117420117Y-60813560D01*
X117404377Y-60792337D01*
X117390793Y-60769674D01*
X117379495Y-60745788D01*
X117370594Y-60720909D01*
X117364174Y-60695278D01*
X117360297Y-60669141D01*
X117359000Y-60642750D01*
X117359000Y-60104250D01*
X117360297Y-60077859D01*
X117364174Y-60051722D01*
X117370594Y-60026091D01*
X117379495Y-60001212D01*
X117390793Y-59977326D01*
X117404377Y-59954663D01*
X117420117Y-59933440D01*
X117437861Y-59913861D01*
X117457440Y-59896117D01*
X117478663Y-59880377D01*
X117501326Y-59866793D01*
X117525212Y-59855495D01*
X117550091Y-59846594D01*
X117575722Y-59840174D01*
X117601859Y-59836297D01*
X117628250Y-59835000D01*
X118591750Y-59835000D01*
X118618141Y-59836297D01*
G37*
G36*
X118618141Y-57961297D02*
G01*
X118644278Y-57965174D01*
X118669909Y-57971594D01*
X118694788Y-57980495D01*
X118718674Y-57991793D01*
X118741337Y-58005377D01*
X118762560Y-58021117D01*
X118782139Y-58038861D01*
X118799883Y-58058440D01*
X118815623Y-58079663D01*
X118829207Y-58102326D01*
X118840505Y-58126212D01*
X118849406Y-58151091D01*
X118855826Y-58176722D01*
X118859703Y-58202859D01*
X118861000Y-58229250D01*
X118861000Y-58767750D01*
X118859703Y-58794141D01*
X118855826Y-58820278D01*
X118849406Y-58845909D01*
X118840505Y-58870788D01*
X118829207Y-58894674D01*
X118815623Y-58917337D01*
X118799883Y-58938560D01*
X118782139Y-58958139D01*
X118762560Y-58975883D01*
X118741337Y-58991623D01*
X118718674Y-59005207D01*
X118694788Y-59016505D01*
X118669909Y-59025406D01*
X118644278Y-59031826D01*
X118618141Y-59035703D01*
X118591750Y-59037000D01*
X117628250Y-59037000D01*
X117601859Y-59035703D01*
X117575722Y-59031826D01*
X117550091Y-59025406D01*
X117525212Y-59016505D01*
X117501326Y-59005207D01*
X117478663Y-58991623D01*
X117457440Y-58975883D01*
X117437861Y-58958139D01*
X117420117Y-58938560D01*
X117404377Y-58917337D01*
X117390793Y-58894674D01*
X117379495Y-58870788D01*
X117370594Y-58845909D01*
X117364174Y-58820278D01*
X117360297Y-58794141D01*
X117359000Y-58767750D01*
X117359000Y-58229250D01*
X117360297Y-58202859D01*
X117364174Y-58176722D01*
X117370594Y-58151091D01*
X117379495Y-58126212D01*
X117390793Y-58102326D01*
X117404377Y-58079663D01*
X117420117Y-58058440D01*
X117437861Y-58038861D01*
X117457440Y-58021117D01*
X117478663Y-58005377D01*
X117501326Y-57991793D01*
X117525212Y-57980495D01*
X117550091Y-57971594D01*
X117575722Y-57965174D01*
X117601859Y-57961297D01*
X117628250Y-57960000D01*
X118591750Y-57960000D01*
X118618141Y-57961297D01*
G37*
G36*
X116236891Y-59836297D02*
G01*
X116263028Y-59840174D01*
X116288659Y-59846594D01*
X116313538Y-59855495D01*
X116337424Y-59866793D01*
X116360087Y-59880377D01*
X116381310Y-59896117D01*
X116400889Y-59913861D01*
X116418633Y-59933440D01*
X116434373Y-59954663D01*
X116447957Y-59977326D01*
X116459255Y-60001212D01*
X116468156Y-60026091D01*
X116474576Y-60051722D01*
X116478453Y-60077859D01*
X116479750Y-60104250D01*
X116479750Y-60642750D01*
X116478453Y-60669141D01*
X116474576Y-60695278D01*
X116468156Y-60720909D01*
X116459255Y-60745788D01*
X116447957Y-60769674D01*
X116434373Y-60792337D01*
X116418633Y-60813560D01*
X116400889Y-60833139D01*
X116381310Y-60850883D01*
X116360087Y-60866623D01*
X116337424Y-60880207D01*
X116313538Y-60891505D01*
X116288659Y-60900406D01*
X116263028Y-60906826D01*
X116236891Y-60910703D01*
X116210500Y-60912000D01*
X115247000Y-60912000D01*
X115220609Y-60910703D01*
X115194472Y-60906826D01*
X115168841Y-60900406D01*
X115143962Y-60891505D01*
X115120076Y-60880207D01*
X115097413Y-60866623D01*
X115076190Y-60850883D01*
X115056611Y-60833139D01*
X115038867Y-60813560D01*
X115023127Y-60792337D01*
X115009543Y-60769674D01*
X114998245Y-60745788D01*
X114989344Y-60720909D01*
X114982924Y-60695278D01*
X114979047Y-60669141D01*
X114977750Y-60642750D01*
X114977750Y-60104250D01*
X114979047Y-60077859D01*
X114982924Y-60051722D01*
X114989344Y-60026091D01*
X114998245Y-60001212D01*
X115009543Y-59977326D01*
X115023127Y-59954663D01*
X115038867Y-59933440D01*
X115056611Y-59913861D01*
X115076190Y-59896117D01*
X115097413Y-59880377D01*
X115120076Y-59866793D01*
X115143962Y-59855495D01*
X115168841Y-59846594D01*
X115194472Y-59840174D01*
X115220609Y-59836297D01*
X115247000Y-59835000D01*
X116210500Y-59835000D01*
X116236891Y-59836297D01*
G37*
G36*
X116236891Y-57961297D02*
G01*
X116263028Y-57965174D01*
X116288659Y-57971594D01*
X116313538Y-57980495D01*
X116337424Y-57991793D01*
X116360087Y-58005377D01*
X116381310Y-58021117D01*
X116400889Y-58038861D01*
X116418633Y-58058440D01*
X116434373Y-58079663D01*
X116447957Y-58102326D01*
X116459255Y-58126212D01*
X116468156Y-58151091D01*
X116474576Y-58176722D01*
X116478453Y-58202859D01*
X116479750Y-58229250D01*
X116479750Y-58767750D01*
X116478453Y-58794141D01*
X116474576Y-58820278D01*
X116468156Y-58845909D01*
X116459255Y-58870788D01*
X116447957Y-58894674D01*
X116434373Y-58917337D01*
X116418633Y-58938560D01*
X116400889Y-58958139D01*
X116381310Y-58975883D01*
X116360087Y-58991623D01*
X116337424Y-59005207D01*
X116313538Y-59016505D01*
X116288659Y-59025406D01*
X116263028Y-59031826D01*
X116236891Y-59035703D01*
X116210500Y-59037000D01*
X115247000Y-59037000D01*
X115220609Y-59035703D01*
X115194472Y-59031826D01*
X115168841Y-59025406D01*
X115143962Y-59016505D01*
X115120076Y-59005207D01*
X115097413Y-58991623D01*
X115076190Y-58975883D01*
X115056611Y-58958139D01*
X115038867Y-58938560D01*
X115023127Y-58917337D01*
X115009543Y-58894674D01*
X114998245Y-58870788D01*
X114989344Y-58845909D01*
X114982924Y-58820278D01*
X114979047Y-58794141D01*
X114977750Y-58767750D01*
X114977750Y-58229250D01*
X114979047Y-58202859D01*
X114982924Y-58176722D01*
X114989344Y-58151091D01*
X114998245Y-58126212D01*
X115009543Y-58102326D01*
X115023127Y-58079663D01*
X115038867Y-58058440D01*
X115056611Y-58038861D01*
X115076190Y-58021117D01*
X115097413Y-58005377D01*
X115120076Y-57991793D01*
X115143962Y-57980495D01*
X115168841Y-57971594D01*
X115194472Y-57965174D01*
X115220609Y-57961297D01*
X115247000Y-57960000D01*
X116210500Y-57960000D01*
X116236891Y-57961297D01*
G37*
G36*
X109124891Y-59804547D02*
G01*
X109151028Y-59808424D01*
X109176659Y-59814844D01*
X109201538Y-59823745D01*
X109225424Y-59835043D01*
X109248087Y-59848627D01*
X109269310Y-59864367D01*
X109288889Y-59882111D01*
X109306633Y-59901690D01*
X109322373Y-59922913D01*
X109335957Y-59945576D01*
X109347255Y-59969462D01*
X109356156Y-59994341D01*
X109362576Y-60019972D01*
X109366453Y-60046109D01*
X109367750Y-60072500D01*
X109367750Y-60611000D01*
X109366453Y-60637391D01*
X109362576Y-60663528D01*
X109356156Y-60689159D01*
X109347255Y-60714038D01*
X109335957Y-60737924D01*
X109322373Y-60760587D01*
X109306633Y-60781810D01*
X109288889Y-60801389D01*
X109269310Y-60819133D01*
X109248087Y-60834873D01*
X109225424Y-60848457D01*
X109201538Y-60859755D01*
X109176659Y-60868656D01*
X109151028Y-60875076D01*
X109124891Y-60878953D01*
X109098500Y-60880250D01*
X108135000Y-60880250D01*
X108108609Y-60878953D01*
X108082472Y-60875076D01*
X108056841Y-60868656D01*
X108031962Y-60859755D01*
X108008076Y-60848457D01*
X107985413Y-60834873D01*
X107964190Y-60819133D01*
X107944611Y-60801389D01*
X107926867Y-60781810D01*
X107911127Y-60760587D01*
X107897543Y-60737924D01*
X107886245Y-60714038D01*
X107877344Y-60689159D01*
X107870924Y-60663528D01*
X107867047Y-60637391D01*
X107865750Y-60611000D01*
X107865750Y-60072500D01*
X107867047Y-60046109D01*
X107870924Y-60019972D01*
X107877344Y-59994341D01*
X107886245Y-59969462D01*
X107897543Y-59945576D01*
X107911127Y-59922913D01*
X107926867Y-59901690D01*
X107944611Y-59882111D01*
X107964190Y-59864367D01*
X107985413Y-59848627D01*
X108008076Y-59835043D01*
X108031962Y-59823745D01*
X108056841Y-59814844D01*
X108082472Y-59808424D01*
X108108609Y-59804547D01*
X108135000Y-59803250D01*
X109098500Y-59803250D01*
X109124891Y-59804547D01*
G37*
G36*
X109124891Y-57929547D02*
G01*
X109151028Y-57933424D01*
X109176659Y-57939844D01*
X109201538Y-57948745D01*
X109225424Y-57960043D01*
X109248087Y-57973627D01*
X109269310Y-57989367D01*
X109288889Y-58007111D01*
X109306633Y-58026690D01*
X109322373Y-58047913D01*
X109335957Y-58070576D01*
X109347255Y-58094462D01*
X109356156Y-58119341D01*
X109362576Y-58144972D01*
X109366453Y-58171109D01*
X109367750Y-58197500D01*
X109367750Y-58736000D01*
X109366453Y-58762391D01*
X109362576Y-58788528D01*
X109356156Y-58814159D01*
X109347255Y-58839038D01*
X109335957Y-58862924D01*
X109322373Y-58885587D01*
X109306633Y-58906810D01*
X109288889Y-58926389D01*
X109269310Y-58944133D01*
X109248087Y-58959873D01*
X109225424Y-58973457D01*
X109201538Y-58984755D01*
X109176659Y-58993656D01*
X109151028Y-59000076D01*
X109124891Y-59003953D01*
X109098500Y-59005250D01*
X108135000Y-59005250D01*
X108108609Y-59003953D01*
X108082472Y-59000076D01*
X108056841Y-58993656D01*
X108031962Y-58984755D01*
X108008076Y-58973457D01*
X107985413Y-58959873D01*
X107964190Y-58944133D01*
X107944611Y-58926389D01*
X107926867Y-58906810D01*
X107911127Y-58885587D01*
X107897543Y-58862924D01*
X107886245Y-58839038D01*
X107877344Y-58814159D01*
X107870924Y-58788528D01*
X107867047Y-58762391D01*
X107865750Y-58736000D01*
X107865750Y-58197500D01*
X107867047Y-58171109D01*
X107870924Y-58144972D01*
X107877344Y-58119341D01*
X107886245Y-58094462D01*
X107897543Y-58070576D01*
X107911127Y-58047913D01*
X107926867Y-58026690D01*
X107944611Y-58007111D01*
X107964190Y-57989367D01*
X107985413Y-57973627D01*
X108008076Y-57960043D01*
X108031962Y-57948745D01*
X108056841Y-57939844D01*
X108082472Y-57933424D01*
X108108609Y-57929547D01*
X108135000Y-57928250D01*
X109098500Y-57928250D01*
X109124891Y-57929547D01*
G37*
G36*
X129413141Y-51962297D02*
G01*
X129439278Y-51966174D01*
X129464909Y-51972594D01*
X129489788Y-51981495D01*
X129513674Y-51992793D01*
X129536337Y-52006377D01*
X129557560Y-52022117D01*
X129577139Y-52039861D01*
X129594883Y-52059440D01*
X129610623Y-52080663D01*
X129624207Y-52103326D01*
X129635505Y-52127212D01*
X129644406Y-52152091D01*
X129650826Y-52177722D01*
X129654703Y-52203859D01*
X129656000Y-52230250D01*
X129656000Y-52768750D01*
X129654703Y-52795141D01*
X129650826Y-52821278D01*
X129644406Y-52846909D01*
X129635505Y-52871788D01*
X129624207Y-52895674D01*
X129610623Y-52918337D01*
X129594883Y-52939560D01*
X129577139Y-52959139D01*
X129557560Y-52976883D01*
X129536337Y-52992623D01*
X129513674Y-53006207D01*
X129489788Y-53017505D01*
X129464909Y-53026406D01*
X129439278Y-53032826D01*
X129413141Y-53036703D01*
X129386750Y-53038000D01*
X128423250Y-53038000D01*
X128396859Y-53036703D01*
X128370722Y-53032826D01*
X128345091Y-53026406D01*
X128320212Y-53017505D01*
X128296326Y-53006207D01*
X128273663Y-52992623D01*
X128252440Y-52976883D01*
X128232861Y-52959139D01*
X128215117Y-52939560D01*
X128199377Y-52918337D01*
X128185793Y-52895674D01*
X128174495Y-52871788D01*
X128165594Y-52846909D01*
X128159174Y-52821278D01*
X128155297Y-52795141D01*
X128154000Y-52768750D01*
X128154000Y-52230250D01*
X128155297Y-52203859D01*
X128159174Y-52177722D01*
X128165594Y-52152091D01*
X128174495Y-52127212D01*
X128185793Y-52103326D01*
X128199377Y-52080663D01*
X128215117Y-52059440D01*
X128232861Y-52039861D01*
X128252440Y-52022117D01*
X128273663Y-52006377D01*
X128296326Y-51992793D01*
X128320212Y-51981495D01*
X128345091Y-51972594D01*
X128370722Y-51966174D01*
X128396859Y-51962297D01*
X128423250Y-51961000D01*
X129386750Y-51961000D01*
X129413141Y-51962297D01*
G37*
G36*
X129413141Y-50087297D02*
G01*
X129439278Y-50091174D01*
X129464909Y-50097594D01*
X129489788Y-50106495D01*
X129513674Y-50117793D01*
X129536337Y-50131377D01*
X129557560Y-50147117D01*
X129577139Y-50164861D01*
X129594883Y-50184440D01*
X129610623Y-50205663D01*
X129624207Y-50228326D01*
X129635505Y-50252212D01*
X129644406Y-50277091D01*
X129650826Y-50302722D01*
X129654703Y-50328859D01*
X129656000Y-50355250D01*
X129656000Y-50893750D01*
X129654703Y-50920141D01*
X129650826Y-50946278D01*
X129644406Y-50971909D01*
X129635505Y-50996788D01*
X129624207Y-51020674D01*
X129610623Y-51043337D01*
X129594883Y-51064560D01*
X129577139Y-51084139D01*
X129557560Y-51101883D01*
X129536337Y-51117623D01*
X129513674Y-51131207D01*
X129489788Y-51142505D01*
X129464909Y-51151406D01*
X129439278Y-51157826D01*
X129413141Y-51161703D01*
X129386750Y-51163000D01*
X128423250Y-51163000D01*
X128396859Y-51161703D01*
X128370722Y-51157826D01*
X128345091Y-51151406D01*
X128320212Y-51142505D01*
X128296326Y-51131207D01*
X128273663Y-51117623D01*
X128252440Y-51101883D01*
X128232861Y-51084139D01*
X128215117Y-51064560D01*
X128199377Y-51043337D01*
X128185793Y-51020674D01*
X128174495Y-50996788D01*
X128165594Y-50971909D01*
X128159174Y-50946278D01*
X128155297Y-50920141D01*
X128154000Y-50893750D01*
X128154000Y-50355250D01*
X128155297Y-50328859D01*
X128159174Y-50302722D01*
X128165594Y-50277091D01*
X128174495Y-50252212D01*
X128185793Y-50228326D01*
X128199377Y-50205663D01*
X128215117Y-50184440D01*
X128232861Y-50164861D01*
X128252440Y-50147117D01*
X128273663Y-50131377D01*
X128296326Y-50117793D01*
X128320212Y-50106495D01*
X128345091Y-50097594D01*
X128370722Y-50091174D01*
X128396859Y-50087297D01*
X128423250Y-50086000D01*
X129386750Y-50086000D01*
X129413141Y-50087297D01*
G37*
G36*
X106743641Y-59804547D02*
G01*
X106769778Y-59808424D01*
X106795409Y-59814844D01*
X106820288Y-59823745D01*
X106844174Y-59835043D01*
X106866837Y-59848627D01*
X106888060Y-59864367D01*
X106907639Y-59882111D01*
X106925383Y-59901690D01*
X106941123Y-59922913D01*
X106954707Y-59945576D01*
X106966005Y-59969462D01*
X106974906Y-59994341D01*
X106981326Y-60019972D01*
X106985203Y-60046109D01*
X106986500Y-60072500D01*
X106986500Y-60611000D01*
X106985203Y-60637391D01*
X106981326Y-60663528D01*
X106974906Y-60689159D01*
X106966005Y-60714038D01*
X106954707Y-60737924D01*
X106941123Y-60760587D01*
X106925383Y-60781810D01*
X106907639Y-60801389D01*
X106888060Y-60819133D01*
X106866837Y-60834873D01*
X106844174Y-60848457D01*
X106820288Y-60859755D01*
X106795409Y-60868656D01*
X106769778Y-60875076D01*
X106743641Y-60878953D01*
X106717250Y-60880250D01*
X105753750Y-60880250D01*
X105727359Y-60878953D01*
X105701222Y-60875076D01*
X105675591Y-60868656D01*
X105650712Y-60859755D01*
X105626826Y-60848457D01*
X105604163Y-60834873D01*
X105582940Y-60819133D01*
X105563361Y-60801389D01*
X105545617Y-60781810D01*
X105529877Y-60760587D01*
X105516293Y-60737924D01*
X105504995Y-60714038D01*
X105496094Y-60689159D01*
X105489674Y-60663528D01*
X105485797Y-60637391D01*
X105484500Y-60611000D01*
X105484500Y-60072500D01*
X105485797Y-60046109D01*
X105489674Y-60019972D01*
X105496094Y-59994341D01*
X105504995Y-59969462D01*
X105516293Y-59945576D01*
X105529877Y-59922913D01*
X105545617Y-59901690D01*
X105563361Y-59882111D01*
X105582940Y-59864367D01*
X105604163Y-59848627D01*
X105626826Y-59835043D01*
X105650712Y-59823745D01*
X105675591Y-59814844D01*
X105701222Y-59808424D01*
X105727359Y-59804547D01*
X105753750Y-59803250D01*
X106717250Y-59803250D01*
X106743641Y-59804547D01*
G37*
G36*
X106743641Y-57929547D02*
G01*
X106769778Y-57933424D01*
X106795409Y-57939844D01*
X106820288Y-57948745D01*
X106844174Y-57960043D01*
X106866837Y-57973627D01*
X106888060Y-57989367D01*
X106907639Y-58007111D01*
X106925383Y-58026690D01*
X106941123Y-58047913D01*
X106954707Y-58070576D01*
X106966005Y-58094462D01*
X106974906Y-58119341D01*
X106981326Y-58144972D01*
X106985203Y-58171109D01*
X106986500Y-58197500D01*
X106986500Y-58736000D01*
X106985203Y-58762391D01*
X106981326Y-58788528D01*
X106974906Y-58814159D01*
X106966005Y-58839038D01*
X106954707Y-58862924D01*
X106941123Y-58885587D01*
X106925383Y-58906810D01*
X106907639Y-58926389D01*
X106888060Y-58944133D01*
X106866837Y-58959873D01*
X106844174Y-58973457D01*
X106820288Y-58984755D01*
X106795409Y-58993656D01*
X106769778Y-59000076D01*
X106743641Y-59003953D01*
X106717250Y-59005250D01*
X105753750Y-59005250D01*
X105727359Y-59003953D01*
X105701222Y-59000076D01*
X105675591Y-58993656D01*
X105650712Y-58984755D01*
X105626826Y-58973457D01*
X105604163Y-58959873D01*
X105582940Y-58944133D01*
X105563361Y-58926389D01*
X105545617Y-58906810D01*
X105529877Y-58885587D01*
X105516293Y-58862924D01*
X105504995Y-58839038D01*
X105496094Y-58814159D01*
X105489674Y-58788528D01*
X105485797Y-58762391D01*
X105484500Y-58736000D01*
X105484500Y-58197500D01*
X105485797Y-58171109D01*
X105489674Y-58144972D01*
X105496094Y-58119341D01*
X105504995Y-58094462D01*
X105516293Y-58070576D01*
X105529877Y-58047913D01*
X105545617Y-58026690D01*
X105563361Y-58007111D01*
X105582940Y-57989367D01*
X105604163Y-57973627D01*
X105626826Y-57960043D01*
X105650712Y-57948745D01*
X105675591Y-57939844D01*
X105701222Y-57933424D01*
X105727359Y-57929547D01*
X105753750Y-57928250D01*
X106717250Y-57928250D01*
X106743641Y-57929547D01*
G37*
G36*
X104362391Y-59804547D02*
G01*
X104388528Y-59808424D01*
X104414159Y-59814844D01*
X104439038Y-59823745D01*
X104462924Y-59835043D01*
X104485587Y-59848627D01*
X104506810Y-59864367D01*
X104526389Y-59882111D01*
X104544133Y-59901690D01*
X104559873Y-59922913D01*
X104573457Y-59945576D01*
X104584755Y-59969462D01*
X104593656Y-59994341D01*
X104600076Y-60019972D01*
X104603953Y-60046109D01*
X104605250Y-60072500D01*
X104605250Y-60611000D01*
X104603953Y-60637391D01*
X104600076Y-60663528D01*
X104593656Y-60689159D01*
X104584755Y-60714038D01*
X104573457Y-60737924D01*
X104559873Y-60760587D01*
X104544133Y-60781810D01*
X104526389Y-60801389D01*
X104506810Y-60819133D01*
X104485587Y-60834873D01*
X104462924Y-60848457D01*
X104439038Y-60859755D01*
X104414159Y-60868656D01*
X104388528Y-60875076D01*
X104362391Y-60878953D01*
X104336000Y-60880250D01*
X103372500Y-60880250D01*
X103346109Y-60878953D01*
X103319972Y-60875076D01*
X103294341Y-60868656D01*
X103269462Y-60859755D01*
X103245576Y-60848457D01*
X103222913Y-60834873D01*
X103201690Y-60819133D01*
X103182111Y-60801389D01*
X103164367Y-60781810D01*
X103148627Y-60760587D01*
X103135043Y-60737924D01*
X103123745Y-60714038D01*
X103114844Y-60689159D01*
X103108424Y-60663528D01*
X103104547Y-60637391D01*
X103103250Y-60611000D01*
X103103250Y-60072500D01*
X103104547Y-60046109D01*
X103108424Y-60019972D01*
X103114844Y-59994341D01*
X103123745Y-59969462D01*
X103135043Y-59945576D01*
X103148627Y-59922913D01*
X103164367Y-59901690D01*
X103182111Y-59882111D01*
X103201690Y-59864367D01*
X103222913Y-59848627D01*
X103245576Y-59835043D01*
X103269462Y-59823745D01*
X103294341Y-59814844D01*
X103319972Y-59808424D01*
X103346109Y-59804547D01*
X103372500Y-59803250D01*
X104336000Y-59803250D01*
X104362391Y-59804547D01*
G37*
G36*
X104362391Y-57929547D02*
G01*
X104388528Y-57933424D01*
X104414159Y-57939844D01*
X104439038Y-57948745D01*
X104462924Y-57960043D01*
X104485587Y-57973627D01*
X104506810Y-57989367D01*
X104526389Y-58007111D01*
X104544133Y-58026690D01*
X104559873Y-58047913D01*
X104573457Y-58070576D01*
X104584755Y-58094462D01*
X104593656Y-58119341D01*
X104600076Y-58144972D01*
X104603953Y-58171109D01*
X104605250Y-58197500D01*
X104605250Y-58736000D01*
X104603953Y-58762391D01*
X104600076Y-58788528D01*
X104593656Y-58814159D01*
X104584755Y-58839038D01*
X104573457Y-58862924D01*
X104559873Y-58885587D01*
X104544133Y-58906810D01*
X104526389Y-58926389D01*
X104506810Y-58944133D01*
X104485587Y-58959873D01*
X104462924Y-58973457D01*
X104439038Y-58984755D01*
X104414159Y-58993656D01*
X104388528Y-59000076D01*
X104362391Y-59003953D01*
X104336000Y-59005250D01*
X103372500Y-59005250D01*
X103346109Y-59003953D01*
X103319972Y-59000076D01*
X103294341Y-58993656D01*
X103269462Y-58984755D01*
X103245576Y-58973457D01*
X103222913Y-58959873D01*
X103201690Y-58944133D01*
X103182111Y-58926389D01*
X103164367Y-58906810D01*
X103148627Y-58885587D01*
X103135043Y-58862924D01*
X103123745Y-58839038D01*
X103114844Y-58814159D01*
X103108424Y-58788528D01*
X103104547Y-58762391D01*
X103103250Y-58736000D01*
X103103250Y-58197500D01*
X103104547Y-58171109D01*
X103108424Y-58144972D01*
X103114844Y-58119341D01*
X103123745Y-58094462D01*
X103135043Y-58070576D01*
X103148627Y-58047913D01*
X103164367Y-58026690D01*
X103182111Y-58007111D01*
X103201690Y-57989367D01*
X103222913Y-57973627D01*
X103245576Y-57960043D01*
X103269462Y-57948745D01*
X103294341Y-57939844D01*
X103319972Y-57933424D01*
X103346109Y-57929547D01*
X103372500Y-57928250D01*
X104336000Y-57928250D01*
X104362391Y-57929547D01*
G37*
G36*
X135599141Y-50050297D02*
G01*
X135625278Y-50054174D01*
X135650909Y-50060594D01*
X135675788Y-50069495D01*
X135699674Y-50080793D01*
X135722337Y-50094377D01*
X135743560Y-50110117D01*
X135763139Y-50127861D01*
X135780883Y-50147440D01*
X135796623Y-50168663D01*
X135810207Y-50191326D01*
X135821505Y-50215212D01*
X135830406Y-50240091D01*
X135836826Y-50265722D01*
X135840703Y-50291859D01*
X135842000Y-50318250D01*
X135842000Y-51281750D01*
X135840703Y-51308141D01*
X135836826Y-51334278D01*
X135830406Y-51359909D01*
X135821505Y-51384788D01*
X135810207Y-51408674D01*
X135796623Y-51431337D01*
X135780883Y-51452560D01*
X135763139Y-51472139D01*
X135743560Y-51489883D01*
X135722337Y-51505623D01*
X135699674Y-51519207D01*
X135675788Y-51530505D01*
X135650909Y-51539406D01*
X135625278Y-51545826D01*
X135599141Y-51549703D01*
X135572750Y-51551000D01*
X135034250Y-51551000D01*
X135007859Y-51549703D01*
X134981722Y-51545826D01*
X134956091Y-51539406D01*
X134931212Y-51530505D01*
X134907326Y-51519207D01*
X134884663Y-51505623D01*
X134863440Y-51489883D01*
X134843861Y-51472139D01*
X134826117Y-51452560D01*
X134810377Y-51431337D01*
X134796793Y-51408674D01*
X134785495Y-51384788D01*
X134776594Y-51359909D01*
X134770174Y-51334278D01*
X134766297Y-51308141D01*
X134765000Y-51281750D01*
X134765000Y-50318250D01*
X134766297Y-50291859D01*
X134770174Y-50265722D01*
X134776594Y-50240091D01*
X134785495Y-50215212D01*
X134796793Y-50191326D01*
X134810377Y-50168663D01*
X134826117Y-50147440D01*
X134843861Y-50127861D01*
X134863440Y-50110117D01*
X134884663Y-50094377D01*
X134907326Y-50080793D01*
X134931212Y-50069495D01*
X134956091Y-50060594D01*
X134981722Y-50054174D01*
X135007859Y-50050297D01*
X135034250Y-50049000D01*
X135572750Y-50049000D01*
X135599141Y-50050297D01*
G37*
G36*
X133724141Y-50050297D02*
G01*
X133750278Y-50054174D01*
X133775909Y-50060594D01*
X133800788Y-50069495D01*
X133824674Y-50080793D01*
X133847337Y-50094377D01*
X133868560Y-50110117D01*
X133888139Y-50127861D01*
X133905883Y-50147440D01*
X133921623Y-50168663D01*
X133935207Y-50191326D01*
X133946505Y-50215212D01*
X133955406Y-50240091D01*
X133961826Y-50265722D01*
X133965703Y-50291859D01*
X133967000Y-50318250D01*
X133967000Y-51281750D01*
X133965703Y-51308141D01*
X133961826Y-51334278D01*
X133955406Y-51359909D01*
X133946505Y-51384788D01*
X133935207Y-51408674D01*
X133921623Y-51431337D01*
X133905883Y-51452560D01*
X133888139Y-51472139D01*
X133868560Y-51489883D01*
X133847337Y-51505623D01*
X133824674Y-51519207D01*
X133800788Y-51530505D01*
X133775909Y-51539406D01*
X133750278Y-51545826D01*
X133724141Y-51549703D01*
X133697750Y-51551000D01*
X133159250Y-51551000D01*
X133132859Y-51549703D01*
X133106722Y-51545826D01*
X133081091Y-51539406D01*
X133056212Y-51530505D01*
X133032326Y-51519207D01*
X133009663Y-51505623D01*
X132988440Y-51489883D01*
X132968861Y-51472139D01*
X132951117Y-51452560D01*
X132935377Y-51431337D01*
X132921793Y-51408674D01*
X132910495Y-51384788D01*
X132901594Y-51359909D01*
X132895174Y-51334278D01*
X132891297Y-51308141D01*
X132890000Y-51281750D01*
X132890000Y-50318250D01*
X132891297Y-50291859D01*
X132895174Y-50265722D01*
X132901594Y-50240091D01*
X132910495Y-50215212D01*
X132921793Y-50191326D01*
X132935377Y-50168663D01*
X132951117Y-50147440D01*
X132968861Y-50127861D01*
X132988440Y-50110117D01*
X133009663Y-50094377D01*
X133032326Y-50080793D01*
X133056212Y-50069495D01*
X133081091Y-50060594D01*
X133106722Y-50054174D01*
X133132859Y-50050297D01*
X133159250Y-50049000D01*
X133697750Y-50049000D01*
X133724141Y-50050297D01*
G37*
G36*
X133724141Y-58686297D02*
G01*
X133750278Y-58690174D01*
X133775909Y-58696594D01*
X133800788Y-58705495D01*
X133824674Y-58716793D01*
X133847337Y-58730377D01*
X133868560Y-58746117D01*
X133888139Y-58763861D01*
X133905883Y-58783440D01*
X133921623Y-58804663D01*
X133935207Y-58827326D01*
X133946505Y-58851212D01*
X133955406Y-58876091D01*
X133961826Y-58901722D01*
X133965703Y-58927859D01*
X133967000Y-58954250D01*
X133967000Y-59917750D01*
X133965703Y-59944141D01*
X133961826Y-59970278D01*
X133955406Y-59995909D01*
X133946505Y-60020788D01*
X133935207Y-60044674D01*
X133921623Y-60067337D01*
X133905883Y-60088560D01*
X133888139Y-60108139D01*
X133868560Y-60125883D01*
X133847337Y-60141623D01*
X133824674Y-60155207D01*
X133800788Y-60166505D01*
X133775909Y-60175406D01*
X133750278Y-60181826D01*
X133724141Y-60185703D01*
X133697750Y-60187000D01*
X133159250Y-60187000D01*
X133132859Y-60185703D01*
X133106722Y-60181826D01*
X133081091Y-60175406D01*
X133056212Y-60166505D01*
X133032326Y-60155207D01*
X133009663Y-60141623D01*
X132988440Y-60125883D01*
X132968861Y-60108139D01*
X132951117Y-60088560D01*
X132935377Y-60067337D01*
X132921793Y-60044674D01*
X132910495Y-60020788D01*
X132901594Y-59995909D01*
X132895174Y-59970278D01*
X132891297Y-59944141D01*
X132890000Y-59917750D01*
X132890000Y-58954250D01*
X132891297Y-58927859D01*
X132895174Y-58901722D01*
X132901594Y-58876091D01*
X132910495Y-58851212D01*
X132921793Y-58827326D01*
X132935377Y-58804663D01*
X132951117Y-58783440D01*
X132968861Y-58763861D01*
X132988440Y-58746117D01*
X133009663Y-58730377D01*
X133032326Y-58716793D01*
X133056212Y-58705495D01*
X133081091Y-58696594D01*
X133106722Y-58690174D01*
X133132859Y-58686297D01*
X133159250Y-58685000D01*
X133697750Y-58685000D01*
X133724141Y-58686297D01*
G37*
G36*
X135599141Y-58686297D02*
G01*
X135625278Y-58690174D01*
X135650909Y-58696594D01*
X135675788Y-58705495D01*
X135699674Y-58716793D01*
X135722337Y-58730377D01*
X135743560Y-58746117D01*
X135763139Y-58763861D01*
X135780883Y-58783440D01*
X135796623Y-58804663D01*
X135810207Y-58827326D01*
X135821505Y-58851212D01*
X135830406Y-58876091D01*
X135836826Y-58901722D01*
X135840703Y-58927859D01*
X135842000Y-58954250D01*
X135842000Y-59917750D01*
X135840703Y-59944141D01*
X135836826Y-59970278D01*
X135830406Y-59995909D01*
X135821505Y-60020788D01*
X135810207Y-60044674D01*
X135796623Y-60067337D01*
X135780883Y-60088560D01*
X135763139Y-60108139D01*
X135743560Y-60125883D01*
X135722337Y-60141623D01*
X135699674Y-60155207D01*
X135675788Y-60166505D01*
X135650909Y-60175406D01*
X135625278Y-60181826D01*
X135599141Y-60185703D01*
X135572750Y-60187000D01*
X135034250Y-60187000D01*
X135007859Y-60185703D01*
X134981722Y-60181826D01*
X134956091Y-60175406D01*
X134931212Y-60166505D01*
X134907326Y-60155207D01*
X134884663Y-60141623D01*
X134863440Y-60125883D01*
X134843861Y-60108139D01*
X134826117Y-60088560D01*
X134810377Y-60067337D01*
X134796793Y-60044674D01*
X134785495Y-60020788D01*
X134776594Y-59995909D01*
X134770174Y-59970278D01*
X134766297Y-59944141D01*
X134765000Y-59917750D01*
X134765000Y-58954250D01*
X134766297Y-58927859D01*
X134770174Y-58901722D01*
X134776594Y-58876091D01*
X134785495Y-58851212D01*
X134796793Y-58827326D01*
X134810377Y-58804663D01*
X134826117Y-58783440D01*
X134843861Y-58763861D01*
X134863440Y-58746117D01*
X134884663Y-58730377D01*
X134907326Y-58716793D01*
X134931212Y-58705495D01*
X134956091Y-58696594D01*
X134981722Y-58690174D01*
X135007859Y-58686297D01*
X135034250Y-58685000D01*
X135572750Y-58685000D01*
X135599141Y-58686297D01*
G37*
G36*
X101981141Y-59804547D02*
G01*
X102007278Y-59808424D01*
X102032909Y-59814844D01*
X102057788Y-59823745D01*
X102081674Y-59835043D01*
X102104337Y-59848627D01*
X102125560Y-59864367D01*
X102145139Y-59882111D01*
X102162883Y-59901690D01*
X102178623Y-59922913D01*
X102192207Y-59945576D01*
X102203505Y-59969462D01*
X102212406Y-59994341D01*
X102218826Y-60019972D01*
X102222703Y-60046109D01*
X102224000Y-60072500D01*
X102224000Y-60611000D01*
X102222703Y-60637391D01*
X102218826Y-60663528D01*
X102212406Y-60689159D01*
X102203505Y-60714038D01*
X102192207Y-60737924D01*
X102178623Y-60760587D01*
X102162883Y-60781810D01*
X102145139Y-60801389D01*
X102125560Y-60819133D01*
X102104337Y-60834873D01*
X102081674Y-60848457D01*
X102057788Y-60859755D01*
X102032909Y-60868656D01*
X102007278Y-60875076D01*
X101981141Y-60878953D01*
X101954750Y-60880250D01*
X100991250Y-60880250D01*
X100964859Y-60878953D01*
X100938722Y-60875076D01*
X100913091Y-60868656D01*
X100888212Y-60859755D01*
X100864326Y-60848457D01*
X100841663Y-60834873D01*
X100820440Y-60819133D01*
X100800861Y-60801389D01*
X100783117Y-60781810D01*
X100767377Y-60760587D01*
X100753793Y-60737924D01*
X100742495Y-60714038D01*
X100733594Y-60689159D01*
X100727174Y-60663528D01*
X100723297Y-60637391D01*
X100722000Y-60611000D01*
X100722000Y-60072500D01*
X100723297Y-60046109D01*
X100727174Y-60019972D01*
X100733594Y-59994341D01*
X100742495Y-59969462D01*
X100753793Y-59945576D01*
X100767377Y-59922913D01*
X100783117Y-59901690D01*
X100800861Y-59882111D01*
X100820440Y-59864367D01*
X100841663Y-59848627D01*
X100864326Y-59835043D01*
X100888212Y-59823745D01*
X100913091Y-59814844D01*
X100938722Y-59808424D01*
X100964859Y-59804547D01*
X100991250Y-59803250D01*
X101954750Y-59803250D01*
X101981141Y-59804547D01*
G37*
G36*
X101981141Y-57929547D02*
G01*
X102007278Y-57933424D01*
X102032909Y-57939844D01*
X102057788Y-57948745D01*
X102081674Y-57960043D01*
X102104337Y-57973627D01*
X102125560Y-57989367D01*
X102145139Y-58007111D01*
X102162883Y-58026690D01*
X102178623Y-58047913D01*
X102192207Y-58070576D01*
X102203505Y-58094462D01*
X102212406Y-58119341D01*
X102218826Y-58144972D01*
X102222703Y-58171109D01*
X102224000Y-58197500D01*
X102224000Y-58736000D01*
X102222703Y-58762391D01*
X102218826Y-58788528D01*
X102212406Y-58814159D01*
X102203505Y-58839038D01*
X102192207Y-58862924D01*
X102178623Y-58885587D01*
X102162883Y-58906810D01*
X102145139Y-58926389D01*
X102125560Y-58944133D01*
X102104337Y-58959873D01*
X102081674Y-58973457D01*
X102057788Y-58984755D01*
X102032909Y-58993656D01*
X102007278Y-59000076D01*
X101981141Y-59003953D01*
X101954750Y-59005250D01*
X100991250Y-59005250D01*
X100964859Y-59003953D01*
X100938722Y-59000076D01*
X100913091Y-58993656D01*
X100888212Y-58984755D01*
X100864326Y-58973457D01*
X100841663Y-58959873D01*
X100820440Y-58944133D01*
X100800861Y-58926389D01*
X100783117Y-58906810D01*
X100767377Y-58885587D01*
X100753793Y-58862924D01*
X100742495Y-58839038D01*
X100733594Y-58814159D01*
X100727174Y-58788528D01*
X100723297Y-58762391D01*
X100722000Y-58736000D01*
X100722000Y-58197500D01*
X100723297Y-58171109D01*
X100727174Y-58144972D01*
X100733594Y-58119341D01*
X100742495Y-58094462D01*
X100753793Y-58070576D01*
X100767377Y-58047913D01*
X100783117Y-58026690D01*
X100800861Y-58007111D01*
X100820440Y-57989367D01*
X100841663Y-57973627D01*
X100864326Y-57960043D01*
X100888212Y-57948745D01*
X100913091Y-57939844D01*
X100938722Y-57933424D01*
X100964859Y-57929547D01*
X100991250Y-57928250D01*
X101954750Y-57928250D01*
X101981141Y-57929547D01*
G37*
M02*
