G04 #@! TF.GenerationSoftware,KiCad,Pcbnew,(5.1.5)-3*
G04 #@! TF.CreationDate,2020-06-08T21:07:07-04:00*
G04 #@! TF.ProjectId,Xen40,58656e34-302e-46b6-9963-61645f706362,rev?*
G04 #@! TF.SameCoordinates,Original*
G04 #@! TF.FileFunction,Legend,Bot*
G04 #@! TF.FilePolarity,Positive*
%FSLAX46Y46*%
G04 Gerber Fmt 4.6, Leading zero omitted, Abs format (unit mm)*
G04 Created by KiCad (PCBNEW (5.1.5)-3) date 2020-06-08 21:07:07*
%MOMM*%
%LPD*%
G04 APERTURE LIST*
%ADD10C,0.120000*%
%ADD11C,0.150000*%
%ADD12C,0.203200*%
%ADD13C,0.138988*%
%ADD14C,1.352000*%
%ADD15C,1.452000*%
%ADD16C,1.602000*%
%ADD17C,2.352000*%
%ADD18C,4.089800*%
%ADD19C,1.852000*%
%ADD20C,3.150000*%
%ADD21C,1.499000*%
%ADD22C,1.879600*%
%ADD23C,3.301600*%
%ADD24R,1.002000X1.302000*%
G04 APERTURE END LIST*
D10*
X49500000Y-58800000D02*
X49500000Y-44600000D01*
X69900000Y-58800000D02*
X49500000Y-58800000D01*
X69900000Y-44600000D02*
X69900000Y-58800000D01*
X49500000Y-44600000D02*
X69900000Y-44600000D01*
D11*
X78709000Y-61115000D02*
X86209000Y-61115000D01*
X86169000Y-62215000D02*
X78709000Y-62215000D01*
X86209000Y-55115000D02*
X78709000Y-55115000D01*
X78709000Y-55115000D02*
X78709000Y-62215000D01*
X86209000Y-62215000D02*
X86209000Y-55115000D01*
X91935000Y-62178000D02*
X97835000Y-62178000D01*
X97835000Y-51228000D02*
X91935000Y-51228000D01*
X91935000Y-51228000D02*
X91935000Y-62178000D01*
X91935000Y-58828000D02*
X97835000Y-58828000D01*
X97835000Y-62178000D02*
X97835000Y-51228000D01*
X70312500Y-44625000D02*
X78912500Y-44625000D01*
X70312500Y-44625000D02*
X70312500Y-48725000D01*
X70312500Y-48725000D02*
X78912500Y-48725000D01*
X78912500Y-48725000D02*
X78912500Y-44625000D01*
X219710000Y-52070000D02*
X222250000Y-52070000D01*
X219710000Y-62230000D02*
X219710000Y-52070000D01*
X222250000Y-62230000D02*
X219710000Y-62230000D01*
X222250000Y-52070000D02*
X222250000Y-62230000D01*
D12*
X186912000Y-73533000D02*
G75*
G03X186912000Y-73533000I-2000000J0D01*
G01*
X204692000Y-73533000D02*
G75*
G03X204692000Y-73533000I-2000000J0D01*
G01*
D10*
X246162000Y-135493000D02*
X250062000Y-135493000D01*
X246162000Y-133493000D02*
X250062000Y-133493000D01*
X246162000Y-135493000D02*
X246162000Y-133493000D01*
X224699000Y-135493000D02*
X228599000Y-135493000D01*
X224699000Y-133493000D02*
X228599000Y-133493000D01*
X224699000Y-135493000D02*
X224699000Y-133493000D01*
X205649000Y-135493000D02*
X209549000Y-135493000D01*
X205649000Y-133493000D02*
X209549000Y-133493000D01*
X205649000Y-135493000D02*
X205649000Y-133493000D01*
X169962000Y-135493000D02*
X173862000Y-135493000D01*
X169962000Y-133493000D02*
X173862000Y-133493000D01*
X169962000Y-135493000D02*
X169962000Y-133493000D01*
X131862000Y-135493000D02*
X135762000Y-135493000D01*
X131862000Y-133493000D02*
X135762000Y-133493000D01*
X131862000Y-135493000D02*
X131862000Y-133493000D01*
X98461000Y-135493000D02*
X102361000Y-135493000D01*
X98461000Y-133493000D02*
X102361000Y-133493000D01*
X98461000Y-135493000D02*
X98461000Y-133493000D01*
X65187000Y-135493000D02*
X69087000Y-135493000D01*
X65187000Y-133493000D02*
X69087000Y-133493000D01*
X65187000Y-135493000D02*
X65187000Y-133493000D01*
X41311000Y-135493000D02*
X45211000Y-135493000D01*
X41311000Y-133493000D02*
X45211000Y-133493000D01*
X41311000Y-135493000D02*
X41311000Y-133493000D01*
X248575000Y-116443000D02*
X252475000Y-116443000D01*
X248575000Y-114443000D02*
X252475000Y-114443000D01*
X248575000Y-116443000D02*
X248575000Y-114443000D01*
X229525000Y-116443000D02*
X233425000Y-116443000D01*
X229525000Y-114443000D02*
X233425000Y-114443000D01*
X229525000Y-116443000D02*
X229525000Y-114443000D01*
X210475000Y-116443000D02*
X214375000Y-116443000D01*
X210475000Y-114443000D02*
X214375000Y-114443000D01*
X210475000Y-116443000D02*
X210475000Y-114443000D01*
X191425000Y-116443000D02*
X195325000Y-116443000D01*
X191425000Y-114443000D02*
X195325000Y-114443000D01*
X191425000Y-116443000D02*
X191425000Y-114443000D01*
X172375000Y-116443000D02*
X176275000Y-116443000D01*
X172375000Y-114443000D02*
X176275000Y-114443000D01*
X172375000Y-116443000D02*
X172375000Y-114443000D01*
X153325000Y-116443000D02*
X157225000Y-116443000D01*
X153325000Y-114443000D02*
X157225000Y-114443000D01*
X153325000Y-116443000D02*
X153325000Y-114443000D01*
X134275000Y-116443000D02*
X138175000Y-116443000D01*
X134275000Y-114443000D02*
X138175000Y-114443000D01*
X134275000Y-116443000D02*
X134275000Y-114443000D01*
X115225000Y-116443000D02*
X119125000Y-116443000D01*
X115225000Y-114443000D02*
X119125000Y-114443000D01*
X115225000Y-116443000D02*
X115225000Y-114443000D01*
X96175000Y-116443000D02*
X100075000Y-116443000D01*
X96175000Y-114443000D02*
X100075000Y-114443000D01*
X96175000Y-116443000D02*
X96175000Y-114443000D01*
X77125000Y-116443000D02*
X81025000Y-116443000D01*
X77125000Y-114443000D02*
X81025000Y-114443000D01*
X77125000Y-116443000D02*
X77125000Y-114443000D01*
X58075000Y-116443000D02*
X61975000Y-116443000D01*
X58075000Y-114443000D02*
X61975000Y-114443000D01*
X58075000Y-116443000D02*
X58075000Y-114443000D01*
X39025000Y-116443000D02*
X42925000Y-116443000D01*
X39025000Y-114443000D02*
X42925000Y-114443000D01*
X39025000Y-116443000D02*
X39025000Y-114443000D01*
X248575000Y-97393000D02*
X252475000Y-97393000D01*
X248575000Y-95393000D02*
X252475000Y-95393000D01*
X248575000Y-97393000D02*
X248575000Y-95393000D01*
X229525000Y-97393000D02*
X233425000Y-97393000D01*
X229525000Y-95393000D02*
X233425000Y-95393000D01*
X229525000Y-97393000D02*
X229525000Y-95393000D01*
X210475000Y-97393000D02*
X214375000Y-97393000D01*
X210475000Y-95393000D02*
X214375000Y-95393000D01*
X210475000Y-97393000D02*
X210475000Y-95393000D01*
X191425000Y-97393000D02*
X195325000Y-97393000D01*
X191425000Y-95393000D02*
X195325000Y-95393000D01*
X191425000Y-97393000D02*
X191425000Y-95393000D01*
X172375000Y-97393000D02*
X176275000Y-97393000D01*
X172375000Y-95393000D02*
X176275000Y-95393000D01*
X172375000Y-97393000D02*
X172375000Y-95393000D01*
X153325000Y-97393000D02*
X157225000Y-97393000D01*
X153325000Y-95393000D02*
X157225000Y-95393000D01*
X153325000Y-97393000D02*
X153325000Y-95393000D01*
X134275000Y-97393000D02*
X138175000Y-97393000D01*
X134275000Y-95393000D02*
X138175000Y-95393000D01*
X134275000Y-97393000D02*
X134275000Y-95393000D01*
X115225000Y-97393000D02*
X119125000Y-97393000D01*
X115225000Y-95393000D02*
X119125000Y-95393000D01*
X115225000Y-97393000D02*
X115225000Y-95393000D01*
X96175000Y-97393000D02*
X100075000Y-97393000D01*
X96175000Y-95393000D02*
X100075000Y-95393000D01*
X96175000Y-97393000D02*
X96175000Y-95393000D01*
X77125000Y-97393000D02*
X81025000Y-97393000D01*
X77125000Y-95393000D02*
X81025000Y-95393000D01*
X77125000Y-97393000D02*
X77125000Y-95393000D01*
X58075000Y-97393000D02*
X61975000Y-97393000D01*
X58075000Y-95393000D02*
X61975000Y-95393000D01*
X58075000Y-97393000D02*
X58075000Y-95393000D01*
X39025000Y-97393000D02*
X42925000Y-97393000D01*
X39025000Y-95393000D02*
X42925000Y-95393000D01*
X39025000Y-97393000D02*
X39025000Y-95393000D01*
X248575000Y-78343000D02*
X252475000Y-78343000D01*
X248575000Y-76343000D02*
X252475000Y-76343000D01*
X248575000Y-78343000D02*
X248575000Y-76343000D01*
X229525000Y-78343000D02*
X233425000Y-78343000D01*
X229525000Y-76343000D02*
X233425000Y-76343000D01*
X229525000Y-78343000D02*
X229525000Y-76343000D01*
X210475000Y-78343000D02*
X214375000Y-78343000D01*
X210475000Y-76343000D02*
X214375000Y-76343000D01*
X210475000Y-78343000D02*
X210475000Y-76343000D01*
X191425000Y-78343000D02*
X195325000Y-78343000D01*
X191425000Y-76343000D02*
X195325000Y-76343000D01*
X191425000Y-78343000D02*
X191425000Y-76343000D01*
X172375000Y-78343000D02*
X176275000Y-78343000D01*
X172375000Y-76343000D02*
X176275000Y-76343000D01*
X172375000Y-78343000D02*
X172375000Y-76343000D01*
X153325000Y-78343000D02*
X157225000Y-78343000D01*
X153325000Y-76343000D02*
X157225000Y-76343000D01*
X153325000Y-78343000D02*
X153325000Y-76343000D01*
X134275000Y-78343000D02*
X138175000Y-78343000D01*
X134275000Y-76343000D02*
X138175000Y-76343000D01*
X134275000Y-78343000D02*
X134275000Y-76343000D01*
X115225000Y-78343000D02*
X119125000Y-78343000D01*
X115225000Y-76343000D02*
X119125000Y-76343000D01*
X115225000Y-78343000D02*
X115225000Y-76343000D01*
X96175000Y-78343000D02*
X100075000Y-78343000D01*
X96175000Y-76343000D02*
X100075000Y-76343000D01*
X96175000Y-78343000D02*
X96175000Y-76343000D01*
X77125000Y-78343000D02*
X81025000Y-78343000D01*
X77125000Y-76343000D02*
X81025000Y-76343000D01*
X77125000Y-78343000D02*
X77125000Y-76343000D01*
X58075000Y-78343000D02*
X61975000Y-78343000D01*
X58075000Y-76343000D02*
X61975000Y-76343000D01*
X58075000Y-78343000D02*
X58075000Y-76343000D01*
X39025000Y-78343000D02*
X42925000Y-78343000D01*
X39025000Y-76343000D02*
X42925000Y-76343000D01*
X39025000Y-78343000D02*
X39025000Y-76343000D01*
D11*
X87392933Y-55180895D02*
X87392933Y-55761466D01*
X87431638Y-55877580D01*
X87509047Y-55954990D01*
X87625161Y-55993695D01*
X87702571Y-55993695D01*
X86580133Y-55993695D02*
X87044590Y-55993695D01*
X86812361Y-55993695D02*
X86812361Y-55180895D01*
X86889771Y-55297009D01*
X86967180Y-55374419D01*
X87044590Y-55413123D01*
X91202933Y-51370895D02*
X91202933Y-51951466D01*
X91241638Y-52067580D01*
X91319047Y-52144990D01*
X91435161Y-52183695D01*
X91512571Y-52183695D01*
X90467542Y-51641828D02*
X90467542Y-52183695D01*
X90661066Y-51332190D02*
X90854590Y-51912761D01*
X90351428Y-51912761D01*
X82105333Y-46886761D02*
X81962476Y-46934380D01*
X81724380Y-46934380D01*
X81629142Y-46886761D01*
X81581523Y-46839142D01*
X81533904Y-46743904D01*
X81533904Y-46648666D01*
X81581523Y-46553428D01*
X81629142Y-46505809D01*
X81724380Y-46458190D01*
X81914857Y-46410571D01*
X82010095Y-46362952D01*
X82057714Y-46315333D01*
X82105333Y-46220095D01*
X82105333Y-46124857D01*
X82057714Y-46029619D01*
X82010095Y-45982000D01*
X81914857Y-45934380D01*
X81676761Y-45934380D01*
X81533904Y-45982000D01*
X81200571Y-45934380D02*
X80962476Y-46934380D01*
X80772000Y-46220095D01*
X80581523Y-46934380D01*
X80343428Y-45934380D01*
X80010095Y-46029619D02*
X79962476Y-45982000D01*
X79867238Y-45934380D01*
X79629142Y-45934380D01*
X79533904Y-45982000D01*
X79486285Y-46029619D01*
X79438666Y-46124857D01*
X79438666Y-46220095D01*
X79486285Y-46362952D01*
X80057714Y-46934380D01*
X79438666Y-46934380D01*
D13*
X204102193Y-50880070D02*
X204102193Y-51431613D01*
X204138962Y-51541921D01*
X204212501Y-51615460D01*
X204322810Y-51652230D01*
X204396349Y-51652230D01*
X203771267Y-50953609D02*
X203734497Y-50916840D01*
X203660958Y-50880070D01*
X203477111Y-50880070D01*
X203403572Y-50916840D01*
X203366802Y-50953609D01*
X203330033Y-51027148D01*
X203330033Y-51100687D01*
X203366802Y-51210996D01*
X203808036Y-51652230D01*
X203330033Y-51652230D01*
D11*
X249626285Y-136945380D02*
X249626285Y-135945380D01*
X249388190Y-135945380D01*
X249245333Y-135993000D01*
X249150095Y-136088238D01*
X249102476Y-136183476D01*
X249054857Y-136373952D01*
X249054857Y-136516809D01*
X249102476Y-136707285D01*
X249150095Y-136802523D01*
X249245333Y-136897761D01*
X249388190Y-136945380D01*
X249626285Y-136945380D01*
X248197714Y-136278714D02*
X248197714Y-136945380D01*
X248435809Y-135897761D02*
X248673904Y-136612047D01*
X248054857Y-136612047D01*
X247245333Y-135945380D02*
X247435809Y-135945380D01*
X247531047Y-135993000D01*
X247578666Y-136040619D01*
X247673904Y-136183476D01*
X247721523Y-136373952D01*
X247721523Y-136754904D01*
X247673904Y-136850142D01*
X247626285Y-136897761D01*
X247531047Y-136945380D01*
X247340571Y-136945380D01*
X247245333Y-136897761D01*
X247197714Y-136850142D01*
X247150095Y-136754904D01*
X247150095Y-136516809D01*
X247197714Y-136421571D01*
X247245333Y-136373952D01*
X247340571Y-136326333D01*
X247531047Y-136326333D01*
X247626285Y-136373952D01*
X247673904Y-136421571D01*
X247721523Y-136516809D01*
X228163285Y-136945380D02*
X228163285Y-135945380D01*
X227925190Y-135945380D01*
X227782333Y-135993000D01*
X227687095Y-136088238D01*
X227639476Y-136183476D01*
X227591857Y-136373952D01*
X227591857Y-136516809D01*
X227639476Y-136707285D01*
X227687095Y-136802523D01*
X227782333Y-136897761D01*
X227925190Y-136945380D01*
X228163285Y-136945380D01*
X226734714Y-136278714D02*
X226734714Y-136945380D01*
X226972809Y-135897761D02*
X227210904Y-136612047D01*
X226591857Y-136612047D01*
X225734714Y-135945380D02*
X226210904Y-135945380D01*
X226258523Y-136421571D01*
X226210904Y-136373952D01*
X226115666Y-136326333D01*
X225877571Y-136326333D01*
X225782333Y-136373952D01*
X225734714Y-136421571D01*
X225687095Y-136516809D01*
X225687095Y-136754904D01*
X225734714Y-136850142D01*
X225782333Y-136897761D01*
X225877571Y-136945380D01*
X226115666Y-136945380D01*
X226210904Y-136897761D01*
X226258523Y-136850142D01*
X209113285Y-136945380D02*
X209113285Y-135945380D01*
X208875190Y-135945380D01*
X208732333Y-135993000D01*
X208637095Y-136088238D01*
X208589476Y-136183476D01*
X208541857Y-136373952D01*
X208541857Y-136516809D01*
X208589476Y-136707285D01*
X208637095Y-136802523D01*
X208732333Y-136897761D01*
X208875190Y-136945380D01*
X209113285Y-136945380D01*
X207684714Y-136278714D02*
X207684714Y-136945380D01*
X207922809Y-135897761D02*
X208160904Y-136612047D01*
X207541857Y-136612047D01*
X206732333Y-136278714D02*
X206732333Y-136945380D01*
X206970428Y-135897761D02*
X207208523Y-136612047D01*
X206589476Y-136612047D01*
X173426285Y-136945380D02*
X173426285Y-135945380D01*
X173188190Y-135945380D01*
X173045333Y-135993000D01*
X172950095Y-136088238D01*
X172902476Y-136183476D01*
X172854857Y-136373952D01*
X172854857Y-136516809D01*
X172902476Y-136707285D01*
X172950095Y-136802523D01*
X173045333Y-136897761D01*
X173188190Y-136945380D01*
X173426285Y-136945380D01*
X171997714Y-136278714D02*
X171997714Y-136945380D01*
X172235809Y-135897761D02*
X172473904Y-136612047D01*
X171854857Y-136612047D01*
X171569142Y-135945380D02*
X170950095Y-135945380D01*
X171283428Y-136326333D01*
X171140571Y-136326333D01*
X171045333Y-136373952D01*
X170997714Y-136421571D01*
X170950095Y-136516809D01*
X170950095Y-136754904D01*
X170997714Y-136850142D01*
X171045333Y-136897761D01*
X171140571Y-136945380D01*
X171426285Y-136945380D01*
X171521523Y-136897761D01*
X171569142Y-136850142D01*
X135326285Y-136945380D02*
X135326285Y-135945380D01*
X135088190Y-135945380D01*
X134945333Y-135993000D01*
X134850095Y-136088238D01*
X134802476Y-136183476D01*
X134754857Y-136373952D01*
X134754857Y-136516809D01*
X134802476Y-136707285D01*
X134850095Y-136802523D01*
X134945333Y-136897761D01*
X135088190Y-136945380D01*
X135326285Y-136945380D01*
X133897714Y-136278714D02*
X133897714Y-136945380D01*
X134135809Y-135897761D02*
X134373904Y-136612047D01*
X133754857Y-136612047D01*
X133421523Y-136040619D02*
X133373904Y-135993000D01*
X133278666Y-135945380D01*
X133040571Y-135945380D01*
X132945333Y-135993000D01*
X132897714Y-136040619D01*
X132850095Y-136135857D01*
X132850095Y-136231095D01*
X132897714Y-136373952D01*
X133469142Y-136945380D01*
X132850095Y-136945380D01*
X101925285Y-136945380D02*
X101925285Y-135945380D01*
X101687190Y-135945380D01*
X101544333Y-135993000D01*
X101449095Y-136088238D01*
X101401476Y-136183476D01*
X101353857Y-136373952D01*
X101353857Y-136516809D01*
X101401476Y-136707285D01*
X101449095Y-136802523D01*
X101544333Y-136897761D01*
X101687190Y-136945380D01*
X101925285Y-136945380D01*
X100496714Y-136278714D02*
X100496714Y-136945380D01*
X100734809Y-135897761D02*
X100972904Y-136612047D01*
X100353857Y-136612047D01*
X99449095Y-136945380D02*
X100020523Y-136945380D01*
X99734809Y-136945380D02*
X99734809Y-135945380D01*
X99830047Y-136088238D01*
X99925285Y-136183476D01*
X100020523Y-136231095D01*
X68651285Y-136945380D02*
X68651285Y-135945380D01*
X68413190Y-135945380D01*
X68270333Y-135993000D01*
X68175095Y-136088238D01*
X68127476Y-136183476D01*
X68079857Y-136373952D01*
X68079857Y-136516809D01*
X68127476Y-136707285D01*
X68175095Y-136802523D01*
X68270333Y-136897761D01*
X68413190Y-136945380D01*
X68651285Y-136945380D01*
X67222714Y-136278714D02*
X67222714Y-136945380D01*
X67460809Y-135897761D02*
X67698904Y-136612047D01*
X67079857Y-136612047D01*
X66508428Y-135945380D02*
X66413190Y-135945380D01*
X66317952Y-135993000D01*
X66270333Y-136040619D01*
X66222714Y-136135857D01*
X66175095Y-136326333D01*
X66175095Y-136564428D01*
X66222714Y-136754904D01*
X66270333Y-136850142D01*
X66317952Y-136897761D01*
X66413190Y-136945380D01*
X66508428Y-136945380D01*
X66603666Y-136897761D01*
X66651285Y-136850142D01*
X66698904Y-136754904D01*
X66746523Y-136564428D01*
X66746523Y-136326333D01*
X66698904Y-136135857D01*
X66651285Y-136040619D01*
X66603666Y-135993000D01*
X66508428Y-135945380D01*
X44775285Y-136945380D02*
X44775285Y-135945380D01*
X44537190Y-135945380D01*
X44394333Y-135993000D01*
X44299095Y-136088238D01*
X44251476Y-136183476D01*
X44203857Y-136373952D01*
X44203857Y-136516809D01*
X44251476Y-136707285D01*
X44299095Y-136802523D01*
X44394333Y-136897761D01*
X44537190Y-136945380D01*
X44775285Y-136945380D01*
X43870523Y-135945380D02*
X43251476Y-135945380D01*
X43584809Y-136326333D01*
X43441952Y-136326333D01*
X43346714Y-136373952D01*
X43299095Y-136421571D01*
X43251476Y-136516809D01*
X43251476Y-136754904D01*
X43299095Y-136850142D01*
X43346714Y-136897761D01*
X43441952Y-136945380D01*
X43727666Y-136945380D01*
X43822904Y-136897761D01*
X43870523Y-136850142D01*
X42775285Y-136945380D02*
X42584809Y-136945380D01*
X42489571Y-136897761D01*
X42441952Y-136850142D01*
X42346714Y-136707285D01*
X42299095Y-136516809D01*
X42299095Y-136135857D01*
X42346714Y-136040619D01*
X42394333Y-135993000D01*
X42489571Y-135945380D01*
X42680047Y-135945380D01*
X42775285Y-135993000D01*
X42822904Y-136040619D01*
X42870523Y-136135857D01*
X42870523Y-136373952D01*
X42822904Y-136469190D01*
X42775285Y-136516809D01*
X42680047Y-136564428D01*
X42489571Y-136564428D01*
X42394333Y-136516809D01*
X42346714Y-136469190D01*
X42299095Y-136373952D01*
X252039285Y-117895380D02*
X252039285Y-116895380D01*
X251801190Y-116895380D01*
X251658333Y-116943000D01*
X251563095Y-117038238D01*
X251515476Y-117133476D01*
X251467857Y-117323952D01*
X251467857Y-117466809D01*
X251515476Y-117657285D01*
X251563095Y-117752523D01*
X251658333Y-117847761D01*
X251801190Y-117895380D01*
X252039285Y-117895380D01*
X251134523Y-116895380D02*
X250515476Y-116895380D01*
X250848809Y-117276333D01*
X250705952Y-117276333D01*
X250610714Y-117323952D01*
X250563095Y-117371571D01*
X250515476Y-117466809D01*
X250515476Y-117704904D01*
X250563095Y-117800142D01*
X250610714Y-117847761D01*
X250705952Y-117895380D01*
X250991666Y-117895380D01*
X251086904Y-117847761D01*
X251134523Y-117800142D01*
X249944047Y-117323952D02*
X250039285Y-117276333D01*
X250086904Y-117228714D01*
X250134523Y-117133476D01*
X250134523Y-117085857D01*
X250086904Y-116990619D01*
X250039285Y-116943000D01*
X249944047Y-116895380D01*
X249753571Y-116895380D01*
X249658333Y-116943000D01*
X249610714Y-116990619D01*
X249563095Y-117085857D01*
X249563095Y-117133476D01*
X249610714Y-117228714D01*
X249658333Y-117276333D01*
X249753571Y-117323952D01*
X249944047Y-117323952D01*
X250039285Y-117371571D01*
X250086904Y-117419190D01*
X250134523Y-117514428D01*
X250134523Y-117704904D01*
X250086904Y-117800142D01*
X250039285Y-117847761D01*
X249944047Y-117895380D01*
X249753571Y-117895380D01*
X249658333Y-117847761D01*
X249610714Y-117800142D01*
X249563095Y-117704904D01*
X249563095Y-117514428D01*
X249610714Y-117419190D01*
X249658333Y-117371571D01*
X249753571Y-117323952D01*
X232989285Y-117895380D02*
X232989285Y-116895380D01*
X232751190Y-116895380D01*
X232608333Y-116943000D01*
X232513095Y-117038238D01*
X232465476Y-117133476D01*
X232417857Y-117323952D01*
X232417857Y-117466809D01*
X232465476Y-117657285D01*
X232513095Y-117752523D01*
X232608333Y-117847761D01*
X232751190Y-117895380D01*
X232989285Y-117895380D01*
X232084523Y-116895380D02*
X231465476Y-116895380D01*
X231798809Y-117276333D01*
X231655952Y-117276333D01*
X231560714Y-117323952D01*
X231513095Y-117371571D01*
X231465476Y-117466809D01*
X231465476Y-117704904D01*
X231513095Y-117800142D01*
X231560714Y-117847761D01*
X231655952Y-117895380D01*
X231941666Y-117895380D01*
X232036904Y-117847761D01*
X232084523Y-117800142D01*
X231132142Y-116895380D02*
X230465476Y-116895380D01*
X230894047Y-117895380D01*
X213939285Y-117895380D02*
X213939285Y-116895380D01*
X213701190Y-116895380D01*
X213558333Y-116943000D01*
X213463095Y-117038238D01*
X213415476Y-117133476D01*
X213367857Y-117323952D01*
X213367857Y-117466809D01*
X213415476Y-117657285D01*
X213463095Y-117752523D01*
X213558333Y-117847761D01*
X213701190Y-117895380D01*
X213939285Y-117895380D01*
X213034523Y-116895380D02*
X212415476Y-116895380D01*
X212748809Y-117276333D01*
X212605952Y-117276333D01*
X212510714Y-117323952D01*
X212463095Y-117371571D01*
X212415476Y-117466809D01*
X212415476Y-117704904D01*
X212463095Y-117800142D01*
X212510714Y-117847761D01*
X212605952Y-117895380D01*
X212891666Y-117895380D01*
X212986904Y-117847761D01*
X213034523Y-117800142D01*
X211558333Y-116895380D02*
X211748809Y-116895380D01*
X211844047Y-116943000D01*
X211891666Y-116990619D01*
X211986904Y-117133476D01*
X212034523Y-117323952D01*
X212034523Y-117704904D01*
X211986904Y-117800142D01*
X211939285Y-117847761D01*
X211844047Y-117895380D01*
X211653571Y-117895380D01*
X211558333Y-117847761D01*
X211510714Y-117800142D01*
X211463095Y-117704904D01*
X211463095Y-117466809D01*
X211510714Y-117371571D01*
X211558333Y-117323952D01*
X211653571Y-117276333D01*
X211844047Y-117276333D01*
X211939285Y-117323952D01*
X211986904Y-117371571D01*
X212034523Y-117466809D01*
X194889285Y-117895380D02*
X194889285Y-116895380D01*
X194651190Y-116895380D01*
X194508333Y-116943000D01*
X194413095Y-117038238D01*
X194365476Y-117133476D01*
X194317857Y-117323952D01*
X194317857Y-117466809D01*
X194365476Y-117657285D01*
X194413095Y-117752523D01*
X194508333Y-117847761D01*
X194651190Y-117895380D01*
X194889285Y-117895380D01*
X193984523Y-116895380D02*
X193365476Y-116895380D01*
X193698809Y-117276333D01*
X193555952Y-117276333D01*
X193460714Y-117323952D01*
X193413095Y-117371571D01*
X193365476Y-117466809D01*
X193365476Y-117704904D01*
X193413095Y-117800142D01*
X193460714Y-117847761D01*
X193555952Y-117895380D01*
X193841666Y-117895380D01*
X193936904Y-117847761D01*
X193984523Y-117800142D01*
X192460714Y-116895380D02*
X192936904Y-116895380D01*
X192984523Y-117371571D01*
X192936904Y-117323952D01*
X192841666Y-117276333D01*
X192603571Y-117276333D01*
X192508333Y-117323952D01*
X192460714Y-117371571D01*
X192413095Y-117466809D01*
X192413095Y-117704904D01*
X192460714Y-117800142D01*
X192508333Y-117847761D01*
X192603571Y-117895380D01*
X192841666Y-117895380D01*
X192936904Y-117847761D01*
X192984523Y-117800142D01*
X175839285Y-117895380D02*
X175839285Y-116895380D01*
X175601190Y-116895380D01*
X175458333Y-116943000D01*
X175363095Y-117038238D01*
X175315476Y-117133476D01*
X175267857Y-117323952D01*
X175267857Y-117466809D01*
X175315476Y-117657285D01*
X175363095Y-117752523D01*
X175458333Y-117847761D01*
X175601190Y-117895380D01*
X175839285Y-117895380D01*
X174934523Y-116895380D02*
X174315476Y-116895380D01*
X174648809Y-117276333D01*
X174505952Y-117276333D01*
X174410714Y-117323952D01*
X174363095Y-117371571D01*
X174315476Y-117466809D01*
X174315476Y-117704904D01*
X174363095Y-117800142D01*
X174410714Y-117847761D01*
X174505952Y-117895380D01*
X174791666Y-117895380D01*
X174886904Y-117847761D01*
X174934523Y-117800142D01*
X173458333Y-117228714D02*
X173458333Y-117895380D01*
X173696428Y-116847761D02*
X173934523Y-117562047D01*
X173315476Y-117562047D01*
X156789285Y-117895380D02*
X156789285Y-116895380D01*
X156551190Y-116895380D01*
X156408333Y-116943000D01*
X156313095Y-117038238D01*
X156265476Y-117133476D01*
X156217857Y-117323952D01*
X156217857Y-117466809D01*
X156265476Y-117657285D01*
X156313095Y-117752523D01*
X156408333Y-117847761D01*
X156551190Y-117895380D01*
X156789285Y-117895380D01*
X155884523Y-116895380D02*
X155265476Y-116895380D01*
X155598809Y-117276333D01*
X155455952Y-117276333D01*
X155360714Y-117323952D01*
X155313095Y-117371571D01*
X155265476Y-117466809D01*
X155265476Y-117704904D01*
X155313095Y-117800142D01*
X155360714Y-117847761D01*
X155455952Y-117895380D01*
X155741666Y-117895380D01*
X155836904Y-117847761D01*
X155884523Y-117800142D01*
X154932142Y-116895380D02*
X154313095Y-116895380D01*
X154646428Y-117276333D01*
X154503571Y-117276333D01*
X154408333Y-117323952D01*
X154360714Y-117371571D01*
X154313095Y-117466809D01*
X154313095Y-117704904D01*
X154360714Y-117800142D01*
X154408333Y-117847761D01*
X154503571Y-117895380D01*
X154789285Y-117895380D01*
X154884523Y-117847761D01*
X154932142Y-117800142D01*
X137739285Y-117895380D02*
X137739285Y-116895380D01*
X137501190Y-116895380D01*
X137358333Y-116943000D01*
X137263095Y-117038238D01*
X137215476Y-117133476D01*
X137167857Y-117323952D01*
X137167857Y-117466809D01*
X137215476Y-117657285D01*
X137263095Y-117752523D01*
X137358333Y-117847761D01*
X137501190Y-117895380D01*
X137739285Y-117895380D01*
X136834523Y-116895380D02*
X136215476Y-116895380D01*
X136548809Y-117276333D01*
X136405952Y-117276333D01*
X136310714Y-117323952D01*
X136263095Y-117371571D01*
X136215476Y-117466809D01*
X136215476Y-117704904D01*
X136263095Y-117800142D01*
X136310714Y-117847761D01*
X136405952Y-117895380D01*
X136691666Y-117895380D01*
X136786904Y-117847761D01*
X136834523Y-117800142D01*
X135834523Y-116990619D02*
X135786904Y-116943000D01*
X135691666Y-116895380D01*
X135453571Y-116895380D01*
X135358333Y-116943000D01*
X135310714Y-116990619D01*
X135263095Y-117085857D01*
X135263095Y-117181095D01*
X135310714Y-117323952D01*
X135882142Y-117895380D01*
X135263095Y-117895380D01*
X118689285Y-117895380D02*
X118689285Y-116895380D01*
X118451190Y-116895380D01*
X118308333Y-116943000D01*
X118213095Y-117038238D01*
X118165476Y-117133476D01*
X118117857Y-117323952D01*
X118117857Y-117466809D01*
X118165476Y-117657285D01*
X118213095Y-117752523D01*
X118308333Y-117847761D01*
X118451190Y-117895380D01*
X118689285Y-117895380D01*
X117784523Y-116895380D02*
X117165476Y-116895380D01*
X117498809Y-117276333D01*
X117355952Y-117276333D01*
X117260714Y-117323952D01*
X117213095Y-117371571D01*
X117165476Y-117466809D01*
X117165476Y-117704904D01*
X117213095Y-117800142D01*
X117260714Y-117847761D01*
X117355952Y-117895380D01*
X117641666Y-117895380D01*
X117736904Y-117847761D01*
X117784523Y-117800142D01*
X116213095Y-117895380D02*
X116784523Y-117895380D01*
X116498809Y-117895380D02*
X116498809Y-116895380D01*
X116594047Y-117038238D01*
X116689285Y-117133476D01*
X116784523Y-117181095D01*
X99639285Y-117895380D02*
X99639285Y-116895380D01*
X99401190Y-116895380D01*
X99258333Y-116943000D01*
X99163095Y-117038238D01*
X99115476Y-117133476D01*
X99067857Y-117323952D01*
X99067857Y-117466809D01*
X99115476Y-117657285D01*
X99163095Y-117752523D01*
X99258333Y-117847761D01*
X99401190Y-117895380D01*
X99639285Y-117895380D01*
X98734523Y-116895380D02*
X98115476Y-116895380D01*
X98448809Y-117276333D01*
X98305952Y-117276333D01*
X98210714Y-117323952D01*
X98163095Y-117371571D01*
X98115476Y-117466809D01*
X98115476Y-117704904D01*
X98163095Y-117800142D01*
X98210714Y-117847761D01*
X98305952Y-117895380D01*
X98591666Y-117895380D01*
X98686904Y-117847761D01*
X98734523Y-117800142D01*
X97496428Y-116895380D02*
X97401190Y-116895380D01*
X97305952Y-116943000D01*
X97258333Y-116990619D01*
X97210714Y-117085857D01*
X97163095Y-117276333D01*
X97163095Y-117514428D01*
X97210714Y-117704904D01*
X97258333Y-117800142D01*
X97305952Y-117847761D01*
X97401190Y-117895380D01*
X97496428Y-117895380D01*
X97591666Y-117847761D01*
X97639285Y-117800142D01*
X97686904Y-117704904D01*
X97734523Y-117514428D01*
X97734523Y-117276333D01*
X97686904Y-117085857D01*
X97639285Y-116990619D01*
X97591666Y-116943000D01*
X97496428Y-116895380D01*
X80589285Y-117895380D02*
X80589285Y-116895380D01*
X80351190Y-116895380D01*
X80208333Y-116943000D01*
X80113095Y-117038238D01*
X80065476Y-117133476D01*
X80017857Y-117323952D01*
X80017857Y-117466809D01*
X80065476Y-117657285D01*
X80113095Y-117752523D01*
X80208333Y-117847761D01*
X80351190Y-117895380D01*
X80589285Y-117895380D01*
X79636904Y-116990619D02*
X79589285Y-116943000D01*
X79494047Y-116895380D01*
X79255952Y-116895380D01*
X79160714Y-116943000D01*
X79113095Y-116990619D01*
X79065476Y-117085857D01*
X79065476Y-117181095D01*
X79113095Y-117323952D01*
X79684523Y-117895380D01*
X79065476Y-117895380D01*
X78589285Y-117895380D02*
X78398809Y-117895380D01*
X78303571Y-117847761D01*
X78255952Y-117800142D01*
X78160714Y-117657285D01*
X78113095Y-117466809D01*
X78113095Y-117085857D01*
X78160714Y-116990619D01*
X78208333Y-116943000D01*
X78303571Y-116895380D01*
X78494047Y-116895380D01*
X78589285Y-116943000D01*
X78636904Y-116990619D01*
X78684523Y-117085857D01*
X78684523Y-117323952D01*
X78636904Y-117419190D01*
X78589285Y-117466809D01*
X78494047Y-117514428D01*
X78303571Y-117514428D01*
X78208333Y-117466809D01*
X78160714Y-117419190D01*
X78113095Y-117323952D01*
X61539285Y-117895380D02*
X61539285Y-116895380D01*
X61301190Y-116895380D01*
X61158333Y-116943000D01*
X61063095Y-117038238D01*
X61015476Y-117133476D01*
X60967857Y-117323952D01*
X60967857Y-117466809D01*
X61015476Y-117657285D01*
X61063095Y-117752523D01*
X61158333Y-117847761D01*
X61301190Y-117895380D01*
X61539285Y-117895380D01*
X60586904Y-116990619D02*
X60539285Y-116943000D01*
X60444047Y-116895380D01*
X60205952Y-116895380D01*
X60110714Y-116943000D01*
X60063095Y-116990619D01*
X60015476Y-117085857D01*
X60015476Y-117181095D01*
X60063095Y-117323952D01*
X60634523Y-117895380D01*
X60015476Y-117895380D01*
X59444047Y-117323952D02*
X59539285Y-117276333D01*
X59586904Y-117228714D01*
X59634523Y-117133476D01*
X59634523Y-117085857D01*
X59586904Y-116990619D01*
X59539285Y-116943000D01*
X59444047Y-116895380D01*
X59253571Y-116895380D01*
X59158333Y-116943000D01*
X59110714Y-116990619D01*
X59063095Y-117085857D01*
X59063095Y-117133476D01*
X59110714Y-117228714D01*
X59158333Y-117276333D01*
X59253571Y-117323952D01*
X59444047Y-117323952D01*
X59539285Y-117371571D01*
X59586904Y-117419190D01*
X59634523Y-117514428D01*
X59634523Y-117704904D01*
X59586904Y-117800142D01*
X59539285Y-117847761D01*
X59444047Y-117895380D01*
X59253571Y-117895380D01*
X59158333Y-117847761D01*
X59110714Y-117800142D01*
X59063095Y-117704904D01*
X59063095Y-117514428D01*
X59110714Y-117419190D01*
X59158333Y-117371571D01*
X59253571Y-117323952D01*
X42489285Y-117895380D02*
X42489285Y-116895380D01*
X42251190Y-116895380D01*
X42108333Y-116943000D01*
X42013095Y-117038238D01*
X41965476Y-117133476D01*
X41917857Y-117323952D01*
X41917857Y-117466809D01*
X41965476Y-117657285D01*
X42013095Y-117752523D01*
X42108333Y-117847761D01*
X42251190Y-117895380D01*
X42489285Y-117895380D01*
X41536904Y-116990619D02*
X41489285Y-116943000D01*
X41394047Y-116895380D01*
X41155952Y-116895380D01*
X41060714Y-116943000D01*
X41013095Y-116990619D01*
X40965476Y-117085857D01*
X40965476Y-117181095D01*
X41013095Y-117323952D01*
X41584523Y-117895380D01*
X40965476Y-117895380D01*
X40632142Y-116895380D02*
X39965476Y-116895380D01*
X40394047Y-117895380D01*
X252039285Y-98845380D02*
X252039285Y-97845380D01*
X251801190Y-97845380D01*
X251658333Y-97893000D01*
X251563095Y-97988238D01*
X251515476Y-98083476D01*
X251467857Y-98273952D01*
X251467857Y-98416809D01*
X251515476Y-98607285D01*
X251563095Y-98702523D01*
X251658333Y-98797761D01*
X251801190Y-98845380D01*
X252039285Y-98845380D01*
X251086904Y-97940619D02*
X251039285Y-97893000D01*
X250944047Y-97845380D01*
X250705952Y-97845380D01*
X250610714Y-97893000D01*
X250563095Y-97940619D01*
X250515476Y-98035857D01*
X250515476Y-98131095D01*
X250563095Y-98273952D01*
X251134523Y-98845380D01*
X250515476Y-98845380D01*
X249658333Y-97845380D02*
X249848809Y-97845380D01*
X249944047Y-97893000D01*
X249991666Y-97940619D01*
X250086904Y-98083476D01*
X250134523Y-98273952D01*
X250134523Y-98654904D01*
X250086904Y-98750142D01*
X250039285Y-98797761D01*
X249944047Y-98845380D01*
X249753571Y-98845380D01*
X249658333Y-98797761D01*
X249610714Y-98750142D01*
X249563095Y-98654904D01*
X249563095Y-98416809D01*
X249610714Y-98321571D01*
X249658333Y-98273952D01*
X249753571Y-98226333D01*
X249944047Y-98226333D01*
X250039285Y-98273952D01*
X250086904Y-98321571D01*
X250134523Y-98416809D01*
X232989285Y-98845380D02*
X232989285Y-97845380D01*
X232751190Y-97845380D01*
X232608333Y-97893000D01*
X232513095Y-97988238D01*
X232465476Y-98083476D01*
X232417857Y-98273952D01*
X232417857Y-98416809D01*
X232465476Y-98607285D01*
X232513095Y-98702523D01*
X232608333Y-98797761D01*
X232751190Y-98845380D01*
X232989285Y-98845380D01*
X232036904Y-97940619D02*
X231989285Y-97893000D01*
X231894047Y-97845380D01*
X231655952Y-97845380D01*
X231560714Y-97893000D01*
X231513095Y-97940619D01*
X231465476Y-98035857D01*
X231465476Y-98131095D01*
X231513095Y-98273952D01*
X232084523Y-98845380D01*
X231465476Y-98845380D01*
X230560714Y-97845380D02*
X231036904Y-97845380D01*
X231084523Y-98321571D01*
X231036904Y-98273952D01*
X230941666Y-98226333D01*
X230703571Y-98226333D01*
X230608333Y-98273952D01*
X230560714Y-98321571D01*
X230513095Y-98416809D01*
X230513095Y-98654904D01*
X230560714Y-98750142D01*
X230608333Y-98797761D01*
X230703571Y-98845380D01*
X230941666Y-98845380D01*
X231036904Y-98797761D01*
X231084523Y-98750142D01*
X213939285Y-98845380D02*
X213939285Y-97845380D01*
X213701190Y-97845380D01*
X213558333Y-97893000D01*
X213463095Y-97988238D01*
X213415476Y-98083476D01*
X213367857Y-98273952D01*
X213367857Y-98416809D01*
X213415476Y-98607285D01*
X213463095Y-98702523D01*
X213558333Y-98797761D01*
X213701190Y-98845380D01*
X213939285Y-98845380D01*
X212986904Y-97940619D02*
X212939285Y-97893000D01*
X212844047Y-97845380D01*
X212605952Y-97845380D01*
X212510714Y-97893000D01*
X212463095Y-97940619D01*
X212415476Y-98035857D01*
X212415476Y-98131095D01*
X212463095Y-98273952D01*
X213034523Y-98845380D01*
X212415476Y-98845380D01*
X211558333Y-98178714D02*
X211558333Y-98845380D01*
X211796428Y-97797761D02*
X212034523Y-98512047D01*
X211415476Y-98512047D01*
X194889285Y-98845380D02*
X194889285Y-97845380D01*
X194651190Y-97845380D01*
X194508333Y-97893000D01*
X194413095Y-97988238D01*
X194365476Y-98083476D01*
X194317857Y-98273952D01*
X194317857Y-98416809D01*
X194365476Y-98607285D01*
X194413095Y-98702523D01*
X194508333Y-98797761D01*
X194651190Y-98845380D01*
X194889285Y-98845380D01*
X193936904Y-97940619D02*
X193889285Y-97893000D01*
X193794047Y-97845380D01*
X193555952Y-97845380D01*
X193460714Y-97893000D01*
X193413095Y-97940619D01*
X193365476Y-98035857D01*
X193365476Y-98131095D01*
X193413095Y-98273952D01*
X193984523Y-98845380D01*
X193365476Y-98845380D01*
X193032142Y-97845380D02*
X192413095Y-97845380D01*
X192746428Y-98226333D01*
X192603571Y-98226333D01*
X192508333Y-98273952D01*
X192460714Y-98321571D01*
X192413095Y-98416809D01*
X192413095Y-98654904D01*
X192460714Y-98750142D01*
X192508333Y-98797761D01*
X192603571Y-98845380D01*
X192889285Y-98845380D01*
X192984523Y-98797761D01*
X193032142Y-98750142D01*
X175839285Y-98845380D02*
X175839285Y-97845380D01*
X175601190Y-97845380D01*
X175458333Y-97893000D01*
X175363095Y-97988238D01*
X175315476Y-98083476D01*
X175267857Y-98273952D01*
X175267857Y-98416809D01*
X175315476Y-98607285D01*
X175363095Y-98702523D01*
X175458333Y-98797761D01*
X175601190Y-98845380D01*
X175839285Y-98845380D01*
X174886904Y-97940619D02*
X174839285Y-97893000D01*
X174744047Y-97845380D01*
X174505952Y-97845380D01*
X174410714Y-97893000D01*
X174363095Y-97940619D01*
X174315476Y-98035857D01*
X174315476Y-98131095D01*
X174363095Y-98273952D01*
X174934523Y-98845380D01*
X174315476Y-98845380D01*
X173934523Y-97940619D02*
X173886904Y-97893000D01*
X173791666Y-97845380D01*
X173553571Y-97845380D01*
X173458333Y-97893000D01*
X173410714Y-97940619D01*
X173363095Y-98035857D01*
X173363095Y-98131095D01*
X173410714Y-98273952D01*
X173982142Y-98845380D01*
X173363095Y-98845380D01*
X156789285Y-98845380D02*
X156789285Y-97845380D01*
X156551190Y-97845380D01*
X156408333Y-97893000D01*
X156313095Y-97988238D01*
X156265476Y-98083476D01*
X156217857Y-98273952D01*
X156217857Y-98416809D01*
X156265476Y-98607285D01*
X156313095Y-98702523D01*
X156408333Y-98797761D01*
X156551190Y-98845380D01*
X156789285Y-98845380D01*
X155836904Y-97940619D02*
X155789285Y-97893000D01*
X155694047Y-97845380D01*
X155455952Y-97845380D01*
X155360714Y-97893000D01*
X155313095Y-97940619D01*
X155265476Y-98035857D01*
X155265476Y-98131095D01*
X155313095Y-98273952D01*
X155884523Y-98845380D01*
X155265476Y-98845380D01*
X154313095Y-98845380D02*
X154884523Y-98845380D01*
X154598809Y-98845380D02*
X154598809Y-97845380D01*
X154694047Y-97988238D01*
X154789285Y-98083476D01*
X154884523Y-98131095D01*
X137739285Y-98845380D02*
X137739285Y-97845380D01*
X137501190Y-97845380D01*
X137358333Y-97893000D01*
X137263095Y-97988238D01*
X137215476Y-98083476D01*
X137167857Y-98273952D01*
X137167857Y-98416809D01*
X137215476Y-98607285D01*
X137263095Y-98702523D01*
X137358333Y-98797761D01*
X137501190Y-98845380D01*
X137739285Y-98845380D01*
X136786904Y-97940619D02*
X136739285Y-97893000D01*
X136644047Y-97845380D01*
X136405952Y-97845380D01*
X136310714Y-97893000D01*
X136263095Y-97940619D01*
X136215476Y-98035857D01*
X136215476Y-98131095D01*
X136263095Y-98273952D01*
X136834523Y-98845380D01*
X136215476Y-98845380D01*
X135596428Y-97845380D02*
X135501190Y-97845380D01*
X135405952Y-97893000D01*
X135358333Y-97940619D01*
X135310714Y-98035857D01*
X135263095Y-98226333D01*
X135263095Y-98464428D01*
X135310714Y-98654904D01*
X135358333Y-98750142D01*
X135405952Y-98797761D01*
X135501190Y-98845380D01*
X135596428Y-98845380D01*
X135691666Y-98797761D01*
X135739285Y-98750142D01*
X135786904Y-98654904D01*
X135834523Y-98464428D01*
X135834523Y-98226333D01*
X135786904Y-98035857D01*
X135739285Y-97940619D01*
X135691666Y-97893000D01*
X135596428Y-97845380D01*
X118689285Y-98845380D02*
X118689285Y-97845380D01*
X118451190Y-97845380D01*
X118308333Y-97893000D01*
X118213095Y-97988238D01*
X118165476Y-98083476D01*
X118117857Y-98273952D01*
X118117857Y-98416809D01*
X118165476Y-98607285D01*
X118213095Y-98702523D01*
X118308333Y-98797761D01*
X118451190Y-98845380D01*
X118689285Y-98845380D01*
X117165476Y-98845380D02*
X117736904Y-98845380D01*
X117451190Y-98845380D02*
X117451190Y-97845380D01*
X117546428Y-97988238D01*
X117641666Y-98083476D01*
X117736904Y-98131095D01*
X116689285Y-98845380D02*
X116498809Y-98845380D01*
X116403571Y-98797761D01*
X116355952Y-98750142D01*
X116260714Y-98607285D01*
X116213095Y-98416809D01*
X116213095Y-98035857D01*
X116260714Y-97940619D01*
X116308333Y-97893000D01*
X116403571Y-97845380D01*
X116594047Y-97845380D01*
X116689285Y-97893000D01*
X116736904Y-97940619D01*
X116784523Y-98035857D01*
X116784523Y-98273952D01*
X116736904Y-98369190D01*
X116689285Y-98416809D01*
X116594047Y-98464428D01*
X116403571Y-98464428D01*
X116308333Y-98416809D01*
X116260714Y-98369190D01*
X116213095Y-98273952D01*
X99639285Y-98845380D02*
X99639285Y-97845380D01*
X99401190Y-97845380D01*
X99258333Y-97893000D01*
X99163095Y-97988238D01*
X99115476Y-98083476D01*
X99067857Y-98273952D01*
X99067857Y-98416809D01*
X99115476Y-98607285D01*
X99163095Y-98702523D01*
X99258333Y-98797761D01*
X99401190Y-98845380D01*
X99639285Y-98845380D01*
X98115476Y-98845380D02*
X98686904Y-98845380D01*
X98401190Y-98845380D02*
X98401190Y-97845380D01*
X98496428Y-97988238D01*
X98591666Y-98083476D01*
X98686904Y-98131095D01*
X97544047Y-98273952D02*
X97639285Y-98226333D01*
X97686904Y-98178714D01*
X97734523Y-98083476D01*
X97734523Y-98035857D01*
X97686904Y-97940619D01*
X97639285Y-97893000D01*
X97544047Y-97845380D01*
X97353571Y-97845380D01*
X97258333Y-97893000D01*
X97210714Y-97940619D01*
X97163095Y-98035857D01*
X97163095Y-98083476D01*
X97210714Y-98178714D01*
X97258333Y-98226333D01*
X97353571Y-98273952D01*
X97544047Y-98273952D01*
X97639285Y-98321571D01*
X97686904Y-98369190D01*
X97734523Y-98464428D01*
X97734523Y-98654904D01*
X97686904Y-98750142D01*
X97639285Y-98797761D01*
X97544047Y-98845380D01*
X97353571Y-98845380D01*
X97258333Y-98797761D01*
X97210714Y-98750142D01*
X97163095Y-98654904D01*
X97163095Y-98464428D01*
X97210714Y-98369190D01*
X97258333Y-98321571D01*
X97353571Y-98273952D01*
X80589285Y-98845380D02*
X80589285Y-97845380D01*
X80351190Y-97845380D01*
X80208333Y-97893000D01*
X80113095Y-97988238D01*
X80065476Y-98083476D01*
X80017857Y-98273952D01*
X80017857Y-98416809D01*
X80065476Y-98607285D01*
X80113095Y-98702523D01*
X80208333Y-98797761D01*
X80351190Y-98845380D01*
X80589285Y-98845380D01*
X79065476Y-98845380D02*
X79636904Y-98845380D01*
X79351190Y-98845380D02*
X79351190Y-97845380D01*
X79446428Y-97988238D01*
X79541666Y-98083476D01*
X79636904Y-98131095D01*
X78732142Y-97845380D02*
X78065476Y-97845380D01*
X78494047Y-98845380D01*
X61539285Y-98845380D02*
X61539285Y-97845380D01*
X61301190Y-97845380D01*
X61158333Y-97893000D01*
X61063095Y-97988238D01*
X61015476Y-98083476D01*
X60967857Y-98273952D01*
X60967857Y-98416809D01*
X61015476Y-98607285D01*
X61063095Y-98702523D01*
X61158333Y-98797761D01*
X61301190Y-98845380D01*
X61539285Y-98845380D01*
X60015476Y-98845380D02*
X60586904Y-98845380D01*
X60301190Y-98845380D02*
X60301190Y-97845380D01*
X60396428Y-97988238D01*
X60491666Y-98083476D01*
X60586904Y-98131095D01*
X59158333Y-97845380D02*
X59348809Y-97845380D01*
X59444047Y-97893000D01*
X59491666Y-97940619D01*
X59586904Y-98083476D01*
X59634523Y-98273952D01*
X59634523Y-98654904D01*
X59586904Y-98750142D01*
X59539285Y-98797761D01*
X59444047Y-98845380D01*
X59253571Y-98845380D01*
X59158333Y-98797761D01*
X59110714Y-98750142D01*
X59063095Y-98654904D01*
X59063095Y-98416809D01*
X59110714Y-98321571D01*
X59158333Y-98273952D01*
X59253571Y-98226333D01*
X59444047Y-98226333D01*
X59539285Y-98273952D01*
X59586904Y-98321571D01*
X59634523Y-98416809D01*
X42489285Y-98845380D02*
X42489285Y-97845380D01*
X42251190Y-97845380D01*
X42108333Y-97893000D01*
X42013095Y-97988238D01*
X41965476Y-98083476D01*
X41917857Y-98273952D01*
X41917857Y-98416809D01*
X41965476Y-98607285D01*
X42013095Y-98702523D01*
X42108333Y-98797761D01*
X42251190Y-98845380D01*
X42489285Y-98845380D01*
X40965476Y-98845380D02*
X41536904Y-98845380D01*
X41251190Y-98845380D02*
X41251190Y-97845380D01*
X41346428Y-97988238D01*
X41441666Y-98083476D01*
X41536904Y-98131095D01*
X40060714Y-97845380D02*
X40536904Y-97845380D01*
X40584523Y-98321571D01*
X40536904Y-98273952D01*
X40441666Y-98226333D01*
X40203571Y-98226333D01*
X40108333Y-98273952D01*
X40060714Y-98321571D01*
X40013095Y-98416809D01*
X40013095Y-98654904D01*
X40060714Y-98750142D01*
X40108333Y-98797761D01*
X40203571Y-98845380D01*
X40441666Y-98845380D01*
X40536904Y-98797761D01*
X40584523Y-98750142D01*
X252039285Y-79795380D02*
X252039285Y-78795380D01*
X251801190Y-78795380D01*
X251658333Y-78843000D01*
X251563095Y-78938238D01*
X251515476Y-79033476D01*
X251467857Y-79223952D01*
X251467857Y-79366809D01*
X251515476Y-79557285D01*
X251563095Y-79652523D01*
X251658333Y-79747761D01*
X251801190Y-79795380D01*
X252039285Y-79795380D01*
X250515476Y-79795380D02*
X251086904Y-79795380D01*
X250801190Y-79795380D02*
X250801190Y-78795380D01*
X250896428Y-78938238D01*
X250991666Y-79033476D01*
X251086904Y-79081095D01*
X249658333Y-79128714D02*
X249658333Y-79795380D01*
X249896428Y-78747761D02*
X250134523Y-79462047D01*
X249515476Y-79462047D01*
X232989285Y-79795380D02*
X232989285Y-78795380D01*
X232751190Y-78795380D01*
X232608333Y-78843000D01*
X232513095Y-78938238D01*
X232465476Y-79033476D01*
X232417857Y-79223952D01*
X232417857Y-79366809D01*
X232465476Y-79557285D01*
X232513095Y-79652523D01*
X232608333Y-79747761D01*
X232751190Y-79795380D01*
X232989285Y-79795380D01*
X231465476Y-79795380D02*
X232036904Y-79795380D01*
X231751190Y-79795380D02*
X231751190Y-78795380D01*
X231846428Y-78938238D01*
X231941666Y-79033476D01*
X232036904Y-79081095D01*
X231132142Y-78795380D02*
X230513095Y-78795380D01*
X230846428Y-79176333D01*
X230703571Y-79176333D01*
X230608333Y-79223952D01*
X230560714Y-79271571D01*
X230513095Y-79366809D01*
X230513095Y-79604904D01*
X230560714Y-79700142D01*
X230608333Y-79747761D01*
X230703571Y-79795380D01*
X230989285Y-79795380D01*
X231084523Y-79747761D01*
X231132142Y-79700142D01*
X213939285Y-79795380D02*
X213939285Y-78795380D01*
X213701190Y-78795380D01*
X213558333Y-78843000D01*
X213463095Y-78938238D01*
X213415476Y-79033476D01*
X213367857Y-79223952D01*
X213367857Y-79366809D01*
X213415476Y-79557285D01*
X213463095Y-79652523D01*
X213558333Y-79747761D01*
X213701190Y-79795380D01*
X213939285Y-79795380D01*
X212415476Y-79795380D02*
X212986904Y-79795380D01*
X212701190Y-79795380D02*
X212701190Y-78795380D01*
X212796428Y-78938238D01*
X212891666Y-79033476D01*
X212986904Y-79081095D01*
X212034523Y-78890619D02*
X211986904Y-78843000D01*
X211891666Y-78795380D01*
X211653571Y-78795380D01*
X211558333Y-78843000D01*
X211510714Y-78890619D01*
X211463095Y-78985857D01*
X211463095Y-79081095D01*
X211510714Y-79223952D01*
X212082142Y-79795380D01*
X211463095Y-79795380D01*
X194889285Y-79795380D02*
X194889285Y-78795380D01*
X194651190Y-78795380D01*
X194508333Y-78843000D01*
X194413095Y-78938238D01*
X194365476Y-79033476D01*
X194317857Y-79223952D01*
X194317857Y-79366809D01*
X194365476Y-79557285D01*
X194413095Y-79652523D01*
X194508333Y-79747761D01*
X194651190Y-79795380D01*
X194889285Y-79795380D01*
X193365476Y-79795380D02*
X193936904Y-79795380D01*
X193651190Y-79795380D02*
X193651190Y-78795380D01*
X193746428Y-78938238D01*
X193841666Y-79033476D01*
X193936904Y-79081095D01*
X192413095Y-79795380D02*
X192984523Y-79795380D01*
X192698809Y-79795380D02*
X192698809Y-78795380D01*
X192794047Y-78938238D01*
X192889285Y-79033476D01*
X192984523Y-79081095D01*
X175839285Y-79795380D02*
X175839285Y-78795380D01*
X175601190Y-78795380D01*
X175458333Y-78843000D01*
X175363095Y-78938238D01*
X175315476Y-79033476D01*
X175267857Y-79223952D01*
X175267857Y-79366809D01*
X175315476Y-79557285D01*
X175363095Y-79652523D01*
X175458333Y-79747761D01*
X175601190Y-79795380D01*
X175839285Y-79795380D01*
X174315476Y-79795380D02*
X174886904Y-79795380D01*
X174601190Y-79795380D02*
X174601190Y-78795380D01*
X174696428Y-78938238D01*
X174791666Y-79033476D01*
X174886904Y-79081095D01*
X173696428Y-78795380D02*
X173601190Y-78795380D01*
X173505952Y-78843000D01*
X173458333Y-78890619D01*
X173410714Y-78985857D01*
X173363095Y-79176333D01*
X173363095Y-79414428D01*
X173410714Y-79604904D01*
X173458333Y-79700142D01*
X173505952Y-79747761D01*
X173601190Y-79795380D01*
X173696428Y-79795380D01*
X173791666Y-79747761D01*
X173839285Y-79700142D01*
X173886904Y-79604904D01*
X173934523Y-79414428D01*
X173934523Y-79176333D01*
X173886904Y-78985857D01*
X173839285Y-78890619D01*
X173791666Y-78843000D01*
X173696428Y-78795380D01*
X156313095Y-79795380D02*
X156313095Y-78795380D01*
X156075000Y-78795380D01*
X155932142Y-78843000D01*
X155836904Y-78938238D01*
X155789285Y-79033476D01*
X155741666Y-79223952D01*
X155741666Y-79366809D01*
X155789285Y-79557285D01*
X155836904Y-79652523D01*
X155932142Y-79747761D01*
X156075000Y-79795380D01*
X156313095Y-79795380D01*
X155265476Y-79795380D02*
X155075000Y-79795380D01*
X154979761Y-79747761D01*
X154932142Y-79700142D01*
X154836904Y-79557285D01*
X154789285Y-79366809D01*
X154789285Y-78985857D01*
X154836904Y-78890619D01*
X154884523Y-78843000D01*
X154979761Y-78795380D01*
X155170238Y-78795380D01*
X155265476Y-78843000D01*
X155313095Y-78890619D01*
X155360714Y-78985857D01*
X155360714Y-79223952D01*
X155313095Y-79319190D01*
X155265476Y-79366809D01*
X155170238Y-79414428D01*
X154979761Y-79414428D01*
X154884523Y-79366809D01*
X154836904Y-79319190D01*
X154789285Y-79223952D01*
X137263095Y-79795380D02*
X137263095Y-78795380D01*
X137025000Y-78795380D01*
X136882142Y-78843000D01*
X136786904Y-78938238D01*
X136739285Y-79033476D01*
X136691666Y-79223952D01*
X136691666Y-79366809D01*
X136739285Y-79557285D01*
X136786904Y-79652523D01*
X136882142Y-79747761D01*
X137025000Y-79795380D01*
X137263095Y-79795380D01*
X136120238Y-79223952D02*
X136215476Y-79176333D01*
X136263095Y-79128714D01*
X136310714Y-79033476D01*
X136310714Y-78985857D01*
X136263095Y-78890619D01*
X136215476Y-78843000D01*
X136120238Y-78795380D01*
X135929761Y-78795380D01*
X135834523Y-78843000D01*
X135786904Y-78890619D01*
X135739285Y-78985857D01*
X135739285Y-79033476D01*
X135786904Y-79128714D01*
X135834523Y-79176333D01*
X135929761Y-79223952D01*
X136120238Y-79223952D01*
X136215476Y-79271571D01*
X136263095Y-79319190D01*
X136310714Y-79414428D01*
X136310714Y-79604904D01*
X136263095Y-79700142D01*
X136215476Y-79747761D01*
X136120238Y-79795380D01*
X135929761Y-79795380D01*
X135834523Y-79747761D01*
X135786904Y-79700142D01*
X135739285Y-79604904D01*
X135739285Y-79414428D01*
X135786904Y-79319190D01*
X135834523Y-79271571D01*
X135929761Y-79223952D01*
X118213095Y-79795380D02*
X118213095Y-78795380D01*
X117975000Y-78795380D01*
X117832142Y-78843000D01*
X117736904Y-78938238D01*
X117689285Y-79033476D01*
X117641666Y-79223952D01*
X117641666Y-79366809D01*
X117689285Y-79557285D01*
X117736904Y-79652523D01*
X117832142Y-79747761D01*
X117975000Y-79795380D01*
X118213095Y-79795380D01*
X117308333Y-78795380D02*
X116641666Y-78795380D01*
X117070238Y-79795380D01*
X99163095Y-79795380D02*
X99163095Y-78795380D01*
X98925000Y-78795380D01*
X98782142Y-78843000D01*
X98686904Y-78938238D01*
X98639285Y-79033476D01*
X98591666Y-79223952D01*
X98591666Y-79366809D01*
X98639285Y-79557285D01*
X98686904Y-79652523D01*
X98782142Y-79747761D01*
X98925000Y-79795380D01*
X99163095Y-79795380D01*
X97734523Y-78795380D02*
X97925000Y-78795380D01*
X98020238Y-78843000D01*
X98067857Y-78890619D01*
X98163095Y-79033476D01*
X98210714Y-79223952D01*
X98210714Y-79604904D01*
X98163095Y-79700142D01*
X98115476Y-79747761D01*
X98020238Y-79795380D01*
X97829761Y-79795380D01*
X97734523Y-79747761D01*
X97686904Y-79700142D01*
X97639285Y-79604904D01*
X97639285Y-79366809D01*
X97686904Y-79271571D01*
X97734523Y-79223952D01*
X97829761Y-79176333D01*
X98020238Y-79176333D01*
X98115476Y-79223952D01*
X98163095Y-79271571D01*
X98210714Y-79366809D01*
X80113095Y-79795380D02*
X80113095Y-78795380D01*
X79875000Y-78795380D01*
X79732142Y-78843000D01*
X79636904Y-78938238D01*
X79589285Y-79033476D01*
X79541666Y-79223952D01*
X79541666Y-79366809D01*
X79589285Y-79557285D01*
X79636904Y-79652523D01*
X79732142Y-79747761D01*
X79875000Y-79795380D01*
X80113095Y-79795380D01*
X78636904Y-78795380D02*
X79113095Y-78795380D01*
X79160714Y-79271571D01*
X79113095Y-79223952D01*
X79017857Y-79176333D01*
X78779761Y-79176333D01*
X78684523Y-79223952D01*
X78636904Y-79271571D01*
X78589285Y-79366809D01*
X78589285Y-79604904D01*
X78636904Y-79700142D01*
X78684523Y-79747761D01*
X78779761Y-79795380D01*
X79017857Y-79795380D01*
X79113095Y-79747761D01*
X79160714Y-79700142D01*
X61063095Y-79795380D02*
X61063095Y-78795380D01*
X60825000Y-78795380D01*
X60682142Y-78843000D01*
X60586904Y-78938238D01*
X60539285Y-79033476D01*
X60491666Y-79223952D01*
X60491666Y-79366809D01*
X60539285Y-79557285D01*
X60586904Y-79652523D01*
X60682142Y-79747761D01*
X60825000Y-79795380D01*
X61063095Y-79795380D01*
X59634523Y-79128714D02*
X59634523Y-79795380D01*
X59872619Y-78747761D02*
X60110714Y-79462047D01*
X59491666Y-79462047D01*
X42013095Y-79795380D02*
X42013095Y-78795380D01*
X41775000Y-78795380D01*
X41632142Y-78843000D01*
X41536904Y-78938238D01*
X41489285Y-79033476D01*
X41441666Y-79223952D01*
X41441666Y-79366809D01*
X41489285Y-79557285D01*
X41536904Y-79652523D01*
X41632142Y-79747761D01*
X41775000Y-79795380D01*
X42013095Y-79795380D01*
X41108333Y-78795380D02*
X40489285Y-78795380D01*
X40822619Y-79176333D01*
X40679761Y-79176333D01*
X40584523Y-79223952D01*
X40536904Y-79271571D01*
X40489285Y-79366809D01*
X40489285Y-79604904D01*
X40536904Y-79700142D01*
X40584523Y-79747761D01*
X40679761Y-79795380D01*
X40965476Y-79795380D01*
X41060714Y-79747761D01*
X41108333Y-79700142D01*
%LPC*%
D14*
X84709000Y-56515000D03*
X83209000Y-56515000D03*
X81709000Y-56515000D03*
X80209000Y-56515000D03*
D15*
X95885000Y-52578000D03*
X93885000Y-52578000D03*
D16*
X72112500Y-47625000D03*
X74612500Y-47625000D03*
X77112500Y-47625000D03*
D17*
X70008750Y-125095000D03*
D18*
X67468750Y-130175000D03*
D17*
X63658750Y-127635000D03*
D19*
X62388750Y-130175000D03*
X72548750Y-130175000D03*
D17*
X174783750Y-125095000D03*
D18*
X172243750Y-130175000D03*
D17*
X168433750Y-127635000D03*
D19*
X167163750Y-130175000D03*
X177323750Y-130175000D03*
D20*
X160337500Y-137160000D03*
X184150000Y-137160000D03*
D18*
X160337500Y-121920000D03*
X184150000Y-121920000D03*
D17*
X103346250Y-125095000D03*
D18*
X100806250Y-130175000D03*
D17*
X96996250Y-127635000D03*
D19*
X95726250Y-130175000D03*
X105886250Y-130175000D03*
D20*
X88900000Y-137160000D03*
X112712500Y-137160000D03*
D18*
X88900000Y-121920000D03*
X112712500Y-121920000D03*
D21*
X220980000Y-60960000D03*
X220980000Y-58420000D03*
X220980000Y-55880000D03*
X220980000Y-53340000D03*
D17*
X250983750Y-125095000D03*
D18*
X248443750Y-130175000D03*
D17*
X244633750Y-127635000D03*
D19*
X243363750Y-130175000D03*
X253523750Y-130175000D03*
D17*
X229552500Y-125095000D03*
D18*
X227012500Y-130175000D03*
D17*
X223202500Y-127635000D03*
D19*
X221932500Y-130175000D03*
X232092500Y-130175000D03*
D17*
X210502500Y-125095000D03*
D18*
X207962500Y-130175000D03*
D17*
X204152500Y-127635000D03*
D19*
X202882500Y-130175000D03*
X213042500Y-130175000D03*
D17*
X136683750Y-125095000D03*
D18*
X134143750Y-130175000D03*
D17*
X130333750Y-127635000D03*
D19*
X129063750Y-130175000D03*
X139223750Y-130175000D03*
D17*
X46196250Y-125095000D03*
D18*
X43656250Y-130175000D03*
D17*
X39846250Y-127635000D03*
D19*
X38576250Y-130175000D03*
X48736250Y-130175000D03*
D17*
X253365000Y-106045000D03*
D18*
X250825000Y-111125000D03*
D17*
X247015000Y-108585000D03*
D19*
X245745000Y-111125000D03*
X255905000Y-111125000D03*
D17*
X234315000Y-106045000D03*
D18*
X231775000Y-111125000D03*
D17*
X227965000Y-108585000D03*
D19*
X226695000Y-111125000D03*
X236855000Y-111125000D03*
D17*
X215265000Y-106045000D03*
D18*
X212725000Y-111125000D03*
D17*
X208915000Y-108585000D03*
D19*
X207645000Y-111125000D03*
X217805000Y-111125000D03*
D17*
X196215000Y-106045000D03*
D18*
X193675000Y-111125000D03*
D17*
X189865000Y-108585000D03*
D19*
X188595000Y-111125000D03*
X198755000Y-111125000D03*
D17*
X177165000Y-106045000D03*
D18*
X174625000Y-111125000D03*
D17*
X170815000Y-108585000D03*
D19*
X169545000Y-111125000D03*
X179705000Y-111125000D03*
D17*
X158115000Y-106045000D03*
D18*
X155575000Y-111125000D03*
D17*
X151765000Y-108585000D03*
D19*
X150495000Y-111125000D03*
X160655000Y-111125000D03*
D17*
X139065000Y-106045000D03*
D18*
X136525000Y-111125000D03*
D17*
X132715000Y-108585000D03*
D19*
X131445000Y-111125000D03*
X141605000Y-111125000D03*
D17*
X120015000Y-106045000D03*
D18*
X117475000Y-111125000D03*
D17*
X113665000Y-108585000D03*
D19*
X112395000Y-111125000D03*
X122555000Y-111125000D03*
D17*
X100965000Y-106045000D03*
D18*
X98425000Y-111125000D03*
D17*
X94615000Y-108585000D03*
D19*
X93345000Y-111125000D03*
X103505000Y-111125000D03*
D17*
X81915000Y-106045000D03*
D18*
X79375000Y-111125000D03*
D17*
X75565000Y-108585000D03*
D19*
X74295000Y-111125000D03*
X84455000Y-111125000D03*
D17*
X62865000Y-106045000D03*
D18*
X60325000Y-111125000D03*
D17*
X56515000Y-108585000D03*
D19*
X55245000Y-111125000D03*
X65405000Y-111125000D03*
D17*
X43815000Y-106045000D03*
D18*
X41275000Y-111125000D03*
D17*
X37465000Y-108585000D03*
D19*
X36195000Y-111125000D03*
X46355000Y-111125000D03*
D17*
X253365000Y-86995000D03*
D18*
X250825000Y-92075000D03*
D17*
X247015000Y-89535000D03*
D19*
X245745000Y-92075000D03*
X255905000Y-92075000D03*
D17*
X234315000Y-86995000D03*
D18*
X231775000Y-92075000D03*
D17*
X227965000Y-89535000D03*
D19*
X226695000Y-92075000D03*
X236855000Y-92075000D03*
D17*
X215265000Y-86995000D03*
D18*
X212725000Y-92075000D03*
D17*
X208915000Y-89535000D03*
D19*
X207645000Y-92075000D03*
X217805000Y-92075000D03*
D17*
X196215000Y-86995000D03*
D18*
X193675000Y-92075000D03*
D17*
X189865000Y-89535000D03*
D19*
X188595000Y-92075000D03*
X198755000Y-92075000D03*
D17*
X177165000Y-86995000D03*
D18*
X174625000Y-92075000D03*
D17*
X170815000Y-89535000D03*
D19*
X169545000Y-92075000D03*
X179705000Y-92075000D03*
D17*
X158115000Y-86995000D03*
D18*
X155575000Y-92075000D03*
D17*
X151765000Y-89535000D03*
D19*
X150495000Y-92075000D03*
X160655000Y-92075000D03*
D17*
X139065000Y-86995000D03*
D18*
X136525000Y-92075000D03*
D17*
X132715000Y-89535000D03*
D19*
X131445000Y-92075000D03*
X141605000Y-92075000D03*
D17*
X120015000Y-86995000D03*
D18*
X117475000Y-92075000D03*
D17*
X113665000Y-89535000D03*
D19*
X112395000Y-92075000D03*
X122555000Y-92075000D03*
D17*
X100965000Y-86995000D03*
D18*
X98425000Y-92075000D03*
D17*
X94615000Y-89535000D03*
D19*
X93345000Y-92075000D03*
X103505000Y-92075000D03*
D17*
X81915000Y-86995000D03*
D18*
X79375000Y-92075000D03*
D17*
X75565000Y-89535000D03*
D19*
X74295000Y-92075000D03*
X84455000Y-92075000D03*
D17*
X62865000Y-86995000D03*
D18*
X60325000Y-92075000D03*
D17*
X56515000Y-89535000D03*
D19*
X55245000Y-92075000D03*
X65405000Y-92075000D03*
D17*
X43815000Y-86995000D03*
D18*
X41275000Y-92075000D03*
D17*
X37465000Y-89535000D03*
D19*
X36195000Y-92075000D03*
X46355000Y-92075000D03*
D17*
X253365000Y-67945000D03*
D18*
X250825000Y-73025000D03*
D17*
X247015000Y-70485000D03*
D19*
X245745000Y-73025000D03*
X255905000Y-73025000D03*
D17*
X234315000Y-67945000D03*
D18*
X231775000Y-73025000D03*
D17*
X227965000Y-70485000D03*
D19*
X226695000Y-73025000D03*
X236855000Y-73025000D03*
D17*
X215265000Y-67945000D03*
D18*
X212725000Y-73025000D03*
D17*
X208915000Y-70485000D03*
D19*
X207645000Y-73025000D03*
X217805000Y-73025000D03*
D17*
X196215000Y-67945000D03*
D18*
X193675000Y-73025000D03*
D17*
X189865000Y-70485000D03*
D19*
X188595000Y-73025000D03*
X198755000Y-73025000D03*
D17*
X177165000Y-67945000D03*
D18*
X174625000Y-73025000D03*
D17*
X170815000Y-70485000D03*
D19*
X169545000Y-73025000D03*
X179705000Y-73025000D03*
D17*
X158115000Y-67945000D03*
D18*
X155575000Y-73025000D03*
D17*
X151765000Y-70485000D03*
D19*
X150495000Y-73025000D03*
X160655000Y-73025000D03*
D17*
X139065000Y-67945000D03*
D18*
X136525000Y-73025000D03*
D17*
X132715000Y-70485000D03*
D19*
X131445000Y-73025000D03*
X141605000Y-73025000D03*
D17*
X120015000Y-67945000D03*
D18*
X117475000Y-73025000D03*
D17*
X113665000Y-70485000D03*
D19*
X112395000Y-73025000D03*
X122555000Y-73025000D03*
D17*
X100965000Y-67945000D03*
D18*
X98425000Y-73025000D03*
D17*
X94615000Y-70485000D03*
D19*
X93345000Y-73025000D03*
X103505000Y-73025000D03*
D17*
X81915000Y-67945000D03*
D18*
X79375000Y-73025000D03*
D17*
X75565000Y-70485000D03*
D19*
X74295000Y-73025000D03*
X84455000Y-73025000D03*
D17*
X62865000Y-67945000D03*
D18*
X60325000Y-73025000D03*
D17*
X56515000Y-70485000D03*
D19*
X55245000Y-73025000D03*
X65405000Y-73025000D03*
D17*
X43815000Y-67945000D03*
D18*
X41275000Y-73025000D03*
D17*
X37465000Y-70485000D03*
D19*
X36195000Y-73025000D03*
X46355000Y-73025000D03*
D22*
X183642000Y-53213000D03*
X186182000Y-53213000D03*
X188722000Y-53213000D03*
X191262000Y-53213000D03*
X193802000Y-53213000D03*
X196342000Y-53213000D03*
X198882000Y-53213000D03*
X201422000Y-53213000D03*
X203962000Y-53213000D03*
D23*
X184912000Y-73533000D03*
X202692000Y-73533000D03*
D24*
X250062000Y-134493000D03*
X246762000Y-134493000D03*
X228599000Y-134493000D03*
X225299000Y-134493000D03*
X209549000Y-134493000D03*
X206249000Y-134493000D03*
X173862000Y-134493000D03*
X170562000Y-134493000D03*
X135762000Y-134493000D03*
X132462000Y-134493000D03*
X102361000Y-134493000D03*
X99061000Y-134493000D03*
X69087000Y-134493000D03*
X65787000Y-134493000D03*
X45211000Y-134493000D03*
X41911000Y-134493000D03*
X252475000Y-115443000D03*
X249175000Y-115443000D03*
X233425000Y-115443000D03*
X230125000Y-115443000D03*
X214375000Y-115443000D03*
X211075000Y-115443000D03*
X195325000Y-115443000D03*
X192025000Y-115443000D03*
X176275000Y-115443000D03*
X172975000Y-115443000D03*
X157225000Y-115443000D03*
X153925000Y-115443000D03*
X138175000Y-115443000D03*
X134875000Y-115443000D03*
X119125000Y-115443000D03*
X115825000Y-115443000D03*
X100075000Y-115443000D03*
X96775000Y-115443000D03*
X81025000Y-115443000D03*
X77725000Y-115443000D03*
X61975000Y-115443000D03*
X58675000Y-115443000D03*
X42925000Y-115443000D03*
X39625000Y-115443000D03*
X252475000Y-96393000D03*
X249175000Y-96393000D03*
X233425000Y-96393000D03*
X230125000Y-96393000D03*
X214375000Y-96393000D03*
X211075000Y-96393000D03*
X195325000Y-96393000D03*
X192025000Y-96393000D03*
X176275000Y-96393000D03*
X172975000Y-96393000D03*
X157225000Y-96393000D03*
X153925000Y-96393000D03*
X138175000Y-96393000D03*
X134875000Y-96393000D03*
X119125000Y-96393000D03*
X115825000Y-96393000D03*
X100075000Y-96393000D03*
X96775000Y-96393000D03*
X81025000Y-96393000D03*
X77725000Y-96393000D03*
X61975000Y-96393000D03*
X58675000Y-96393000D03*
X42925000Y-96393000D03*
X39625000Y-96393000D03*
X252475000Y-77343000D03*
X249175000Y-77343000D03*
X233425000Y-77343000D03*
X230125000Y-77343000D03*
X214375000Y-77343000D03*
X211075000Y-77343000D03*
X195325000Y-77343000D03*
X192025000Y-77343000D03*
X176275000Y-77343000D03*
X172975000Y-77343000D03*
X157225000Y-77343000D03*
X153925000Y-77343000D03*
X138175000Y-77343000D03*
X134875000Y-77343000D03*
X119125000Y-77343000D03*
X115825000Y-77343000D03*
X100075000Y-77343000D03*
X96775000Y-77343000D03*
X81025000Y-77343000D03*
X77725000Y-77343000D03*
X61975000Y-77343000D03*
X58675000Y-77343000D03*
X42925000Y-77343000D03*
X39625000Y-77343000D03*
M02*
