G04 #@! TF.GenerationSoftware,KiCad,Pcbnew,(5.1.5)-3*
G04 #@! TF.CreationDate,2020-06-08T21:07:08-04:00*
G04 #@! TF.ProjectId,Xen40,58656e34-302e-46b6-9963-61645f706362,rev?*
G04 #@! TF.SameCoordinates,Original*
G04 #@! TF.FileFunction,Soldermask,Top*
G04 #@! TF.FilePolarity,Negative*
%FSLAX46Y46*%
G04 Gerber Fmt 4.6, Leading zero omitted, Abs format (unit mm)*
G04 Created by KiCad (PCBNEW (5.1.5)-3) date 2020-06-08 21:07:08*
%MOMM*%
%LPD*%
G04 APERTURE LIST*
%ADD10C,0.100000*%
G04 APERTURE END LIST*
D10*
G36*
X113019767Y-135615263D02*
G01*
X113171911Y-135645526D01*
X113290637Y-135694704D01*
X113458541Y-135764252D01*
X113458542Y-135764253D01*
X113716504Y-135936617D01*
X113935883Y-136155996D01*
X114051053Y-136328361D01*
X114108248Y-136413959D01*
X114226974Y-136700590D01*
X114287500Y-137004875D01*
X114287500Y-137315125D01*
X114226974Y-137619410D01*
X114108248Y-137906041D01*
X114108247Y-137906042D01*
X113935883Y-138164004D01*
X113716504Y-138383383D01*
X113544139Y-138498553D01*
X113458541Y-138555748D01*
X113290637Y-138625296D01*
X113171911Y-138674474D01*
X112867625Y-138735000D01*
X112557375Y-138735000D01*
X112253089Y-138674474D01*
X112134363Y-138625296D01*
X111966459Y-138555748D01*
X111880861Y-138498553D01*
X111708496Y-138383383D01*
X111489117Y-138164004D01*
X111316753Y-137906042D01*
X111316752Y-137906041D01*
X111198026Y-137619410D01*
X111137500Y-137315125D01*
X111137500Y-137004875D01*
X111198026Y-136700590D01*
X111316752Y-136413959D01*
X111373947Y-136328361D01*
X111489117Y-136155996D01*
X111708496Y-135936617D01*
X111966458Y-135764253D01*
X111966459Y-135764252D01*
X112134363Y-135694704D01*
X112253089Y-135645526D01*
X112405233Y-135615263D01*
X112557375Y-135585000D01*
X112867625Y-135585000D01*
X113019767Y-135615263D01*
G37*
G36*
X89207267Y-135615263D02*
G01*
X89359411Y-135645526D01*
X89478137Y-135694704D01*
X89646041Y-135764252D01*
X89646042Y-135764253D01*
X89904004Y-135936617D01*
X90123383Y-136155996D01*
X90238553Y-136328361D01*
X90295748Y-136413959D01*
X90414474Y-136700590D01*
X90475000Y-137004875D01*
X90475000Y-137315125D01*
X90414474Y-137619410D01*
X90295748Y-137906041D01*
X90295747Y-137906042D01*
X90123383Y-138164004D01*
X89904004Y-138383383D01*
X89731639Y-138498553D01*
X89646041Y-138555748D01*
X89478137Y-138625296D01*
X89359411Y-138674474D01*
X89055125Y-138735000D01*
X88744875Y-138735000D01*
X88440589Y-138674474D01*
X88321863Y-138625296D01*
X88153959Y-138555748D01*
X88068361Y-138498553D01*
X87895996Y-138383383D01*
X87676617Y-138164004D01*
X87504253Y-137906042D01*
X87504252Y-137906041D01*
X87385526Y-137619410D01*
X87325000Y-137315125D01*
X87325000Y-137004875D01*
X87385526Y-136700590D01*
X87504252Y-136413959D01*
X87561447Y-136328361D01*
X87676617Y-136155996D01*
X87895996Y-135936617D01*
X88153958Y-135764253D01*
X88153959Y-135764252D01*
X88321863Y-135694704D01*
X88440589Y-135645526D01*
X88592733Y-135615263D01*
X88744875Y-135585000D01*
X89055125Y-135585000D01*
X89207267Y-135615263D01*
G37*
G36*
X184457267Y-135615263D02*
G01*
X184609411Y-135645526D01*
X184728137Y-135694704D01*
X184896041Y-135764252D01*
X184896042Y-135764253D01*
X185154004Y-135936617D01*
X185373383Y-136155996D01*
X185488553Y-136328361D01*
X185545748Y-136413959D01*
X185664474Y-136700590D01*
X185725000Y-137004875D01*
X185725000Y-137315125D01*
X185664474Y-137619410D01*
X185545748Y-137906041D01*
X185545747Y-137906042D01*
X185373383Y-138164004D01*
X185154004Y-138383383D01*
X184981639Y-138498553D01*
X184896041Y-138555748D01*
X184728137Y-138625296D01*
X184609411Y-138674474D01*
X184305125Y-138735000D01*
X183994875Y-138735000D01*
X183690589Y-138674474D01*
X183571863Y-138625296D01*
X183403959Y-138555748D01*
X183318361Y-138498553D01*
X183145996Y-138383383D01*
X182926617Y-138164004D01*
X182754253Y-137906042D01*
X182754252Y-137906041D01*
X182635526Y-137619410D01*
X182575000Y-137315125D01*
X182575000Y-137004875D01*
X182635526Y-136700590D01*
X182754252Y-136413959D01*
X182811447Y-136328361D01*
X182926617Y-136155996D01*
X183145996Y-135936617D01*
X183403958Y-135764253D01*
X183403959Y-135764252D01*
X183571863Y-135694704D01*
X183690589Y-135645526D01*
X183842733Y-135615263D01*
X183994875Y-135585000D01*
X184305125Y-135585000D01*
X184457267Y-135615263D01*
G37*
G36*
X160644767Y-135615263D02*
G01*
X160796911Y-135645526D01*
X160915637Y-135694704D01*
X161083541Y-135764252D01*
X161083542Y-135764253D01*
X161341504Y-135936617D01*
X161560883Y-136155996D01*
X161676053Y-136328361D01*
X161733248Y-136413959D01*
X161851974Y-136700590D01*
X161912500Y-137004875D01*
X161912500Y-137315125D01*
X161851974Y-137619410D01*
X161733248Y-137906041D01*
X161733247Y-137906042D01*
X161560883Y-138164004D01*
X161341504Y-138383383D01*
X161169139Y-138498553D01*
X161083541Y-138555748D01*
X160915637Y-138625296D01*
X160796911Y-138674474D01*
X160492625Y-138735000D01*
X160182375Y-138735000D01*
X159878089Y-138674474D01*
X159759363Y-138625296D01*
X159591459Y-138555748D01*
X159505861Y-138498553D01*
X159333496Y-138383383D01*
X159114117Y-138164004D01*
X158941753Y-137906042D01*
X158941752Y-137906041D01*
X158823026Y-137619410D01*
X158762500Y-137315125D01*
X158762500Y-137004875D01*
X158823026Y-136700590D01*
X158941752Y-136413959D01*
X158998947Y-136328361D01*
X159114117Y-136155996D01*
X159333496Y-135936617D01*
X159591458Y-135764253D01*
X159591459Y-135764252D01*
X159759363Y-135694704D01*
X159878089Y-135645526D01*
X160030233Y-135615263D01*
X160182375Y-135585000D01*
X160492625Y-135585000D01*
X160644767Y-135615263D01*
G37*
G36*
X134740224Y-128208684D02*
G01*
X134958224Y-128298983D01*
X135112373Y-128362833D01*
X135447298Y-128586623D01*
X135732127Y-128871452D01*
X135955917Y-129206377D01*
X135988312Y-129284586D01*
X136110066Y-129578526D01*
X136188650Y-129973594D01*
X136188650Y-130376406D01*
X136110066Y-130771474D01*
X136059201Y-130894272D01*
X135955917Y-131143623D01*
X135732127Y-131478548D01*
X135447298Y-131763377D01*
X135112373Y-131987167D01*
X134958224Y-132051017D01*
X134740224Y-132141316D01*
X134345156Y-132219900D01*
X133942344Y-132219900D01*
X133547276Y-132141316D01*
X133329276Y-132051017D01*
X133175127Y-131987167D01*
X132840202Y-131763377D01*
X132555373Y-131478548D01*
X132331583Y-131143623D01*
X132228299Y-130894272D01*
X132177434Y-130771474D01*
X132098850Y-130376406D01*
X132098850Y-129973594D01*
X132177434Y-129578526D01*
X132299188Y-129284586D01*
X132331583Y-129206377D01*
X132555373Y-128871452D01*
X132840202Y-128586623D01*
X133175127Y-128362833D01*
X133329276Y-128298983D01*
X133547276Y-128208684D01*
X133942344Y-128130100D01*
X134345156Y-128130100D01*
X134740224Y-128208684D01*
G37*
G36*
X44252724Y-128208684D02*
G01*
X44470724Y-128298983D01*
X44624873Y-128362833D01*
X44959798Y-128586623D01*
X45244627Y-128871452D01*
X45468417Y-129206377D01*
X45500812Y-129284586D01*
X45622566Y-129578526D01*
X45701150Y-129973594D01*
X45701150Y-130376406D01*
X45622566Y-130771474D01*
X45571701Y-130894272D01*
X45468417Y-131143623D01*
X45244627Y-131478548D01*
X44959798Y-131763377D01*
X44624873Y-131987167D01*
X44470724Y-132051017D01*
X44252724Y-132141316D01*
X43857656Y-132219900D01*
X43454844Y-132219900D01*
X43059776Y-132141316D01*
X42841776Y-132051017D01*
X42687627Y-131987167D01*
X42352702Y-131763377D01*
X42067873Y-131478548D01*
X41844083Y-131143623D01*
X41740799Y-130894272D01*
X41689934Y-130771474D01*
X41611350Y-130376406D01*
X41611350Y-129973594D01*
X41689934Y-129578526D01*
X41811688Y-129284586D01*
X41844083Y-129206377D01*
X42067873Y-128871452D01*
X42352702Y-128586623D01*
X42687627Y-128362833D01*
X42841776Y-128298983D01*
X43059776Y-128208684D01*
X43454844Y-128130100D01*
X43857656Y-128130100D01*
X44252724Y-128208684D01*
G37*
G36*
X208558974Y-128208684D02*
G01*
X208776974Y-128298983D01*
X208931123Y-128362833D01*
X209266048Y-128586623D01*
X209550877Y-128871452D01*
X209774667Y-129206377D01*
X209807062Y-129284586D01*
X209928816Y-129578526D01*
X210007400Y-129973594D01*
X210007400Y-130376406D01*
X209928816Y-130771474D01*
X209877951Y-130894272D01*
X209774667Y-131143623D01*
X209550877Y-131478548D01*
X209266048Y-131763377D01*
X208931123Y-131987167D01*
X208776974Y-132051017D01*
X208558974Y-132141316D01*
X208163906Y-132219900D01*
X207761094Y-132219900D01*
X207366026Y-132141316D01*
X207148026Y-132051017D01*
X206993877Y-131987167D01*
X206658952Y-131763377D01*
X206374123Y-131478548D01*
X206150333Y-131143623D01*
X206047049Y-130894272D01*
X205996184Y-130771474D01*
X205917600Y-130376406D01*
X205917600Y-129973594D01*
X205996184Y-129578526D01*
X206117938Y-129284586D01*
X206150333Y-129206377D01*
X206374123Y-128871452D01*
X206658952Y-128586623D01*
X206993877Y-128362833D01*
X207148026Y-128298983D01*
X207366026Y-128208684D01*
X207761094Y-128130100D01*
X208163906Y-128130100D01*
X208558974Y-128208684D01*
G37*
G36*
X227608974Y-128208684D02*
G01*
X227826974Y-128298983D01*
X227981123Y-128362833D01*
X228316048Y-128586623D01*
X228600877Y-128871452D01*
X228824667Y-129206377D01*
X228857062Y-129284586D01*
X228978816Y-129578526D01*
X229057400Y-129973594D01*
X229057400Y-130376406D01*
X228978816Y-130771474D01*
X228927951Y-130894272D01*
X228824667Y-131143623D01*
X228600877Y-131478548D01*
X228316048Y-131763377D01*
X227981123Y-131987167D01*
X227826974Y-132051017D01*
X227608974Y-132141316D01*
X227213906Y-132219900D01*
X226811094Y-132219900D01*
X226416026Y-132141316D01*
X226198026Y-132051017D01*
X226043877Y-131987167D01*
X225708952Y-131763377D01*
X225424123Y-131478548D01*
X225200333Y-131143623D01*
X225097049Y-130894272D01*
X225046184Y-130771474D01*
X224967600Y-130376406D01*
X224967600Y-129973594D01*
X225046184Y-129578526D01*
X225167938Y-129284586D01*
X225200333Y-129206377D01*
X225424123Y-128871452D01*
X225708952Y-128586623D01*
X226043877Y-128362833D01*
X226198026Y-128298983D01*
X226416026Y-128208684D01*
X226811094Y-128130100D01*
X227213906Y-128130100D01*
X227608974Y-128208684D01*
G37*
G36*
X249040224Y-128208684D02*
G01*
X249258224Y-128298983D01*
X249412373Y-128362833D01*
X249747298Y-128586623D01*
X250032127Y-128871452D01*
X250255917Y-129206377D01*
X250288312Y-129284586D01*
X250410066Y-129578526D01*
X250488650Y-129973594D01*
X250488650Y-130376406D01*
X250410066Y-130771474D01*
X250359201Y-130894272D01*
X250255917Y-131143623D01*
X250032127Y-131478548D01*
X249747298Y-131763377D01*
X249412373Y-131987167D01*
X249258224Y-132051017D01*
X249040224Y-132141316D01*
X248645156Y-132219900D01*
X248242344Y-132219900D01*
X247847276Y-132141316D01*
X247629276Y-132051017D01*
X247475127Y-131987167D01*
X247140202Y-131763377D01*
X246855373Y-131478548D01*
X246631583Y-131143623D01*
X246528299Y-130894272D01*
X246477434Y-130771474D01*
X246398850Y-130376406D01*
X246398850Y-129973594D01*
X246477434Y-129578526D01*
X246599188Y-129284586D01*
X246631583Y-129206377D01*
X246855373Y-128871452D01*
X247140202Y-128586623D01*
X247475127Y-128362833D01*
X247629276Y-128298983D01*
X247847276Y-128208684D01*
X248242344Y-128130100D01*
X248645156Y-128130100D01*
X249040224Y-128208684D01*
G37*
G36*
X101402724Y-128208684D02*
G01*
X101620724Y-128298983D01*
X101774873Y-128362833D01*
X102109798Y-128586623D01*
X102394627Y-128871452D01*
X102618417Y-129206377D01*
X102650812Y-129284586D01*
X102772566Y-129578526D01*
X102851150Y-129973594D01*
X102851150Y-130376406D01*
X102772566Y-130771474D01*
X102721701Y-130894272D01*
X102618417Y-131143623D01*
X102394627Y-131478548D01*
X102109798Y-131763377D01*
X101774873Y-131987167D01*
X101620724Y-132051017D01*
X101402724Y-132141316D01*
X101007656Y-132219900D01*
X100604844Y-132219900D01*
X100209776Y-132141316D01*
X99991776Y-132051017D01*
X99837627Y-131987167D01*
X99502702Y-131763377D01*
X99217873Y-131478548D01*
X98994083Y-131143623D01*
X98890799Y-130894272D01*
X98839934Y-130771474D01*
X98761350Y-130376406D01*
X98761350Y-129973594D01*
X98839934Y-129578526D01*
X98961688Y-129284586D01*
X98994083Y-129206377D01*
X99217873Y-128871452D01*
X99502702Y-128586623D01*
X99837627Y-128362833D01*
X99991776Y-128298983D01*
X100209776Y-128208684D01*
X100604844Y-128130100D01*
X101007656Y-128130100D01*
X101402724Y-128208684D01*
G37*
G36*
X172840224Y-128208684D02*
G01*
X173058224Y-128298983D01*
X173212373Y-128362833D01*
X173547298Y-128586623D01*
X173832127Y-128871452D01*
X174055917Y-129206377D01*
X174088312Y-129284586D01*
X174210066Y-129578526D01*
X174288650Y-129973594D01*
X174288650Y-130376406D01*
X174210066Y-130771474D01*
X174159201Y-130894272D01*
X174055917Y-131143623D01*
X173832127Y-131478548D01*
X173547298Y-131763377D01*
X173212373Y-131987167D01*
X173058224Y-132051017D01*
X172840224Y-132141316D01*
X172445156Y-132219900D01*
X172042344Y-132219900D01*
X171647276Y-132141316D01*
X171429276Y-132051017D01*
X171275127Y-131987167D01*
X170940202Y-131763377D01*
X170655373Y-131478548D01*
X170431583Y-131143623D01*
X170328299Y-130894272D01*
X170277434Y-130771474D01*
X170198850Y-130376406D01*
X170198850Y-129973594D01*
X170277434Y-129578526D01*
X170399188Y-129284586D01*
X170431583Y-129206377D01*
X170655373Y-128871452D01*
X170940202Y-128586623D01*
X171275127Y-128362833D01*
X171429276Y-128298983D01*
X171647276Y-128208684D01*
X172042344Y-128130100D01*
X172445156Y-128130100D01*
X172840224Y-128208684D01*
G37*
G36*
X68065224Y-128208684D02*
G01*
X68283224Y-128298983D01*
X68437373Y-128362833D01*
X68772298Y-128586623D01*
X69057127Y-128871452D01*
X69280917Y-129206377D01*
X69313312Y-129284586D01*
X69435066Y-129578526D01*
X69513650Y-129973594D01*
X69513650Y-130376406D01*
X69435066Y-130771474D01*
X69384201Y-130894272D01*
X69280917Y-131143623D01*
X69057127Y-131478548D01*
X68772298Y-131763377D01*
X68437373Y-131987167D01*
X68283224Y-132051017D01*
X68065224Y-132141316D01*
X67670156Y-132219900D01*
X67267344Y-132219900D01*
X66872276Y-132141316D01*
X66654276Y-132051017D01*
X66500127Y-131987167D01*
X66165202Y-131763377D01*
X65880373Y-131478548D01*
X65656583Y-131143623D01*
X65553299Y-130894272D01*
X65502434Y-130771474D01*
X65423850Y-130376406D01*
X65423850Y-129973594D01*
X65502434Y-129578526D01*
X65624188Y-129284586D01*
X65656583Y-129206377D01*
X65880373Y-128871452D01*
X66165202Y-128586623D01*
X66500127Y-128362833D01*
X66654276Y-128298983D01*
X66872276Y-128208684D01*
X67267344Y-128130100D01*
X67670156Y-128130100D01*
X68065224Y-128208684D01*
G37*
G36*
X72818854Y-129284585D02*
G01*
X72987376Y-129354389D01*
X73139041Y-129455728D01*
X73268022Y-129584709D01*
X73369361Y-129736374D01*
X73439165Y-129904896D01*
X73474750Y-130083797D01*
X73474750Y-130266203D01*
X73439165Y-130445104D01*
X73369361Y-130613626D01*
X73268022Y-130765291D01*
X73139041Y-130894272D01*
X72987376Y-130995611D01*
X72818854Y-131065415D01*
X72639953Y-131101000D01*
X72457547Y-131101000D01*
X72278646Y-131065415D01*
X72110124Y-130995611D01*
X71958459Y-130894272D01*
X71829478Y-130765291D01*
X71728139Y-130613626D01*
X71658335Y-130445104D01*
X71622750Y-130266203D01*
X71622750Y-130083797D01*
X71658335Y-129904896D01*
X71728139Y-129736374D01*
X71829478Y-129584709D01*
X71958459Y-129455728D01*
X72110124Y-129354389D01*
X72278646Y-129284585D01*
X72457547Y-129249000D01*
X72639953Y-129249000D01*
X72818854Y-129284585D01*
G37*
G36*
X129333854Y-129284585D02*
G01*
X129502376Y-129354389D01*
X129654041Y-129455728D01*
X129783022Y-129584709D01*
X129884361Y-129736374D01*
X129954165Y-129904896D01*
X129989750Y-130083797D01*
X129989750Y-130266203D01*
X129954165Y-130445104D01*
X129884361Y-130613626D01*
X129783022Y-130765291D01*
X129654041Y-130894272D01*
X129502376Y-130995611D01*
X129333854Y-131065415D01*
X129154953Y-131101000D01*
X128972547Y-131101000D01*
X128793646Y-131065415D01*
X128625124Y-130995611D01*
X128473459Y-130894272D01*
X128344478Y-130765291D01*
X128243139Y-130613626D01*
X128173335Y-130445104D01*
X128137750Y-130266203D01*
X128137750Y-130083797D01*
X128173335Y-129904896D01*
X128243139Y-129736374D01*
X128344478Y-129584709D01*
X128473459Y-129455728D01*
X128625124Y-129354389D01*
X128793646Y-129284585D01*
X128972547Y-129249000D01*
X129154953Y-129249000D01*
X129333854Y-129284585D01*
G37*
G36*
X213312604Y-129284585D02*
G01*
X213481126Y-129354389D01*
X213632791Y-129455728D01*
X213761772Y-129584709D01*
X213863111Y-129736374D01*
X213932915Y-129904896D01*
X213968500Y-130083797D01*
X213968500Y-130266203D01*
X213932915Y-130445104D01*
X213863111Y-130613626D01*
X213761772Y-130765291D01*
X213632791Y-130894272D01*
X213481126Y-130995611D01*
X213312604Y-131065415D01*
X213133703Y-131101000D01*
X212951297Y-131101000D01*
X212772396Y-131065415D01*
X212603874Y-130995611D01*
X212452209Y-130894272D01*
X212323228Y-130765291D01*
X212221889Y-130613626D01*
X212152085Y-130445104D01*
X212116500Y-130266203D01*
X212116500Y-130083797D01*
X212152085Y-129904896D01*
X212221889Y-129736374D01*
X212323228Y-129584709D01*
X212452209Y-129455728D01*
X212603874Y-129354389D01*
X212772396Y-129284585D01*
X212951297Y-129249000D01*
X213133703Y-129249000D01*
X213312604Y-129284585D01*
G37*
G36*
X203152604Y-129284585D02*
G01*
X203321126Y-129354389D01*
X203472791Y-129455728D01*
X203601772Y-129584709D01*
X203703111Y-129736374D01*
X203772915Y-129904896D01*
X203808500Y-130083797D01*
X203808500Y-130266203D01*
X203772915Y-130445104D01*
X203703111Y-130613626D01*
X203601772Y-130765291D01*
X203472791Y-130894272D01*
X203321126Y-130995611D01*
X203152604Y-131065415D01*
X202973703Y-131101000D01*
X202791297Y-131101000D01*
X202612396Y-131065415D01*
X202443874Y-130995611D01*
X202292209Y-130894272D01*
X202163228Y-130765291D01*
X202061889Y-130613626D01*
X201992085Y-130445104D01*
X201956500Y-130266203D01*
X201956500Y-130083797D01*
X201992085Y-129904896D01*
X202061889Y-129736374D01*
X202163228Y-129584709D01*
X202292209Y-129455728D01*
X202443874Y-129354389D01*
X202612396Y-129284585D01*
X202791297Y-129249000D01*
X202973703Y-129249000D01*
X203152604Y-129284585D01*
G37*
G36*
X38846354Y-129284585D02*
G01*
X39014876Y-129354389D01*
X39166541Y-129455728D01*
X39295522Y-129584709D01*
X39396861Y-129736374D01*
X39466665Y-129904896D01*
X39502250Y-130083797D01*
X39502250Y-130266203D01*
X39466665Y-130445104D01*
X39396861Y-130613626D01*
X39295522Y-130765291D01*
X39166541Y-130894272D01*
X39014876Y-130995611D01*
X38846354Y-131065415D01*
X38667453Y-131101000D01*
X38485047Y-131101000D01*
X38306146Y-131065415D01*
X38137624Y-130995611D01*
X37985959Y-130894272D01*
X37856978Y-130765291D01*
X37755639Y-130613626D01*
X37685835Y-130445104D01*
X37650250Y-130266203D01*
X37650250Y-130083797D01*
X37685835Y-129904896D01*
X37755639Y-129736374D01*
X37856978Y-129584709D01*
X37985959Y-129455728D01*
X38137624Y-129354389D01*
X38306146Y-129284585D01*
X38485047Y-129249000D01*
X38667453Y-129249000D01*
X38846354Y-129284585D01*
G37*
G36*
X232362604Y-129284585D02*
G01*
X232531126Y-129354389D01*
X232682791Y-129455728D01*
X232811772Y-129584709D01*
X232913111Y-129736374D01*
X232982915Y-129904896D01*
X233018500Y-130083797D01*
X233018500Y-130266203D01*
X232982915Y-130445104D01*
X232913111Y-130613626D01*
X232811772Y-130765291D01*
X232682791Y-130894272D01*
X232531126Y-130995611D01*
X232362604Y-131065415D01*
X232183703Y-131101000D01*
X232001297Y-131101000D01*
X231822396Y-131065415D01*
X231653874Y-130995611D01*
X231502209Y-130894272D01*
X231373228Y-130765291D01*
X231271889Y-130613626D01*
X231202085Y-130445104D01*
X231166500Y-130266203D01*
X231166500Y-130083797D01*
X231202085Y-129904896D01*
X231271889Y-129736374D01*
X231373228Y-129584709D01*
X231502209Y-129455728D01*
X231653874Y-129354389D01*
X231822396Y-129284585D01*
X232001297Y-129249000D01*
X232183703Y-129249000D01*
X232362604Y-129284585D01*
G37*
G36*
X222202604Y-129284585D02*
G01*
X222371126Y-129354389D01*
X222522791Y-129455728D01*
X222651772Y-129584709D01*
X222753111Y-129736374D01*
X222822915Y-129904896D01*
X222858500Y-130083797D01*
X222858500Y-130266203D01*
X222822915Y-130445104D01*
X222753111Y-130613626D01*
X222651772Y-130765291D01*
X222522791Y-130894272D01*
X222371126Y-130995611D01*
X222202604Y-131065415D01*
X222023703Y-131101000D01*
X221841297Y-131101000D01*
X221662396Y-131065415D01*
X221493874Y-130995611D01*
X221342209Y-130894272D01*
X221213228Y-130765291D01*
X221111889Y-130613626D01*
X221042085Y-130445104D01*
X221006500Y-130266203D01*
X221006500Y-130083797D01*
X221042085Y-129904896D01*
X221111889Y-129736374D01*
X221213228Y-129584709D01*
X221342209Y-129455728D01*
X221493874Y-129354389D01*
X221662396Y-129284585D01*
X221841297Y-129249000D01*
X222023703Y-129249000D01*
X222202604Y-129284585D01*
G37*
G36*
X49006354Y-129284585D02*
G01*
X49174876Y-129354389D01*
X49326541Y-129455728D01*
X49455522Y-129584709D01*
X49556861Y-129736374D01*
X49626665Y-129904896D01*
X49662250Y-130083797D01*
X49662250Y-130266203D01*
X49626665Y-130445104D01*
X49556861Y-130613626D01*
X49455522Y-130765291D01*
X49326541Y-130894272D01*
X49174876Y-130995611D01*
X49006354Y-131065415D01*
X48827453Y-131101000D01*
X48645047Y-131101000D01*
X48466146Y-131065415D01*
X48297624Y-130995611D01*
X48145959Y-130894272D01*
X48016978Y-130765291D01*
X47915639Y-130613626D01*
X47845835Y-130445104D01*
X47810250Y-130266203D01*
X47810250Y-130083797D01*
X47845835Y-129904896D01*
X47915639Y-129736374D01*
X48016978Y-129584709D01*
X48145959Y-129455728D01*
X48297624Y-129354389D01*
X48466146Y-129284585D01*
X48645047Y-129249000D01*
X48827453Y-129249000D01*
X49006354Y-129284585D01*
G37*
G36*
X253793854Y-129284585D02*
G01*
X253962376Y-129354389D01*
X254114041Y-129455728D01*
X254243022Y-129584709D01*
X254344361Y-129736374D01*
X254414165Y-129904896D01*
X254449750Y-130083797D01*
X254449750Y-130266203D01*
X254414165Y-130445104D01*
X254344361Y-130613626D01*
X254243022Y-130765291D01*
X254114041Y-130894272D01*
X253962376Y-130995611D01*
X253793854Y-131065415D01*
X253614953Y-131101000D01*
X253432547Y-131101000D01*
X253253646Y-131065415D01*
X253085124Y-130995611D01*
X252933459Y-130894272D01*
X252804478Y-130765291D01*
X252703139Y-130613626D01*
X252633335Y-130445104D01*
X252597750Y-130266203D01*
X252597750Y-130083797D01*
X252633335Y-129904896D01*
X252703139Y-129736374D01*
X252804478Y-129584709D01*
X252933459Y-129455728D01*
X253085124Y-129354389D01*
X253253646Y-129284585D01*
X253432547Y-129249000D01*
X253614953Y-129249000D01*
X253793854Y-129284585D01*
G37*
G36*
X243633854Y-129284585D02*
G01*
X243802376Y-129354389D01*
X243954041Y-129455728D01*
X244083022Y-129584709D01*
X244184361Y-129736374D01*
X244254165Y-129904896D01*
X244289750Y-130083797D01*
X244289750Y-130266203D01*
X244254165Y-130445104D01*
X244184361Y-130613626D01*
X244083022Y-130765291D01*
X243954041Y-130894272D01*
X243802376Y-130995611D01*
X243633854Y-131065415D01*
X243454953Y-131101000D01*
X243272547Y-131101000D01*
X243093646Y-131065415D01*
X242925124Y-130995611D01*
X242773459Y-130894272D01*
X242644478Y-130765291D01*
X242543139Y-130613626D01*
X242473335Y-130445104D01*
X242437750Y-130266203D01*
X242437750Y-130083797D01*
X242473335Y-129904896D01*
X242543139Y-129736374D01*
X242644478Y-129584709D01*
X242773459Y-129455728D01*
X242925124Y-129354389D01*
X243093646Y-129284585D01*
X243272547Y-129249000D01*
X243454953Y-129249000D01*
X243633854Y-129284585D01*
G37*
G36*
X106156354Y-129284585D02*
G01*
X106324876Y-129354389D01*
X106476541Y-129455728D01*
X106605522Y-129584709D01*
X106706861Y-129736374D01*
X106776665Y-129904896D01*
X106812250Y-130083797D01*
X106812250Y-130266203D01*
X106776665Y-130445104D01*
X106706861Y-130613626D01*
X106605522Y-130765291D01*
X106476541Y-130894272D01*
X106324876Y-130995611D01*
X106156354Y-131065415D01*
X105977453Y-131101000D01*
X105795047Y-131101000D01*
X105616146Y-131065415D01*
X105447624Y-130995611D01*
X105295959Y-130894272D01*
X105166978Y-130765291D01*
X105065639Y-130613626D01*
X104995835Y-130445104D01*
X104960250Y-130266203D01*
X104960250Y-130083797D01*
X104995835Y-129904896D01*
X105065639Y-129736374D01*
X105166978Y-129584709D01*
X105295959Y-129455728D01*
X105447624Y-129354389D01*
X105616146Y-129284585D01*
X105795047Y-129249000D01*
X105977453Y-129249000D01*
X106156354Y-129284585D01*
G37*
G36*
X177593854Y-129284585D02*
G01*
X177762376Y-129354389D01*
X177914041Y-129455728D01*
X178043022Y-129584709D01*
X178144361Y-129736374D01*
X178214165Y-129904896D01*
X178249750Y-130083797D01*
X178249750Y-130266203D01*
X178214165Y-130445104D01*
X178144361Y-130613626D01*
X178043022Y-130765291D01*
X177914041Y-130894272D01*
X177762376Y-130995611D01*
X177593854Y-131065415D01*
X177414953Y-131101000D01*
X177232547Y-131101000D01*
X177053646Y-131065415D01*
X176885124Y-130995611D01*
X176733459Y-130894272D01*
X176604478Y-130765291D01*
X176503139Y-130613626D01*
X176433335Y-130445104D01*
X176397750Y-130266203D01*
X176397750Y-130083797D01*
X176433335Y-129904896D01*
X176503139Y-129736374D01*
X176604478Y-129584709D01*
X176733459Y-129455728D01*
X176885124Y-129354389D01*
X177053646Y-129284585D01*
X177232547Y-129249000D01*
X177414953Y-129249000D01*
X177593854Y-129284585D01*
G37*
G36*
X167433854Y-129284585D02*
G01*
X167602376Y-129354389D01*
X167754041Y-129455728D01*
X167883022Y-129584709D01*
X167984361Y-129736374D01*
X168054165Y-129904896D01*
X168089750Y-130083797D01*
X168089750Y-130266203D01*
X168054165Y-130445104D01*
X167984361Y-130613626D01*
X167883022Y-130765291D01*
X167754041Y-130894272D01*
X167602376Y-130995611D01*
X167433854Y-131065415D01*
X167254953Y-131101000D01*
X167072547Y-131101000D01*
X166893646Y-131065415D01*
X166725124Y-130995611D01*
X166573459Y-130894272D01*
X166444478Y-130765291D01*
X166343139Y-130613626D01*
X166273335Y-130445104D01*
X166237750Y-130266203D01*
X166237750Y-130083797D01*
X166273335Y-129904896D01*
X166343139Y-129736374D01*
X166444478Y-129584709D01*
X166573459Y-129455728D01*
X166725124Y-129354389D01*
X166893646Y-129284585D01*
X167072547Y-129249000D01*
X167254953Y-129249000D01*
X167433854Y-129284585D01*
G37*
G36*
X62658854Y-129284585D02*
G01*
X62827376Y-129354389D01*
X62979041Y-129455728D01*
X63108022Y-129584709D01*
X63209361Y-129736374D01*
X63279165Y-129904896D01*
X63314750Y-130083797D01*
X63314750Y-130266203D01*
X63279165Y-130445104D01*
X63209361Y-130613626D01*
X63108022Y-130765291D01*
X62979041Y-130894272D01*
X62827376Y-130995611D01*
X62658854Y-131065415D01*
X62479953Y-131101000D01*
X62297547Y-131101000D01*
X62118646Y-131065415D01*
X61950124Y-130995611D01*
X61798459Y-130894272D01*
X61669478Y-130765291D01*
X61568139Y-130613626D01*
X61498335Y-130445104D01*
X61462750Y-130266203D01*
X61462750Y-130083797D01*
X61498335Y-129904896D01*
X61568139Y-129736374D01*
X61669478Y-129584709D01*
X61798459Y-129455728D01*
X61950124Y-129354389D01*
X62118646Y-129284585D01*
X62297547Y-129249000D01*
X62479953Y-129249000D01*
X62658854Y-129284585D01*
G37*
G36*
X139493854Y-129284585D02*
G01*
X139662376Y-129354389D01*
X139814041Y-129455728D01*
X139943022Y-129584709D01*
X140044361Y-129736374D01*
X140114165Y-129904896D01*
X140149750Y-130083797D01*
X140149750Y-130266203D01*
X140114165Y-130445104D01*
X140044361Y-130613626D01*
X139943022Y-130765291D01*
X139814041Y-130894272D01*
X139662376Y-130995611D01*
X139493854Y-131065415D01*
X139314953Y-131101000D01*
X139132547Y-131101000D01*
X138953646Y-131065415D01*
X138785124Y-130995611D01*
X138633459Y-130894272D01*
X138504478Y-130765291D01*
X138403139Y-130613626D01*
X138333335Y-130445104D01*
X138297750Y-130266203D01*
X138297750Y-130083797D01*
X138333335Y-129904896D01*
X138403139Y-129736374D01*
X138504478Y-129584709D01*
X138633459Y-129455728D01*
X138785124Y-129354389D01*
X138953646Y-129284585D01*
X139132547Y-129249000D01*
X139314953Y-129249000D01*
X139493854Y-129284585D01*
G37*
G36*
X95996354Y-129284585D02*
G01*
X96164876Y-129354389D01*
X96316541Y-129455728D01*
X96445522Y-129584709D01*
X96546861Y-129736374D01*
X96616665Y-129904896D01*
X96652250Y-130083797D01*
X96652250Y-130266203D01*
X96616665Y-130445104D01*
X96546861Y-130613626D01*
X96445522Y-130765291D01*
X96316541Y-130894272D01*
X96164876Y-130995611D01*
X95996354Y-131065415D01*
X95817453Y-131101000D01*
X95635047Y-131101000D01*
X95456146Y-131065415D01*
X95287624Y-130995611D01*
X95135959Y-130894272D01*
X95006978Y-130765291D01*
X94905639Y-130613626D01*
X94835835Y-130445104D01*
X94800250Y-130266203D01*
X94800250Y-130083797D01*
X94835835Y-129904896D01*
X94905639Y-129736374D01*
X95006978Y-129584709D01*
X95135959Y-129455728D01*
X95287624Y-129354389D01*
X95456146Y-129284585D01*
X95635047Y-129249000D01*
X95817453Y-129249000D01*
X95996354Y-129284585D01*
G37*
G36*
X184746474Y-119953684D02*
G01*
X184964474Y-120043983D01*
X185118623Y-120107833D01*
X185453548Y-120331623D01*
X185738377Y-120616452D01*
X185962167Y-120951377D01*
X185962167Y-120951378D01*
X186116316Y-121323526D01*
X186194900Y-121718594D01*
X186194900Y-122121406D01*
X186116316Y-122516474D01*
X186026017Y-122734474D01*
X185962167Y-122888623D01*
X185738377Y-123223548D01*
X185453548Y-123508377D01*
X185118623Y-123732167D01*
X184964474Y-123796017D01*
X184746474Y-123886316D01*
X184351406Y-123964900D01*
X183948594Y-123964900D01*
X183553526Y-123886316D01*
X183335526Y-123796017D01*
X183181377Y-123732167D01*
X182846452Y-123508377D01*
X182561623Y-123223548D01*
X182337833Y-122888623D01*
X182273983Y-122734474D01*
X182183684Y-122516474D01*
X182105100Y-122121406D01*
X182105100Y-121718594D01*
X182183684Y-121323526D01*
X182337833Y-120951378D01*
X182337833Y-120951377D01*
X182561623Y-120616452D01*
X182846452Y-120331623D01*
X183181377Y-120107833D01*
X183335526Y-120043983D01*
X183553526Y-119953684D01*
X183948594Y-119875100D01*
X184351406Y-119875100D01*
X184746474Y-119953684D01*
G37*
G36*
X160933974Y-119953684D02*
G01*
X161151974Y-120043983D01*
X161306123Y-120107833D01*
X161641048Y-120331623D01*
X161925877Y-120616452D01*
X162149667Y-120951377D01*
X162149667Y-120951378D01*
X162303816Y-121323526D01*
X162382400Y-121718594D01*
X162382400Y-122121406D01*
X162303816Y-122516474D01*
X162213517Y-122734474D01*
X162149667Y-122888623D01*
X161925877Y-123223548D01*
X161641048Y-123508377D01*
X161306123Y-123732167D01*
X161151974Y-123796017D01*
X160933974Y-123886316D01*
X160538906Y-123964900D01*
X160136094Y-123964900D01*
X159741026Y-123886316D01*
X159523026Y-123796017D01*
X159368877Y-123732167D01*
X159033952Y-123508377D01*
X158749123Y-123223548D01*
X158525333Y-122888623D01*
X158461483Y-122734474D01*
X158371184Y-122516474D01*
X158292600Y-122121406D01*
X158292600Y-121718594D01*
X158371184Y-121323526D01*
X158525333Y-120951378D01*
X158525333Y-120951377D01*
X158749123Y-120616452D01*
X159033952Y-120331623D01*
X159368877Y-120107833D01*
X159523026Y-120043983D01*
X159741026Y-119953684D01*
X160136094Y-119875100D01*
X160538906Y-119875100D01*
X160933974Y-119953684D01*
G37*
G36*
X89496474Y-119953684D02*
G01*
X89714474Y-120043983D01*
X89868623Y-120107833D01*
X90203548Y-120331623D01*
X90488377Y-120616452D01*
X90712167Y-120951377D01*
X90712167Y-120951378D01*
X90866316Y-121323526D01*
X90944900Y-121718594D01*
X90944900Y-122121406D01*
X90866316Y-122516474D01*
X90776017Y-122734474D01*
X90712167Y-122888623D01*
X90488377Y-123223548D01*
X90203548Y-123508377D01*
X89868623Y-123732167D01*
X89714474Y-123796017D01*
X89496474Y-123886316D01*
X89101406Y-123964900D01*
X88698594Y-123964900D01*
X88303526Y-123886316D01*
X88085526Y-123796017D01*
X87931377Y-123732167D01*
X87596452Y-123508377D01*
X87311623Y-123223548D01*
X87087833Y-122888623D01*
X87023983Y-122734474D01*
X86933684Y-122516474D01*
X86855100Y-122121406D01*
X86855100Y-121718594D01*
X86933684Y-121323526D01*
X87087833Y-120951378D01*
X87087833Y-120951377D01*
X87311623Y-120616452D01*
X87596452Y-120331623D01*
X87931377Y-120107833D01*
X88085526Y-120043983D01*
X88303526Y-119953684D01*
X88698594Y-119875100D01*
X89101406Y-119875100D01*
X89496474Y-119953684D01*
G37*
G36*
X113308974Y-119953684D02*
G01*
X113526974Y-120043983D01*
X113681123Y-120107833D01*
X114016048Y-120331623D01*
X114300877Y-120616452D01*
X114524667Y-120951377D01*
X114524667Y-120951378D01*
X114678816Y-121323526D01*
X114757400Y-121718594D01*
X114757400Y-122121406D01*
X114678816Y-122516474D01*
X114588517Y-122734474D01*
X114524667Y-122888623D01*
X114300877Y-123223548D01*
X114016048Y-123508377D01*
X113681123Y-123732167D01*
X113526974Y-123796017D01*
X113308974Y-123886316D01*
X112913906Y-123964900D01*
X112511094Y-123964900D01*
X112116026Y-123886316D01*
X111898026Y-123796017D01*
X111743877Y-123732167D01*
X111408952Y-123508377D01*
X111124123Y-123223548D01*
X110900333Y-122888623D01*
X110836483Y-122734474D01*
X110746184Y-122516474D01*
X110667600Y-122121406D01*
X110667600Y-121718594D01*
X110746184Y-121323526D01*
X110900333Y-120951378D01*
X110900333Y-120951377D01*
X111124123Y-120616452D01*
X111408952Y-120331623D01*
X111743877Y-120107833D01*
X111898026Y-120043983D01*
X112116026Y-119953684D01*
X112511094Y-119875100D01*
X112913906Y-119875100D01*
X113308974Y-119953684D01*
G37*
G36*
X60921474Y-109158684D02*
G01*
X61139474Y-109248983D01*
X61293623Y-109312833D01*
X61628548Y-109536623D01*
X61913377Y-109821452D01*
X62137167Y-110156377D01*
X62169562Y-110234586D01*
X62291316Y-110528526D01*
X62369900Y-110923594D01*
X62369900Y-111326406D01*
X62291316Y-111721474D01*
X62240451Y-111844272D01*
X62137167Y-112093623D01*
X61913377Y-112428548D01*
X61628548Y-112713377D01*
X61293623Y-112937167D01*
X61139474Y-113001017D01*
X60921474Y-113091316D01*
X60526406Y-113169900D01*
X60123594Y-113169900D01*
X59728526Y-113091316D01*
X59510526Y-113001017D01*
X59356377Y-112937167D01*
X59021452Y-112713377D01*
X58736623Y-112428548D01*
X58512833Y-112093623D01*
X58409549Y-111844272D01*
X58358684Y-111721474D01*
X58280100Y-111326406D01*
X58280100Y-110923594D01*
X58358684Y-110528526D01*
X58480438Y-110234586D01*
X58512833Y-110156377D01*
X58736623Y-109821452D01*
X59021452Y-109536623D01*
X59356377Y-109312833D01*
X59510526Y-109248983D01*
X59728526Y-109158684D01*
X60123594Y-109080100D01*
X60526406Y-109080100D01*
X60921474Y-109158684D01*
G37*
G36*
X99021474Y-109158684D02*
G01*
X99239474Y-109248983D01*
X99393623Y-109312833D01*
X99728548Y-109536623D01*
X100013377Y-109821452D01*
X100237167Y-110156377D01*
X100269562Y-110234586D01*
X100391316Y-110528526D01*
X100469900Y-110923594D01*
X100469900Y-111326406D01*
X100391316Y-111721474D01*
X100340451Y-111844272D01*
X100237167Y-112093623D01*
X100013377Y-112428548D01*
X99728548Y-112713377D01*
X99393623Y-112937167D01*
X99239474Y-113001017D01*
X99021474Y-113091316D01*
X98626406Y-113169900D01*
X98223594Y-113169900D01*
X97828526Y-113091316D01*
X97610526Y-113001017D01*
X97456377Y-112937167D01*
X97121452Y-112713377D01*
X96836623Y-112428548D01*
X96612833Y-112093623D01*
X96509549Y-111844272D01*
X96458684Y-111721474D01*
X96380100Y-111326406D01*
X96380100Y-110923594D01*
X96458684Y-110528526D01*
X96580438Y-110234586D01*
X96612833Y-110156377D01*
X96836623Y-109821452D01*
X97121452Y-109536623D01*
X97456377Y-109312833D01*
X97610526Y-109248983D01*
X97828526Y-109158684D01*
X98223594Y-109080100D01*
X98626406Y-109080100D01*
X99021474Y-109158684D01*
G37*
G36*
X41871474Y-109158684D02*
G01*
X42089474Y-109248983D01*
X42243623Y-109312833D01*
X42578548Y-109536623D01*
X42863377Y-109821452D01*
X43087167Y-110156377D01*
X43119562Y-110234586D01*
X43241316Y-110528526D01*
X43319900Y-110923594D01*
X43319900Y-111326406D01*
X43241316Y-111721474D01*
X43190451Y-111844272D01*
X43087167Y-112093623D01*
X42863377Y-112428548D01*
X42578548Y-112713377D01*
X42243623Y-112937167D01*
X42089474Y-113001017D01*
X41871474Y-113091316D01*
X41476406Y-113169900D01*
X41073594Y-113169900D01*
X40678526Y-113091316D01*
X40460526Y-113001017D01*
X40306377Y-112937167D01*
X39971452Y-112713377D01*
X39686623Y-112428548D01*
X39462833Y-112093623D01*
X39359549Y-111844272D01*
X39308684Y-111721474D01*
X39230100Y-111326406D01*
X39230100Y-110923594D01*
X39308684Y-110528526D01*
X39430438Y-110234586D01*
X39462833Y-110156377D01*
X39686623Y-109821452D01*
X39971452Y-109536623D01*
X40306377Y-109312833D01*
X40460526Y-109248983D01*
X40678526Y-109158684D01*
X41073594Y-109080100D01*
X41476406Y-109080100D01*
X41871474Y-109158684D01*
G37*
G36*
X118071474Y-109158684D02*
G01*
X118289474Y-109248983D01*
X118443623Y-109312833D01*
X118778548Y-109536623D01*
X119063377Y-109821452D01*
X119287167Y-110156377D01*
X119319562Y-110234586D01*
X119441316Y-110528526D01*
X119519900Y-110923594D01*
X119519900Y-111326406D01*
X119441316Y-111721474D01*
X119390451Y-111844272D01*
X119287167Y-112093623D01*
X119063377Y-112428548D01*
X118778548Y-112713377D01*
X118443623Y-112937167D01*
X118289474Y-113001017D01*
X118071474Y-113091316D01*
X117676406Y-113169900D01*
X117273594Y-113169900D01*
X116878526Y-113091316D01*
X116660526Y-113001017D01*
X116506377Y-112937167D01*
X116171452Y-112713377D01*
X115886623Y-112428548D01*
X115662833Y-112093623D01*
X115559549Y-111844272D01*
X115508684Y-111721474D01*
X115430100Y-111326406D01*
X115430100Y-110923594D01*
X115508684Y-110528526D01*
X115630438Y-110234586D01*
X115662833Y-110156377D01*
X115886623Y-109821452D01*
X116171452Y-109536623D01*
X116506377Y-109312833D01*
X116660526Y-109248983D01*
X116878526Y-109158684D01*
X117273594Y-109080100D01*
X117676406Y-109080100D01*
X118071474Y-109158684D01*
G37*
G36*
X79971474Y-109158684D02*
G01*
X80189474Y-109248983D01*
X80343623Y-109312833D01*
X80678548Y-109536623D01*
X80963377Y-109821452D01*
X81187167Y-110156377D01*
X81219562Y-110234586D01*
X81341316Y-110528526D01*
X81419900Y-110923594D01*
X81419900Y-111326406D01*
X81341316Y-111721474D01*
X81290451Y-111844272D01*
X81187167Y-112093623D01*
X80963377Y-112428548D01*
X80678548Y-112713377D01*
X80343623Y-112937167D01*
X80189474Y-113001017D01*
X79971474Y-113091316D01*
X79576406Y-113169900D01*
X79173594Y-113169900D01*
X78778526Y-113091316D01*
X78560526Y-113001017D01*
X78406377Y-112937167D01*
X78071452Y-112713377D01*
X77786623Y-112428548D01*
X77562833Y-112093623D01*
X77459549Y-111844272D01*
X77408684Y-111721474D01*
X77330100Y-111326406D01*
X77330100Y-110923594D01*
X77408684Y-110528526D01*
X77530438Y-110234586D01*
X77562833Y-110156377D01*
X77786623Y-109821452D01*
X78071452Y-109536623D01*
X78406377Y-109312833D01*
X78560526Y-109248983D01*
X78778526Y-109158684D01*
X79173594Y-109080100D01*
X79576406Y-109080100D01*
X79971474Y-109158684D01*
G37*
G36*
X137121474Y-109158684D02*
G01*
X137339474Y-109248983D01*
X137493623Y-109312833D01*
X137828548Y-109536623D01*
X138113377Y-109821452D01*
X138337167Y-110156377D01*
X138369562Y-110234586D01*
X138491316Y-110528526D01*
X138569900Y-110923594D01*
X138569900Y-111326406D01*
X138491316Y-111721474D01*
X138440451Y-111844272D01*
X138337167Y-112093623D01*
X138113377Y-112428548D01*
X137828548Y-112713377D01*
X137493623Y-112937167D01*
X137339474Y-113001017D01*
X137121474Y-113091316D01*
X136726406Y-113169900D01*
X136323594Y-113169900D01*
X135928526Y-113091316D01*
X135710526Y-113001017D01*
X135556377Y-112937167D01*
X135221452Y-112713377D01*
X134936623Y-112428548D01*
X134712833Y-112093623D01*
X134609549Y-111844272D01*
X134558684Y-111721474D01*
X134480100Y-111326406D01*
X134480100Y-110923594D01*
X134558684Y-110528526D01*
X134680438Y-110234586D01*
X134712833Y-110156377D01*
X134936623Y-109821452D01*
X135221452Y-109536623D01*
X135556377Y-109312833D01*
X135710526Y-109248983D01*
X135928526Y-109158684D01*
X136323594Y-109080100D01*
X136726406Y-109080100D01*
X137121474Y-109158684D01*
G37*
G36*
X175221474Y-109158684D02*
G01*
X175439474Y-109248983D01*
X175593623Y-109312833D01*
X175928548Y-109536623D01*
X176213377Y-109821452D01*
X176437167Y-110156377D01*
X176469562Y-110234586D01*
X176591316Y-110528526D01*
X176669900Y-110923594D01*
X176669900Y-111326406D01*
X176591316Y-111721474D01*
X176540451Y-111844272D01*
X176437167Y-112093623D01*
X176213377Y-112428548D01*
X175928548Y-112713377D01*
X175593623Y-112937167D01*
X175439474Y-113001017D01*
X175221474Y-113091316D01*
X174826406Y-113169900D01*
X174423594Y-113169900D01*
X174028526Y-113091316D01*
X173810526Y-113001017D01*
X173656377Y-112937167D01*
X173321452Y-112713377D01*
X173036623Y-112428548D01*
X172812833Y-112093623D01*
X172709549Y-111844272D01*
X172658684Y-111721474D01*
X172580100Y-111326406D01*
X172580100Y-110923594D01*
X172658684Y-110528526D01*
X172780438Y-110234586D01*
X172812833Y-110156377D01*
X173036623Y-109821452D01*
X173321452Y-109536623D01*
X173656377Y-109312833D01*
X173810526Y-109248983D01*
X174028526Y-109158684D01*
X174423594Y-109080100D01*
X174826406Y-109080100D01*
X175221474Y-109158684D01*
G37*
G36*
X194271474Y-109158684D02*
G01*
X194489474Y-109248983D01*
X194643623Y-109312833D01*
X194978548Y-109536623D01*
X195263377Y-109821452D01*
X195487167Y-110156377D01*
X195519562Y-110234586D01*
X195641316Y-110528526D01*
X195719900Y-110923594D01*
X195719900Y-111326406D01*
X195641316Y-111721474D01*
X195590451Y-111844272D01*
X195487167Y-112093623D01*
X195263377Y-112428548D01*
X194978548Y-112713377D01*
X194643623Y-112937167D01*
X194489474Y-113001017D01*
X194271474Y-113091316D01*
X193876406Y-113169900D01*
X193473594Y-113169900D01*
X193078526Y-113091316D01*
X192860526Y-113001017D01*
X192706377Y-112937167D01*
X192371452Y-112713377D01*
X192086623Y-112428548D01*
X191862833Y-112093623D01*
X191759549Y-111844272D01*
X191708684Y-111721474D01*
X191630100Y-111326406D01*
X191630100Y-110923594D01*
X191708684Y-110528526D01*
X191830438Y-110234586D01*
X191862833Y-110156377D01*
X192086623Y-109821452D01*
X192371452Y-109536623D01*
X192706377Y-109312833D01*
X192860526Y-109248983D01*
X193078526Y-109158684D01*
X193473594Y-109080100D01*
X193876406Y-109080100D01*
X194271474Y-109158684D01*
G37*
G36*
X213321474Y-109158684D02*
G01*
X213539474Y-109248983D01*
X213693623Y-109312833D01*
X214028548Y-109536623D01*
X214313377Y-109821452D01*
X214537167Y-110156377D01*
X214569562Y-110234586D01*
X214691316Y-110528526D01*
X214769900Y-110923594D01*
X214769900Y-111326406D01*
X214691316Y-111721474D01*
X214640451Y-111844272D01*
X214537167Y-112093623D01*
X214313377Y-112428548D01*
X214028548Y-112713377D01*
X213693623Y-112937167D01*
X213539474Y-113001017D01*
X213321474Y-113091316D01*
X212926406Y-113169900D01*
X212523594Y-113169900D01*
X212128526Y-113091316D01*
X211910526Y-113001017D01*
X211756377Y-112937167D01*
X211421452Y-112713377D01*
X211136623Y-112428548D01*
X210912833Y-112093623D01*
X210809549Y-111844272D01*
X210758684Y-111721474D01*
X210680100Y-111326406D01*
X210680100Y-110923594D01*
X210758684Y-110528526D01*
X210880438Y-110234586D01*
X210912833Y-110156377D01*
X211136623Y-109821452D01*
X211421452Y-109536623D01*
X211756377Y-109312833D01*
X211910526Y-109248983D01*
X212128526Y-109158684D01*
X212523594Y-109080100D01*
X212926406Y-109080100D01*
X213321474Y-109158684D01*
G37*
G36*
X232371474Y-109158684D02*
G01*
X232589474Y-109248983D01*
X232743623Y-109312833D01*
X233078548Y-109536623D01*
X233363377Y-109821452D01*
X233587167Y-110156377D01*
X233619562Y-110234586D01*
X233741316Y-110528526D01*
X233819900Y-110923594D01*
X233819900Y-111326406D01*
X233741316Y-111721474D01*
X233690451Y-111844272D01*
X233587167Y-112093623D01*
X233363377Y-112428548D01*
X233078548Y-112713377D01*
X232743623Y-112937167D01*
X232589474Y-113001017D01*
X232371474Y-113091316D01*
X231976406Y-113169900D01*
X231573594Y-113169900D01*
X231178526Y-113091316D01*
X230960526Y-113001017D01*
X230806377Y-112937167D01*
X230471452Y-112713377D01*
X230186623Y-112428548D01*
X229962833Y-112093623D01*
X229859549Y-111844272D01*
X229808684Y-111721474D01*
X229730100Y-111326406D01*
X229730100Y-110923594D01*
X229808684Y-110528526D01*
X229930438Y-110234586D01*
X229962833Y-110156377D01*
X230186623Y-109821452D01*
X230471452Y-109536623D01*
X230806377Y-109312833D01*
X230960526Y-109248983D01*
X231178526Y-109158684D01*
X231573594Y-109080100D01*
X231976406Y-109080100D01*
X232371474Y-109158684D01*
G37*
G36*
X251421474Y-109158684D02*
G01*
X251639474Y-109248983D01*
X251793623Y-109312833D01*
X252128548Y-109536623D01*
X252413377Y-109821452D01*
X252637167Y-110156377D01*
X252669562Y-110234586D01*
X252791316Y-110528526D01*
X252869900Y-110923594D01*
X252869900Y-111326406D01*
X252791316Y-111721474D01*
X252740451Y-111844272D01*
X252637167Y-112093623D01*
X252413377Y-112428548D01*
X252128548Y-112713377D01*
X251793623Y-112937167D01*
X251639474Y-113001017D01*
X251421474Y-113091316D01*
X251026406Y-113169900D01*
X250623594Y-113169900D01*
X250228526Y-113091316D01*
X250010526Y-113001017D01*
X249856377Y-112937167D01*
X249521452Y-112713377D01*
X249236623Y-112428548D01*
X249012833Y-112093623D01*
X248909549Y-111844272D01*
X248858684Y-111721474D01*
X248780100Y-111326406D01*
X248780100Y-110923594D01*
X248858684Y-110528526D01*
X248980438Y-110234586D01*
X249012833Y-110156377D01*
X249236623Y-109821452D01*
X249521452Y-109536623D01*
X249856377Y-109312833D01*
X250010526Y-109248983D01*
X250228526Y-109158684D01*
X250623594Y-109080100D01*
X251026406Y-109080100D01*
X251421474Y-109158684D01*
G37*
G36*
X156171474Y-109158684D02*
G01*
X156389474Y-109248983D01*
X156543623Y-109312833D01*
X156878548Y-109536623D01*
X157163377Y-109821452D01*
X157387167Y-110156377D01*
X157419562Y-110234586D01*
X157541316Y-110528526D01*
X157619900Y-110923594D01*
X157619900Y-111326406D01*
X157541316Y-111721474D01*
X157490451Y-111844272D01*
X157387167Y-112093623D01*
X157163377Y-112428548D01*
X156878548Y-112713377D01*
X156543623Y-112937167D01*
X156389474Y-113001017D01*
X156171474Y-113091316D01*
X155776406Y-113169900D01*
X155373594Y-113169900D01*
X154978526Y-113091316D01*
X154760526Y-113001017D01*
X154606377Y-112937167D01*
X154271452Y-112713377D01*
X153986623Y-112428548D01*
X153762833Y-112093623D01*
X153659549Y-111844272D01*
X153608684Y-111721474D01*
X153530100Y-111326406D01*
X153530100Y-110923594D01*
X153608684Y-110528526D01*
X153730438Y-110234586D01*
X153762833Y-110156377D01*
X153986623Y-109821452D01*
X154271452Y-109536623D01*
X154606377Y-109312833D01*
X154760526Y-109248983D01*
X154978526Y-109158684D01*
X155373594Y-109080100D01*
X155776406Y-109080100D01*
X156171474Y-109158684D01*
G37*
G36*
X55515104Y-110234585D02*
G01*
X55683626Y-110304389D01*
X55835291Y-110405728D01*
X55964272Y-110534709D01*
X56065611Y-110686374D01*
X56135415Y-110854896D01*
X56171000Y-111033797D01*
X56171000Y-111216203D01*
X56135415Y-111395104D01*
X56065611Y-111563626D01*
X55964272Y-111715291D01*
X55835291Y-111844272D01*
X55683626Y-111945611D01*
X55515104Y-112015415D01*
X55336203Y-112051000D01*
X55153797Y-112051000D01*
X54974896Y-112015415D01*
X54806374Y-111945611D01*
X54654709Y-111844272D01*
X54525728Y-111715291D01*
X54424389Y-111563626D01*
X54354585Y-111395104D01*
X54319000Y-111216203D01*
X54319000Y-111033797D01*
X54354585Y-110854896D01*
X54424389Y-110686374D01*
X54525728Y-110534709D01*
X54654709Y-110405728D01*
X54806374Y-110304389D01*
X54974896Y-110234585D01*
X55153797Y-110199000D01*
X55336203Y-110199000D01*
X55515104Y-110234585D01*
G37*
G36*
X46625104Y-110234585D02*
G01*
X46793626Y-110304389D01*
X46945291Y-110405728D01*
X47074272Y-110534709D01*
X47175611Y-110686374D01*
X47245415Y-110854896D01*
X47281000Y-111033797D01*
X47281000Y-111216203D01*
X47245415Y-111395104D01*
X47175611Y-111563626D01*
X47074272Y-111715291D01*
X46945291Y-111844272D01*
X46793626Y-111945611D01*
X46625104Y-112015415D01*
X46446203Y-112051000D01*
X46263797Y-112051000D01*
X46084896Y-112015415D01*
X45916374Y-111945611D01*
X45764709Y-111844272D01*
X45635728Y-111715291D01*
X45534389Y-111563626D01*
X45464585Y-111395104D01*
X45429000Y-111216203D01*
X45429000Y-111033797D01*
X45464585Y-110854896D01*
X45534389Y-110686374D01*
X45635728Y-110534709D01*
X45764709Y-110405728D01*
X45916374Y-110304389D01*
X46084896Y-110234585D01*
X46263797Y-110199000D01*
X46446203Y-110199000D01*
X46625104Y-110234585D01*
G37*
G36*
X36465104Y-110234585D02*
G01*
X36633626Y-110304389D01*
X36785291Y-110405728D01*
X36914272Y-110534709D01*
X37015611Y-110686374D01*
X37085415Y-110854896D01*
X37121000Y-111033797D01*
X37121000Y-111216203D01*
X37085415Y-111395104D01*
X37015611Y-111563626D01*
X36914272Y-111715291D01*
X36785291Y-111844272D01*
X36633626Y-111945611D01*
X36465104Y-112015415D01*
X36286203Y-112051000D01*
X36103797Y-112051000D01*
X35924896Y-112015415D01*
X35756374Y-111945611D01*
X35604709Y-111844272D01*
X35475728Y-111715291D01*
X35374389Y-111563626D01*
X35304585Y-111395104D01*
X35269000Y-111216203D01*
X35269000Y-111033797D01*
X35304585Y-110854896D01*
X35374389Y-110686374D01*
X35475728Y-110534709D01*
X35604709Y-110405728D01*
X35756374Y-110304389D01*
X35924896Y-110234585D01*
X36103797Y-110199000D01*
X36286203Y-110199000D01*
X36465104Y-110234585D01*
G37*
G36*
X188865104Y-110234585D02*
G01*
X189033626Y-110304389D01*
X189185291Y-110405728D01*
X189314272Y-110534709D01*
X189415611Y-110686374D01*
X189485415Y-110854896D01*
X189521000Y-111033797D01*
X189521000Y-111216203D01*
X189485415Y-111395104D01*
X189415611Y-111563626D01*
X189314272Y-111715291D01*
X189185291Y-111844272D01*
X189033626Y-111945611D01*
X188865104Y-112015415D01*
X188686203Y-112051000D01*
X188503797Y-112051000D01*
X188324896Y-112015415D01*
X188156374Y-111945611D01*
X188004709Y-111844272D01*
X187875728Y-111715291D01*
X187774389Y-111563626D01*
X187704585Y-111395104D01*
X187669000Y-111216203D01*
X187669000Y-111033797D01*
X187704585Y-110854896D01*
X187774389Y-110686374D01*
X187875728Y-110534709D01*
X188004709Y-110405728D01*
X188156374Y-110304389D01*
X188324896Y-110234585D01*
X188503797Y-110199000D01*
X188686203Y-110199000D01*
X188865104Y-110234585D01*
G37*
G36*
X256175104Y-110234585D02*
G01*
X256343626Y-110304389D01*
X256495291Y-110405728D01*
X256624272Y-110534709D01*
X256725611Y-110686374D01*
X256795415Y-110854896D01*
X256831000Y-111033797D01*
X256831000Y-111216203D01*
X256795415Y-111395104D01*
X256725611Y-111563626D01*
X256624272Y-111715291D01*
X256495291Y-111844272D01*
X256343626Y-111945611D01*
X256175104Y-112015415D01*
X255996203Y-112051000D01*
X255813797Y-112051000D01*
X255634896Y-112015415D01*
X255466374Y-111945611D01*
X255314709Y-111844272D01*
X255185728Y-111715291D01*
X255084389Y-111563626D01*
X255014585Y-111395104D01*
X254979000Y-111216203D01*
X254979000Y-111033797D01*
X255014585Y-110854896D01*
X255084389Y-110686374D01*
X255185728Y-110534709D01*
X255314709Y-110405728D01*
X255466374Y-110304389D01*
X255634896Y-110234585D01*
X255813797Y-110199000D01*
X255996203Y-110199000D01*
X256175104Y-110234585D01*
G37*
G36*
X246015104Y-110234585D02*
G01*
X246183626Y-110304389D01*
X246335291Y-110405728D01*
X246464272Y-110534709D01*
X246565611Y-110686374D01*
X246635415Y-110854896D01*
X246671000Y-111033797D01*
X246671000Y-111216203D01*
X246635415Y-111395104D01*
X246565611Y-111563626D01*
X246464272Y-111715291D01*
X246335291Y-111844272D01*
X246183626Y-111945611D01*
X246015104Y-112015415D01*
X245836203Y-112051000D01*
X245653797Y-112051000D01*
X245474896Y-112015415D01*
X245306374Y-111945611D01*
X245154709Y-111844272D01*
X245025728Y-111715291D01*
X244924389Y-111563626D01*
X244854585Y-111395104D01*
X244819000Y-111216203D01*
X244819000Y-111033797D01*
X244854585Y-110854896D01*
X244924389Y-110686374D01*
X245025728Y-110534709D01*
X245154709Y-110405728D01*
X245306374Y-110304389D01*
X245474896Y-110234585D01*
X245653797Y-110199000D01*
X245836203Y-110199000D01*
X246015104Y-110234585D01*
G37*
G36*
X237125104Y-110234585D02*
G01*
X237293626Y-110304389D01*
X237445291Y-110405728D01*
X237574272Y-110534709D01*
X237675611Y-110686374D01*
X237745415Y-110854896D01*
X237781000Y-111033797D01*
X237781000Y-111216203D01*
X237745415Y-111395104D01*
X237675611Y-111563626D01*
X237574272Y-111715291D01*
X237445291Y-111844272D01*
X237293626Y-111945611D01*
X237125104Y-112015415D01*
X236946203Y-112051000D01*
X236763797Y-112051000D01*
X236584896Y-112015415D01*
X236416374Y-111945611D01*
X236264709Y-111844272D01*
X236135728Y-111715291D01*
X236034389Y-111563626D01*
X235964585Y-111395104D01*
X235929000Y-111216203D01*
X235929000Y-111033797D01*
X235964585Y-110854896D01*
X236034389Y-110686374D01*
X236135728Y-110534709D01*
X236264709Y-110405728D01*
X236416374Y-110304389D01*
X236584896Y-110234585D01*
X236763797Y-110199000D01*
X236946203Y-110199000D01*
X237125104Y-110234585D01*
G37*
G36*
X226965104Y-110234585D02*
G01*
X227133626Y-110304389D01*
X227285291Y-110405728D01*
X227414272Y-110534709D01*
X227515611Y-110686374D01*
X227585415Y-110854896D01*
X227621000Y-111033797D01*
X227621000Y-111216203D01*
X227585415Y-111395104D01*
X227515611Y-111563626D01*
X227414272Y-111715291D01*
X227285291Y-111844272D01*
X227133626Y-111945611D01*
X226965104Y-112015415D01*
X226786203Y-112051000D01*
X226603797Y-112051000D01*
X226424896Y-112015415D01*
X226256374Y-111945611D01*
X226104709Y-111844272D01*
X225975728Y-111715291D01*
X225874389Y-111563626D01*
X225804585Y-111395104D01*
X225769000Y-111216203D01*
X225769000Y-111033797D01*
X225804585Y-110854896D01*
X225874389Y-110686374D01*
X225975728Y-110534709D01*
X226104709Y-110405728D01*
X226256374Y-110304389D01*
X226424896Y-110234585D01*
X226603797Y-110199000D01*
X226786203Y-110199000D01*
X226965104Y-110234585D01*
G37*
G36*
X218075104Y-110234585D02*
G01*
X218243626Y-110304389D01*
X218395291Y-110405728D01*
X218524272Y-110534709D01*
X218625611Y-110686374D01*
X218695415Y-110854896D01*
X218731000Y-111033797D01*
X218731000Y-111216203D01*
X218695415Y-111395104D01*
X218625611Y-111563626D01*
X218524272Y-111715291D01*
X218395291Y-111844272D01*
X218243626Y-111945611D01*
X218075104Y-112015415D01*
X217896203Y-112051000D01*
X217713797Y-112051000D01*
X217534896Y-112015415D01*
X217366374Y-111945611D01*
X217214709Y-111844272D01*
X217085728Y-111715291D01*
X216984389Y-111563626D01*
X216914585Y-111395104D01*
X216879000Y-111216203D01*
X216879000Y-111033797D01*
X216914585Y-110854896D01*
X216984389Y-110686374D01*
X217085728Y-110534709D01*
X217214709Y-110405728D01*
X217366374Y-110304389D01*
X217534896Y-110234585D01*
X217713797Y-110199000D01*
X217896203Y-110199000D01*
X218075104Y-110234585D01*
G37*
G36*
X207915104Y-110234585D02*
G01*
X208083626Y-110304389D01*
X208235291Y-110405728D01*
X208364272Y-110534709D01*
X208465611Y-110686374D01*
X208535415Y-110854896D01*
X208571000Y-111033797D01*
X208571000Y-111216203D01*
X208535415Y-111395104D01*
X208465611Y-111563626D01*
X208364272Y-111715291D01*
X208235291Y-111844272D01*
X208083626Y-111945611D01*
X207915104Y-112015415D01*
X207736203Y-112051000D01*
X207553797Y-112051000D01*
X207374896Y-112015415D01*
X207206374Y-111945611D01*
X207054709Y-111844272D01*
X206925728Y-111715291D01*
X206824389Y-111563626D01*
X206754585Y-111395104D01*
X206719000Y-111216203D01*
X206719000Y-111033797D01*
X206754585Y-110854896D01*
X206824389Y-110686374D01*
X206925728Y-110534709D01*
X207054709Y-110405728D01*
X207206374Y-110304389D01*
X207374896Y-110234585D01*
X207553797Y-110199000D01*
X207736203Y-110199000D01*
X207915104Y-110234585D01*
G37*
G36*
X199025104Y-110234585D02*
G01*
X199193626Y-110304389D01*
X199345291Y-110405728D01*
X199474272Y-110534709D01*
X199575611Y-110686374D01*
X199645415Y-110854896D01*
X199681000Y-111033797D01*
X199681000Y-111216203D01*
X199645415Y-111395104D01*
X199575611Y-111563626D01*
X199474272Y-111715291D01*
X199345291Y-111844272D01*
X199193626Y-111945611D01*
X199025104Y-112015415D01*
X198846203Y-112051000D01*
X198663797Y-112051000D01*
X198484896Y-112015415D01*
X198316374Y-111945611D01*
X198164709Y-111844272D01*
X198035728Y-111715291D01*
X197934389Y-111563626D01*
X197864585Y-111395104D01*
X197829000Y-111216203D01*
X197829000Y-111033797D01*
X197864585Y-110854896D01*
X197934389Y-110686374D01*
X198035728Y-110534709D01*
X198164709Y-110405728D01*
X198316374Y-110304389D01*
X198484896Y-110234585D01*
X198663797Y-110199000D01*
X198846203Y-110199000D01*
X199025104Y-110234585D01*
G37*
G36*
X65675104Y-110234585D02*
G01*
X65843626Y-110304389D01*
X65995291Y-110405728D01*
X66124272Y-110534709D01*
X66225611Y-110686374D01*
X66295415Y-110854896D01*
X66331000Y-111033797D01*
X66331000Y-111216203D01*
X66295415Y-111395104D01*
X66225611Y-111563626D01*
X66124272Y-111715291D01*
X65995291Y-111844272D01*
X65843626Y-111945611D01*
X65675104Y-112015415D01*
X65496203Y-112051000D01*
X65313797Y-112051000D01*
X65134896Y-112015415D01*
X64966374Y-111945611D01*
X64814709Y-111844272D01*
X64685728Y-111715291D01*
X64584389Y-111563626D01*
X64514585Y-111395104D01*
X64479000Y-111216203D01*
X64479000Y-111033797D01*
X64514585Y-110854896D01*
X64584389Y-110686374D01*
X64685728Y-110534709D01*
X64814709Y-110405728D01*
X64966374Y-110304389D01*
X65134896Y-110234585D01*
X65313797Y-110199000D01*
X65496203Y-110199000D01*
X65675104Y-110234585D01*
G37*
G36*
X122825104Y-110234585D02*
G01*
X122993626Y-110304389D01*
X123145291Y-110405728D01*
X123274272Y-110534709D01*
X123375611Y-110686374D01*
X123445415Y-110854896D01*
X123481000Y-111033797D01*
X123481000Y-111216203D01*
X123445415Y-111395104D01*
X123375611Y-111563626D01*
X123274272Y-111715291D01*
X123145291Y-111844272D01*
X122993626Y-111945611D01*
X122825104Y-112015415D01*
X122646203Y-112051000D01*
X122463797Y-112051000D01*
X122284896Y-112015415D01*
X122116374Y-111945611D01*
X121964709Y-111844272D01*
X121835728Y-111715291D01*
X121734389Y-111563626D01*
X121664585Y-111395104D01*
X121629000Y-111216203D01*
X121629000Y-111033797D01*
X121664585Y-110854896D01*
X121734389Y-110686374D01*
X121835728Y-110534709D01*
X121964709Y-110405728D01*
X122116374Y-110304389D01*
X122284896Y-110234585D01*
X122463797Y-110199000D01*
X122646203Y-110199000D01*
X122825104Y-110234585D01*
G37*
G36*
X103775104Y-110234585D02*
G01*
X103943626Y-110304389D01*
X104095291Y-110405728D01*
X104224272Y-110534709D01*
X104325611Y-110686374D01*
X104395415Y-110854896D01*
X104431000Y-111033797D01*
X104431000Y-111216203D01*
X104395415Y-111395104D01*
X104325611Y-111563626D01*
X104224272Y-111715291D01*
X104095291Y-111844272D01*
X103943626Y-111945611D01*
X103775104Y-112015415D01*
X103596203Y-112051000D01*
X103413797Y-112051000D01*
X103234896Y-112015415D01*
X103066374Y-111945611D01*
X102914709Y-111844272D01*
X102785728Y-111715291D01*
X102684389Y-111563626D01*
X102614585Y-111395104D01*
X102579000Y-111216203D01*
X102579000Y-111033797D01*
X102614585Y-110854896D01*
X102684389Y-110686374D01*
X102785728Y-110534709D01*
X102914709Y-110405728D01*
X103066374Y-110304389D01*
X103234896Y-110234585D01*
X103413797Y-110199000D01*
X103596203Y-110199000D01*
X103775104Y-110234585D01*
G37*
G36*
X160925104Y-110234585D02*
G01*
X161093626Y-110304389D01*
X161245291Y-110405728D01*
X161374272Y-110534709D01*
X161475611Y-110686374D01*
X161545415Y-110854896D01*
X161581000Y-111033797D01*
X161581000Y-111216203D01*
X161545415Y-111395104D01*
X161475611Y-111563626D01*
X161374272Y-111715291D01*
X161245291Y-111844272D01*
X161093626Y-111945611D01*
X160925104Y-112015415D01*
X160746203Y-112051000D01*
X160563797Y-112051000D01*
X160384896Y-112015415D01*
X160216374Y-111945611D01*
X160064709Y-111844272D01*
X159935728Y-111715291D01*
X159834389Y-111563626D01*
X159764585Y-111395104D01*
X159729000Y-111216203D01*
X159729000Y-111033797D01*
X159764585Y-110854896D01*
X159834389Y-110686374D01*
X159935728Y-110534709D01*
X160064709Y-110405728D01*
X160216374Y-110304389D01*
X160384896Y-110234585D01*
X160563797Y-110199000D01*
X160746203Y-110199000D01*
X160925104Y-110234585D01*
G37*
G36*
X169815104Y-110234585D02*
G01*
X169983626Y-110304389D01*
X170135291Y-110405728D01*
X170264272Y-110534709D01*
X170365611Y-110686374D01*
X170435415Y-110854896D01*
X170471000Y-111033797D01*
X170471000Y-111216203D01*
X170435415Y-111395104D01*
X170365611Y-111563626D01*
X170264272Y-111715291D01*
X170135291Y-111844272D01*
X169983626Y-111945611D01*
X169815104Y-112015415D01*
X169636203Y-112051000D01*
X169453797Y-112051000D01*
X169274896Y-112015415D01*
X169106374Y-111945611D01*
X168954709Y-111844272D01*
X168825728Y-111715291D01*
X168724389Y-111563626D01*
X168654585Y-111395104D01*
X168619000Y-111216203D01*
X168619000Y-111033797D01*
X168654585Y-110854896D01*
X168724389Y-110686374D01*
X168825728Y-110534709D01*
X168954709Y-110405728D01*
X169106374Y-110304389D01*
X169274896Y-110234585D01*
X169453797Y-110199000D01*
X169636203Y-110199000D01*
X169815104Y-110234585D01*
G37*
G36*
X179975104Y-110234585D02*
G01*
X180143626Y-110304389D01*
X180295291Y-110405728D01*
X180424272Y-110534709D01*
X180525611Y-110686374D01*
X180595415Y-110854896D01*
X180631000Y-111033797D01*
X180631000Y-111216203D01*
X180595415Y-111395104D01*
X180525611Y-111563626D01*
X180424272Y-111715291D01*
X180295291Y-111844272D01*
X180143626Y-111945611D01*
X179975104Y-112015415D01*
X179796203Y-112051000D01*
X179613797Y-112051000D01*
X179434896Y-112015415D01*
X179266374Y-111945611D01*
X179114709Y-111844272D01*
X178985728Y-111715291D01*
X178884389Y-111563626D01*
X178814585Y-111395104D01*
X178779000Y-111216203D01*
X178779000Y-111033797D01*
X178814585Y-110854896D01*
X178884389Y-110686374D01*
X178985728Y-110534709D01*
X179114709Y-110405728D01*
X179266374Y-110304389D01*
X179434896Y-110234585D01*
X179613797Y-110199000D01*
X179796203Y-110199000D01*
X179975104Y-110234585D01*
G37*
G36*
X93615104Y-110234585D02*
G01*
X93783626Y-110304389D01*
X93935291Y-110405728D01*
X94064272Y-110534709D01*
X94165611Y-110686374D01*
X94235415Y-110854896D01*
X94271000Y-111033797D01*
X94271000Y-111216203D01*
X94235415Y-111395104D01*
X94165611Y-111563626D01*
X94064272Y-111715291D01*
X93935291Y-111844272D01*
X93783626Y-111945611D01*
X93615104Y-112015415D01*
X93436203Y-112051000D01*
X93253797Y-112051000D01*
X93074896Y-112015415D01*
X92906374Y-111945611D01*
X92754709Y-111844272D01*
X92625728Y-111715291D01*
X92524389Y-111563626D01*
X92454585Y-111395104D01*
X92419000Y-111216203D01*
X92419000Y-111033797D01*
X92454585Y-110854896D01*
X92524389Y-110686374D01*
X92625728Y-110534709D01*
X92754709Y-110405728D01*
X92906374Y-110304389D01*
X93074896Y-110234585D01*
X93253797Y-110199000D01*
X93436203Y-110199000D01*
X93615104Y-110234585D01*
G37*
G36*
X150765104Y-110234585D02*
G01*
X150933626Y-110304389D01*
X151085291Y-110405728D01*
X151214272Y-110534709D01*
X151315611Y-110686374D01*
X151385415Y-110854896D01*
X151421000Y-111033797D01*
X151421000Y-111216203D01*
X151385415Y-111395104D01*
X151315611Y-111563626D01*
X151214272Y-111715291D01*
X151085291Y-111844272D01*
X150933626Y-111945611D01*
X150765104Y-112015415D01*
X150586203Y-112051000D01*
X150403797Y-112051000D01*
X150224896Y-112015415D01*
X150056374Y-111945611D01*
X149904709Y-111844272D01*
X149775728Y-111715291D01*
X149674389Y-111563626D01*
X149604585Y-111395104D01*
X149569000Y-111216203D01*
X149569000Y-111033797D01*
X149604585Y-110854896D01*
X149674389Y-110686374D01*
X149775728Y-110534709D01*
X149904709Y-110405728D01*
X150056374Y-110304389D01*
X150224896Y-110234585D01*
X150403797Y-110199000D01*
X150586203Y-110199000D01*
X150765104Y-110234585D01*
G37*
G36*
X84725104Y-110234585D02*
G01*
X84893626Y-110304389D01*
X85045291Y-110405728D01*
X85174272Y-110534709D01*
X85275611Y-110686374D01*
X85345415Y-110854896D01*
X85381000Y-111033797D01*
X85381000Y-111216203D01*
X85345415Y-111395104D01*
X85275611Y-111563626D01*
X85174272Y-111715291D01*
X85045291Y-111844272D01*
X84893626Y-111945611D01*
X84725104Y-112015415D01*
X84546203Y-112051000D01*
X84363797Y-112051000D01*
X84184896Y-112015415D01*
X84016374Y-111945611D01*
X83864709Y-111844272D01*
X83735728Y-111715291D01*
X83634389Y-111563626D01*
X83564585Y-111395104D01*
X83529000Y-111216203D01*
X83529000Y-111033797D01*
X83564585Y-110854896D01*
X83634389Y-110686374D01*
X83735728Y-110534709D01*
X83864709Y-110405728D01*
X84016374Y-110304389D01*
X84184896Y-110234585D01*
X84363797Y-110199000D01*
X84546203Y-110199000D01*
X84725104Y-110234585D01*
G37*
G36*
X131715104Y-110234585D02*
G01*
X131883626Y-110304389D01*
X132035291Y-110405728D01*
X132164272Y-110534709D01*
X132265611Y-110686374D01*
X132335415Y-110854896D01*
X132371000Y-111033797D01*
X132371000Y-111216203D01*
X132335415Y-111395104D01*
X132265611Y-111563626D01*
X132164272Y-111715291D01*
X132035291Y-111844272D01*
X131883626Y-111945611D01*
X131715104Y-112015415D01*
X131536203Y-112051000D01*
X131353797Y-112051000D01*
X131174896Y-112015415D01*
X131006374Y-111945611D01*
X130854709Y-111844272D01*
X130725728Y-111715291D01*
X130624389Y-111563626D01*
X130554585Y-111395104D01*
X130519000Y-111216203D01*
X130519000Y-111033797D01*
X130554585Y-110854896D01*
X130624389Y-110686374D01*
X130725728Y-110534709D01*
X130854709Y-110405728D01*
X131006374Y-110304389D01*
X131174896Y-110234585D01*
X131353797Y-110199000D01*
X131536203Y-110199000D01*
X131715104Y-110234585D01*
G37*
G36*
X141875104Y-110234585D02*
G01*
X142043626Y-110304389D01*
X142195291Y-110405728D01*
X142324272Y-110534709D01*
X142425611Y-110686374D01*
X142495415Y-110854896D01*
X142531000Y-111033797D01*
X142531000Y-111216203D01*
X142495415Y-111395104D01*
X142425611Y-111563626D01*
X142324272Y-111715291D01*
X142195291Y-111844272D01*
X142043626Y-111945611D01*
X141875104Y-112015415D01*
X141696203Y-112051000D01*
X141513797Y-112051000D01*
X141334896Y-112015415D01*
X141166374Y-111945611D01*
X141014709Y-111844272D01*
X140885728Y-111715291D01*
X140784389Y-111563626D01*
X140714585Y-111395104D01*
X140679000Y-111216203D01*
X140679000Y-111033797D01*
X140714585Y-110854896D01*
X140784389Y-110686374D01*
X140885728Y-110534709D01*
X141014709Y-110405728D01*
X141166374Y-110304389D01*
X141334896Y-110234585D01*
X141513797Y-110199000D01*
X141696203Y-110199000D01*
X141875104Y-110234585D01*
G37*
G36*
X74565104Y-110234585D02*
G01*
X74733626Y-110304389D01*
X74885291Y-110405728D01*
X75014272Y-110534709D01*
X75115611Y-110686374D01*
X75185415Y-110854896D01*
X75221000Y-111033797D01*
X75221000Y-111216203D01*
X75185415Y-111395104D01*
X75115611Y-111563626D01*
X75014272Y-111715291D01*
X74885291Y-111844272D01*
X74733626Y-111945611D01*
X74565104Y-112015415D01*
X74386203Y-112051000D01*
X74203797Y-112051000D01*
X74024896Y-112015415D01*
X73856374Y-111945611D01*
X73704709Y-111844272D01*
X73575728Y-111715291D01*
X73474389Y-111563626D01*
X73404585Y-111395104D01*
X73369000Y-111216203D01*
X73369000Y-111033797D01*
X73404585Y-110854896D01*
X73474389Y-110686374D01*
X73575728Y-110534709D01*
X73704709Y-110405728D01*
X73856374Y-110304389D01*
X74024896Y-110234585D01*
X74203797Y-110199000D01*
X74386203Y-110199000D01*
X74565104Y-110234585D01*
G37*
G36*
X112665104Y-110234585D02*
G01*
X112833626Y-110304389D01*
X112985291Y-110405728D01*
X113114272Y-110534709D01*
X113215611Y-110686374D01*
X113285415Y-110854896D01*
X113321000Y-111033797D01*
X113321000Y-111216203D01*
X113285415Y-111395104D01*
X113215611Y-111563626D01*
X113114272Y-111715291D01*
X112985291Y-111844272D01*
X112833626Y-111945611D01*
X112665104Y-112015415D01*
X112486203Y-112051000D01*
X112303797Y-112051000D01*
X112124896Y-112015415D01*
X111956374Y-111945611D01*
X111804709Y-111844272D01*
X111675728Y-111715291D01*
X111574389Y-111563626D01*
X111504585Y-111395104D01*
X111469000Y-111216203D01*
X111469000Y-111033797D01*
X111504585Y-110854896D01*
X111574389Y-110686374D01*
X111675728Y-110534709D01*
X111804709Y-110405728D01*
X111956374Y-110304389D01*
X112124896Y-110234585D01*
X112303797Y-110199000D01*
X112486203Y-110199000D01*
X112665104Y-110234585D01*
G37*
G36*
X175221474Y-90108684D02*
G01*
X175439474Y-90198983D01*
X175593623Y-90262833D01*
X175928548Y-90486623D01*
X176213377Y-90771452D01*
X176437167Y-91106377D01*
X176469562Y-91184586D01*
X176591316Y-91478526D01*
X176669900Y-91873594D01*
X176669900Y-92276406D01*
X176591316Y-92671474D01*
X176540451Y-92794272D01*
X176437167Y-93043623D01*
X176213377Y-93378548D01*
X175928548Y-93663377D01*
X175593623Y-93887167D01*
X175439474Y-93951017D01*
X175221474Y-94041316D01*
X174826406Y-94119900D01*
X174423594Y-94119900D01*
X174028526Y-94041316D01*
X173810526Y-93951017D01*
X173656377Y-93887167D01*
X173321452Y-93663377D01*
X173036623Y-93378548D01*
X172812833Y-93043623D01*
X172709549Y-92794272D01*
X172658684Y-92671474D01*
X172580100Y-92276406D01*
X172580100Y-91873594D01*
X172658684Y-91478526D01*
X172780438Y-91184586D01*
X172812833Y-91106377D01*
X173036623Y-90771452D01*
X173321452Y-90486623D01*
X173656377Y-90262833D01*
X173810526Y-90198983D01*
X174028526Y-90108684D01*
X174423594Y-90030100D01*
X174826406Y-90030100D01*
X175221474Y-90108684D01*
G37*
G36*
X232371474Y-90108684D02*
G01*
X232589474Y-90198983D01*
X232743623Y-90262833D01*
X233078548Y-90486623D01*
X233363377Y-90771452D01*
X233587167Y-91106377D01*
X233619562Y-91184586D01*
X233741316Y-91478526D01*
X233819900Y-91873594D01*
X233819900Y-92276406D01*
X233741316Y-92671474D01*
X233690451Y-92794272D01*
X233587167Y-93043623D01*
X233363377Y-93378548D01*
X233078548Y-93663377D01*
X232743623Y-93887167D01*
X232589474Y-93951017D01*
X232371474Y-94041316D01*
X231976406Y-94119900D01*
X231573594Y-94119900D01*
X231178526Y-94041316D01*
X230960526Y-93951017D01*
X230806377Y-93887167D01*
X230471452Y-93663377D01*
X230186623Y-93378548D01*
X229962833Y-93043623D01*
X229859549Y-92794272D01*
X229808684Y-92671474D01*
X229730100Y-92276406D01*
X229730100Y-91873594D01*
X229808684Y-91478526D01*
X229930438Y-91184586D01*
X229962833Y-91106377D01*
X230186623Y-90771452D01*
X230471452Y-90486623D01*
X230806377Y-90262833D01*
X230960526Y-90198983D01*
X231178526Y-90108684D01*
X231573594Y-90030100D01*
X231976406Y-90030100D01*
X232371474Y-90108684D01*
G37*
G36*
X213321474Y-90108684D02*
G01*
X213539474Y-90198983D01*
X213693623Y-90262833D01*
X214028548Y-90486623D01*
X214313377Y-90771452D01*
X214537167Y-91106377D01*
X214569562Y-91184586D01*
X214691316Y-91478526D01*
X214769900Y-91873594D01*
X214769900Y-92276406D01*
X214691316Y-92671474D01*
X214640451Y-92794272D01*
X214537167Y-93043623D01*
X214313377Y-93378548D01*
X214028548Y-93663377D01*
X213693623Y-93887167D01*
X213539474Y-93951017D01*
X213321474Y-94041316D01*
X212926406Y-94119900D01*
X212523594Y-94119900D01*
X212128526Y-94041316D01*
X211910526Y-93951017D01*
X211756377Y-93887167D01*
X211421452Y-93663377D01*
X211136623Y-93378548D01*
X210912833Y-93043623D01*
X210809549Y-92794272D01*
X210758684Y-92671474D01*
X210680100Y-92276406D01*
X210680100Y-91873594D01*
X210758684Y-91478526D01*
X210880438Y-91184586D01*
X210912833Y-91106377D01*
X211136623Y-90771452D01*
X211421452Y-90486623D01*
X211756377Y-90262833D01*
X211910526Y-90198983D01*
X212128526Y-90108684D01*
X212523594Y-90030100D01*
X212926406Y-90030100D01*
X213321474Y-90108684D01*
G37*
G36*
X251421474Y-90108684D02*
G01*
X251639474Y-90198983D01*
X251793623Y-90262833D01*
X252128548Y-90486623D01*
X252413377Y-90771452D01*
X252637167Y-91106377D01*
X252669562Y-91184586D01*
X252791316Y-91478526D01*
X252869900Y-91873594D01*
X252869900Y-92276406D01*
X252791316Y-92671474D01*
X252740451Y-92794272D01*
X252637167Y-93043623D01*
X252413377Y-93378548D01*
X252128548Y-93663377D01*
X251793623Y-93887167D01*
X251639474Y-93951017D01*
X251421474Y-94041316D01*
X251026406Y-94119900D01*
X250623594Y-94119900D01*
X250228526Y-94041316D01*
X250010526Y-93951017D01*
X249856377Y-93887167D01*
X249521452Y-93663377D01*
X249236623Y-93378548D01*
X249012833Y-93043623D01*
X248909549Y-92794272D01*
X248858684Y-92671474D01*
X248780100Y-92276406D01*
X248780100Y-91873594D01*
X248858684Y-91478526D01*
X248980438Y-91184586D01*
X249012833Y-91106377D01*
X249236623Y-90771452D01*
X249521452Y-90486623D01*
X249856377Y-90262833D01*
X250010526Y-90198983D01*
X250228526Y-90108684D01*
X250623594Y-90030100D01*
X251026406Y-90030100D01*
X251421474Y-90108684D01*
G37*
G36*
X137121474Y-90108684D02*
G01*
X137339474Y-90198983D01*
X137493623Y-90262833D01*
X137828548Y-90486623D01*
X138113377Y-90771452D01*
X138337167Y-91106377D01*
X138369562Y-91184586D01*
X138491316Y-91478526D01*
X138569900Y-91873594D01*
X138569900Y-92276406D01*
X138491316Y-92671474D01*
X138440451Y-92794272D01*
X138337167Y-93043623D01*
X138113377Y-93378548D01*
X137828548Y-93663377D01*
X137493623Y-93887167D01*
X137339474Y-93951017D01*
X137121474Y-94041316D01*
X136726406Y-94119900D01*
X136323594Y-94119900D01*
X135928526Y-94041316D01*
X135710526Y-93951017D01*
X135556377Y-93887167D01*
X135221452Y-93663377D01*
X134936623Y-93378548D01*
X134712833Y-93043623D01*
X134609549Y-92794272D01*
X134558684Y-92671474D01*
X134480100Y-92276406D01*
X134480100Y-91873594D01*
X134558684Y-91478526D01*
X134680438Y-91184586D01*
X134712833Y-91106377D01*
X134936623Y-90771452D01*
X135221452Y-90486623D01*
X135556377Y-90262833D01*
X135710526Y-90198983D01*
X135928526Y-90108684D01*
X136323594Y-90030100D01*
X136726406Y-90030100D01*
X137121474Y-90108684D01*
G37*
G36*
X156171474Y-90108684D02*
G01*
X156389474Y-90198983D01*
X156543623Y-90262833D01*
X156878548Y-90486623D01*
X157163377Y-90771452D01*
X157387167Y-91106377D01*
X157419562Y-91184586D01*
X157541316Y-91478526D01*
X157619900Y-91873594D01*
X157619900Y-92276406D01*
X157541316Y-92671474D01*
X157490451Y-92794272D01*
X157387167Y-93043623D01*
X157163377Y-93378548D01*
X156878548Y-93663377D01*
X156543623Y-93887167D01*
X156389474Y-93951017D01*
X156171474Y-94041316D01*
X155776406Y-94119900D01*
X155373594Y-94119900D01*
X154978526Y-94041316D01*
X154760526Y-93951017D01*
X154606377Y-93887167D01*
X154271452Y-93663377D01*
X153986623Y-93378548D01*
X153762833Y-93043623D01*
X153659549Y-92794272D01*
X153608684Y-92671474D01*
X153530100Y-92276406D01*
X153530100Y-91873594D01*
X153608684Y-91478526D01*
X153730438Y-91184586D01*
X153762833Y-91106377D01*
X153986623Y-90771452D01*
X154271452Y-90486623D01*
X154606377Y-90262833D01*
X154760526Y-90198983D01*
X154978526Y-90108684D01*
X155373594Y-90030100D01*
X155776406Y-90030100D01*
X156171474Y-90108684D01*
G37*
G36*
X194271474Y-90108684D02*
G01*
X194489474Y-90198983D01*
X194643623Y-90262833D01*
X194978548Y-90486623D01*
X195263377Y-90771452D01*
X195487167Y-91106377D01*
X195519562Y-91184586D01*
X195641316Y-91478526D01*
X195719900Y-91873594D01*
X195719900Y-92276406D01*
X195641316Y-92671474D01*
X195590451Y-92794272D01*
X195487167Y-93043623D01*
X195263377Y-93378548D01*
X194978548Y-93663377D01*
X194643623Y-93887167D01*
X194489474Y-93951017D01*
X194271474Y-94041316D01*
X193876406Y-94119900D01*
X193473594Y-94119900D01*
X193078526Y-94041316D01*
X192860526Y-93951017D01*
X192706377Y-93887167D01*
X192371452Y-93663377D01*
X192086623Y-93378548D01*
X191862833Y-93043623D01*
X191759549Y-92794272D01*
X191708684Y-92671474D01*
X191630100Y-92276406D01*
X191630100Y-91873594D01*
X191708684Y-91478526D01*
X191830438Y-91184586D01*
X191862833Y-91106377D01*
X192086623Y-90771452D01*
X192371452Y-90486623D01*
X192706377Y-90262833D01*
X192860526Y-90198983D01*
X193078526Y-90108684D01*
X193473594Y-90030100D01*
X193876406Y-90030100D01*
X194271474Y-90108684D01*
G37*
G36*
X41871474Y-90108684D02*
G01*
X42089474Y-90198983D01*
X42243623Y-90262833D01*
X42578548Y-90486623D01*
X42863377Y-90771452D01*
X43087167Y-91106377D01*
X43119562Y-91184586D01*
X43241316Y-91478526D01*
X43319900Y-91873594D01*
X43319900Y-92276406D01*
X43241316Y-92671474D01*
X43190451Y-92794272D01*
X43087167Y-93043623D01*
X42863377Y-93378548D01*
X42578548Y-93663377D01*
X42243623Y-93887167D01*
X42089474Y-93951017D01*
X41871474Y-94041316D01*
X41476406Y-94119900D01*
X41073594Y-94119900D01*
X40678526Y-94041316D01*
X40460526Y-93951017D01*
X40306377Y-93887167D01*
X39971452Y-93663377D01*
X39686623Y-93378548D01*
X39462833Y-93043623D01*
X39359549Y-92794272D01*
X39308684Y-92671474D01*
X39230100Y-92276406D01*
X39230100Y-91873594D01*
X39308684Y-91478526D01*
X39430438Y-91184586D01*
X39462833Y-91106377D01*
X39686623Y-90771452D01*
X39971452Y-90486623D01*
X40306377Y-90262833D01*
X40460526Y-90198983D01*
X40678526Y-90108684D01*
X41073594Y-90030100D01*
X41476406Y-90030100D01*
X41871474Y-90108684D01*
G37*
G36*
X60921474Y-90108684D02*
G01*
X61139474Y-90198983D01*
X61293623Y-90262833D01*
X61628548Y-90486623D01*
X61913377Y-90771452D01*
X62137167Y-91106377D01*
X62169562Y-91184586D01*
X62291316Y-91478526D01*
X62369900Y-91873594D01*
X62369900Y-92276406D01*
X62291316Y-92671474D01*
X62240451Y-92794272D01*
X62137167Y-93043623D01*
X61913377Y-93378548D01*
X61628548Y-93663377D01*
X61293623Y-93887167D01*
X61139474Y-93951017D01*
X60921474Y-94041316D01*
X60526406Y-94119900D01*
X60123594Y-94119900D01*
X59728526Y-94041316D01*
X59510526Y-93951017D01*
X59356377Y-93887167D01*
X59021452Y-93663377D01*
X58736623Y-93378548D01*
X58512833Y-93043623D01*
X58409549Y-92794272D01*
X58358684Y-92671474D01*
X58280100Y-92276406D01*
X58280100Y-91873594D01*
X58358684Y-91478526D01*
X58480438Y-91184586D01*
X58512833Y-91106377D01*
X58736623Y-90771452D01*
X59021452Y-90486623D01*
X59356377Y-90262833D01*
X59510526Y-90198983D01*
X59728526Y-90108684D01*
X60123594Y-90030100D01*
X60526406Y-90030100D01*
X60921474Y-90108684D01*
G37*
G36*
X79971474Y-90108684D02*
G01*
X80189474Y-90198983D01*
X80343623Y-90262833D01*
X80678548Y-90486623D01*
X80963377Y-90771452D01*
X81187167Y-91106377D01*
X81219562Y-91184586D01*
X81341316Y-91478526D01*
X81419900Y-91873594D01*
X81419900Y-92276406D01*
X81341316Y-92671474D01*
X81290451Y-92794272D01*
X81187167Y-93043623D01*
X80963377Y-93378548D01*
X80678548Y-93663377D01*
X80343623Y-93887167D01*
X80189474Y-93951017D01*
X79971474Y-94041316D01*
X79576406Y-94119900D01*
X79173594Y-94119900D01*
X78778526Y-94041316D01*
X78560526Y-93951017D01*
X78406377Y-93887167D01*
X78071452Y-93663377D01*
X77786623Y-93378548D01*
X77562833Y-93043623D01*
X77459549Y-92794272D01*
X77408684Y-92671474D01*
X77330100Y-92276406D01*
X77330100Y-91873594D01*
X77408684Y-91478526D01*
X77530438Y-91184586D01*
X77562833Y-91106377D01*
X77786623Y-90771452D01*
X78071452Y-90486623D01*
X78406377Y-90262833D01*
X78560526Y-90198983D01*
X78778526Y-90108684D01*
X79173594Y-90030100D01*
X79576406Y-90030100D01*
X79971474Y-90108684D01*
G37*
G36*
X118071474Y-90108684D02*
G01*
X118289474Y-90198983D01*
X118443623Y-90262833D01*
X118778548Y-90486623D01*
X119063377Y-90771452D01*
X119287167Y-91106377D01*
X119319562Y-91184586D01*
X119441316Y-91478526D01*
X119519900Y-91873594D01*
X119519900Y-92276406D01*
X119441316Y-92671474D01*
X119390451Y-92794272D01*
X119287167Y-93043623D01*
X119063377Y-93378548D01*
X118778548Y-93663377D01*
X118443623Y-93887167D01*
X118289474Y-93951017D01*
X118071474Y-94041316D01*
X117676406Y-94119900D01*
X117273594Y-94119900D01*
X116878526Y-94041316D01*
X116660526Y-93951017D01*
X116506377Y-93887167D01*
X116171452Y-93663377D01*
X115886623Y-93378548D01*
X115662833Y-93043623D01*
X115559549Y-92794272D01*
X115508684Y-92671474D01*
X115430100Y-92276406D01*
X115430100Y-91873594D01*
X115508684Y-91478526D01*
X115630438Y-91184586D01*
X115662833Y-91106377D01*
X115886623Y-90771452D01*
X116171452Y-90486623D01*
X116506377Y-90262833D01*
X116660526Y-90198983D01*
X116878526Y-90108684D01*
X117273594Y-90030100D01*
X117676406Y-90030100D01*
X118071474Y-90108684D01*
G37*
G36*
X99021474Y-90108684D02*
G01*
X99239474Y-90198983D01*
X99393623Y-90262833D01*
X99728548Y-90486623D01*
X100013377Y-90771452D01*
X100237167Y-91106377D01*
X100269562Y-91184586D01*
X100391316Y-91478526D01*
X100469900Y-91873594D01*
X100469900Y-92276406D01*
X100391316Y-92671474D01*
X100340451Y-92794272D01*
X100237167Y-93043623D01*
X100013377Y-93378548D01*
X99728548Y-93663377D01*
X99393623Y-93887167D01*
X99239474Y-93951017D01*
X99021474Y-94041316D01*
X98626406Y-94119900D01*
X98223594Y-94119900D01*
X97828526Y-94041316D01*
X97610526Y-93951017D01*
X97456377Y-93887167D01*
X97121452Y-93663377D01*
X96836623Y-93378548D01*
X96612833Y-93043623D01*
X96509549Y-92794272D01*
X96458684Y-92671474D01*
X96380100Y-92276406D01*
X96380100Y-91873594D01*
X96458684Y-91478526D01*
X96580438Y-91184586D01*
X96612833Y-91106377D01*
X96836623Y-90771452D01*
X97121452Y-90486623D01*
X97456377Y-90262833D01*
X97610526Y-90198983D01*
X97828526Y-90108684D01*
X98223594Y-90030100D01*
X98626406Y-90030100D01*
X99021474Y-90108684D01*
G37*
G36*
X36465104Y-91184585D02*
G01*
X36633626Y-91254389D01*
X36785291Y-91355728D01*
X36914272Y-91484709D01*
X37015611Y-91636374D01*
X37085415Y-91804896D01*
X37121000Y-91983797D01*
X37121000Y-92166203D01*
X37085415Y-92345104D01*
X37015611Y-92513626D01*
X36914272Y-92665291D01*
X36785291Y-92794272D01*
X36633626Y-92895611D01*
X36465104Y-92965415D01*
X36286203Y-93001000D01*
X36103797Y-93001000D01*
X35924896Y-92965415D01*
X35756374Y-92895611D01*
X35604709Y-92794272D01*
X35475728Y-92665291D01*
X35374389Y-92513626D01*
X35304585Y-92345104D01*
X35269000Y-92166203D01*
X35269000Y-91983797D01*
X35304585Y-91804896D01*
X35374389Y-91636374D01*
X35475728Y-91484709D01*
X35604709Y-91355728D01*
X35756374Y-91254389D01*
X35924896Y-91184585D01*
X36103797Y-91149000D01*
X36286203Y-91149000D01*
X36465104Y-91184585D01*
G37*
G36*
X256175104Y-91184585D02*
G01*
X256343626Y-91254389D01*
X256495291Y-91355728D01*
X256624272Y-91484709D01*
X256725611Y-91636374D01*
X256795415Y-91804896D01*
X256831000Y-91983797D01*
X256831000Y-92166203D01*
X256795415Y-92345104D01*
X256725611Y-92513626D01*
X256624272Y-92665291D01*
X256495291Y-92794272D01*
X256343626Y-92895611D01*
X256175104Y-92965415D01*
X255996203Y-93001000D01*
X255813797Y-93001000D01*
X255634896Y-92965415D01*
X255466374Y-92895611D01*
X255314709Y-92794272D01*
X255185728Y-92665291D01*
X255084389Y-92513626D01*
X255014585Y-92345104D01*
X254979000Y-92166203D01*
X254979000Y-91983797D01*
X255014585Y-91804896D01*
X255084389Y-91636374D01*
X255185728Y-91484709D01*
X255314709Y-91355728D01*
X255466374Y-91254389D01*
X255634896Y-91184585D01*
X255813797Y-91149000D01*
X255996203Y-91149000D01*
X256175104Y-91184585D01*
G37*
G36*
X237125104Y-91184585D02*
G01*
X237293626Y-91254389D01*
X237445291Y-91355728D01*
X237574272Y-91484709D01*
X237675611Y-91636374D01*
X237745415Y-91804896D01*
X237781000Y-91983797D01*
X237781000Y-92166203D01*
X237745415Y-92345104D01*
X237675611Y-92513626D01*
X237574272Y-92665291D01*
X237445291Y-92794272D01*
X237293626Y-92895611D01*
X237125104Y-92965415D01*
X236946203Y-93001000D01*
X236763797Y-93001000D01*
X236584896Y-92965415D01*
X236416374Y-92895611D01*
X236264709Y-92794272D01*
X236135728Y-92665291D01*
X236034389Y-92513626D01*
X235964585Y-92345104D01*
X235929000Y-92166203D01*
X235929000Y-91983797D01*
X235964585Y-91804896D01*
X236034389Y-91636374D01*
X236135728Y-91484709D01*
X236264709Y-91355728D01*
X236416374Y-91254389D01*
X236584896Y-91184585D01*
X236763797Y-91149000D01*
X236946203Y-91149000D01*
X237125104Y-91184585D01*
G37*
G36*
X226965104Y-91184585D02*
G01*
X227133626Y-91254389D01*
X227285291Y-91355728D01*
X227414272Y-91484709D01*
X227515611Y-91636374D01*
X227585415Y-91804896D01*
X227621000Y-91983797D01*
X227621000Y-92166203D01*
X227585415Y-92345104D01*
X227515611Y-92513626D01*
X227414272Y-92665291D01*
X227285291Y-92794272D01*
X227133626Y-92895611D01*
X226965104Y-92965415D01*
X226786203Y-93001000D01*
X226603797Y-93001000D01*
X226424896Y-92965415D01*
X226256374Y-92895611D01*
X226104709Y-92794272D01*
X225975728Y-92665291D01*
X225874389Y-92513626D01*
X225804585Y-92345104D01*
X225769000Y-92166203D01*
X225769000Y-91983797D01*
X225804585Y-91804896D01*
X225874389Y-91636374D01*
X225975728Y-91484709D01*
X226104709Y-91355728D01*
X226256374Y-91254389D01*
X226424896Y-91184585D01*
X226603797Y-91149000D01*
X226786203Y-91149000D01*
X226965104Y-91184585D01*
G37*
G36*
X218075104Y-91184585D02*
G01*
X218243626Y-91254389D01*
X218395291Y-91355728D01*
X218524272Y-91484709D01*
X218625611Y-91636374D01*
X218695415Y-91804896D01*
X218731000Y-91983797D01*
X218731000Y-92166203D01*
X218695415Y-92345104D01*
X218625611Y-92513626D01*
X218524272Y-92665291D01*
X218395291Y-92794272D01*
X218243626Y-92895611D01*
X218075104Y-92965415D01*
X217896203Y-93001000D01*
X217713797Y-93001000D01*
X217534896Y-92965415D01*
X217366374Y-92895611D01*
X217214709Y-92794272D01*
X217085728Y-92665291D01*
X216984389Y-92513626D01*
X216914585Y-92345104D01*
X216879000Y-92166203D01*
X216879000Y-91983797D01*
X216914585Y-91804896D01*
X216984389Y-91636374D01*
X217085728Y-91484709D01*
X217214709Y-91355728D01*
X217366374Y-91254389D01*
X217534896Y-91184585D01*
X217713797Y-91149000D01*
X217896203Y-91149000D01*
X218075104Y-91184585D01*
G37*
G36*
X207915104Y-91184585D02*
G01*
X208083626Y-91254389D01*
X208235291Y-91355728D01*
X208364272Y-91484709D01*
X208465611Y-91636374D01*
X208535415Y-91804896D01*
X208571000Y-91983797D01*
X208571000Y-92166203D01*
X208535415Y-92345104D01*
X208465611Y-92513626D01*
X208364272Y-92665291D01*
X208235291Y-92794272D01*
X208083626Y-92895611D01*
X207915104Y-92965415D01*
X207736203Y-93001000D01*
X207553797Y-93001000D01*
X207374896Y-92965415D01*
X207206374Y-92895611D01*
X207054709Y-92794272D01*
X206925728Y-92665291D01*
X206824389Y-92513626D01*
X206754585Y-92345104D01*
X206719000Y-92166203D01*
X206719000Y-91983797D01*
X206754585Y-91804896D01*
X206824389Y-91636374D01*
X206925728Y-91484709D01*
X207054709Y-91355728D01*
X207206374Y-91254389D01*
X207374896Y-91184585D01*
X207553797Y-91149000D01*
X207736203Y-91149000D01*
X207915104Y-91184585D01*
G37*
G36*
X131715104Y-91184585D02*
G01*
X131883626Y-91254389D01*
X132035291Y-91355728D01*
X132164272Y-91484709D01*
X132265611Y-91636374D01*
X132335415Y-91804896D01*
X132371000Y-91983797D01*
X132371000Y-92166203D01*
X132335415Y-92345104D01*
X132265611Y-92513626D01*
X132164272Y-92665291D01*
X132035291Y-92794272D01*
X131883626Y-92895611D01*
X131715104Y-92965415D01*
X131536203Y-93001000D01*
X131353797Y-93001000D01*
X131174896Y-92965415D01*
X131006374Y-92895611D01*
X130854709Y-92794272D01*
X130725728Y-92665291D01*
X130624389Y-92513626D01*
X130554585Y-92345104D01*
X130519000Y-92166203D01*
X130519000Y-91983797D01*
X130554585Y-91804896D01*
X130624389Y-91636374D01*
X130725728Y-91484709D01*
X130854709Y-91355728D01*
X131006374Y-91254389D01*
X131174896Y-91184585D01*
X131353797Y-91149000D01*
X131536203Y-91149000D01*
X131715104Y-91184585D01*
G37*
G36*
X199025104Y-91184585D02*
G01*
X199193626Y-91254389D01*
X199345291Y-91355728D01*
X199474272Y-91484709D01*
X199575611Y-91636374D01*
X199645415Y-91804896D01*
X199681000Y-91983797D01*
X199681000Y-92166203D01*
X199645415Y-92345104D01*
X199575611Y-92513626D01*
X199474272Y-92665291D01*
X199345291Y-92794272D01*
X199193626Y-92895611D01*
X199025104Y-92965415D01*
X198846203Y-93001000D01*
X198663797Y-93001000D01*
X198484896Y-92965415D01*
X198316374Y-92895611D01*
X198164709Y-92794272D01*
X198035728Y-92665291D01*
X197934389Y-92513626D01*
X197864585Y-92345104D01*
X197829000Y-92166203D01*
X197829000Y-91983797D01*
X197864585Y-91804896D01*
X197934389Y-91636374D01*
X198035728Y-91484709D01*
X198164709Y-91355728D01*
X198316374Y-91254389D01*
X198484896Y-91184585D01*
X198663797Y-91149000D01*
X198846203Y-91149000D01*
X199025104Y-91184585D01*
G37*
G36*
X169815104Y-91184585D02*
G01*
X169983626Y-91254389D01*
X170135291Y-91355728D01*
X170264272Y-91484709D01*
X170365611Y-91636374D01*
X170435415Y-91804896D01*
X170471000Y-91983797D01*
X170471000Y-92166203D01*
X170435415Y-92345104D01*
X170365611Y-92513626D01*
X170264272Y-92665291D01*
X170135291Y-92794272D01*
X169983626Y-92895611D01*
X169815104Y-92965415D01*
X169636203Y-93001000D01*
X169453797Y-93001000D01*
X169274896Y-92965415D01*
X169106374Y-92895611D01*
X168954709Y-92794272D01*
X168825728Y-92665291D01*
X168724389Y-92513626D01*
X168654585Y-92345104D01*
X168619000Y-92166203D01*
X168619000Y-91983797D01*
X168654585Y-91804896D01*
X168724389Y-91636374D01*
X168825728Y-91484709D01*
X168954709Y-91355728D01*
X169106374Y-91254389D01*
X169274896Y-91184585D01*
X169453797Y-91149000D01*
X169636203Y-91149000D01*
X169815104Y-91184585D01*
G37*
G36*
X179975104Y-91184585D02*
G01*
X180143626Y-91254389D01*
X180295291Y-91355728D01*
X180424272Y-91484709D01*
X180525611Y-91636374D01*
X180595415Y-91804896D01*
X180631000Y-91983797D01*
X180631000Y-92166203D01*
X180595415Y-92345104D01*
X180525611Y-92513626D01*
X180424272Y-92665291D01*
X180295291Y-92794272D01*
X180143626Y-92895611D01*
X179975104Y-92965415D01*
X179796203Y-93001000D01*
X179613797Y-93001000D01*
X179434896Y-92965415D01*
X179266374Y-92895611D01*
X179114709Y-92794272D01*
X178985728Y-92665291D01*
X178884389Y-92513626D01*
X178814585Y-92345104D01*
X178779000Y-92166203D01*
X178779000Y-91983797D01*
X178814585Y-91804896D01*
X178884389Y-91636374D01*
X178985728Y-91484709D01*
X179114709Y-91355728D01*
X179266374Y-91254389D01*
X179434896Y-91184585D01*
X179613797Y-91149000D01*
X179796203Y-91149000D01*
X179975104Y-91184585D01*
G37*
G36*
X150765104Y-91184585D02*
G01*
X150933626Y-91254389D01*
X151085291Y-91355728D01*
X151214272Y-91484709D01*
X151315611Y-91636374D01*
X151385415Y-91804896D01*
X151421000Y-91983797D01*
X151421000Y-92166203D01*
X151385415Y-92345104D01*
X151315611Y-92513626D01*
X151214272Y-92665291D01*
X151085291Y-92794272D01*
X150933626Y-92895611D01*
X150765104Y-92965415D01*
X150586203Y-93001000D01*
X150403797Y-93001000D01*
X150224896Y-92965415D01*
X150056374Y-92895611D01*
X149904709Y-92794272D01*
X149775728Y-92665291D01*
X149674389Y-92513626D01*
X149604585Y-92345104D01*
X149569000Y-92166203D01*
X149569000Y-91983797D01*
X149604585Y-91804896D01*
X149674389Y-91636374D01*
X149775728Y-91484709D01*
X149904709Y-91355728D01*
X150056374Y-91254389D01*
X150224896Y-91184585D01*
X150403797Y-91149000D01*
X150586203Y-91149000D01*
X150765104Y-91184585D01*
G37*
G36*
X160925104Y-91184585D02*
G01*
X161093626Y-91254389D01*
X161245291Y-91355728D01*
X161374272Y-91484709D01*
X161475611Y-91636374D01*
X161545415Y-91804896D01*
X161581000Y-91983797D01*
X161581000Y-92166203D01*
X161545415Y-92345104D01*
X161475611Y-92513626D01*
X161374272Y-92665291D01*
X161245291Y-92794272D01*
X161093626Y-92895611D01*
X160925104Y-92965415D01*
X160746203Y-93001000D01*
X160563797Y-93001000D01*
X160384896Y-92965415D01*
X160216374Y-92895611D01*
X160064709Y-92794272D01*
X159935728Y-92665291D01*
X159834389Y-92513626D01*
X159764585Y-92345104D01*
X159729000Y-92166203D01*
X159729000Y-91983797D01*
X159764585Y-91804896D01*
X159834389Y-91636374D01*
X159935728Y-91484709D01*
X160064709Y-91355728D01*
X160216374Y-91254389D01*
X160384896Y-91184585D01*
X160563797Y-91149000D01*
X160746203Y-91149000D01*
X160925104Y-91184585D01*
G37*
G36*
X55515104Y-91184585D02*
G01*
X55683626Y-91254389D01*
X55835291Y-91355728D01*
X55964272Y-91484709D01*
X56065611Y-91636374D01*
X56135415Y-91804896D01*
X56171000Y-91983797D01*
X56171000Y-92166203D01*
X56135415Y-92345104D01*
X56065611Y-92513626D01*
X55964272Y-92665291D01*
X55835291Y-92794272D01*
X55683626Y-92895611D01*
X55515104Y-92965415D01*
X55336203Y-93001000D01*
X55153797Y-93001000D01*
X54974896Y-92965415D01*
X54806374Y-92895611D01*
X54654709Y-92794272D01*
X54525728Y-92665291D01*
X54424389Y-92513626D01*
X54354585Y-92345104D01*
X54319000Y-92166203D01*
X54319000Y-91983797D01*
X54354585Y-91804896D01*
X54424389Y-91636374D01*
X54525728Y-91484709D01*
X54654709Y-91355728D01*
X54806374Y-91254389D01*
X54974896Y-91184585D01*
X55153797Y-91149000D01*
X55336203Y-91149000D01*
X55515104Y-91184585D01*
G37*
G36*
X141875104Y-91184585D02*
G01*
X142043626Y-91254389D01*
X142195291Y-91355728D01*
X142324272Y-91484709D01*
X142425611Y-91636374D01*
X142495415Y-91804896D01*
X142531000Y-91983797D01*
X142531000Y-92166203D01*
X142495415Y-92345104D01*
X142425611Y-92513626D01*
X142324272Y-92665291D01*
X142195291Y-92794272D01*
X142043626Y-92895611D01*
X141875104Y-92965415D01*
X141696203Y-93001000D01*
X141513797Y-93001000D01*
X141334896Y-92965415D01*
X141166374Y-92895611D01*
X141014709Y-92794272D01*
X140885728Y-92665291D01*
X140784389Y-92513626D01*
X140714585Y-92345104D01*
X140679000Y-92166203D01*
X140679000Y-91983797D01*
X140714585Y-91804896D01*
X140784389Y-91636374D01*
X140885728Y-91484709D01*
X141014709Y-91355728D01*
X141166374Y-91254389D01*
X141334896Y-91184585D01*
X141513797Y-91149000D01*
X141696203Y-91149000D01*
X141875104Y-91184585D01*
G37*
G36*
X46625104Y-91184585D02*
G01*
X46793626Y-91254389D01*
X46945291Y-91355728D01*
X47074272Y-91484709D01*
X47175611Y-91636374D01*
X47245415Y-91804896D01*
X47281000Y-91983797D01*
X47281000Y-92166203D01*
X47245415Y-92345104D01*
X47175611Y-92513626D01*
X47074272Y-92665291D01*
X46945291Y-92794272D01*
X46793626Y-92895611D01*
X46625104Y-92965415D01*
X46446203Y-93001000D01*
X46263797Y-93001000D01*
X46084896Y-92965415D01*
X45916374Y-92895611D01*
X45764709Y-92794272D01*
X45635728Y-92665291D01*
X45534389Y-92513626D01*
X45464585Y-92345104D01*
X45429000Y-92166203D01*
X45429000Y-91983797D01*
X45464585Y-91804896D01*
X45534389Y-91636374D01*
X45635728Y-91484709D01*
X45764709Y-91355728D01*
X45916374Y-91254389D01*
X46084896Y-91184585D01*
X46263797Y-91149000D01*
X46446203Y-91149000D01*
X46625104Y-91184585D01*
G37*
G36*
X112665104Y-91184585D02*
G01*
X112833626Y-91254389D01*
X112985291Y-91355728D01*
X113114272Y-91484709D01*
X113215611Y-91636374D01*
X113285415Y-91804896D01*
X113321000Y-91983797D01*
X113321000Y-92166203D01*
X113285415Y-92345104D01*
X113215611Y-92513626D01*
X113114272Y-92665291D01*
X112985291Y-92794272D01*
X112833626Y-92895611D01*
X112665104Y-92965415D01*
X112486203Y-93001000D01*
X112303797Y-93001000D01*
X112124896Y-92965415D01*
X111956374Y-92895611D01*
X111804709Y-92794272D01*
X111675728Y-92665291D01*
X111574389Y-92513626D01*
X111504585Y-92345104D01*
X111469000Y-92166203D01*
X111469000Y-91983797D01*
X111504585Y-91804896D01*
X111574389Y-91636374D01*
X111675728Y-91484709D01*
X111804709Y-91355728D01*
X111956374Y-91254389D01*
X112124896Y-91184585D01*
X112303797Y-91149000D01*
X112486203Y-91149000D01*
X112665104Y-91184585D01*
G37*
G36*
X122825104Y-91184585D02*
G01*
X122993626Y-91254389D01*
X123145291Y-91355728D01*
X123274272Y-91484709D01*
X123375611Y-91636374D01*
X123445415Y-91804896D01*
X123481000Y-91983797D01*
X123481000Y-92166203D01*
X123445415Y-92345104D01*
X123375611Y-92513626D01*
X123274272Y-92665291D01*
X123145291Y-92794272D01*
X122993626Y-92895611D01*
X122825104Y-92965415D01*
X122646203Y-93001000D01*
X122463797Y-93001000D01*
X122284896Y-92965415D01*
X122116374Y-92895611D01*
X121964709Y-92794272D01*
X121835728Y-92665291D01*
X121734389Y-92513626D01*
X121664585Y-92345104D01*
X121629000Y-92166203D01*
X121629000Y-91983797D01*
X121664585Y-91804896D01*
X121734389Y-91636374D01*
X121835728Y-91484709D01*
X121964709Y-91355728D01*
X122116374Y-91254389D01*
X122284896Y-91184585D01*
X122463797Y-91149000D01*
X122646203Y-91149000D01*
X122825104Y-91184585D01*
G37*
G36*
X93615104Y-91184585D02*
G01*
X93783626Y-91254389D01*
X93935291Y-91355728D01*
X94064272Y-91484709D01*
X94165611Y-91636374D01*
X94235415Y-91804896D01*
X94271000Y-91983797D01*
X94271000Y-92166203D01*
X94235415Y-92345104D01*
X94165611Y-92513626D01*
X94064272Y-92665291D01*
X93935291Y-92794272D01*
X93783626Y-92895611D01*
X93615104Y-92965415D01*
X93436203Y-93001000D01*
X93253797Y-93001000D01*
X93074896Y-92965415D01*
X92906374Y-92895611D01*
X92754709Y-92794272D01*
X92625728Y-92665291D01*
X92524389Y-92513626D01*
X92454585Y-92345104D01*
X92419000Y-92166203D01*
X92419000Y-91983797D01*
X92454585Y-91804896D01*
X92524389Y-91636374D01*
X92625728Y-91484709D01*
X92754709Y-91355728D01*
X92906374Y-91254389D01*
X93074896Y-91184585D01*
X93253797Y-91149000D01*
X93436203Y-91149000D01*
X93615104Y-91184585D01*
G37*
G36*
X103775104Y-91184585D02*
G01*
X103943626Y-91254389D01*
X104095291Y-91355728D01*
X104224272Y-91484709D01*
X104325611Y-91636374D01*
X104395415Y-91804896D01*
X104431000Y-91983797D01*
X104431000Y-92166203D01*
X104395415Y-92345104D01*
X104325611Y-92513626D01*
X104224272Y-92665291D01*
X104095291Y-92794272D01*
X103943626Y-92895611D01*
X103775104Y-92965415D01*
X103596203Y-93001000D01*
X103413797Y-93001000D01*
X103234896Y-92965415D01*
X103066374Y-92895611D01*
X102914709Y-92794272D01*
X102785728Y-92665291D01*
X102684389Y-92513626D01*
X102614585Y-92345104D01*
X102579000Y-92166203D01*
X102579000Y-91983797D01*
X102614585Y-91804896D01*
X102684389Y-91636374D01*
X102785728Y-91484709D01*
X102914709Y-91355728D01*
X103066374Y-91254389D01*
X103234896Y-91184585D01*
X103413797Y-91149000D01*
X103596203Y-91149000D01*
X103775104Y-91184585D01*
G37*
G36*
X246015104Y-91184585D02*
G01*
X246183626Y-91254389D01*
X246335291Y-91355728D01*
X246464272Y-91484709D01*
X246565611Y-91636374D01*
X246635415Y-91804896D01*
X246671000Y-91983797D01*
X246671000Y-92166203D01*
X246635415Y-92345104D01*
X246565611Y-92513626D01*
X246464272Y-92665291D01*
X246335291Y-92794272D01*
X246183626Y-92895611D01*
X246015104Y-92965415D01*
X245836203Y-93001000D01*
X245653797Y-93001000D01*
X245474896Y-92965415D01*
X245306374Y-92895611D01*
X245154709Y-92794272D01*
X245025728Y-92665291D01*
X244924389Y-92513626D01*
X244854585Y-92345104D01*
X244819000Y-92166203D01*
X244819000Y-91983797D01*
X244854585Y-91804896D01*
X244924389Y-91636374D01*
X245025728Y-91484709D01*
X245154709Y-91355728D01*
X245306374Y-91254389D01*
X245474896Y-91184585D01*
X245653797Y-91149000D01*
X245836203Y-91149000D01*
X246015104Y-91184585D01*
G37*
G36*
X74565104Y-91184585D02*
G01*
X74733626Y-91254389D01*
X74885291Y-91355728D01*
X75014272Y-91484709D01*
X75115611Y-91636374D01*
X75185415Y-91804896D01*
X75221000Y-91983797D01*
X75221000Y-92166203D01*
X75185415Y-92345104D01*
X75115611Y-92513626D01*
X75014272Y-92665291D01*
X74885291Y-92794272D01*
X74733626Y-92895611D01*
X74565104Y-92965415D01*
X74386203Y-93001000D01*
X74203797Y-93001000D01*
X74024896Y-92965415D01*
X73856374Y-92895611D01*
X73704709Y-92794272D01*
X73575728Y-92665291D01*
X73474389Y-92513626D01*
X73404585Y-92345104D01*
X73369000Y-92166203D01*
X73369000Y-91983797D01*
X73404585Y-91804896D01*
X73474389Y-91636374D01*
X73575728Y-91484709D01*
X73704709Y-91355728D01*
X73856374Y-91254389D01*
X74024896Y-91184585D01*
X74203797Y-91149000D01*
X74386203Y-91149000D01*
X74565104Y-91184585D01*
G37*
G36*
X84725104Y-91184585D02*
G01*
X84893626Y-91254389D01*
X85045291Y-91355728D01*
X85174272Y-91484709D01*
X85275611Y-91636374D01*
X85345415Y-91804896D01*
X85381000Y-91983797D01*
X85381000Y-92166203D01*
X85345415Y-92345104D01*
X85275611Y-92513626D01*
X85174272Y-92665291D01*
X85045291Y-92794272D01*
X84893626Y-92895611D01*
X84725104Y-92965415D01*
X84546203Y-93001000D01*
X84363797Y-93001000D01*
X84184896Y-92965415D01*
X84016374Y-92895611D01*
X83864709Y-92794272D01*
X83735728Y-92665291D01*
X83634389Y-92513626D01*
X83564585Y-92345104D01*
X83529000Y-92166203D01*
X83529000Y-91983797D01*
X83564585Y-91804896D01*
X83634389Y-91636374D01*
X83735728Y-91484709D01*
X83864709Y-91355728D01*
X84016374Y-91254389D01*
X84184896Y-91184585D01*
X84363797Y-91149000D01*
X84546203Y-91149000D01*
X84725104Y-91184585D01*
G37*
G36*
X188865104Y-91184585D02*
G01*
X189033626Y-91254389D01*
X189185291Y-91355728D01*
X189314272Y-91484709D01*
X189415611Y-91636374D01*
X189485415Y-91804896D01*
X189521000Y-91983797D01*
X189521000Y-92166203D01*
X189485415Y-92345104D01*
X189415611Y-92513626D01*
X189314272Y-92665291D01*
X189185291Y-92794272D01*
X189033626Y-92895611D01*
X188865104Y-92965415D01*
X188686203Y-93001000D01*
X188503797Y-93001000D01*
X188324896Y-92965415D01*
X188156374Y-92895611D01*
X188004709Y-92794272D01*
X187875728Y-92665291D01*
X187774389Y-92513626D01*
X187704585Y-92345104D01*
X187669000Y-92166203D01*
X187669000Y-91983797D01*
X187704585Y-91804896D01*
X187774389Y-91636374D01*
X187875728Y-91484709D01*
X188004709Y-91355728D01*
X188156374Y-91254389D01*
X188324896Y-91184585D01*
X188503797Y-91149000D01*
X188686203Y-91149000D01*
X188865104Y-91184585D01*
G37*
G36*
X65675104Y-91184585D02*
G01*
X65843626Y-91254389D01*
X65995291Y-91355728D01*
X66124272Y-91484709D01*
X66225611Y-91636374D01*
X66295415Y-91804896D01*
X66331000Y-91983797D01*
X66331000Y-92166203D01*
X66295415Y-92345104D01*
X66225611Y-92513626D01*
X66124272Y-92665291D01*
X65995291Y-92794272D01*
X65843626Y-92895611D01*
X65675104Y-92965415D01*
X65496203Y-93001000D01*
X65313797Y-93001000D01*
X65134896Y-92965415D01*
X64966374Y-92895611D01*
X64814709Y-92794272D01*
X64685728Y-92665291D01*
X64584389Y-92513626D01*
X64514585Y-92345104D01*
X64479000Y-92166203D01*
X64479000Y-91983797D01*
X64514585Y-91804896D01*
X64584389Y-91636374D01*
X64685728Y-91484709D01*
X64814709Y-91355728D01*
X64966374Y-91254389D01*
X65134896Y-91184585D01*
X65313797Y-91149000D01*
X65496203Y-91149000D01*
X65675104Y-91184585D01*
G37*
G36*
X202960900Y-71903346D02*
G01*
X203173521Y-71945639D01*
X203473947Y-72070080D01*
X203744324Y-72250740D01*
X203974260Y-72480676D01*
X204154920Y-72751053D01*
X204279361Y-73051479D01*
X204342800Y-73370410D01*
X204342800Y-73695590D01*
X204279361Y-74014521D01*
X204154920Y-74314947D01*
X203974260Y-74585324D01*
X203744324Y-74815260D01*
X203473947Y-74995920D01*
X203173521Y-75120361D01*
X202960900Y-75162654D01*
X202854591Y-75183800D01*
X202529409Y-75183800D01*
X202423100Y-75162654D01*
X202210479Y-75120361D01*
X201910053Y-74995920D01*
X201639676Y-74815260D01*
X201409740Y-74585324D01*
X201229080Y-74314947D01*
X201104639Y-74014521D01*
X201041200Y-73695590D01*
X201041200Y-73370410D01*
X201104639Y-73051479D01*
X201229080Y-72751053D01*
X201409740Y-72480676D01*
X201639676Y-72250740D01*
X201910053Y-72070080D01*
X202210479Y-71945639D01*
X202423100Y-71903346D01*
X202529409Y-71882200D01*
X202854591Y-71882200D01*
X202960900Y-71903346D01*
G37*
G36*
X185180900Y-71903346D02*
G01*
X185393521Y-71945639D01*
X185693947Y-72070080D01*
X185964324Y-72250740D01*
X186194260Y-72480676D01*
X186374920Y-72751053D01*
X186499361Y-73051479D01*
X186562800Y-73370410D01*
X186562800Y-73695590D01*
X186499361Y-74014521D01*
X186374920Y-74314947D01*
X186194260Y-74585324D01*
X185964324Y-74815260D01*
X185693947Y-74995920D01*
X185393521Y-75120361D01*
X185180900Y-75162654D01*
X185074591Y-75183800D01*
X184749409Y-75183800D01*
X184643100Y-75162654D01*
X184430479Y-75120361D01*
X184130053Y-74995920D01*
X183859676Y-74815260D01*
X183629740Y-74585324D01*
X183449080Y-74314947D01*
X183324639Y-74014521D01*
X183261200Y-73695590D01*
X183261200Y-73370410D01*
X183324639Y-73051479D01*
X183449080Y-72751053D01*
X183629740Y-72480676D01*
X183859676Y-72250740D01*
X184130053Y-72070080D01*
X184430479Y-71945639D01*
X184643100Y-71903346D01*
X184749409Y-71882200D01*
X185074591Y-71882200D01*
X185180900Y-71903346D01*
G37*
G36*
X99021474Y-71058684D02*
G01*
X99239474Y-71148983D01*
X99393623Y-71212833D01*
X99728548Y-71436623D01*
X100013377Y-71721452D01*
X100237167Y-72056377D01*
X100269562Y-72134586D01*
X100391316Y-72428526D01*
X100469900Y-72823594D01*
X100469900Y-73226406D01*
X100391316Y-73621474D01*
X100340451Y-73744272D01*
X100237167Y-73993623D01*
X100013377Y-74328548D01*
X99728548Y-74613377D01*
X99393623Y-74837167D01*
X99239474Y-74901017D01*
X99021474Y-74991316D01*
X98626406Y-75069900D01*
X98223594Y-75069900D01*
X97828526Y-74991316D01*
X97610526Y-74901017D01*
X97456377Y-74837167D01*
X97121452Y-74613377D01*
X96836623Y-74328548D01*
X96612833Y-73993623D01*
X96509549Y-73744272D01*
X96458684Y-73621474D01*
X96380100Y-73226406D01*
X96380100Y-72823594D01*
X96458684Y-72428526D01*
X96580438Y-72134586D01*
X96612833Y-72056377D01*
X96836623Y-71721452D01*
X97121452Y-71436623D01*
X97456377Y-71212833D01*
X97610526Y-71148983D01*
X97828526Y-71058684D01*
X98223594Y-70980100D01*
X98626406Y-70980100D01*
X99021474Y-71058684D01*
G37*
G36*
X232371474Y-71058684D02*
G01*
X232589474Y-71148983D01*
X232743623Y-71212833D01*
X233078548Y-71436623D01*
X233363377Y-71721452D01*
X233587167Y-72056377D01*
X233619562Y-72134586D01*
X233741316Y-72428526D01*
X233819900Y-72823594D01*
X233819900Y-73226406D01*
X233741316Y-73621474D01*
X233690451Y-73744272D01*
X233587167Y-73993623D01*
X233363377Y-74328548D01*
X233078548Y-74613377D01*
X232743623Y-74837167D01*
X232589474Y-74901017D01*
X232371474Y-74991316D01*
X231976406Y-75069900D01*
X231573594Y-75069900D01*
X231178526Y-74991316D01*
X230960526Y-74901017D01*
X230806377Y-74837167D01*
X230471452Y-74613377D01*
X230186623Y-74328548D01*
X229962833Y-73993623D01*
X229859549Y-73744272D01*
X229808684Y-73621474D01*
X229730100Y-73226406D01*
X229730100Y-72823594D01*
X229808684Y-72428526D01*
X229930438Y-72134586D01*
X229962833Y-72056377D01*
X230186623Y-71721452D01*
X230471452Y-71436623D01*
X230806377Y-71212833D01*
X230960526Y-71148983D01*
X231178526Y-71058684D01*
X231573594Y-70980100D01*
X231976406Y-70980100D01*
X232371474Y-71058684D01*
G37*
G36*
X251421474Y-71058684D02*
G01*
X251639474Y-71148983D01*
X251793623Y-71212833D01*
X252128548Y-71436623D01*
X252413377Y-71721452D01*
X252637167Y-72056377D01*
X252669562Y-72134586D01*
X252791316Y-72428526D01*
X252869900Y-72823594D01*
X252869900Y-73226406D01*
X252791316Y-73621474D01*
X252740451Y-73744272D01*
X252637167Y-73993623D01*
X252413377Y-74328548D01*
X252128548Y-74613377D01*
X251793623Y-74837167D01*
X251639474Y-74901017D01*
X251421474Y-74991316D01*
X251026406Y-75069900D01*
X250623594Y-75069900D01*
X250228526Y-74991316D01*
X250010526Y-74901017D01*
X249856377Y-74837167D01*
X249521452Y-74613377D01*
X249236623Y-74328548D01*
X249012833Y-73993623D01*
X248909549Y-73744272D01*
X248858684Y-73621474D01*
X248780100Y-73226406D01*
X248780100Y-72823594D01*
X248858684Y-72428526D01*
X248980438Y-72134586D01*
X249012833Y-72056377D01*
X249236623Y-71721452D01*
X249521452Y-71436623D01*
X249856377Y-71212833D01*
X250010526Y-71148983D01*
X250228526Y-71058684D01*
X250623594Y-70980100D01*
X251026406Y-70980100D01*
X251421474Y-71058684D01*
G37*
G36*
X60921474Y-71058684D02*
G01*
X61139474Y-71148983D01*
X61293623Y-71212833D01*
X61628548Y-71436623D01*
X61913377Y-71721452D01*
X62137167Y-72056377D01*
X62169562Y-72134586D01*
X62291316Y-72428526D01*
X62369900Y-72823594D01*
X62369900Y-73226406D01*
X62291316Y-73621474D01*
X62240451Y-73744272D01*
X62137167Y-73993623D01*
X61913377Y-74328548D01*
X61628548Y-74613377D01*
X61293623Y-74837167D01*
X61139474Y-74901017D01*
X60921474Y-74991316D01*
X60526406Y-75069900D01*
X60123594Y-75069900D01*
X59728526Y-74991316D01*
X59510526Y-74901017D01*
X59356377Y-74837167D01*
X59021452Y-74613377D01*
X58736623Y-74328548D01*
X58512833Y-73993623D01*
X58409549Y-73744272D01*
X58358684Y-73621474D01*
X58280100Y-73226406D01*
X58280100Y-72823594D01*
X58358684Y-72428526D01*
X58480438Y-72134586D01*
X58512833Y-72056377D01*
X58736623Y-71721452D01*
X59021452Y-71436623D01*
X59356377Y-71212833D01*
X59510526Y-71148983D01*
X59728526Y-71058684D01*
X60123594Y-70980100D01*
X60526406Y-70980100D01*
X60921474Y-71058684D01*
G37*
G36*
X79971474Y-71058684D02*
G01*
X80189474Y-71148983D01*
X80343623Y-71212833D01*
X80678548Y-71436623D01*
X80963377Y-71721452D01*
X81187167Y-72056377D01*
X81219562Y-72134586D01*
X81341316Y-72428526D01*
X81419900Y-72823594D01*
X81419900Y-73226406D01*
X81341316Y-73621474D01*
X81290451Y-73744272D01*
X81187167Y-73993623D01*
X80963377Y-74328548D01*
X80678548Y-74613377D01*
X80343623Y-74837167D01*
X80189474Y-74901017D01*
X79971474Y-74991316D01*
X79576406Y-75069900D01*
X79173594Y-75069900D01*
X78778526Y-74991316D01*
X78560526Y-74901017D01*
X78406377Y-74837167D01*
X78071452Y-74613377D01*
X77786623Y-74328548D01*
X77562833Y-73993623D01*
X77459549Y-73744272D01*
X77408684Y-73621474D01*
X77330100Y-73226406D01*
X77330100Y-72823594D01*
X77408684Y-72428526D01*
X77530438Y-72134586D01*
X77562833Y-72056377D01*
X77786623Y-71721452D01*
X78071452Y-71436623D01*
X78406377Y-71212833D01*
X78560526Y-71148983D01*
X78778526Y-71058684D01*
X79173594Y-70980100D01*
X79576406Y-70980100D01*
X79971474Y-71058684D01*
G37*
G36*
X118071474Y-71058684D02*
G01*
X118289474Y-71148983D01*
X118443623Y-71212833D01*
X118778548Y-71436623D01*
X119063377Y-71721452D01*
X119287167Y-72056377D01*
X119319562Y-72134586D01*
X119441316Y-72428526D01*
X119519900Y-72823594D01*
X119519900Y-73226406D01*
X119441316Y-73621474D01*
X119390451Y-73744272D01*
X119287167Y-73993623D01*
X119063377Y-74328548D01*
X118778548Y-74613377D01*
X118443623Y-74837167D01*
X118289474Y-74901017D01*
X118071474Y-74991316D01*
X117676406Y-75069900D01*
X117273594Y-75069900D01*
X116878526Y-74991316D01*
X116660526Y-74901017D01*
X116506377Y-74837167D01*
X116171452Y-74613377D01*
X115886623Y-74328548D01*
X115662833Y-73993623D01*
X115559549Y-73744272D01*
X115508684Y-73621474D01*
X115430100Y-73226406D01*
X115430100Y-72823594D01*
X115508684Y-72428526D01*
X115630438Y-72134586D01*
X115662833Y-72056377D01*
X115886623Y-71721452D01*
X116171452Y-71436623D01*
X116506377Y-71212833D01*
X116660526Y-71148983D01*
X116878526Y-71058684D01*
X117273594Y-70980100D01*
X117676406Y-70980100D01*
X118071474Y-71058684D01*
G37*
G36*
X175221474Y-71058684D02*
G01*
X175439474Y-71148983D01*
X175593623Y-71212833D01*
X175928548Y-71436623D01*
X176213377Y-71721452D01*
X176437167Y-72056377D01*
X176469562Y-72134586D01*
X176591316Y-72428526D01*
X176669900Y-72823594D01*
X176669900Y-73226406D01*
X176591316Y-73621474D01*
X176540451Y-73744272D01*
X176437167Y-73993623D01*
X176213377Y-74328548D01*
X175928548Y-74613377D01*
X175593623Y-74837167D01*
X175439474Y-74901017D01*
X175221474Y-74991316D01*
X174826406Y-75069900D01*
X174423594Y-75069900D01*
X174028526Y-74991316D01*
X173810526Y-74901017D01*
X173656377Y-74837167D01*
X173321452Y-74613377D01*
X173036623Y-74328548D01*
X172812833Y-73993623D01*
X172709549Y-73744272D01*
X172658684Y-73621474D01*
X172580100Y-73226406D01*
X172580100Y-72823594D01*
X172658684Y-72428526D01*
X172780438Y-72134586D01*
X172812833Y-72056377D01*
X173036623Y-71721452D01*
X173321452Y-71436623D01*
X173656377Y-71212833D01*
X173810526Y-71148983D01*
X174028526Y-71058684D01*
X174423594Y-70980100D01*
X174826406Y-70980100D01*
X175221474Y-71058684D01*
G37*
G36*
X156171474Y-71058684D02*
G01*
X156389474Y-71148983D01*
X156543623Y-71212833D01*
X156878548Y-71436623D01*
X157163377Y-71721452D01*
X157387167Y-72056377D01*
X157419562Y-72134586D01*
X157541316Y-72428526D01*
X157619900Y-72823594D01*
X157619900Y-73226406D01*
X157541316Y-73621474D01*
X157490451Y-73744272D01*
X157387167Y-73993623D01*
X157163377Y-74328548D01*
X156878548Y-74613377D01*
X156543623Y-74837167D01*
X156389474Y-74901017D01*
X156171474Y-74991316D01*
X155776406Y-75069900D01*
X155373594Y-75069900D01*
X154978526Y-74991316D01*
X154760526Y-74901017D01*
X154606377Y-74837167D01*
X154271452Y-74613377D01*
X153986623Y-74328548D01*
X153762833Y-73993623D01*
X153659549Y-73744272D01*
X153608684Y-73621474D01*
X153530100Y-73226406D01*
X153530100Y-72823594D01*
X153608684Y-72428526D01*
X153730438Y-72134586D01*
X153762833Y-72056377D01*
X153986623Y-71721452D01*
X154271452Y-71436623D01*
X154606377Y-71212833D01*
X154760526Y-71148983D01*
X154978526Y-71058684D01*
X155373594Y-70980100D01*
X155776406Y-70980100D01*
X156171474Y-71058684D01*
G37*
G36*
X194271474Y-71058684D02*
G01*
X194489474Y-71148983D01*
X194643623Y-71212833D01*
X194978548Y-71436623D01*
X195263377Y-71721452D01*
X195487167Y-72056377D01*
X195519562Y-72134586D01*
X195641316Y-72428526D01*
X195719900Y-72823594D01*
X195719900Y-73226406D01*
X195641316Y-73621474D01*
X195590451Y-73744272D01*
X195487167Y-73993623D01*
X195263377Y-74328548D01*
X194978548Y-74613377D01*
X194643623Y-74837167D01*
X194489474Y-74901017D01*
X194271474Y-74991316D01*
X193876406Y-75069900D01*
X193473594Y-75069900D01*
X193078526Y-74991316D01*
X192860526Y-74901017D01*
X192706377Y-74837167D01*
X192371452Y-74613377D01*
X192086623Y-74328548D01*
X191862833Y-73993623D01*
X191759549Y-73744272D01*
X191708684Y-73621474D01*
X191630100Y-73226406D01*
X191630100Y-72823594D01*
X191708684Y-72428526D01*
X191830438Y-72134586D01*
X191862833Y-72056377D01*
X192086623Y-71721452D01*
X192371452Y-71436623D01*
X192706377Y-71212833D01*
X192860526Y-71148983D01*
X193078526Y-71058684D01*
X193473594Y-70980100D01*
X193876406Y-70980100D01*
X194271474Y-71058684D01*
G37*
G36*
X213321474Y-71058684D02*
G01*
X213539474Y-71148983D01*
X213693623Y-71212833D01*
X214028548Y-71436623D01*
X214313377Y-71721452D01*
X214537167Y-72056377D01*
X214569562Y-72134586D01*
X214691316Y-72428526D01*
X214769900Y-72823594D01*
X214769900Y-73226406D01*
X214691316Y-73621474D01*
X214640451Y-73744272D01*
X214537167Y-73993623D01*
X214313377Y-74328548D01*
X214028548Y-74613377D01*
X213693623Y-74837167D01*
X213539474Y-74901017D01*
X213321474Y-74991316D01*
X212926406Y-75069900D01*
X212523594Y-75069900D01*
X212128526Y-74991316D01*
X211910526Y-74901017D01*
X211756377Y-74837167D01*
X211421452Y-74613377D01*
X211136623Y-74328548D01*
X210912833Y-73993623D01*
X210809549Y-73744272D01*
X210758684Y-73621474D01*
X210680100Y-73226406D01*
X210680100Y-72823594D01*
X210758684Y-72428526D01*
X210880438Y-72134586D01*
X210912833Y-72056377D01*
X211136623Y-71721452D01*
X211421452Y-71436623D01*
X211756377Y-71212833D01*
X211910526Y-71148983D01*
X212128526Y-71058684D01*
X212523594Y-70980100D01*
X212926406Y-70980100D01*
X213321474Y-71058684D01*
G37*
G36*
X137121474Y-71058684D02*
G01*
X137339474Y-71148983D01*
X137493623Y-71212833D01*
X137828548Y-71436623D01*
X138113377Y-71721452D01*
X138337167Y-72056377D01*
X138369562Y-72134586D01*
X138491316Y-72428526D01*
X138569900Y-72823594D01*
X138569900Y-73226406D01*
X138491316Y-73621474D01*
X138440451Y-73744272D01*
X138337167Y-73993623D01*
X138113377Y-74328548D01*
X137828548Y-74613377D01*
X137493623Y-74837167D01*
X137339474Y-74901017D01*
X137121474Y-74991316D01*
X136726406Y-75069900D01*
X136323594Y-75069900D01*
X135928526Y-74991316D01*
X135710526Y-74901017D01*
X135556377Y-74837167D01*
X135221452Y-74613377D01*
X134936623Y-74328548D01*
X134712833Y-73993623D01*
X134609549Y-73744272D01*
X134558684Y-73621474D01*
X134480100Y-73226406D01*
X134480100Y-72823594D01*
X134558684Y-72428526D01*
X134680438Y-72134586D01*
X134712833Y-72056377D01*
X134936623Y-71721452D01*
X135221452Y-71436623D01*
X135556377Y-71212833D01*
X135710526Y-71148983D01*
X135928526Y-71058684D01*
X136323594Y-70980100D01*
X136726406Y-70980100D01*
X137121474Y-71058684D01*
G37*
G36*
X41871474Y-71058684D02*
G01*
X42089474Y-71148983D01*
X42243623Y-71212833D01*
X42578548Y-71436623D01*
X42863377Y-71721452D01*
X43087167Y-72056377D01*
X43119562Y-72134586D01*
X43241316Y-72428526D01*
X43319900Y-72823594D01*
X43319900Y-73226406D01*
X43241316Y-73621474D01*
X43190451Y-73744272D01*
X43087167Y-73993623D01*
X42863377Y-74328548D01*
X42578548Y-74613377D01*
X42243623Y-74837167D01*
X42089474Y-74901017D01*
X41871474Y-74991316D01*
X41476406Y-75069900D01*
X41073594Y-75069900D01*
X40678526Y-74991316D01*
X40460526Y-74901017D01*
X40306377Y-74837167D01*
X39971452Y-74613377D01*
X39686623Y-74328548D01*
X39462833Y-73993623D01*
X39359549Y-73744272D01*
X39308684Y-73621474D01*
X39230100Y-73226406D01*
X39230100Y-72823594D01*
X39308684Y-72428526D01*
X39430438Y-72134586D01*
X39462833Y-72056377D01*
X39686623Y-71721452D01*
X39971452Y-71436623D01*
X40306377Y-71212833D01*
X40460526Y-71148983D01*
X40678526Y-71058684D01*
X41073594Y-70980100D01*
X41476406Y-70980100D01*
X41871474Y-71058684D01*
G37*
G36*
X65675104Y-72134585D02*
G01*
X65843626Y-72204389D01*
X65995291Y-72305728D01*
X66124272Y-72434709D01*
X66225611Y-72586374D01*
X66295415Y-72754896D01*
X66331000Y-72933797D01*
X66331000Y-73116203D01*
X66295415Y-73295104D01*
X66225611Y-73463626D01*
X66124272Y-73615291D01*
X65995291Y-73744272D01*
X65843626Y-73845611D01*
X65675104Y-73915415D01*
X65496203Y-73951000D01*
X65313797Y-73951000D01*
X65134896Y-73915415D01*
X64966374Y-73845611D01*
X64814709Y-73744272D01*
X64685728Y-73615291D01*
X64584389Y-73463626D01*
X64514585Y-73295104D01*
X64479000Y-73116203D01*
X64479000Y-72933797D01*
X64514585Y-72754896D01*
X64584389Y-72586374D01*
X64685728Y-72434709D01*
X64814709Y-72305728D01*
X64966374Y-72204389D01*
X65134896Y-72134585D01*
X65313797Y-72099000D01*
X65496203Y-72099000D01*
X65675104Y-72134585D01*
G37*
G36*
X36465104Y-72134585D02*
G01*
X36633626Y-72204389D01*
X36785291Y-72305728D01*
X36914272Y-72434709D01*
X37015611Y-72586374D01*
X37085415Y-72754896D01*
X37121000Y-72933797D01*
X37121000Y-73116203D01*
X37085415Y-73295104D01*
X37015611Y-73463626D01*
X36914272Y-73615291D01*
X36785291Y-73744272D01*
X36633626Y-73845611D01*
X36465104Y-73915415D01*
X36286203Y-73951000D01*
X36103797Y-73951000D01*
X35924896Y-73915415D01*
X35756374Y-73845611D01*
X35604709Y-73744272D01*
X35475728Y-73615291D01*
X35374389Y-73463626D01*
X35304585Y-73295104D01*
X35269000Y-73116203D01*
X35269000Y-72933797D01*
X35304585Y-72754896D01*
X35374389Y-72586374D01*
X35475728Y-72434709D01*
X35604709Y-72305728D01*
X35756374Y-72204389D01*
X35924896Y-72134585D01*
X36103797Y-72099000D01*
X36286203Y-72099000D01*
X36465104Y-72134585D01*
G37*
G36*
X46625104Y-72134585D02*
G01*
X46793626Y-72204389D01*
X46945291Y-72305728D01*
X47074272Y-72434709D01*
X47175611Y-72586374D01*
X47245415Y-72754896D01*
X47281000Y-72933797D01*
X47281000Y-73116203D01*
X47245415Y-73295104D01*
X47175611Y-73463626D01*
X47074272Y-73615291D01*
X46945291Y-73744272D01*
X46793626Y-73845611D01*
X46625104Y-73915415D01*
X46446203Y-73951000D01*
X46263797Y-73951000D01*
X46084896Y-73915415D01*
X45916374Y-73845611D01*
X45764709Y-73744272D01*
X45635728Y-73615291D01*
X45534389Y-73463626D01*
X45464585Y-73295104D01*
X45429000Y-73116203D01*
X45429000Y-72933797D01*
X45464585Y-72754896D01*
X45534389Y-72586374D01*
X45635728Y-72434709D01*
X45764709Y-72305728D01*
X45916374Y-72204389D01*
X46084896Y-72134585D01*
X46263797Y-72099000D01*
X46446203Y-72099000D01*
X46625104Y-72134585D01*
G37*
G36*
X74565104Y-72134585D02*
G01*
X74733626Y-72204389D01*
X74885291Y-72305728D01*
X75014272Y-72434709D01*
X75115611Y-72586374D01*
X75185415Y-72754896D01*
X75221000Y-72933797D01*
X75221000Y-73116203D01*
X75185415Y-73295104D01*
X75115611Y-73463626D01*
X75014272Y-73615291D01*
X74885291Y-73744272D01*
X74733626Y-73845611D01*
X74565104Y-73915415D01*
X74386203Y-73951000D01*
X74203797Y-73951000D01*
X74024896Y-73915415D01*
X73856374Y-73845611D01*
X73704709Y-73744272D01*
X73575728Y-73615291D01*
X73474389Y-73463626D01*
X73404585Y-73295104D01*
X73369000Y-73116203D01*
X73369000Y-72933797D01*
X73404585Y-72754896D01*
X73474389Y-72586374D01*
X73575728Y-72434709D01*
X73704709Y-72305728D01*
X73856374Y-72204389D01*
X74024896Y-72134585D01*
X74203797Y-72099000D01*
X74386203Y-72099000D01*
X74565104Y-72134585D01*
G37*
G36*
X256175104Y-72134585D02*
G01*
X256343626Y-72204389D01*
X256495291Y-72305728D01*
X256624272Y-72434709D01*
X256725611Y-72586374D01*
X256795415Y-72754896D01*
X256831000Y-72933797D01*
X256831000Y-73116203D01*
X256795415Y-73295104D01*
X256725611Y-73463626D01*
X256624272Y-73615291D01*
X256495291Y-73744272D01*
X256343626Y-73845611D01*
X256175104Y-73915415D01*
X255996203Y-73951000D01*
X255813797Y-73951000D01*
X255634896Y-73915415D01*
X255466374Y-73845611D01*
X255314709Y-73744272D01*
X255185728Y-73615291D01*
X255084389Y-73463626D01*
X255014585Y-73295104D01*
X254979000Y-73116203D01*
X254979000Y-72933797D01*
X255014585Y-72754896D01*
X255084389Y-72586374D01*
X255185728Y-72434709D01*
X255314709Y-72305728D01*
X255466374Y-72204389D01*
X255634896Y-72134585D01*
X255813797Y-72099000D01*
X255996203Y-72099000D01*
X256175104Y-72134585D01*
G37*
G36*
X246015104Y-72134585D02*
G01*
X246183626Y-72204389D01*
X246335291Y-72305728D01*
X246464272Y-72434709D01*
X246565611Y-72586374D01*
X246635415Y-72754896D01*
X246671000Y-72933797D01*
X246671000Y-73116203D01*
X246635415Y-73295104D01*
X246565611Y-73463626D01*
X246464272Y-73615291D01*
X246335291Y-73744272D01*
X246183626Y-73845611D01*
X246015104Y-73915415D01*
X245836203Y-73951000D01*
X245653797Y-73951000D01*
X245474896Y-73915415D01*
X245306374Y-73845611D01*
X245154709Y-73744272D01*
X245025728Y-73615291D01*
X244924389Y-73463626D01*
X244854585Y-73295104D01*
X244819000Y-73116203D01*
X244819000Y-72933797D01*
X244854585Y-72754896D01*
X244924389Y-72586374D01*
X245025728Y-72434709D01*
X245154709Y-72305728D01*
X245306374Y-72204389D01*
X245474896Y-72134585D01*
X245653797Y-72099000D01*
X245836203Y-72099000D01*
X246015104Y-72134585D01*
G37*
G36*
X237125104Y-72134585D02*
G01*
X237293626Y-72204389D01*
X237445291Y-72305728D01*
X237574272Y-72434709D01*
X237675611Y-72586374D01*
X237745415Y-72754896D01*
X237781000Y-72933797D01*
X237781000Y-73116203D01*
X237745415Y-73295104D01*
X237675611Y-73463626D01*
X237574272Y-73615291D01*
X237445291Y-73744272D01*
X237293626Y-73845611D01*
X237125104Y-73915415D01*
X236946203Y-73951000D01*
X236763797Y-73951000D01*
X236584896Y-73915415D01*
X236416374Y-73845611D01*
X236264709Y-73744272D01*
X236135728Y-73615291D01*
X236034389Y-73463626D01*
X235964585Y-73295104D01*
X235929000Y-73116203D01*
X235929000Y-72933797D01*
X235964585Y-72754896D01*
X236034389Y-72586374D01*
X236135728Y-72434709D01*
X236264709Y-72305728D01*
X236416374Y-72204389D01*
X236584896Y-72134585D01*
X236763797Y-72099000D01*
X236946203Y-72099000D01*
X237125104Y-72134585D01*
G37*
G36*
X226965104Y-72134585D02*
G01*
X227133626Y-72204389D01*
X227285291Y-72305728D01*
X227414272Y-72434709D01*
X227515611Y-72586374D01*
X227585415Y-72754896D01*
X227621000Y-72933797D01*
X227621000Y-73116203D01*
X227585415Y-73295104D01*
X227515611Y-73463626D01*
X227414272Y-73615291D01*
X227285291Y-73744272D01*
X227133626Y-73845611D01*
X226965104Y-73915415D01*
X226786203Y-73951000D01*
X226603797Y-73951000D01*
X226424896Y-73915415D01*
X226256374Y-73845611D01*
X226104709Y-73744272D01*
X225975728Y-73615291D01*
X225874389Y-73463626D01*
X225804585Y-73295104D01*
X225769000Y-73116203D01*
X225769000Y-72933797D01*
X225804585Y-72754896D01*
X225874389Y-72586374D01*
X225975728Y-72434709D01*
X226104709Y-72305728D01*
X226256374Y-72204389D01*
X226424896Y-72134585D01*
X226603797Y-72099000D01*
X226786203Y-72099000D01*
X226965104Y-72134585D01*
G37*
G36*
X218075104Y-72134585D02*
G01*
X218243626Y-72204389D01*
X218395291Y-72305728D01*
X218524272Y-72434709D01*
X218625611Y-72586374D01*
X218695415Y-72754896D01*
X218731000Y-72933797D01*
X218731000Y-73116203D01*
X218695415Y-73295104D01*
X218625611Y-73463626D01*
X218524272Y-73615291D01*
X218395291Y-73744272D01*
X218243626Y-73845611D01*
X218075104Y-73915415D01*
X217896203Y-73951000D01*
X217713797Y-73951000D01*
X217534896Y-73915415D01*
X217366374Y-73845611D01*
X217214709Y-73744272D01*
X217085728Y-73615291D01*
X216984389Y-73463626D01*
X216914585Y-73295104D01*
X216879000Y-73116203D01*
X216879000Y-72933797D01*
X216914585Y-72754896D01*
X216984389Y-72586374D01*
X217085728Y-72434709D01*
X217214709Y-72305728D01*
X217366374Y-72204389D01*
X217534896Y-72134585D01*
X217713797Y-72099000D01*
X217896203Y-72099000D01*
X218075104Y-72134585D01*
G37*
G36*
X207915104Y-72134585D02*
G01*
X208083626Y-72204389D01*
X208235291Y-72305728D01*
X208364272Y-72434709D01*
X208465611Y-72586374D01*
X208535415Y-72754896D01*
X208571000Y-72933797D01*
X208571000Y-73116203D01*
X208535415Y-73295104D01*
X208465611Y-73463626D01*
X208364272Y-73615291D01*
X208235291Y-73744272D01*
X208083626Y-73845611D01*
X207915104Y-73915415D01*
X207736203Y-73951000D01*
X207553797Y-73951000D01*
X207374896Y-73915415D01*
X207206374Y-73845611D01*
X207054709Y-73744272D01*
X206925728Y-73615291D01*
X206824389Y-73463626D01*
X206754585Y-73295104D01*
X206719000Y-73116203D01*
X206719000Y-72933797D01*
X206754585Y-72754896D01*
X206824389Y-72586374D01*
X206925728Y-72434709D01*
X207054709Y-72305728D01*
X207206374Y-72204389D01*
X207374896Y-72134585D01*
X207553797Y-72099000D01*
X207736203Y-72099000D01*
X207915104Y-72134585D01*
G37*
G36*
X199025104Y-72134585D02*
G01*
X199193626Y-72204389D01*
X199345291Y-72305728D01*
X199474272Y-72434709D01*
X199575611Y-72586374D01*
X199645415Y-72754896D01*
X199681000Y-72933797D01*
X199681000Y-73116203D01*
X199645415Y-73295104D01*
X199575611Y-73463626D01*
X199474272Y-73615291D01*
X199345291Y-73744272D01*
X199193626Y-73845611D01*
X199025104Y-73915415D01*
X198846203Y-73951000D01*
X198663797Y-73951000D01*
X198484896Y-73915415D01*
X198316374Y-73845611D01*
X198164709Y-73744272D01*
X198035728Y-73615291D01*
X197934389Y-73463626D01*
X197864585Y-73295104D01*
X197829000Y-73116203D01*
X197829000Y-72933797D01*
X197864585Y-72754896D01*
X197934389Y-72586374D01*
X198035728Y-72434709D01*
X198164709Y-72305728D01*
X198316374Y-72204389D01*
X198484896Y-72134585D01*
X198663797Y-72099000D01*
X198846203Y-72099000D01*
X199025104Y-72134585D01*
G37*
G36*
X188865104Y-72134585D02*
G01*
X189033626Y-72204389D01*
X189185291Y-72305728D01*
X189314272Y-72434709D01*
X189415611Y-72586374D01*
X189485415Y-72754896D01*
X189521000Y-72933797D01*
X189521000Y-73116203D01*
X189485415Y-73295104D01*
X189415611Y-73463626D01*
X189314272Y-73615291D01*
X189185291Y-73744272D01*
X189033626Y-73845611D01*
X188865104Y-73915415D01*
X188686203Y-73951000D01*
X188503797Y-73951000D01*
X188324896Y-73915415D01*
X188156374Y-73845611D01*
X188004709Y-73744272D01*
X187875728Y-73615291D01*
X187774389Y-73463626D01*
X187704585Y-73295104D01*
X187669000Y-73116203D01*
X187669000Y-72933797D01*
X187704585Y-72754896D01*
X187774389Y-72586374D01*
X187875728Y-72434709D01*
X188004709Y-72305728D01*
X188156374Y-72204389D01*
X188324896Y-72134585D01*
X188503797Y-72099000D01*
X188686203Y-72099000D01*
X188865104Y-72134585D01*
G37*
G36*
X179975104Y-72134585D02*
G01*
X180143626Y-72204389D01*
X180295291Y-72305728D01*
X180424272Y-72434709D01*
X180525611Y-72586374D01*
X180595415Y-72754896D01*
X180631000Y-72933797D01*
X180631000Y-73116203D01*
X180595415Y-73295104D01*
X180525611Y-73463626D01*
X180424272Y-73615291D01*
X180295291Y-73744272D01*
X180143626Y-73845611D01*
X179975104Y-73915415D01*
X179796203Y-73951000D01*
X179613797Y-73951000D01*
X179434896Y-73915415D01*
X179266374Y-73845611D01*
X179114709Y-73744272D01*
X178985728Y-73615291D01*
X178884389Y-73463626D01*
X178814585Y-73295104D01*
X178779000Y-73116203D01*
X178779000Y-72933797D01*
X178814585Y-72754896D01*
X178884389Y-72586374D01*
X178985728Y-72434709D01*
X179114709Y-72305728D01*
X179266374Y-72204389D01*
X179434896Y-72134585D01*
X179613797Y-72099000D01*
X179796203Y-72099000D01*
X179975104Y-72134585D01*
G37*
G36*
X169815104Y-72134585D02*
G01*
X169983626Y-72204389D01*
X170135291Y-72305728D01*
X170264272Y-72434709D01*
X170365611Y-72586374D01*
X170435415Y-72754896D01*
X170471000Y-72933797D01*
X170471000Y-73116203D01*
X170435415Y-73295104D01*
X170365611Y-73463626D01*
X170264272Y-73615291D01*
X170135291Y-73744272D01*
X169983626Y-73845611D01*
X169815104Y-73915415D01*
X169636203Y-73951000D01*
X169453797Y-73951000D01*
X169274896Y-73915415D01*
X169106374Y-73845611D01*
X168954709Y-73744272D01*
X168825728Y-73615291D01*
X168724389Y-73463626D01*
X168654585Y-73295104D01*
X168619000Y-73116203D01*
X168619000Y-72933797D01*
X168654585Y-72754896D01*
X168724389Y-72586374D01*
X168825728Y-72434709D01*
X168954709Y-72305728D01*
X169106374Y-72204389D01*
X169274896Y-72134585D01*
X169453797Y-72099000D01*
X169636203Y-72099000D01*
X169815104Y-72134585D01*
G37*
G36*
X160925104Y-72134585D02*
G01*
X161093626Y-72204389D01*
X161245291Y-72305728D01*
X161374272Y-72434709D01*
X161475611Y-72586374D01*
X161545415Y-72754896D01*
X161581000Y-72933797D01*
X161581000Y-73116203D01*
X161545415Y-73295104D01*
X161475611Y-73463626D01*
X161374272Y-73615291D01*
X161245291Y-73744272D01*
X161093626Y-73845611D01*
X160925104Y-73915415D01*
X160746203Y-73951000D01*
X160563797Y-73951000D01*
X160384896Y-73915415D01*
X160216374Y-73845611D01*
X160064709Y-73744272D01*
X159935728Y-73615291D01*
X159834389Y-73463626D01*
X159764585Y-73295104D01*
X159729000Y-73116203D01*
X159729000Y-72933797D01*
X159764585Y-72754896D01*
X159834389Y-72586374D01*
X159935728Y-72434709D01*
X160064709Y-72305728D01*
X160216374Y-72204389D01*
X160384896Y-72134585D01*
X160563797Y-72099000D01*
X160746203Y-72099000D01*
X160925104Y-72134585D01*
G37*
G36*
X141875104Y-72134585D02*
G01*
X142043626Y-72204389D01*
X142195291Y-72305728D01*
X142324272Y-72434709D01*
X142425611Y-72586374D01*
X142495415Y-72754896D01*
X142531000Y-72933797D01*
X142531000Y-73116203D01*
X142495415Y-73295104D01*
X142425611Y-73463626D01*
X142324272Y-73615291D01*
X142195291Y-73744272D01*
X142043626Y-73845611D01*
X141875104Y-73915415D01*
X141696203Y-73951000D01*
X141513797Y-73951000D01*
X141334896Y-73915415D01*
X141166374Y-73845611D01*
X141014709Y-73744272D01*
X140885728Y-73615291D01*
X140784389Y-73463626D01*
X140714585Y-73295104D01*
X140679000Y-73116203D01*
X140679000Y-72933797D01*
X140714585Y-72754896D01*
X140784389Y-72586374D01*
X140885728Y-72434709D01*
X141014709Y-72305728D01*
X141166374Y-72204389D01*
X141334896Y-72134585D01*
X141513797Y-72099000D01*
X141696203Y-72099000D01*
X141875104Y-72134585D01*
G37*
G36*
X131715104Y-72134585D02*
G01*
X131883626Y-72204389D01*
X132035291Y-72305728D01*
X132164272Y-72434709D01*
X132265611Y-72586374D01*
X132335415Y-72754896D01*
X132371000Y-72933797D01*
X132371000Y-73116203D01*
X132335415Y-73295104D01*
X132265611Y-73463626D01*
X132164272Y-73615291D01*
X132035291Y-73744272D01*
X131883626Y-73845611D01*
X131715104Y-73915415D01*
X131536203Y-73951000D01*
X131353797Y-73951000D01*
X131174896Y-73915415D01*
X131006374Y-73845611D01*
X130854709Y-73744272D01*
X130725728Y-73615291D01*
X130624389Y-73463626D01*
X130554585Y-73295104D01*
X130519000Y-73116203D01*
X130519000Y-72933797D01*
X130554585Y-72754896D01*
X130624389Y-72586374D01*
X130725728Y-72434709D01*
X130854709Y-72305728D01*
X131006374Y-72204389D01*
X131174896Y-72134585D01*
X131353797Y-72099000D01*
X131536203Y-72099000D01*
X131715104Y-72134585D01*
G37*
G36*
X122825104Y-72134585D02*
G01*
X122993626Y-72204389D01*
X123145291Y-72305728D01*
X123274272Y-72434709D01*
X123375611Y-72586374D01*
X123445415Y-72754896D01*
X123481000Y-72933797D01*
X123481000Y-73116203D01*
X123445415Y-73295104D01*
X123375611Y-73463626D01*
X123274272Y-73615291D01*
X123145291Y-73744272D01*
X122993626Y-73845611D01*
X122825104Y-73915415D01*
X122646203Y-73951000D01*
X122463797Y-73951000D01*
X122284896Y-73915415D01*
X122116374Y-73845611D01*
X121964709Y-73744272D01*
X121835728Y-73615291D01*
X121734389Y-73463626D01*
X121664585Y-73295104D01*
X121629000Y-73116203D01*
X121629000Y-72933797D01*
X121664585Y-72754896D01*
X121734389Y-72586374D01*
X121835728Y-72434709D01*
X121964709Y-72305728D01*
X122116374Y-72204389D01*
X122284896Y-72134585D01*
X122463797Y-72099000D01*
X122646203Y-72099000D01*
X122825104Y-72134585D01*
G37*
G36*
X112665104Y-72134585D02*
G01*
X112833626Y-72204389D01*
X112985291Y-72305728D01*
X113114272Y-72434709D01*
X113215611Y-72586374D01*
X113285415Y-72754896D01*
X113321000Y-72933797D01*
X113321000Y-73116203D01*
X113285415Y-73295104D01*
X113215611Y-73463626D01*
X113114272Y-73615291D01*
X112985291Y-73744272D01*
X112833626Y-73845611D01*
X112665104Y-73915415D01*
X112486203Y-73951000D01*
X112303797Y-73951000D01*
X112124896Y-73915415D01*
X111956374Y-73845611D01*
X111804709Y-73744272D01*
X111675728Y-73615291D01*
X111574389Y-73463626D01*
X111504585Y-73295104D01*
X111469000Y-73116203D01*
X111469000Y-72933797D01*
X111504585Y-72754896D01*
X111574389Y-72586374D01*
X111675728Y-72434709D01*
X111804709Y-72305728D01*
X111956374Y-72204389D01*
X112124896Y-72134585D01*
X112303797Y-72099000D01*
X112486203Y-72099000D01*
X112665104Y-72134585D01*
G37*
G36*
X103775104Y-72134585D02*
G01*
X103943626Y-72204389D01*
X104095291Y-72305728D01*
X104224272Y-72434709D01*
X104325611Y-72586374D01*
X104395415Y-72754896D01*
X104431000Y-72933797D01*
X104431000Y-73116203D01*
X104395415Y-73295104D01*
X104325611Y-73463626D01*
X104224272Y-73615291D01*
X104095291Y-73744272D01*
X103943626Y-73845611D01*
X103775104Y-73915415D01*
X103596203Y-73951000D01*
X103413797Y-73951000D01*
X103234896Y-73915415D01*
X103066374Y-73845611D01*
X102914709Y-73744272D01*
X102785728Y-73615291D01*
X102684389Y-73463626D01*
X102614585Y-73295104D01*
X102579000Y-73116203D01*
X102579000Y-72933797D01*
X102614585Y-72754896D01*
X102684389Y-72586374D01*
X102785728Y-72434709D01*
X102914709Y-72305728D01*
X103066374Y-72204389D01*
X103234896Y-72134585D01*
X103413797Y-72099000D01*
X103596203Y-72099000D01*
X103775104Y-72134585D01*
G37*
G36*
X93615104Y-72134585D02*
G01*
X93783626Y-72204389D01*
X93935291Y-72305728D01*
X94064272Y-72434709D01*
X94165611Y-72586374D01*
X94235415Y-72754896D01*
X94271000Y-72933797D01*
X94271000Y-73116203D01*
X94235415Y-73295104D01*
X94165611Y-73463626D01*
X94064272Y-73615291D01*
X93935291Y-73744272D01*
X93783626Y-73845611D01*
X93615104Y-73915415D01*
X93436203Y-73951000D01*
X93253797Y-73951000D01*
X93074896Y-73915415D01*
X92906374Y-73845611D01*
X92754709Y-73744272D01*
X92625728Y-73615291D01*
X92524389Y-73463626D01*
X92454585Y-73295104D01*
X92419000Y-73116203D01*
X92419000Y-72933797D01*
X92454585Y-72754896D01*
X92524389Y-72586374D01*
X92625728Y-72434709D01*
X92754709Y-72305728D01*
X92906374Y-72204389D01*
X93074896Y-72134585D01*
X93253797Y-72099000D01*
X93436203Y-72099000D01*
X93615104Y-72134585D01*
G37*
G36*
X84725104Y-72134585D02*
G01*
X84893626Y-72204389D01*
X85045291Y-72305728D01*
X85174272Y-72434709D01*
X85275611Y-72586374D01*
X85345415Y-72754896D01*
X85381000Y-72933797D01*
X85381000Y-73116203D01*
X85345415Y-73295104D01*
X85275611Y-73463626D01*
X85174272Y-73615291D01*
X85045291Y-73744272D01*
X84893626Y-73845611D01*
X84725104Y-73915415D01*
X84546203Y-73951000D01*
X84363797Y-73951000D01*
X84184896Y-73915415D01*
X84016374Y-73845611D01*
X83864709Y-73744272D01*
X83735728Y-73615291D01*
X83634389Y-73463626D01*
X83564585Y-73295104D01*
X83529000Y-73116203D01*
X83529000Y-72933797D01*
X83564585Y-72754896D01*
X83634389Y-72586374D01*
X83735728Y-72434709D01*
X83864709Y-72305728D01*
X84016374Y-72204389D01*
X84184896Y-72134585D01*
X84363797Y-72099000D01*
X84546203Y-72099000D01*
X84725104Y-72134585D01*
G37*
G36*
X150765104Y-72134585D02*
G01*
X150933626Y-72204389D01*
X151085291Y-72305728D01*
X151214272Y-72434709D01*
X151315611Y-72586374D01*
X151385415Y-72754896D01*
X151421000Y-72933797D01*
X151421000Y-73116203D01*
X151385415Y-73295104D01*
X151315611Y-73463626D01*
X151214272Y-73615291D01*
X151085291Y-73744272D01*
X150933626Y-73845611D01*
X150765104Y-73915415D01*
X150586203Y-73951000D01*
X150403797Y-73951000D01*
X150224896Y-73915415D01*
X150056374Y-73845611D01*
X149904709Y-73744272D01*
X149775728Y-73615291D01*
X149674389Y-73463626D01*
X149604585Y-73295104D01*
X149569000Y-73116203D01*
X149569000Y-72933797D01*
X149604585Y-72754896D01*
X149674389Y-72586374D01*
X149775728Y-72434709D01*
X149904709Y-72305728D01*
X150056374Y-72204389D01*
X150224896Y-72134585D01*
X150403797Y-72099000D01*
X150586203Y-72099000D01*
X150765104Y-72134585D01*
G37*
G36*
X55515104Y-72134585D02*
G01*
X55683626Y-72204389D01*
X55835291Y-72305728D01*
X55964272Y-72434709D01*
X56065611Y-72586374D01*
X56135415Y-72754896D01*
X56171000Y-72933797D01*
X56171000Y-73116203D01*
X56135415Y-73295104D01*
X56065611Y-73463626D01*
X55964272Y-73615291D01*
X55835291Y-73744272D01*
X55683626Y-73845611D01*
X55515104Y-73915415D01*
X55336203Y-73951000D01*
X55153797Y-73951000D01*
X54974896Y-73915415D01*
X54806374Y-73845611D01*
X54654709Y-73744272D01*
X54525728Y-73615291D01*
X54424389Y-73463626D01*
X54354585Y-73295104D01*
X54319000Y-73116203D01*
X54319000Y-72933797D01*
X54354585Y-72754896D01*
X54424389Y-72586374D01*
X54525728Y-72434709D01*
X54654709Y-72305728D01*
X54806374Y-72204389D01*
X54974896Y-72134585D01*
X55153797Y-72099000D01*
X55336203Y-72099000D01*
X55515104Y-72134585D01*
G37*
G36*
X88532562Y-60545181D02*
G01*
X88567481Y-60555774D01*
X88599663Y-60572976D01*
X88627873Y-60596127D01*
X88651024Y-60624337D01*
X88668226Y-60656519D01*
X88678819Y-60691438D01*
X88683000Y-60733895D01*
X88683000Y-61875105D01*
X88678819Y-61917562D01*
X88668226Y-61952481D01*
X88651024Y-61984663D01*
X88627873Y-62012873D01*
X88599663Y-62036024D01*
X88567481Y-62053226D01*
X88532562Y-62063819D01*
X88490105Y-62068000D01*
X87023895Y-62068000D01*
X86981438Y-62063819D01*
X86946519Y-62053226D01*
X86914337Y-62036024D01*
X86886127Y-62012873D01*
X86862976Y-61984663D01*
X86845774Y-61952481D01*
X86835181Y-61917562D01*
X86831000Y-61875105D01*
X86831000Y-60733895D01*
X86835181Y-60691438D01*
X86845774Y-60656519D01*
X86862976Y-60624337D01*
X86886127Y-60596127D01*
X86914337Y-60572976D01*
X86946519Y-60555774D01*
X86981438Y-60545181D01*
X87023895Y-60541000D01*
X88490105Y-60541000D01*
X88532562Y-60545181D01*
G37*
G36*
X149996250Y-62023750D02*
G01*
X141344250Y-62023750D01*
X141344250Y-60421750D01*
X149996250Y-60421750D01*
X149996250Y-62023750D01*
G37*
G36*
X154639674Y-60728465D02*
G01*
X154677367Y-60739899D01*
X154712103Y-60758466D01*
X154742548Y-60783452D01*
X154767534Y-60813897D01*
X154786101Y-60848633D01*
X154797535Y-60886326D01*
X154802000Y-60931661D01*
X154802000Y-61768339D01*
X154797535Y-61813674D01*
X154786101Y-61851367D01*
X154767534Y-61886103D01*
X154742548Y-61916548D01*
X154712103Y-61941534D01*
X154677367Y-61960101D01*
X154639674Y-61971535D01*
X154594339Y-61976000D01*
X153507661Y-61976000D01*
X153462326Y-61971535D01*
X153424633Y-61960101D01*
X153389897Y-61941534D01*
X153359452Y-61916548D01*
X153334466Y-61886103D01*
X153315899Y-61851367D01*
X153304465Y-61813674D01*
X153300000Y-61768339D01*
X153300000Y-60931661D01*
X153304465Y-60886326D01*
X153315899Y-60848633D01*
X153334466Y-60813897D01*
X153359452Y-60783452D01*
X153389897Y-60758466D01*
X153424633Y-60739899D01*
X153462326Y-60728465D01*
X153507661Y-60724000D01*
X154594339Y-60724000D01*
X154639674Y-60728465D01*
G37*
G36*
X127038000Y-61963000D02*
G01*
X125836000Y-61963000D01*
X125836000Y-60061000D01*
X127038000Y-60061000D01*
X127038000Y-61963000D01*
G37*
G36*
X123338000Y-61963000D02*
G01*
X122136000Y-61963000D01*
X122136000Y-60061000D01*
X123338000Y-60061000D01*
X123338000Y-61963000D01*
G37*
G36*
X221074425Y-60214599D02*
G01*
X221198621Y-60239302D01*
X221335022Y-60295801D01*
X221457779Y-60377825D01*
X221562175Y-60482221D01*
X221644199Y-60604978D01*
X221700698Y-60741379D01*
X221729500Y-60886181D01*
X221729500Y-61033819D01*
X221700698Y-61178621D01*
X221644199Y-61315022D01*
X221562175Y-61437779D01*
X221457779Y-61542175D01*
X221335022Y-61624199D01*
X221198621Y-61680698D01*
X221082340Y-61703827D01*
X221053820Y-61709500D01*
X220906180Y-61709500D01*
X220877660Y-61703827D01*
X220761379Y-61680698D01*
X220624978Y-61624199D01*
X220502221Y-61542175D01*
X220397825Y-61437779D01*
X220315801Y-61315022D01*
X220259302Y-61178621D01*
X220230500Y-61033819D01*
X220230500Y-60886181D01*
X220259302Y-60741379D01*
X220315801Y-60604978D01*
X220397825Y-60482221D01*
X220502221Y-60377825D01*
X220624978Y-60295801D01*
X220761379Y-60239302D01*
X220885575Y-60214599D01*
X220906180Y-60210500D01*
X221053820Y-60210500D01*
X221074425Y-60214599D01*
G37*
G36*
X116313218Y-59839565D02*
G01*
X116351888Y-59851296D01*
X116387527Y-59870346D01*
X116418767Y-59895983D01*
X116444404Y-59927223D01*
X116463454Y-59962862D01*
X116475185Y-60001532D01*
X116479750Y-60047888D01*
X116479750Y-60699112D01*
X116475185Y-60745468D01*
X116463454Y-60784138D01*
X116444404Y-60819777D01*
X116418767Y-60851017D01*
X116387527Y-60876654D01*
X116351888Y-60895704D01*
X116313218Y-60907435D01*
X116266862Y-60912000D01*
X115190638Y-60912000D01*
X115144282Y-60907435D01*
X115105612Y-60895704D01*
X115069973Y-60876654D01*
X115038733Y-60851017D01*
X115013096Y-60819777D01*
X114994046Y-60784138D01*
X114982315Y-60745468D01*
X114977750Y-60699112D01*
X114977750Y-60047888D01*
X114982315Y-60001532D01*
X114994046Y-59962862D01*
X115013096Y-59927223D01*
X115038733Y-59895983D01*
X115069973Y-59870346D01*
X115105612Y-59851296D01*
X115144282Y-59839565D01*
X115190638Y-59835000D01*
X116266862Y-59835000D01*
X116313218Y-59839565D01*
G37*
G36*
X118694468Y-59839565D02*
G01*
X118733138Y-59851296D01*
X118768777Y-59870346D01*
X118800017Y-59895983D01*
X118825654Y-59927223D01*
X118844704Y-59962862D01*
X118856435Y-60001532D01*
X118861000Y-60047888D01*
X118861000Y-60699112D01*
X118856435Y-60745468D01*
X118844704Y-60784138D01*
X118825654Y-60819777D01*
X118800017Y-60851017D01*
X118768777Y-60876654D01*
X118733138Y-60895704D01*
X118694468Y-60907435D01*
X118648112Y-60912000D01*
X117571888Y-60912000D01*
X117525532Y-60907435D01*
X117486862Y-60895704D01*
X117451223Y-60876654D01*
X117419983Y-60851017D01*
X117394346Y-60819777D01*
X117375296Y-60784138D01*
X117363565Y-60745468D01*
X117359000Y-60699112D01*
X117359000Y-60047888D01*
X117363565Y-60001532D01*
X117375296Y-59962862D01*
X117394346Y-59927223D01*
X117419983Y-59895983D01*
X117451223Y-59870346D01*
X117486862Y-59851296D01*
X117525532Y-59839565D01*
X117571888Y-59835000D01*
X118648112Y-59835000D01*
X118694468Y-59839565D01*
G37*
G36*
X102057468Y-59807815D02*
G01*
X102096138Y-59819546D01*
X102131777Y-59838596D01*
X102163017Y-59864233D01*
X102188654Y-59895473D01*
X102207704Y-59931112D01*
X102219435Y-59969782D01*
X102224000Y-60016138D01*
X102224000Y-60667362D01*
X102219435Y-60713718D01*
X102207704Y-60752388D01*
X102188654Y-60788027D01*
X102163017Y-60819267D01*
X102131777Y-60844904D01*
X102096138Y-60863954D01*
X102057468Y-60875685D01*
X102011112Y-60880250D01*
X100934888Y-60880250D01*
X100888532Y-60875685D01*
X100849862Y-60863954D01*
X100814223Y-60844904D01*
X100782983Y-60819267D01*
X100757346Y-60788027D01*
X100738296Y-60752388D01*
X100726565Y-60713718D01*
X100722000Y-60667362D01*
X100722000Y-60016138D01*
X100726565Y-59969782D01*
X100738296Y-59931112D01*
X100757346Y-59895473D01*
X100782983Y-59864233D01*
X100814223Y-59838596D01*
X100849862Y-59819546D01*
X100888532Y-59807815D01*
X100934888Y-59803250D01*
X102011112Y-59803250D01*
X102057468Y-59807815D01*
G37*
G36*
X106819968Y-59807815D02*
G01*
X106858638Y-59819546D01*
X106894277Y-59838596D01*
X106925517Y-59864233D01*
X106951154Y-59895473D01*
X106970204Y-59931112D01*
X106981935Y-59969782D01*
X106986500Y-60016138D01*
X106986500Y-60667362D01*
X106981935Y-60713718D01*
X106970204Y-60752388D01*
X106951154Y-60788027D01*
X106925517Y-60819267D01*
X106894277Y-60844904D01*
X106858638Y-60863954D01*
X106819968Y-60875685D01*
X106773612Y-60880250D01*
X105697388Y-60880250D01*
X105651032Y-60875685D01*
X105612362Y-60863954D01*
X105576723Y-60844904D01*
X105545483Y-60819267D01*
X105519846Y-60788027D01*
X105500796Y-60752388D01*
X105489065Y-60713718D01*
X105484500Y-60667362D01*
X105484500Y-60016138D01*
X105489065Y-59969782D01*
X105500796Y-59931112D01*
X105519846Y-59895473D01*
X105545483Y-59864233D01*
X105576723Y-59838596D01*
X105612362Y-59819546D01*
X105651032Y-59807815D01*
X105697388Y-59803250D01*
X106773612Y-59803250D01*
X106819968Y-59807815D01*
G37*
G36*
X104438718Y-59807815D02*
G01*
X104477388Y-59819546D01*
X104513027Y-59838596D01*
X104544267Y-59864233D01*
X104569904Y-59895473D01*
X104588954Y-59931112D01*
X104600685Y-59969782D01*
X104605250Y-60016138D01*
X104605250Y-60667362D01*
X104600685Y-60713718D01*
X104588954Y-60752388D01*
X104569904Y-60788027D01*
X104544267Y-60819267D01*
X104513027Y-60844904D01*
X104477388Y-60863954D01*
X104438718Y-60875685D01*
X104392362Y-60880250D01*
X103316138Y-60880250D01*
X103269782Y-60875685D01*
X103231112Y-60863954D01*
X103195473Y-60844904D01*
X103164233Y-60819267D01*
X103138596Y-60788027D01*
X103119546Y-60752388D01*
X103107815Y-60713718D01*
X103103250Y-60667362D01*
X103103250Y-60016138D01*
X103107815Y-59969782D01*
X103119546Y-59931112D01*
X103138596Y-59895473D01*
X103164233Y-59864233D01*
X103195473Y-59838596D01*
X103231112Y-59819546D01*
X103269782Y-59807815D01*
X103316138Y-59803250D01*
X104392362Y-59803250D01*
X104438718Y-59807815D01*
G37*
G36*
X109201218Y-59807815D02*
G01*
X109239888Y-59819546D01*
X109275527Y-59838596D01*
X109306767Y-59864233D01*
X109332404Y-59895473D01*
X109351454Y-59931112D01*
X109363185Y-59969782D01*
X109367750Y-60016138D01*
X109367750Y-60667362D01*
X109363185Y-60713718D01*
X109351454Y-60752388D01*
X109332404Y-60788027D01*
X109306767Y-60819267D01*
X109275527Y-60844904D01*
X109239888Y-60863954D01*
X109201218Y-60875685D01*
X109154862Y-60880250D01*
X108078638Y-60880250D01*
X108032282Y-60875685D01*
X107993612Y-60863954D01*
X107957973Y-60844904D01*
X107926733Y-60819267D01*
X107901096Y-60788027D01*
X107882046Y-60752388D01*
X107870315Y-60713718D01*
X107865750Y-60667362D01*
X107865750Y-60016138D01*
X107870315Y-59969782D01*
X107882046Y-59931112D01*
X107901096Y-59895473D01*
X107926733Y-59864233D01*
X107957973Y-59838596D01*
X107993612Y-59819546D01*
X108032282Y-59807815D01*
X108078638Y-59803250D01*
X109154862Y-59803250D01*
X109201218Y-59807815D01*
G37*
G36*
X111653750Y-60762000D02*
G01*
X110491750Y-60762000D01*
X110491750Y-58110000D01*
X111653750Y-58110000D01*
X111653750Y-60762000D01*
G37*
G36*
X113853750Y-60762000D02*
G01*
X112691750Y-60762000D01*
X112691750Y-60010000D01*
X113853750Y-60010000D01*
X113853750Y-60762000D01*
G37*
G36*
X135675468Y-58689565D02*
G01*
X135714138Y-58701296D01*
X135749777Y-58720346D01*
X135781017Y-58745983D01*
X135806654Y-58777223D01*
X135825704Y-58812862D01*
X135837435Y-58851532D01*
X135842000Y-58897888D01*
X135842000Y-59974112D01*
X135837435Y-60020468D01*
X135825704Y-60059138D01*
X135806654Y-60094777D01*
X135781017Y-60126017D01*
X135749777Y-60151654D01*
X135714138Y-60170704D01*
X135675468Y-60182435D01*
X135629112Y-60187000D01*
X134977888Y-60187000D01*
X134931532Y-60182435D01*
X134892862Y-60170704D01*
X134857223Y-60151654D01*
X134825983Y-60126017D01*
X134800346Y-60094777D01*
X134781296Y-60059138D01*
X134769565Y-60020468D01*
X134765000Y-59974112D01*
X134765000Y-58897888D01*
X134769565Y-58851532D01*
X134781296Y-58812862D01*
X134800346Y-58777223D01*
X134825983Y-58745983D01*
X134857223Y-58720346D01*
X134892862Y-58701296D01*
X134931532Y-58689565D01*
X134977888Y-58685000D01*
X135629112Y-58685000D01*
X135675468Y-58689565D01*
G37*
G36*
X133800468Y-58689565D02*
G01*
X133839138Y-58701296D01*
X133874777Y-58720346D01*
X133906017Y-58745983D01*
X133931654Y-58777223D01*
X133950704Y-58812862D01*
X133962435Y-58851532D01*
X133967000Y-58897888D01*
X133967000Y-59974112D01*
X133962435Y-60020468D01*
X133950704Y-60059138D01*
X133931654Y-60094777D01*
X133906017Y-60126017D01*
X133874777Y-60151654D01*
X133839138Y-60170704D01*
X133800468Y-60182435D01*
X133754112Y-60187000D01*
X133102888Y-60187000D01*
X133056532Y-60182435D01*
X133017862Y-60170704D01*
X132982223Y-60151654D01*
X132950983Y-60126017D01*
X132925346Y-60094777D01*
X132906296Y-60059138D01*
X132894565Y-60020468D01*
X132890000Y-59974112D01*
X132890000Y-58897888D01*
X132894565Y-58851532D01*
X132906296Y-58812862D01*
X132925346Y-58777223D01*
X132950983Y-58745983D01*
X132982223Y-58720346D01*
X133017862Y-58701296D01*
X133056532Y-58689565D01*
X133102888Y-58685000D01*
X133754112Y-58685000D01*
X133800468Y-58689565D01*
G37*
G36*
X154639674Y-58678465D02*
G01*
X154677367Y-58689899D01*
X154712103Y-58708466D01*
X154742548Y-58733452D01*
X154767534Y-58763897D01*
X154786101Y-58798633D01*
X154797535Y-58836326D01*
X154802000Y-58881661D01*
X154802000Y-59718339D01*
X154797535Y-59763674D01*
X154786101Y-59801367D01*
X154767534Y-59836103D01*
X154742548Y-59866548D01*
X154712103Y-59891534D01*
X154677367Y-59910101D01*
X154639674Y-59921535D01*
X154594339Y-59926000D01*
X153507661Y-59926000D01*
X153462326Y-59921535D01*
X153424633Y-59910101D01*
X153389897Y-59891534D01*
X153359452Y-59866548D01*
X153334466Y-59836103D01*
X153315899Y-59801367D01*
X153304465Y-59763674D01*
X153300000Y-59718339D01*
X153300000Y-58881661D01*
X153304465Y-58836326D01*
X153315899Y-58798633D01*
X153334466Y-58763897D01*
X153359452Y-58733452D01*
X153389897Y-58708466D01*
X153424633Y-58689899D01*
X153462326Y-58678465D01*
X153507661Y-58674000D01*
X154594339Y-58674000D01*
X154639674Y-58678465D01*
G37*
G36*
X152171250Y-59848750D02*
G01*
X150569250Y-59848750D01*
X150569250Y-51196750D01*
X152171250Y-51196750D01*
X152171250Y-59848750D01*
G37*
G36*
X140771250Y-59848750D02*
G01*
X139169250Y-59848750D01*
X139169250Y-51196750D01*
X140771250Y-51196750D01*
X140771250Y-59848750D01*
G37*
G36*
X99655250Y-59325000D02*
G01*
X98653250Y-59325000D01*
X98653250Y-58023000D01*
X99655250Y-58023000D01*
X99655250Y-59325000D01*
G37*
G36*
X96355250Y-59325000D02*
G01*
X95353250Y-59325000D01*
X95353250Y-58023000D01*
X96355250Y-58023000D01*
X96355250Y-59325000D01*
G37*
G36*
X221074425Y-57674599D02*
G01*
X221198621Y-57699302D01*
X221335022Y-57755801D01*
X221457779Y-57837825D01*
X221562175Y-57942221D01*
X221644199Y-58064978D01*
X221700698Y-58201379D01*
X221729500Y-58346181D01*
X221729500Y-58493819D01*
X221700698Y-58638621D01*
X221644199Y-58775022D01*
X221562175Y-58897779D01*
X221457779Y-59002175D01*
X221335022Y-59084199D01*
X221198621Y-59140698D01*
X221074425Y-59165401D01*
X221053820Y-59169500D01*
X220906180Y-59169500D01*
X220885575Y-59165401D01*
X220761379Y-59140698D01*
X220624978Y-59084199D01*
X220502221Y-59002175D01*
X220397825Y-58897779D01*
X220315801Y-58775022D01*
X220259302Y-58638621D01*
X220230500Y-58493819D01*
X220230500Y-58346181D01*
X220259302Y-58201379D01*
X220315801Y-58064978D01*
X220397825Y-57942221D01*
X220502221Y-57837825D01*
X220624978Y-57755801D01*
X220761379Y-57699302D01*
X220885575Y-57674599D01*
X220906180Y-57670500D01*
X221053820Y-57670500D01*
X221074425Y-57674599D01*
G37*
G36*
X88532562Y-57570181D02*
G01*
X88567481Y-57580774D01*
X88599663Y-57597976D01*
X88627873Y-57621127D01*
X88651024Y-57649337D01*
X88668226Y-57681519D01*
X88678819Y-57716438D01*
X88683000Y-57758895D01*
X88683000Y-58900105D01*
X88678819Y-58942562D01*
X88668226Y-58977481D01*
X88651024Y-59009663D01*
X88627873Y-59037873D01*
X88599663Y-59061024D01*
X88567481Y-59078226D01*
X88532562Y-59088819D01*
X88490105Y-59093000D01*
X87023895Y-59093000D01*
X86981438Y-59088819D01*
X86946519Y-59078226D01*
X86914337Y-59061024D01*
X86886127Y-59037873D01*
X86862976Y-59009663D01*
X86845774Y-58977481D01*
X86835181Y-58942562D01*
X86831000Y-58900105D01*
X86831000Y-57758895D01*
X86835181Y-57716438D01*
X86845774Y-57681519D01*
X86862976Y-57649337D01*
X86886127Y-57621127D01*
X86914337Y-57597976D01*
X86946519Y-57580774D01*
X86981438Y-57570181D01*
X87023895Y-57566000D01*
X88490105Y-57566000D01*
X88532562Y-57570181D01*
G37*
G36*
X116313218Y-57964565D02*
G01*
X116351888Y-57976296D01*
X116387527Y-57995346D01*
X116418767Y-58020983D01*
X116444404Y-58052223D01*
X116463454Y-58087862D01*
X116475185Y-58126532D01*
X116479750Y-58172888D01*
X116479750Y-58824112D01*
X116475185Y-58870468D01*
X116463454Y-58909138D01*
X116444404Y-58944777D01*
X116418767Y-58976017D01*
X116387527Y-59001654D01*
X116351888Y-59020704D01*
X116313218Y-59032435D01*
X116266862Y-59037000D01*
X115190638Y-59037000D01*
X115144282Y-59032435D01*
X115105612Y-59020704D01*
X115069973Y-59001654D01*
X115038733Y-58976017D01*
X115013096Y-58944777D01*
X114994046Y-58909138D01*
X114982315Y-58870468D01*
X114977750Y-58824112D01*
X114977750Y-58172888D01*
X114982315Y-58126532D01*
X114994046Y-58087862D01*
X115013096Y-58052223D01*
X115038733Y-58020983D01*
X115069973Y-57995346D01*
X115105612Y-57976296D01*
X115144282Y-57964565D01*
X115190638Y-57960000D01*
X116266862Y-57960000D01*
X116313218Y-57964565D01*
G37*
G36*
X118694468Y-57964565D02*
G01*
X118733138Y-57976296D01*
X118768777Y-57995346D01*
X118800017Y-58020983D01*
X118825654Y-58052223D01*
X118844704Y-58087862D01*
X118856435Y-58126532D01*
X118861000Y-58172888D01*
X118861000Y-58824112D01*
X118856435Y-58870468D01*
X118844704Y-58909138D01*
X118825654Y-58944777D01*
X118800017Y-58976017D01*
X118768777Y-59001654D01*
X118733138Y-59020704D01*
X118694468Y-59032435D01*
X118648112Y-59037000D01*
X117571888Y-59037000D01*
X117525532Y-59032435D01*
X117486862Y-59020704D01*
X117451223Y-59001654D01*
X117419983Y-58976017D01*
X117394346Y-58944777D01*
X117375296Y-58909138D01*
X117363565Y-58870468D01*
X117359000Y-58824112D01*
X117359000Y-58172888D01*
X117363565Y-58126532D01*
X117375296Y-58087862D01*
X117394346Y-58052223D01*
X117419983Y-58020983D01*
X117451223Y-57995346D01*
X117486862Y-57976296D01*
X117525532Y-57964565D01*
X117571888Y-57960000D01*
X118648112Y-57960000D01*
X118694468Y-57964565D01*
G37*
G36*
X104438718Y-57932815D02*
G01*
X104477388Y-57944546D01*
X104513027Y-57963596D01*
X104544267Y-57989233D01*
X104569904Y-58020473D01*
X104588954Y-58056112D01*
X104600685Y-58094782D01*
X104605250Y-58141138D01*
X104605250Y-58792362D01*
X104600685Y-58838718D01*
X104588954Y-58877388D01*
X104569904Y-58913027D01*
X104544267Y-58944267D01*
X104513027Y-58969904D01*
X104477388Y-58988954D01*
X104438718Y-59000685D01*
X104392362Y-59005250D01*
X103316138Y-59005250D01*
X103269782Y-59000685D01*
X103231112Y-58988954D01*
X103195473Y-58969904D01*
X103164233Y-58944267D01*
X103138596Y-58913027D01*
X103119546Y-58877388D01*
X103107815Y-58838718D01*
X103103250Y-58792362D01*
X103103250Y-58141138D01*
X103107815Y-58094782D01*
X103119546Y-58056112D01*
X103138596Y-58020473D01*
X103164233Y-57989233D01*
X103195473Y-57963596D01*
X103231112Y-57944546D01*
X103269782Y-57932815D01*
X103316138Y-57928250D01*
X104392362Y-57928250D01*
X104438718Y-57932815D01*
G37*
G36*
X109201218Y-57932815D02*
G01*
X109239888Y-57944546D01*
X109275527Y-57963596D01*
X109306767Y-57989233D01*
X109332404Y-58020473D01*
X109351454Y-58056112D01*
X109363185Y-58094782D01*
X109367750Y-58141138D01*
X109367750Y-58792362D01*
X109363185Y-58838718D01*
X109351454Y-58877388D01*
X109332404Y-58913027D01*
X109306767Y-58944267D01*
X109275527Y-58969904D01*
X109239888Y-58988954D01*
X109201218Y-59000685D01*
X109154862Y-59005250D01*
X108078638Y-59005250D01*
X108032282Y-59000685D01*
X107993612Y-58988954D01*
X107957973Y-58969904D01*
X107926733Y-58944267D01*
X107901096Y-58913027D01*
X107882046Y-58877388D01*
X107870315Y-58838718D01*
X107865750Y-58792362D01*
X107865750Y-58141138D01*
X107870315Y-58094782D01*
X107882046Y-58056112D01*
X107901096Y-58020473D01*
X107926733Y-57989233D01*
X107957973Y-57963596D01*
X107993612Y-57944546D01*
X108032282Y-57932815D01*
X108078638Y-57928250D01*
X109154862Y-57928250D01*
X109201218Y-57932815D01*
G37*
G36*
X106819968Y-57932815D02*
G01*
X106858638Y-57944546D01*
X106894277Y-57963596D01*
X106925517Y-57989233D01*
X106951154Y-58020473D01*
X106970204Y-58056112D01*
X106981935Y-58094782D01*
X106986500Y-58141138D01*
X106986500Y-58792362D01*
X106981935Y-58838718D01*
X106970204Y-58877388D01*
X106951154Y-58913027D01*
X106925517Y-58944267D01*
X106894277Y-58969904D01*
X106858638Y-58988954D01*
X106819968Y-59000685D01*
X106773612Y-59005250D01*
X105697388Y-59005250D01*
X105651032Y-59000685D01*
X105612362Y-58988954D01*
X105576723Y-58969904D01*
X105545483Y-58944267D01*
X105519846Y-58913027D01*
X105500796Y-58877388D01*
X105489065Y-58838718D01*
X105484500Y-58792362D01*
X105484500Y-58141138D01*
X105489065Y-58094782D01*
X105500796Y-58056112D01*
X105519846Y-58020473D01*
X105545483Y-57989233D01*
X105576723Y-57963596D01*
X105612362Y-57944546D01*
X105651032Y-57932815D01*
X105697388Y-57928250D01*
X106773612Y-57928250D01*
X106819968Y-57932815D01*
G37*
G36*
X102057468Y-57932815D02*
G01*
X102096138Y-57944546D01*
X102131777Y-57963596D01*
X102163017Y-57989233D01*
X102188654Y-58020473D01*
X102207704Y-58056112D01*
X102219435Y-58094782D01*
X102224000Y-58141138D01*
X102224000Y-58792362D01*
X102219435Y-58838718D01*
X102207704Y-58877388D01*
X102188654Y-58913027D01*
X102163017Y-58944267D01*
X102131777Y-58969904D01*
X102096138Y-58988954D01*
X102057468Y-59000685D01*
X102011112Y-59005250D01*
X100934888Y-59005250D01*
X100888532Y-59000685D01*
X100849862Y-58988954D01*
X100814223Y-58969904D01*
X100782983Y-58944267D01*
X100757346Y-58913027D01*
X100738296Y-58877388D01*
X100726565Y-58838718D01*
X100722000Y-58792362D01*
X100722000Y-58141138D01*
X100726565Y-58094782D01*
X100738296Y-58056112D01*
X100757346Y-58020473D01*
X100782983Y-57989233D01*
X100814223Y-57963596D01*
X100849862Y-57944546D01*
X100888532Y-57932815D01*
X100934888Y-57928250D01*
X102011112Y-57928250D01*
X102057468Y-57932815D01*
G37*
G36*
X113853750Y-58862000D02*
G01*
X112691750Y-58862000D01*
X112691750Y-58110000D01*
X113853750Y-58110000D01*
X113853750Y-58862000D01*
G37*
G36*
X134167000Y-57669000D02*
G01*
X132265000Y-57669000D01*
X132265000Y-55467000D01*
X134167000Y-55467000D01*
X134167000Y-57669000D01*
G37*
G36*
X136467000Y-57669000D02*
G01*
X134565000Y-57669000D01*
X134565000Y-55467000D01*
X136467000Y-55467000D01*
X136467000Y-57669000D01*
G37*
G36*
X129493674Y-56156465D02*
G01*
X129531367Y-56167899D01*
X129566103Y-56186466D01*
X129596548Y-56211452D01*
X129621534Y-56241897D01*
X129640101Y-56276633D01*
X129651535Y-56314326D01*
X129656000Y-56359661D01*
X129656000Y-57196339D01*
X129651535Y-57241674D01*
X129640101Y-57279367D01*
X129621534Y-57314103D01*
X129596548Y-57344548D01*
X129566103Y-57369534D01*
X129531367Y-57388101D01*
X129493674Y-57399535D01*
X129448339Y-57404000D01*
X128361661Y-57404000D01*
X128316326Y-57399535D01*
X128278633Y-57388101D01*
X128243897Y-57369534D01*
X128213452Y-57344548D01*
X128188466Y-57314103D01*
X128169899Y-57279367D01*
X128158465Y-57241674D01*
X128154000Y-57196339D01*
X128154000Y-56359661D01*
X128158465Y-56314326D01*
X128169899Y-56276633D01*
X128188466Y-56241897D01*
X128213452Y-56211452D01*
X128243897Y-56186466D01*
X128278633Y-56167899D01*
X128316326Y-56156465D01*
X128361661Y-56152000D01*
X129448339Y-56152000D01*
X129493674Y-56156465D01*
G37*
G36*
X80362648Y-55856319D02*
G01*
X80406182Y-55864978D01*
X80529206Y-55915936D01*
X80639925Y-55989916D01*
X80734084Y-56084075D01*
X80808064Y-56194794D01*
X80842957Y-56279034D01*
X80843516Y-56280384D01*
X80855067Y-56301995D01*
X80870613Y-56320937D01*
X80889554Y-56336482D01*
X80911165Y-56348033D01*
X80934614Y-56355146D01*
X80959000Y-56357548D01*
X80983386Y-56355146D01*
X81006835Y-56348033D01*
X81028446Y-56336482D01*
X81047388Y-56320936D01*
X81062933Y-56301995D01*
X81074484Y-56280384D01*
X81075043Y-56279034D01*
X81109936Y-56194794D01*
X81183916Y-56084075D01*
X81278075Y-55989916D01*
X81388794Y-55915936D01*
X81511818Y-55864978D01*
X81555352Y-55856319D01*
X81642418Y-55839000D01*
X81775582Y-55839000D01*
X81862648Y-55856319D01*
X81906182Y-55864978D01*
X82029206Y-55915936D01*
X82139925Y-55989916D01*
X82234084Y-56084075D01*
X82308064Y-56194794D01*
X82342957Y-56279034D01*
X82343516Y-56280384D01*
X82355067Y-56301995D01*
X82370613Y-56320937D01*
X82389554Y-56336482D01*
X82411165Y-56348033D01*
X82434614Y-56355146D01*
X82459000Y-56357548D01*
X82483386Y-56355146D01*
X82506835Y-56348033D01*
X82528446Y-56336482D01*
X82547388Y-56320936D01*
X82562933Y-56301995D01*
X82574484Y-56280384D01*
X82575043Y-56279034D01*
X82609936Y-56194794D01*
X82683916Y-56084075D01*
X82778075Y-55989916D01*
X82888794Y-55915936D01*
X83011818Y-55864978D01*
X83055352Y-55856319D01*
X83142418Y-55839000D01*
X83275582Y-55839000D01*
X83362648Y-55856319D01*
X83406182Y-55864978D01*
X83529206Y-55915936D01*
X83639925Y-55989916D01*
X83734084Y-56084075D01*
X83808064Y-56194794D01*
X83842957Y-56279034D01*
X83843516Y-56280384D01*
X83855067Y-56301995D01*
X83870613Y-56320937D01*
X83889554Y-56336482D01*
X83911165Y-56348033D01*
X83934614Y-56355146D01*
X83959000Y-56357548D01*
X83983386Y-56355146D01*
X84006835Y-56348033D01*
X84028446Y-56336482D01*
X84047388Y-56320936D01*
X84062933Y-56301995D01*
X84074484Y-56280384D01*
X84075043Y-56279034D01*
X84109936Y-56194794D01*
X84183916Y-56084075D01*
X84278075Y-55989916D01*
X84388794Y-55915936D01*
X84511818Y-55864978D01*
X84555352Y-55856319D01*
X84642418Y-55839000D01*
X84775582Y-55839000D01*
X84862648Y-55856319D01*
X84906182Y-55864978D01*
X85029206Y-55915936D01*
X85139925Y-55989916D01*
X85234084Y-56084075D01*
X85308064Y-56194794D01*
X85359022Y-56317818D01*
X85359022Y-56317819D01*
X85385000Y-56448418D01*
X85385000Y-56581582D01*
X85375468Y-56629500D01*
X85359022Y-56712182D01*
X85308064Y-56835206D01*
X85234084Y-56945925D01*
X85139925Y-57040084D01*
X85029206Y-57114064D01*
X84906182Y-57165022D01*
X84862648Y-57173681D01*
X84775582Y-57191000D01*
X84642418Y-57191000D01*
X84555352Y-57173681D01*
X84511818Y-57165022D01*
X84388794Y-57114064D01*
X84278075Y-57040084D01*
X84183916Y-56945925D01*
X84109936Y-56835206D01*
X84074482Y-56749613D01*
X84062933Y-56728005D01*
X84047387Y-56709063D01*
X84028446Y-56693518D01*
X84006835Y-56681967D01*
X83983386Y-56674854D01*
X83959000Y-56672452D01*
X83934614Y-56674854D01*
X83911165Y-56681967D01*
X83889554Y-56693518D01*
X83870612Y-56709064D01*
X83855067Y-56728005D01*
X83843518Y-56749613D01*
X83808064Y-56835206D01*
X83734084Y-56945925D01*
X83639925Y-57040084D01*
X83529206Y-57114064D01*
X83406182Y-57165022D01*
X83362648Y-57173681D01*
X83275582Y-57191000D01*
X83142418Y-57191000D01*
X83055352Y-57173681D01*
X83011818Y-57165022D01*
X82888794Y-57114064D01*
X82778075Y-57040084D01*
X82683916Y-56945925D01*
X82609936Y-56835206D01*
X82574482Y-56749613D01*
X82562933Y-56728005D01*
X82547387Y-56709063D01*
X82528446Y-56693518D01*
X82506835Y-56681967D01*
X82483386Y-56674854D01*
X82459000Y-56672452D01*
X82434614Y-56674854D01*
X82411165Y-56681967D01*
X82389554Y-56693518D01*
X82370612Y-56709064D01*
X82355067Y-56728005D01*
X82343518Y-56749613D01*
X82308064Y-56835206D01*
X82234084Y-56945925D01*
X82139925Y-57040084D01*
X82029206Y-57114064D01*
X81906182Y-57165022D01*
X81862648Y-57173681D01*
X81775582Y-57191000D01*
X81642418Y-57191000D01*
X81555352Y-57173681D01*
X81511818Y-57165022D01*
X81388794Y-57114064D01*
X81278075Y-57040084D01*
X81183916Y-56945925D01*
X81109936Y-56835206D01*
X81074482Y-56749613D01*
X81062933Y-56728005D01*
X81047387Y-56709063D01*
X81028446Y-56693518D01*
X81006835Y-56681967D01*
X80983386Y-56674854D01*
X80959000Y-56672452D01*
X80934614Y-56674854D01*
X80911165Y-56681967D01*
X80889554Y-56693518D01*
X80870612Y-56709064D01*
X80855067Y-56728005D01*
X80843518Y-56749613D01*
X80808064Y-56835206D01*
X80734084Y-56945925D01*
X80639925Y-57040084D01*
X80529206Y-57114064D01*
X80406182Y-57165022D01*
X80362648Y-57173681D01*
X80275582Y-57191000D01*
X80142418Y-57191000D01*
X80055352Y-57173681D01*
X80011818Y-57165022D01*
X79888794Y-57114064D01*
X79778075Y-57040084D01*
X79683916Y-56945925D01*
X79609936Y-56835206D01*
X79558978Y-56712182D01*
X79542532Y-56629500D01*
X79533000Y-56581582D01*
X79533000Y-56448418D01*
X79558978Y-56317819D01*
X79558978Y-56317818D01*
X79609936Y-56194794D01*
X79683916Y-56084075D01*
X79778075Y-55989916D01*
X79888794Y-55915936D01*
X80011818Y-55864978D01*
X80055352Y-55856319D01*
X80142418Y-55839000D01*
X80275582Y-55839000D01*
X80362648Y-55856319D01*
G37*
G36*
X221074425Y-55134599D02*
G01*
X221198621Y-55159302D01*
X221335022Y-55215801D01*
X221457779Y-55297825D01*
X221562175Y-55402221D01*
X221644199Y-55524978D01*
X221700698Y-55661379D01*
X221729500Y-55806181D01*
X221729500Y-55953819D01*
X221700698Y-56098621D01*
X221644199Y-56235022D01*
X221562175Y-56357779D01*
X221457779Y-56462175D01*
X221335022Y-56544199D01*
X221198621Y-56600698D01*
X221074425Y-56625401D01*
X221053820Y-56629500D01*
X220906180Y-56629500D01*
X220885575Y-56625401D01*
X220761379Y-56600698D01*
X220624978Y-56544199D01*
X220502221Y-56462175D01*
X220397825Y-56357779D01*
X220315801Y-56235022D01*
X220259302Y-56098621D01*
X220230500Y-55953819D01*
X220230500Y-55806181D01*
X220259302Y-55661379D01*
X220315801Y-55524978D01*
X220397825Y-55402221D01*
X220502221Y-55297825D01*
X220624978Y-55215801D01*
X220761379Y-55159302D01*
X220885575Y-55134599D01*
X220906180Y-55130500D01*
X221053820Y-55130500D01*
X221074425Y-55134599D01*
G37*
G36*
X211433424Y-54815965D02*
G01*
X211471117Y-54827399D01*
X211505853Y-54845966D01*
X211536298Y-54870952D01*
X211561284Y-54901397D01*
X211579851Y-54936133D01*
X211591285Y-54973826D01*
X211595750Y-55019161D01*
X211595750Y-56105839D01*
X211591285Y-56151174D01*
X211579851Y-56188867D01*
X211561284Y-56223603D01*
X211536298Y-56254048D01*
X211505853Y-56279034D01*
X211471117Y-56297601D01*
X211433424Y-56309035D01*
X211388089Y-56313500D01*
X210551411Y-56313500D01*
X210506076Y-56309035D01*
X210468383Y-56297601D01*
X210433647Y-56279034D01*
X210403202Y-56254048D01*
X210378216Y-56223603D01*
X210359649Y-56188867D01*
X210348215Y-56151174D01*
X210343750Y-56105839D01*
X210343750Y-55019161D01*
X210348215Y-54973826D01*
X210359649Y-54936133D01*
X210378216Y-54901397D01*
X210403202Y-54870952D01*
X210433647Y-54845966D01*
X210468383Y-54827399D01*
X210506076Y-54815965D01*
X210551411Y-54811500D01*
X211388089Y-54811500D01*
X211433424Y-54815965D01*
G37*
G36*
X213483424Y-54815965D02*
G01*
X213521117Y-54827399D01*
X213555853Y-54845966D01*
X213586298Y-54870952D01*
X213611284Y-54901397D01*
X213629851Y-54936133D01*
X213641285Y-54973826D01*
X213645750Y-55019161D01*
X213645750Y-56105839D01*
X213641285Y-56151174D01*
X213629851Y-56188867D01*
X213611284Y-56223603D01*
X213586298Y-56254048D01*
X213555853Y-56279034D01*
X213521117Y-56297601D01*
X213483424Y-56309035D01*
X213438089Y-56313500D01*
X212601411Y-56313500D01*
X212556076Y-56309035D01*
X212518383Y-56297601D01*
X212483647Y-56279034D01*
X212453202Y-56254048D01*
X212428216Y-56223603D01*
X212409649Y-56188867D01*
X212398215Y-56151174D01*
X212393750Y-56105839D01*
X212393750Y-55019161D01*
X212398215Y-54973826D01*
X212409649Y-54936133D01*
X212428216Y-54901397D01*
X212453202Y-54870952D01*
X212483647Y-54845966D01*
X212518383Y-54827399D01*
X212556076Y-54815965D01*
X212601411Y-54811500D01*
X213438089Y-54811500D01*
X213483424Y-54815965D01*
G37*
G36*
X217452174Y-54815965D02*
G01*
X217489867Y-54827399D01*
X217524603Y-54845966D01*
X217555048Y-54870952D01*
X217580034Y-54901397D01*
X217598601Y-54936133D01*
X217610035Y-54973826D01*
X217614500Y-55019161D01*
X217614500Y-56105839D01*
X217610035Y-56151174D01*
X217598601Y-56188867D01*
X217580034Y-56223603D01*
X217555048Y-56254048D01*
X217524603Y-56279034D01*
X217489867Y-56297601D01*
X217452174Y-56309035D01*
X217406839Y-56313500D01*
X216570161Y-56313500D01*
X216524826Y-56309035D01*
X216487133Y-56297601D01*
X216452397Y-56279034D01*
X216421952Y-56254048D01*
X216396966Y-56223603D01*
X216378399Y-56188867D01*
X216366965Y-56151174D01*
X216362500Y-56105839D01*
X216362500Y-55019161D01*
X216366965Y-54973826D01*
X216378399Y-54936133D01*
X216396966Y-54901397D01*
X216421952Y-54870952D01*
X216452397Y-54845966D01*
X216487133Y-54827399D01*
X216524826Y-54815965D01*
X216570161Y-54811500D01*
X217406839Y-54811500D01*
X217452174Y-54815965D01*
G37*
G36*
X215402174Y-54815965D02*
G01*
X215439867Y-54827399D01*
X215474603Y-54845966D01*
X215505048Y-54870952D01*
X215530034Y-54901397D01*
X215548601Y-54936133D01*
X215560035Y-54973826D01*
X215564500Y-55019161D01*
X215564500Y-56105839D01*
X215560035Y-56151174D01*
X215548601Y-56188867D01*
X215530034Y-56223603D01*
X215505048Y-56254048D01*
X215474603Y-56279034D01*
X215439867Y-56297601D01*
X215402174Y-56309035D01*
X215356839Y-56313500D01*
X214520161Y-56313500D01*
X214474826Y-56309035D01*
X214437133Y-56297601D01*
X214402397Y-56279034D01*
X214371952Y-56254048D01*
X214346966Y-56223603D01*
X214328399Y-56188867D01*
X214316965Y-56151174D01*
X214312500Y-56105839D01*
X214312500Y-55019161D01*
X214316965Y-54973826D01*
X214328399Y-54936133D01*
X214346966Y-54901397D01*
X214371952Y-54870952D01*
X214402397Y-54845966D01*
X214437133Y-54827399D01*
X214474826Y-54815965D01*
X214520161Y-54811500D01*
X215356839Y-54811500D01*
X215402174Y-54815965D01*
G37*
G36*
X127038000Y-55763000D02*
G01*
X125836000Y-55763000D01*
X125836000Y-53861000D01*
X127038000Y-53861000D01*
X127038000Y-55763000D01*
G37*
G36*
X123338000Y-55763000D02*
G01*
X122136000Y-55763000D01*
X122136000Y-53861000D01*
X123338000Y-53861000D01*
X123338000Y-55763000D01*
G37*
G36*
X113467000Y-55656000D02*
G01*
X112715000Y-55656000D01*
X112715000Y-54494000D01*
X113467000Y-54494000D01*
X113467000Y-55656000D01*
G37*
G36*
X111567000Y-55656000D02*
G01*
X110815000Y-55656000D01*
X110815000Y-54494000D01*
X111567000Y-54494000D01*
X111567000Y-55656000D01*
G37*
G36*
X115904674Y-54378465D02*
G01*
X115942367Y-54389899D01*
X115977103Y-54408466D01*
X116007548Y-54433452D01*
X116032534Y-54463897D01*
X116051101Y-54498633D01*
X116062535Y-54536326D01*
X116067000Y-54581661D01*
X116067000Y-55418339D01*
X116062535Y-55463674D01*
X116051101Y-55501367D01*
X116032534Y-55536103D01*
X116007548Y-55566548D01*
X115977103Y-55591534D01*
X115942367Y-55610101D01*
X115904674Y-55621535D01*
X115859339Y-55626000D01*
X114772661Y-55626000D01*
X114727326Y-55621535D01*
X114689633Y-55610101D01*
X114654897Y-55591534D01*
X114624452Y-55566548D01*
X114599466Y-55536103D01*
X114580899Y-55501367D01*
X114569465Y-55463674D01*
X114565000Y-55418339D01*
X114565000Y-54581661D01*
X114569465Y-54536326D01*
X114580899Y-54498633D01*
X114599466Y-54463897D01*
X114624452Y-54433452D01*
X114654897Y-54408466D01*
X114689633Y-54389899D01*
X114727326Y-54378465D01*
X114772661Y-54374000D01*
X115859339Y-54374000D01*
X115904674Y-54378465D01*
G37*
G36*
X129493674Y-54106465D02*
G01*
X129531367Y-54117899D01*
X129566103Y-54136466D01*
X129596548Y-54161452D01*
X129621534Y-54191897D01*
X129640101Y-54226633D01*
X129651535Y-54264326D01*
X129656000Y-54309661D01*
X129656000Y-55146339D01*
X129651535Y-55191674D01*
X129640101Y-55229367D01*
X129621534Y-55264103D01*
X129596548Y-55294548D01*
X129566103Y-55319534D01*
X129531367Y-55338101D01*
X129493674Y-55349535D01*
X129448339Y-55354000D01*
X128361661Y-55354000D01*
X128316326Y-55349535D01*
X128278633Y-55338101D01*
X128243897Y-55319534D01*
X128213452Y-55294548D01*
X128188466Y-55264103D01*
X128169899Y-55229367D01*
X128158465Y-55191674D01*
X128154000Y-55146339D01*
X128154000Y-54309661D01*
X128158465Y-54264326D01*
X128169899Y-54226633D01*
X128188466Y-54191897D01*
X128213452Y-54161452D01*
X128243897Y-54136466D01*
X128278633Y-54117899D01*
X128316326Y-54106465D01*
X128361661Y-54102000D01*
X129448339Y-54102000D01*
X129493674Y-54106465D01*
G37*
G36*
X134167000Y-54769000D02*
G01*
X132265000Y-54769000D01*
X132265000Y-52567000D01*
X134167000Y-52567000D01*
X134167000Y-54769000D01*
G37*
G36*
X136467000Y-54769000D02*
G01*
X134565000Y-54769000D01*
X134565000Y-52567000D01*
X136467000Y-52567000D01*
X136467000Y-54769000D01*
G37*
G36*
X84281674Y-53235465D02*
G01*
X84319367Y-53246899D01*
X84354103Y-53265466D01*
X84384548Y-53290452D01*
X84409534Y-53320897D01*
X84428101Y-53355633D01*
X84439535Y-53393326D01*
X84444000Y-53438661D01*
X84444000Y-54275339D01*
X84439535Y-54320674D01*
X84428101Y-54358367D01*
X84409534Y-54393103D01*
X84384548Y-54423548D01*
X84354103Y-54448534D01*
X84319367Y-54467101D01*
X84281674Y-54478535D01*
X84236339Y-54483000D01*
X83149661Y-54483000D01*
X83104326Y-54478535D01*
X83066633Y-54467101D01*
X83031897Y-54448534D01*
X83001452Y-54423548D01*
X82976466Y-54393103D01*
X82957899Y-54358367D01*
X82946465Y-54320674D01*
X82942000Y-54275339D01*
X82942000Y-53438661D01*
X82946465Y-53393326D01*
X82957899Y-53355633D01*
X82976466Y-53320897D01*
X83001452Y-53290452D01*
X83031897Y-53265466D01*
X83066633Y-53246899D01*
X83104326Y-53235465D01*
X83149661Y-53231000D01*
X84236339Y-53231000D01*
X84281674Y-53235465D01*
G37*
G36*
X81741674Y-53235465D02*
G01*
X81779367Y-53246899D01*
X81814103Y-53265466D01*
X81844548Y-53290452D01*
X81869534Y-53320897D01*
X81888101Y-53355633D01*
X81899535Y-53393326D01*
X81904000Y-53438661D01*
X81904000Y-54275339D01*
X81899535Y-54320674D01*
X81888101Y-54358367D01*
X81869534Y-54393103D01*
X81844548Y-54423548D01*
X81814103Y-54448534D01*
X81779367Y-54467101D01*
X81741674Y-54478535D01*
X81696339Y-54483000D01*
X80609661Y-54483000D01*
X80564326Y-54478535D01*
X80526633Y-54467101D01*
X80491897Y-54448534D01*
X80461452Y-54423548D01*
X80436466Y-54393103D01*
X80417899Y-54358367D01*
X80406465Y-54320674D01*
X80402000Y-54275339D01*
X80402000Y-53438661D01*
X80406465Y-53393326D01*
X80417899Y-53355633D01*
X80436466Y-53320897D01*
X80461452Y-53290452D01*
X80491897Y-53265466D01*
X80526633Y-53246899D01*
X80564326Y-53235465D01*
X80609661Y-53231000D01*
X81696339Y-53231000D01*
X81741674Y-53235465D01*
G37*
G36*
X201635607Y-52297277D02*
G01*
X201696129Y-52309316D01*
X201867162Y-52380160D01*
X202021087Y-52483010D01*
X202151990Y-52613913D01*
X202254840Y-52767838D01*
X202325684Y-52938871D01*
X202333272Y-52977017D01*
X202361800Y-53120436D01*
X202361800Y-53305564D01*
X202351840Y-53355633D01*
X202325684Y-53487129D01*
X202254840Y-53658162D01*
X202151990Y-53812087D01*
X202021087Y-53942990D01*
X201867162Y-54045840D01*
X201696129Y-54116684D01*
X201665794Y-54122718D01*
X201514564Y-54152800D01*
X201329436Y-54152800D01*
X201178206Y-54122718D01*
X201147871Y-54116684D01*
X200976838Y-54045840D01*
X200822913Y-53942990D01*
X200692010Y-53812087D01*
X200589160Y-53658162D01*
X200518316Y-53487129D01*
X200492160Y-53355633D01*
X200482200Y-53305564D01*
X200482200Y-53120436D01*
X200510728Y-52977017D01*
X200518316Y-52938871D01*
X200589160Y-52767838D01*
X200692010Y-52613913D01*
X200822913Y-52483010D01*
X200976838Y-52380160D01*
X201147871Y-52309316D01*
X201208393Y-52297277D01*
X201329436Y-52273200D01*
X201514564Y-52273200D01*
X201635607Y-52297277D01*
G37*
G36*
X183855607Y-52297277D02*
G01*
X183916129Y-52309316D01*
X184087162Y-52380160D01*
X184241087Y-52483010D01*
X184371990Y-52613913D01*
X184474840Y-52767838D01*
X184545684Y-52938871D01*
X184553272Y-52977017D01*
X184581800Y-53120436D01*
X184581800Y-53305564D01*
X184571840Y-53355633D01*
X184545684Y-53487129D01*
X184474840Y-53658162D01*
X184371990Y-53812087D01*
X184241087Y-53942990D01*
X184087162Y-54045840D01*
X183916129Y-54116684D01*
X183885794Y-54122718D01*
X183734564Y-54152800D01*
X183549436Y-54152800D01*
X183398206Y-54122718D01*
X183367871Y-54116684D01*
X183196838Y-54045840D01*
X183042913Y-53942990D01*
X182912010Y-53812087D01*
X182809160Y-53658162D01*
X182738316Y-53487129D01*
X182712160Y-53355633D01*
X182702200Y-53305564D01*
X182702200Y-53120436D01*
X182730728Y-52977017D01*
X182738316Y-52938871D01*
X182809160Y-52767838D01*
X182912010Y-52613913D01*
X183042913Y-52483010D01*
X183196838Y-52380160D01*
X183367871Y-52309316D01*
X183428393Y-52297277D01*
X183549436Y-52273200D01*
X183734564Y-52273200D01*
X183855607Y-52297277D01*
G37*
G36*
X199095607Y-52297277D02*
G01*
X199156129Y-52309316D01*
X199327162Y-52380160D01*
X199481087Y-52483010D01*
X199611990Y-52613913D01*
X199714840Y-52767838D01*
X199785684Y-52938871D01*
X199793272Y-52977017D01*
X199821800Y-53120436D01*
X199821800Y-53305564D01*
X199811840Y-53355633D01*
X199785684Y-53487129D01*
X199714840Y-53658162D01*
X199611990Y-53812087D01*
X199481087Y-53942990D01*
X199327162Y-54045840D01*
X199156129Y-54116684D01*
X199125794Y-54122718D01*
X198974564Y-54152800D01*
X198789436Y-54152800D01*
X198638206Y-54122718D01*
X198607871Y-54116684D01*
X198436838Y-54045840D01*
X198282913Y-53942990D01*
X198152010Y-53812087D01*
X198049160Y-53658162D01*
X197978316Y-53487129D01*
X197952160Y-53355633D01*
X197942200Y-53305564D01*
X197942200Y-53120436D01*
X197970728Y-52977017D01*
X197978316Y-52938871D01*
X198049160Y-52767838D01*
X198152010Y-52613913D01*
X198282913Y-52483010D01*
X198436838Y-52380160D01*
X198607871Y-52309316D01*
X198668393Y-52297277D01*
X198789436Y-52273200D01*
X198974564Y-52273200D01*
X199095607Y-52297277D01*
G37*
G36*
X196555607Y-52297277D02*
G01*
X196616129Y-52309316D01*
X196787162Y-52380160D01*
X196941087Y-52483010D01*
X197071990Y-52613913D01*
X197174840Y-52767838D01*
X197245684Y-52938871D01*
X197253272Y-52977017D01*
X197281800Y-53120436D01*
X197281800Y-53305564D01*
X197271840Y-53355633D01*
X197245684Y-53487129D01*
X197174840Y-53658162D01*
X197071990Y-53812087D01*
X196941087Y-53942990D01*
X196787162Y-54045840D01*
X196616129Y-54116684D01*
X196585794Y-54122718D01*
X196434564Y-54152800D01*
X196249436Y-54152800D01*
X196098206Y-54122718D01*
X196067871Y-54116684D01*
X195896838Y-54045840D01*
X195742913Y-53942990D01*
X195612010Y-53812087D01*
X195509160Y-53658162D01*
X195438316Y-53487129D01*
X195412160Y-53355633D01*
X195402200Y-53305564D01*
X195402200Y-53120436D01*
X195430728Y-52977017D01*
X195438316Y-52938871D01*
X195509160Y-52767838D01*
X195612010Y-52613913D01*
X195742913Y-52483010D01*
X195896838Y-52380160D01*
X196067871Y-52309316D01*
X196128393Y-52297277D01*
X196249436Y-52273200D01*
X196434564Y-52273200D01*
X196555607Y-52297277D01*
G37*
G36*
X194015607Y-52297277D02*
G01*
X194076129Y-52309316D01*
X194247162Y-52380160D01*
X194401087Y-52483010D01*
X194531990Y-52613913D01*
X194634840Y-52767838D01*
X194705684Y-52938871D01*
X194713272Y-52977017D01*
X194741800Y-53120436D01*
X194741800Y-53305564D01*
X194731840Y-53355633D01*
X194705684Y-53487129D01*
X194634840Y-53658162D01*
X194531990Y-53812087D01*
X194401087Y-53942990D01*
X194247162Y-54045840D01*
X194076129Y-54116684D01*
X194045794Y-54122718D01*
X193894564Y-54152800D01*
X193709436Y-54152800D01*
X193558206Y-54122718D01*
X193527871Y-54116684D01*
X193356838Y-54045840D01*
X193202913Y-53942990D01*
X193072010Y-53812087D01*
X192969160Y-53658162D01*
X192898316Y-53487129D01*
X192872160Y-53355633D01*
X192862200Y-53305564D01*
X192862200Y-53120436D01*
X192890728Y-52977017D01*
X192898316Y-52938871D01*
X192969160Y-52767838D01*
X193072010Y-52613913D01*
X193202913Y-52483010D01*
X193356838Y-52380160D01*
X193527871Y-52309316D01*
X193588393Y-52297277D01*
X193709436Y-52273200D01*
X193894564Y-52273200D01*
X194015607Y-52297277D01*
G37*
G36*
X188935607Y-52297277D02*
G01*
X188996129Y-52309316D01*
X189167162Y-52380160D01*
X189321087Y-52483010D01*
X189451990Y-52613913D01*
X189554840Y-52767838D01*
X189625684Y-52938871D01*
X189633272Y-52977017D01*
X189661800Y-53120436D01*
X189661800Y-53305564D01*
X189651840Y-53355633D01*
X189625684Y-53487129D01*
X189554840Y-53658162D01*
X189451990Y-53812087D01*
X189321087Y-53942990D01*
X189167162Y-54045840D01*
X188996129Y-54116684D01*
X188965794Y-54122718D01*
X188814564Y-54152800D01*
X188629436Y-54152800D01*
X188478206Y-54122718D01*
X188447871Y-54116684D01*
X188276838Y-54045840D01*
X188122913Y-53942990D01*
X187992010Y-53812087D01*
X187889160Y-53658162D01*
X187818316Y-53487129D01*
X187792160Y-53355633D01*
X187782200Y-53305564D01*
X187782200Y-53120436D01*
X187810728Y-52977017D01*
X187818316Y-52938871D01*
X187889160Y-52767838D01*
X187992010Y-52613913D01*
X188122913Y-52483010D01*
X188276838Y-52380160D01*
X188447871Y-52309316D01*
X188508393Y-52297277D01*
X188629436Y-52273200D01*
X188814564Y-52273200D01*
X188935607Y-52297277D01*
G37*
G36*
X186395607Y-52297277D02*
G01*
X186456129Y-52309316D01*
X186627162Y-52380160D01*
X186781087Y-52483010D01*
X186911990Y-52613913D01*
X187014840Y-52767838D01*
X187085684Y-52938871D01*
X187093272Y-52977017D01*
X187121800Y-53120436D01*
X187121800Y-53305564D01*
X187111840Y-53355633D01*
X187085684Y-53487129D01*
X187014840Y-53658162D01*
X186911990Y-53812087D01*
X186781087Y-53942990D01*
X186627162Y-54045840D01*
X186456129Y-54116684D01*
X186425794Y-54122718D01*
X186274564Y-54152800D01*
X186089436Y-54152800D01*
X185938206Y-54122718D01*
X185907871Y-54116684D01*
X185736838Y-54045840D01*
X185582913Y-53942990D01*
X185452010Y-53812087D01*
X185349160Y-53658162D01*
X185278316Y-53487129D01*
X185252160Y-53355633D01*
X185242200Y-53305564D01*
X185242200Y-53120436D01*
X185270728Y-52977017D01*
X185278316Y-52938871D01*
X185349160Y-52767838D01*
X185452010Y-52613913D01*
X185582913Y-52483010D01*
X185736838Y-52380160D01*
X185907871Y-52309316D01*
X185968393Y-52297277D01*
X186089436Y-52273200D01*
X186274564Y-52273200D01*
X186395607Y-52297277D01*
G37*
G36*
X204175607Y-52297277D02*
G01*
X204236129Y-52309316D01*
X204407162Y-52380160D01*
X204561087Y-52483010D01*
X204691990Y-52613913D01*
X204794840Y-52767838D01*
X204865684Y-52938871D01*
X204873272Y-52977017D01*
X204901800Y-53120436D01*
X204901800Y-53305564D01*
X204891840Y-53355633D01*
X204865684Y-53487129D01*
X204794840Y-53658162D01*
X204691990Y-53812087D01*
X204561087Y-53942990D01*
X204407162Y-54045840D01*
X204236129Y-54116684D01*
X204205794Y-54122718D01*
X204054564Y-54152800D01*
X203869436Y-54152800D01*
X203718206Y-54122718D01*
X203687871Y-54116684D01*
X203516838Y-54045840D01*
X203362913Y-53942990D01*
X203232010Y-53812087D01*
X203129160Y-53658162D01*
X203058316Y-53487129D01*
X203032160Y-53355633D01*
X203022200Y-53305564D01*
X203022200Y-53120436D01*
X203050728Y-52977017D01*
X203058316Y-52938871D01*
X203129160Y-52767838D01*
X203232010Y-52613913D01*
X203362913Y-52483010D01*
X203516838Y-52380160D01*
X203687871Y-52309316D01*
X203748393Y-52297277D01*
X203869436Y-52273200D01*
X204054564Y-52273200D01*
X204175607Y-52297277D01*
G37*
G36*
X191475607Y-52297277D02*
G01*
X191536129Y-52309316D01*
X191707162Y-52380160D01*
X191861087Y-52483010D01*
X191991990Y-52613913D01*
X192094840Y-52767838D01*
X192165684Y-52938871D01*
X192173272Y-52977017D01*
X192201800Y-53120436D01*
X192201800Y-53305564D01*
X192191840Y-53355633D01*
X192165684Y-53487129D01*
X192094840Y-53658162D01*
X191991990Y-53812087D01*
X191861087Y-53942990D01*
X191707162Y-54045840D01*
X191536129Y-54116684D01*
X191505794Y-54122718D01*
X191354564Y-54152800D01*
X191169436Y-54152800D01*
X191018206Y-54122718D01*
X190987871Y-54116684D01*
X190816838Y-54045840D01*
X190662913Y-53942990D01*
X190532010Y-53812087D01*
X190429160Y-53658162D01*
X190358316Y-53487129D01*
X190332160Y-53355633D01*
X190322200Y-53305564D01*
X190322200Y-53120436D01*
X190350728Y-52977017D01*
X190358316Y-52938871D01*
X190429160Y-52767838D01*
X190532010Y-52613913D01*
X190662913Y-52483010D01*
X190816838Y-52380160D01*
X190987871Y-52309316D01*
X191048393Y-52297277D01*
X191169436Y-52273200D01*
X191354564Y-52273200D01*
X191475607Y-52297277D01*
G37*
G36*
X221074425Y-52594599D02*
G01*
X221198621Y-52619302D01*
X221335022Y-52675801D01*
X221457779Y-52757825D01*
X221562175Y-52862221D01*
X221644199Y-52984978D01*
X221700698Y-53121379D01*
X221729500Y-53266181D01*
X221729500Y-53413819D01*
X221700698Y-53558621D01*
X221644199Y-53695022D01*
X221562175Y-53817779D01*
X221457779Y-53922175D01*
X221335022Y-54004199D01*
X221198621Y-54060698D01*
X221074425Y-54085401D01*
X221053820Y-54089500D01*
X220906180Y-54089500D01*
X220885575Y-54085401D01*
X220761379Y-54060698D01*
X220624978Y-54004199D01*
X220502221Y-53922175D01*
X220397825Y-53817779D01*
X220315801Y-53695022D01*
X220259302Y-53558621D01*
X220230500Y-53413819D01*
X220230500Y-53266181D01*
X220259302Y-53121379D01*
X220315801Y-52984978D01*
X220397825Y-52862221D01*
X220502221Y-52757825D01*
X220624978Y-52675801D01*
X220761379Y-52619302D01*
X220885575Y-52594599D01*
X220906180Y-52590500D01*
X221053820Y-52590500D01*
X221074425Y-52594599D01*
G37*
G36*
X217452174Y-52434715D02*
G01*
X217489867Y-52446149D01*
X217524603Y-52464716D01*
X217555048Y-52489702D01*
X217580034Y-52520147D01*
X217598601Y-52554883D01*
X217610035Y-52592576D01*
X217614500Y-52637911D01*
X217614500Y-53724589D01*
X217610035Y-53769924D01*
X217598601Y-53807617D01*
X217580034Y-53842353D01*
X217555048Y-53872798D01*
X217524603Y-53897784D01*
X217489867Y-53916351D01*
X217452174Y-53927785D01*
X217406839Y-53932250D01*
X216570161Y-53932250D01*
X216524826Y-53927785D01*
X216487133Y-53916351D01*
X216452397Y-53897784D01*
X216421952Y-53872798D01*
X216396966Y-53842353D01*
X216378399Y-53807617D01*
X216366965Y-53769924D01*
X216362500Y-53724589D01*
X216362500Y-52637911D01*
X216366965Y-52592576D01*
X216378399Y-52554883D01*
X216396966Y-52520147D01*
X216421952Y-52489702D01*
X216452397Y-52464716D01*
X216487133Y-52446149D01*
X216524826Y-52434715D01*
X216570161Y-52430250D01*
X217406839Y-52430250D01*
X217452174Y-52434715D01*
G37*
G36*
X215402174Y-52434715D02*
G01*
X215439867Y-52446149D01*
X215474603Y-52464716D01*
X215505048Y-52489702D01*
X215530034Y-52520147D01*
X215548601Y-52554883D01*
X215560035Y-52592576D01*
X215564500Y-52637911D01*
X215564500Y-53724589D01*
X215560035Y-53769924D01*
X215548601Y-53807617D01*
X215530034Y-53842353D01*
X215505048Y-53872798D01*
X215474603Y-53897784D01*
X215439867Y-53916351D01*
X215402174Y-53927785D01*
X215356839Y-53932250D01*
X214520161Y-53932250D01*
X214474826Y-53927785D01*
X214437133Y-53916351D01*
X214402397Y-53897784D01*
X214371952Y-53872798D01*
X214346966Y-53842353D01*
X214328399Y-53807617D01*
X214316965Y-53769924D01*
X214312500Y-53724589D01*
X214312500Y-52637911D01*
X214316965Y-52592576D01*
X214328399Y-52554883D01*
X214346966Y-52520147D01*
X214371952Y-52489702D01*
X214402397Y-52464716D01*
X214437133Y-52446149D01*
X214474826Y-52434715D01*
X214520161Y-52430250D01*
X215356839Y-52430250D01*
X215402174Y-52434715D01*
G37*
G36*
X211433424Y-52434715D02*
G01*
X211471117Y-52446149D01*
X211505853Y-52464716D01*
X211536298Y-52489702D01*
X211561284Y-52520147D01*
X211579851Y-52554883D01*
X211591285Y-52592576D01*
X211595750Y-52637911D01*
X211595750Y-53724589D01*
X211591285Y-53769924D01*
X211579851Y-53807617D01*
X211561284Y-53842353D01*
X211536298Y-53872798D01*
X211505853Y-53897784D01*
X211471117Y-53916351D01*
X211433424Y-53927785D01*
X211388089Y-53932250D01*
X210551411Y-53932250D01*
X210506076Y-53927785D01*
X210468383Y-53916351D01*
X210433647Y-53897784D01*
X210403202Y-53872798D01*
X210378216Y-53842353D01*
X210359649Y-53807617D01*
X210348215Y-53769924D01*
X210343750Y-53724589D01*
X210343750Y-52637911D01*
X210348215Y-52592576D01*
X210359649Y-52554883D01*
X210378216Y-52520147D01*
X210403202Y-52489702D01*
X210433647Y-52464716D01*
X210468383Y-52446149D01*
X210506076Y-52434715D01*
X210551411Y-52430250D01*
X211388089Y-52430250D01*
X211433424Y-52434715D01*
G37*
G36*
X213483424Y-52434715D02*
G01*
X213521117Y-52446149D01*
X213555853Y-52464716D01*
X213586298Y-52489702D01*
X213611284Y-52520147D01*
X213629851Y-52554883D01*
X213641285Y-52592576D01*
X213645750Y-52637911D01*
X213645750Y-53724589D01*
X213641285Y-53769924D01*
X213629851Y-53807617D01*
X213611284Y-53842353D01*
X213586298Y-53872798D01*
X213555853Y-53897784D01*
X213521117Y-53916351D01*
X213483424Y-53927785D01*
X213438089Y-53932250D01*
X212601411Y-53932250D01*
X212556076Y-53927785D01*
X212518383Y-53916351D01*
X212483647Y-53897784D01*
X212453202Y-53872798D01*
X212428216Y-53842353D01*
X212409649Y-53807617D01*
X212398215Y-53769924D01*
X212393750Y-53724589D01*
X212393750Y-52637911D01*
X212398215Y-52592576D01*
X212409649Y-52554883D01*
X212428216Y-52520147D01*
X212453202Y-52489702D01*
X212483647Y-52464716D01*
X212518383Y-52446149D01*
X212556076Y-52434715D01*
X212601411Y-52430250D01*
X213438089Y-52430250D01*
X213483424Y-52434715D01*
G37*
G36*
X107765468Y-52339565D02*
G01*
X107804138Y-52351296D01*
X107839777Y-52370346D01*
X107871017Y-52395983D01*
X107896654Y-52427223D01*
X107915704Y-52462862D01*
X107927435Y-52501532D01*
X107932000Y-52547888D01*
X107932000Y-53624112D01*
X107927435Y-53670468D01*
X107915704Y-53709138D01*
X107896654Y-53744777D01*
X107871017Y-53776017D01*
X107839777Y-53801654D01*
X107804138Y-53820704D01*
X107765468Y-53832435D01*
X107719112Y-53837000D01*
X107067888Y-53837000D01*
X107021532Y-53832435D01*
X106982862Y-53820704D01*
X106947223Y-53801654D01*
X106915983Y-53776017D01*
X106890346Y-53744777D01*
X106871296Y-53709138D01*
X106859565Y-53670468D01*
X106855000Y-53624112D01*
X106855000Y-52547888D01*
X106859565Y-52501532D01*
X106871296Y-52462862D01*
X106890346Y-52427223D01*
X106915983Y-52395983D01*
X106947223Y-52370346D01*
X106982862Y-52351296D01*
X107021532Y-52339565D01*
X107067888Y-52335000D01*
X107719112Y-52335000D01*
X107765468Y-52339565D01*
G37*
G36*
X109640468Y-52339565D02*
G01*
X109679138Y-52351296D01*
X109714777Y-52370346D01*
X109746017Y-52395983D01*
X109771654Y-52427223D01*
X109790704Y-52462862D01*
X109802435Y-52501532D01*
X109807000Y-52547888D01*
X109807000Y-53624112D01*
X109802435Y-53670468D01*
X109790704Y-53709138D01*
X109771654Y-53744777D01*
X109746017Y-53776017D01*
X109714777Y-53801654D01*
X109679138Y-53820704D01*
X109640468Y-53832435D01*
X109594112Y-53837000D01*
X108942888Y-53837000D01*
X108896532Y-53832435D01*
X108857862Y-53820704D01*
X108822223Y-53801654D01*
X108790983Y-53776017D01*
X108765346Y-53744777D01*
X108746296Y-53709138D01*
X108734565Y-53670468D01*
X108730000Y-53624112D01*
X108730000Y-52547888D01*
X108734565Y-52501532D01*
X108746296Y-52462862D01*
X108765346Y-52427223D01*
X108790983Y-52395983D01*
X108822223Y-52370346D01*
X108857862Y-52351296D01*
X108896532Y-52339565D01*
X108942888Y-52335000D01*
X109594112Y-52335000D01*
X109640468Y-52339565D01*
G37*
G36*
X115904674Y-52328465D02*
G01*
X115942367Y-52339899D01*
X115977103Y-52358466D01*
X116007548Y-52383452D01*
X116032534Y-52413897D01*
X116051101Y-52448633D01*
X116062535Y-52486326D01*
X116067000Y-52531661D01*
X116067000Y-53368339D01*
X116062535Y-53413674D01*
X116051101Y-53451367D01*
X116032534Y-53486103D01*
X116007548Y-53516548D01*
X115977103Y-53541534D01*
X115942367Y-53560101D01*
X115904674Y-53571535D01*
X115859339Y-53576000D01*
X114772661Y-53576000D01*
X114727326Y-53571535D01*
X114689633Y-53560101D01*
X114654897Y-53541534D01*
X114624452Y-53516548D01*
X114599466Y-53486103D01*
X114580899Y-53451367D01*
X114569465Y-53413674D01*
X114565000Y-53368339D01*
X114565000Y-52531661D01*
X114569465Y-52486326D01*
X114580899Y-52448633D01*
X114599466Y-52413897D01*
X114624452Y-52383452D01*
X114654897Y-52358466D01*
X114689633Y-52339899D01*
X114727326Y-52328465D01*
X114772661Y-52324000D01*
X115859339Y-52324000D01*
X115904674Y-52328465D01*
G37*
G36*
X113467000Y-53456000D02*
G01*
X110815000Y-53456000D01*
X110815000Y-52294000D01*
X113467000Y-52294000D01*
X113467000Y-53456000D01*
G37*
G36*
X96096766Y-51879899D02*
G01*
X96228888Y-51934626D01*
X96228890Y-51934627D01*
X96347798Y-52014079D01*
X96448921Y-52115202D01*
X96528373Y-52234110D01*
X96528374Y-52234112D01*
X96583101Y-52366234D01*
X96611000Y-52506494D01*
X96611000Y-52649506D01*
X96583101Y-52789766D01*
X96549126Y-52871788D01*
X96528373Y-52921890D01*
X96448921Y-53040798D01*
X96347798Y-53141921D01*
X96228890Y-53221373D01*
X96228889Y-53221374D01*
X96228888Y-53221374D01*
X96096766Y-53276101D01*
X95956506Y-53304000D01*
X95813494Y-53304000D01*
X95673234Y-53276101D01*
X95541112Y-53221374D01*
X95541111Y-53221374D01*
X95541110Y-53221373D01*
X95422202Y-53141921D01*
X95321079Y-53040798D01*
X95241627Y-52921890D01*
X95220874Y-52871788D01*
X95186899Y-52789766D01*
X95159000Y-52649506D01*
X95159000Y-52506494D01*
X95186899Y-52366234D01*
X95241626Y-52234112D01*
X95241627Y-52234110D01*
X95321079Y-52115202D01*
X95422202Y-52014079D01*
X95541110Y-51934627D01*
X95541112Y-51934626D01*
X95673234Y-51879899D01*
X95813494Y-51852000D01*
X95956506Y-51852000D01*
X96096766Y-51879899D01*
G37*
G36*
X94096766Y-51879899D02*
G01*
X94228888Y-51934626D01*
X94228890Y-51934627D01*
X94347798Y-52014079D01*
X94448921Y-52115202D01*
X94528373Y-52234110D01*
X94528374Y-52234112D01*
X94583101Y-52366234D01*
X94611000Y-52506494D01*
X94611000Y-52649506D01*
X94583101Y-52789766D01*
X94549126Y-52871788D01*
X94528373Y-52921890D01*
X94448921Y-53040798D01*
X94347798Y-53141921D01*
X94228890Y-53221373D01*
X94228889Y-53221374D01*
X94228888Y-53221374D01*
X94096766Y-53276101D01*
X93956506Y-53304000D01*
X93813494Y-53304000D01*
X93673234Y-53276101D01*
X93541112Y-53221374D01*
X93541111Y-53221374D01*
X93541110Y-53221373D01*
X93422202Y-53141921D01*
X93321079Y-53040798D01*
X93241627Y-52921890D01*
X93220874Y-52871788D01*
X93186899Y-52789766D01*
X93159000Y-52649506D01*
X93159000Y-52506494D01*
X93186899Y-52366234D01*
X93241626Y-52234112D01*
X93241627Y-52234110D01*
X93321079Y-52115202D01*
X93422202Y-52014079D01*
X93541110Y-51934627D01*
X93541112Y-51934626D01*
X93673234Y-51879899D01*
X93813494Y-51852000D01*
X93956506Y-51852000D01*
X94096766Y-51879899D01*
G37*
G36*
X129489468Y-51965565D02*
G01*
X129528138Y-51977296D01*
X129563777Y-51996346D01*
X129595017Y-52021983D01*
X129620654Y-52053223D01*
X129639704Y-52088862D01*
X129651435Y-52127532D01*
X129656000Y-52173888D01*
X129656000Y-52825112D01*
X129651435Y-52871468D01*
X129639704Y-52910138D01*
X129620654Y-52945777D01*
X129595017Y-52977017D01*
X129563777Y-53002654D01*
X129528138Y-53021704D01*
X129489468Y-53033435D01*
X129443112Y-53038000D01*
X128366888Y-53038000D01*
X128320532Y-53033435D01*
X128281862Y-53021704D01*
X128246223Y-53002654D01*
X128214983Y-52977017D01*
X128189346Y-52945777D01*
X128170296Y-52910138D01*
X128158565Y-52871468D01*
X128154000Y-52825112D01*
X128154000Y-52173888D01*
X128158565Y-52127532D01*
X128170296Y-52088862D01*
X128189346Y-52053223D01*
X128214983Y-52021983D01*
X128246223Y-51996346D01*
X128281862Y-51977296D01*
X128320532Y-51965565D01*
X128366888Y-51961000D01*
X129443112Y-51961000D01*
X129489468Y-51965565D01*
G37*
G36*
X84281674Y-51185465D02*
G01*
X84319367Y-51196899D01*
X84354103Y-51215466D01*
X84384548Y-51240452D01*
X84409534Y-51270897D01*
X84428101Y-51305633D01*
X84439535Y-51343326D01*
X84444000Y-51388661D01*
X84444000Y-52225339D01*
X84439535Y-52270674D01*
X84428101Y-52308367D01*
X84409534Y-52343103D01*
X84384548Y-52373548D01*
X84354103Y-52398534D01*
X84319367Y-52417101D01*
X84281674Y-52428535D01*
X84236339Y-52433000D01*
X83149661Y-52433000D01*
X83104326Y-52428535D01*
X83066633Y-52417101D01*
X83031897Y-52398534D01*
X83001452Y-52373548D01*
X82976466Y-52343103D01*
X82957899Y-52308367D01*
X82946465Y-52270674D01*
X82942000Y-52225339D01*
X82942000Y-51388661D01*
X82946465Y-51343326D01*
X82957899Y-51305633D01*
X82976466Y-51270897D01*
X83001452Y-51240452D01*
X83031897Y-51215466D01*
X83066633Y-51196899D01*
X83104326Y-51185465D01*
X83149661Y-51181000D01*
X84236339Y-51181000D01*
X84281674Y-51185465D01*
G37*
G36*
X81741674Y-51185465D02*
G01*
X81779367Y-51196899D01*
X81814103Y-51215466D01*
X81844548Y-51240452D01*
X81869534Y-51270897D01*
X81888101Y-51305633D01*
X81899535Y-51343326D01*
X81904000Y-51388661D01*
X81904000Y-52225339D01*
X81899535Y-52270674D01*
X81888101Y-52308367D01*
X81869534Y-52343103D01*
X81844548Y-52373548D01*
X81814103Y-52398534D01*
X81779367Y-52417101D01*
X81741674Y-52428535D01*
X81696339Y-52433000D01*
X80609661Y-52433000D01*
X80564326Y-52428535D01*
X80526633Y-52417101D01*
X80491897Y-52398534D01*
X80461452Y-52373548D01*
X80436466Y-52343103D01*
X80417899Y-52308367D01*
X80406465Y-52270674D01*
X80402000Y-52225339D01*
X80402000Y-51388661D01*
X80406465Y-51343326D01*
X80417899Y-51305633D01*
X80436466Y-51270897D01*
X80461452Y-51240452D01*
X80491897Y-51215466D01*
X80526633Y-51196899D01*
X80564326Y-51185465D01*
X80609661Y-51181000D01*
X81696339Y-51181000D01*
X81741674Y-51185465D01*
G37*
G36*
X133800468Y-50053565D02*
G01*
X133839138Y-50065296D01*
X133874777Y-50084346D01*
X133906017Y-50109983D01*
X133931654Y-50141223D01*
X133950704Y-50176862D01*
X133962435Y-50215532D01*
X133967000Y-50261888D01*
X133967000Y-51338112D01*
X133962435Y-51384468D01*
X133950704Y-51423138D01*
X133931654Y-51458777D01*
X133906017Y-51490017D01*
X133874777Y-51515654D01*
X133839138Y-51534704D01*
X133800468Y-51546435D01*
X133754112Y-51551000D01*
X133102888Y-51551000D01*
X133056532Y-51546435D01*
X133017862Y-51534704D01*
X132982223Y-51515654D01*
X132950983Y-51490017D01*
X132925346Y-51458777D01*
X132906296Y-51423138D01*
X132894565Y-51384468D01*
X132890000Y-51338112D01*
X132890000Y-50261888D01*
X132894565Y-50215532D01*
X132906296Y-50176862D01*
X132925346Y-50141223D01*
X132950983Y-50109983D01*
X132982223Y-50084346D01*
X133017862Y-50065296D01*
X133056532Y-50053565D01*
X133102888Y-50049000D01*
X133754112Y-50049000D01*
X133800468Y-50053565D01*
G37*
G36*
X135675468Y-50053565D02*
G01*
X135714138Y-50065296D01*
X135749777Y-50084346D01*
X135781017Y-50109983D01*
X135806654Y-50141223D01*
X135825704Y-50176862D01*
X135837435Y-50215532D01*
X135842000Y-50261888D01*
X135842000Y-51338112D01*
X135837435Y-51384468D01*
X135825704Y-51423138D01*
X135806654Y-51458777D01*
X135781017Y-51490017D01*
X135749777Y-51515654D01*
X135714138Y-51534704D01*
X135675468Y-51546435D01*
X135629112Y-51551000D01*
X134977888Y-51551000D01*
X134931532Y-51546435D01*
X134892862Y-51534704D01*
X134857223Y-51515654D01*
X134825983Y-51490017D01*
X134800346Y-51458777D01*
X134781296Y-51423138D01*
X134769565Y-51384468D01*
X134765000Y-51338112D01*
X134765000Y-50261888D01*
X134769565Y-50215532D01*
X134781296Y-50176862D01*
X134800346Y-50141223D01*
X134825983Y-50109983D01*
X134857223Y-50084346D01*
X134892862Y-50065296D01*
X134931532Y-50053565D01*
X134977888Y-50049000D01*
X135629112Y-50049000D01*
X135675468Y-50053565D01*
G37*
G36*
X129489468Y-50090565D02*
G01*
X129528138Y-50102296D01*
X129563777Y-50121346D01*
X129595017Y-50146983D01*
X129620654Y-50178223D01*
X129639704Y-50213862D01*
X129651435Y-50252532D01*
X129656000Y-50298888D01*
X129656000Y-50950112D01*
X129651435Y-50996468D01*
X129639704Y-51035138D01*
X129620654Y-51070777D01*
X129595017Y-51102017D01*
X129563777Y-51127654D01*
X129528138Y-51146704D01*
X129489468Y-51158435D01*
X129443112Y-51163000D01*
X128366888Y-51163000D01*
X128320532Y-51158435D01*
X128281862Y-51146704D01*
X128246223Y-51127654D01*
X128214983Y-51102017D01*
X128189346Y-51070777D01*
X128170296Y-51035138D01*
X128158565Y-50996468D01*
X128154000Y-50950112D01*
X128154000Y-50298888D01*
X128158565Y-50252532D01*
X128170296Y-50213862D01*
X128189346Y-50178223D01*
X128214983Y-50146983D01*
X128246223Y-50121346D01*
X128281862Y-50102296D01*
X128320532Y-50090565D01*
X128366888Y-50086000D01*
X129443112Y-50086000D01*
X129489468Y-50090565D01*
G37*
G36*
X149996250Y-50623750D02*
G01*
X141344250Y-50623750D01*
X141344250Y-49021750D01*
X149996250Y-49021750D01*
X149996250Y-50623750D01*
G37*
G36*
X77346142Y-46854781D02*
G01*
X77491914Y-46915162D01*
X77491916Y-46915163D01*
X77623108Y-47002822D01*
X77734678Y-47114392D01*
X77822337Y-47245584D01*
X77822338Y-47245586D01*
X77882719Y-47391358D01*
X77913500Y-47546107D01*
X77913500Y-47703893D01*
X77882719Y-47858642D01*
X77822338Y-48004414D01*
X77822337Y-48004416D01*
X77734678Y-48135608D01*
X77623108Y-48247178D01*
X77491916Y-48334837D01*
X77491915Y-48334838D01*
X77491914Y-48334838D01*
X77346142Y-48395219D01*
X77191393Y-48426000D01*
X77033607Y-48426000D01*
X76878858Y-48395219D01*
X76733086Y-48334838D01*
X76733085Y-48334838D01*
X76733084Y-48334837D01*
X76601892Y-48247178D01*
X76490322Y-48135608D01*
X76402663Y-48004416D01*
X76402662Y-48004414D01*
X76342281Y-47858642D01*
X76311500Y-47703893D01*
X76311500Y-47546107D01*
X76342281Y-47391358D01*
X76402662Y-47245586D01*
X76402663Y-47245584D01*
X76490322Y-47114392D01*
X76601892Y-47002822D01*
X76733084Y-46915163D01*
X76733086Y-46915162D01*
X76878858Y-46854781D01*
X77033607Y-46824000D01*
X77191393Y-46824000D01*
X77346142Y-46854781D01*
G37*
G36*
X74846142Y-46854781D02*
G01*
X74991914Y-46915162D01*
X74991916Y-46915163D01*
X75123108Y-47002822D01*
X75234678Y-47114392D01*
X75322337Y-47245584D01*
X75322338Y-47245586D01*
X75382719Y-47391358D01*
X75413500Y-47546107D01*
X75413500Y-47703893D01*
X75382719Y-47858642D01*
X75322338Y-48004414D01*
X75322337Y-48004416D01*
X75234678Y-48135608D01*
X75123108Y-48247178D01*
X74991916Y-48334837D01*
X74991915Y-48334838D01*
X74991914Y-48334838D01*
X74846142Y-48395219D01*
X74691393Y-48426000D01*
X74533607Y-48426000D01*
X74378858Y-48395219D01*
X74233086Y-48334838D01*
X74233085Y-48334838D01*
X74233084Y-48334837D01*
X74101892Y-48247178D01*
X73990322Y-48135608D01*
X73902663Y-48004416D01*
X73902662Y-48004414D01*
X73842281Y-47858642D01*
X73811500Y-47703893D01*
X73811500Y-47546107D01*
X73842281Y-47391358D01*
X73902662Y-47245586D01*
X73902663Y-47245584D01*
X73990322Y-47114392D01*
X74101892Y-47002822D01*
X74233084Y-46915163D01*
X74233086Y-46915162D01*
X74378858Y-46854781D01*
X74533607Y-46824000D01*
X74691393Y-46824000D01*
X74846142Y-46854781D01*
G37*
G36*
X72346142Y-46854781D02*
G01*
X72491914Y-46915162D01*
X72491916Y-46915163D01*
X72623108Y-47002822D01*
X72734678Y-47114392D01*
X72822337Y-47245584D01*
X72822338Y-47245586D01*
X72882719Y-47391358D01*
X72913500Y-47546107D01*
X72913500Y-47703893D01*
X72882719Y-47858642D01*
X72822338Y-48004414D01*
X72822337Y-48004416D01*
X72734678Y-48135608D01*
X72623108Y-48247178D01*
X72491916Y-48334837D01*
X72491915Y-48334838D01*
X72491914Y-48334838D01*
X72346142Y-48395219D01*
X72191393Y-48426000D01*
X72033607Y-48426000D01*
X71878858Y-48395219D01*
X71733086Y-48334838D01*
X71733085Y-48334838D01*
X71733084Y-48334837D01*
X71601892Y-48247178D01*
X71490322Y-48135608D01*
X71402663Y-48004416D01*
X71402662Y-48004414D01*
X71342281Y-47858642D01*
X71311500Y-47703893D01*
X71311500Y-47546107D01*
X71342281Y-47391358D01*
X71402662Y-47245586D01*
X71402663Y-47245584D01*
X71490322Y-47114392D01*
X71601892Y-47002822D01*
X71733084Y-46915163D01*
X71733086Y-46915162D01*
X71878858Y-46854781D01*
X72033607Y-46824000D01*
X72191393Y-46824000D01*
X72346142Y-46854781D01*
G37*
M02*
