M48
; DRILL file {KiCad (5.1.5)-3} date 6/8/2020 9:05:14 PM
; FORMAT={-:-/ absolute / inch / decimal}
; #@! TF.CreationDate,2020-06-08T21:05:14-04:00
; #@! TF.GenerationSoftware,Kicad,Pcbnew,(5.1.5)-3
; #@! TF.FileFunction,Plated,1,2,PTH
FMAT,2
INCH
T1C0.0157
T2C0.0320
T3C0.0335
T4C0.0394
T5C0.0579
T6C0.0984
%
G90
G05
T1
X4.16Y-2.17
X4.455Y-2.02
X4.61Y-2.065
X4.9Y-2.065
X4.9Y-2.34
X5.075Y-1.94
X5.14Y-2.155
X5.195Y-2.34
X5.405Y-2.315
X5.405Y-2.48
X5.44Y-2.06
X5.445Y-2.315
X5.445Y-2.505
X5.51Y-1.96
X5.51Y-2.415
X5.51Y-2.505
X5.585Y-2.1226
X5.585Y-2.215
X5.585Y-2.2544
X5.6006Y-2.03
X5.64Y-2.03
X5.64Y-2.53
X5.735Y-2.0289
X5.735Y-2.475
X5.775Y-2.0289
X5.78Y-2.115
X5.88Y-2.16
X6.05Y-2.095
X7.2Y-2.015
X7.455Y-2.215
X7.455Y-2.255
X7.475Y-1.945
X7.85Y-2.3
X7.85Y-2.3406
X7.85Y-2.38
X7.85Y-2.42
X8.305Y-2.0
X8.54Y-2.015
X8.615Y-2.1
X8.615Y-2.29
T2
X8.7Y-2.1
X8.7Y-2.2
X8.7Y-2.3
X8.7Y-2.4
X3.1578Y-2.225
X3.2169Y-2.225
X3.2759Y-2.225
X3.335Y-2.225
X3.6963Y-2.07
X3.775Y-2.07
T3
X2.8391Y-1.875
X2.9375Y-1.875
X3.0359Y-1.875
T4
X7.23Y-2.095
X7.33Y-2.095
X7.43Y-2.095
X7.53Y-2.095
X7.63Y-2.095
X7.73Y-2.095
X7.83Y-2.095
X7.93Y-2.095
X8.03Y-2.095
T5
X8.225Y-3.525
X8.475Y-3.425
X6.725Y-3.525
X6.975Y-3.425
X9.6312Y-5.025
X9.8812Y-4.925
X2.225Y-2.775
X2.475Y-2.675
X3.725Y-2.775
X3.975Y-2.675
X9.725Y-3.525
X9.975Y-3.425
X7.475Y-3.525
X7.725Y-3.425
X8.975Y-4.275
X9.225Y-4.175
X9.725Y-4.275
X9.975Y-4.175
X4.475Y-2.775
X4.725Y-2.675
X6.6312Y-5.025
X6.8812Y-4.925
X4.475Y-3.525
X4.725Y-3.425
X8.975Y-3.525
X9.225Y-3.425
X1.5687Y-5.025
X1.8187Y-4.925
X5.975Y-2.775
X6.225Y-2.675
X8.225Y-2.775
X8.475Y-2.675
X3.725Y-4.275
X3.975Y-4.175
X3.8188Y-5.025
X4.0687Y-4.925
X1.475Y-3.525
X1.725Y-3.425
X1.475Y-4.275
X1.725Y-4.175
X8.7875Y-5.025
X9.0375Y-4.925
X7.475Y-4.275
X7.725Y-4.175
X6.725Y-2.775
X6.975Y-2.675
X9.725Y-2.775
X9.975Y-2.675
X5.225Y-4.275
X5.475Y-4.175
X5.225Y-3.525
X5.475Y-3.425
X2.975Y-4.275
X3.225Y-4.175
X5.975Y-4.275
X6.225Y-4.175
X5.1312Y-5.025
X5.3812Y-4.925
X2.975Y-2.775
X3.225Y-2.675
X8.0375Y-5.025
X8.2875Y-4.925
X1.475Y-2.775
X1.725Y-2.675
X2.5063Y-5.025
X2.7563Y-4.925
X3.725Y-3.525
X3.975Y-3.425
X2.225Y-3.525
X2.475Y-3.425
X2.225Y-4.275
X2.475Y-4.175
X6.725Y-4.275
X6.975Y-4.175
X8.975Y-2.775
X9.225Y-2.675
X7.475Y-2.775
X7.725Y-2.675
X5.975Y-3.525
X6.225Y-3.425
X2.975Y-3.525
X3.225Y-3.425
X4.475Y-4.275
X4.725Y-4.175
X8.225Y-4.275
X8.475Y-4.175
X5.225Y-2.775
X5.475Y-2.675
T6
X7.98Y-2.895
X7.28Y-2.895
T0
M30
